%TF.GenerationSoftware,KiCad,Pcbnew,9.0.6*%
%TF.CreationDate,2026-02-05T22:19:04+05:30*%
%TF.ProjectId,Vitalung_V0.1,56697461-6c75-46e6-975f-56302e312e6b,0.1*%
%TF.SameCoordinates,PX7057c40PY68e7780*%
%TF.FileFunction,Copper,L2,Bot*%
%TF.FilePolarity,Positive*%
%FSLAX46Y46*%
G04 Gerber Fmt 4.6, Leading zero omitted, Abs format (unit mm)*
G04 Created by KiCad (PCBNEW 9.0.6) date 2026-02-05 22:19:04*
%MOMM*%
%LPD*%
G01*
G04 APERTURE LIST*
%TA.AperFunction,ComponentPad*%
%ADD10O,2.200000X3.500000*%
%TD*%
%TA.AperFunction,ComponentPad*%
%ADD11R,1.500000X2.500000*%
%TD*%
%TA.AperFunction,ComponentPad*%
%ADD12O,1.500000X2.500000*%
%TD*%
%TA.AperFunction,ComponentPad*%
%ADD13R,1.700000X1.700000*%
%TD*%
%TA.AperFunction,ComponentPad*%
%ADD14C,1.700000*%
%TD*%
%TA.AperFunction,ComponentPad*%
%ADD15R,1.800000X1.800000*%
%TD*%
%TA.AperFunction,ComponentPad*%
%ADD16C,1.800000*%
%TD*%
%TA.AperFunction,ComponentPad*%
%ADD17R,3.500000X3.500000*%
%TD*%
%TA.AperFunction,ComponentPad*%
%ADD18C,3.500000*%
%TD*%
%TA.AperFunction,ViaPad*%
%ADD19C,0.700000*%
%TD*%
%TA.AperFunction,Conductor*%
%ADD20C,0.800000*%
%TD*%
%TA.AperFunction,Conductor*%
%ADD21C,0.500000*%
%TD*%
%TA.AperFunction,Conductor*%
%ADD22C,0.300000*%
%TD*%
%TA.AperFunction,Conductor*%
%ADD23C,0.400000*%
%TD*%
G04 APERTURE END LIST*
D10*
%TO.P,SW1,*%
%TO.N,*%
X44100000Y30500000D03*
X35900000Y30500000D03*
D11*
%TO.P,SW1,1,A*%
%TO.N,Net-(SW1-A)*%
X42000000Y30500000D03*
D12*
%TO.P,SW1,2,B*%
%TO.N,+BATT*%
X40000000Y30500000D03*
%TO.P,SW1,3,C*%
%TO.N,unconnected-(SW1-C-Pad3)*%
X38000000Y30500000D03*
%TD*%
D13*
%TO.P,J1,1,Pin_1*%
%TO.N,Net-(J1-Pin_1)*%
X33650000Y4000000D03*
D14*
%TO.P,J1,2,Pin_2*%
%TO.N,+5V*%
X36190000Y4000000D03*
%TO.P,J1,3,Pin_3*%
%TO.N,SCL*%
X38730000Y4000000D03*
%TO.P,J1,4,Pin_4*%
%TO.N,GND*%
X41270000Y4000000D03*
%TO.P,J1,5,Pin_5*%
%TO.N,SDA*%
X43810000Y4000000D03*
%TO.P,J1,6,Pin_6*%
%TO.N,+5V*%
X46350000Y4000000D03*
%TD*%
D15*
%TO.P,D2,1,K*%
%TO.N,GND*%
X70000000Y29000000D03*
D16*
%TO.P,D2,2,A*%
%TO.N,Net-(D2-A)*%
X72540000Y29000000D03*
%TD*%
D15*
%TO.P,D1,1,K1*%
%TO.N,/Red*%
X29500000Y29000000D03*
D16*
%TO.P,D1,2,A*%
%TO.N,Net-(D1-A)*%
X26960000Y29000000D03*
%TO.P,D1,3,K2*%
%TO.N,/Green*%
X24420000Y29000000D03*
%TD*%
D17*
%TO.P,BT1,1,+*%
%TO.N,+BATT*%
X4075000Y16040000D03*
D18*
%TO.P,BT1,2,-*%
%TO.N,Net-(BT1--)*%
X76075000Y16040000D03*
%TD*%
D19*
%TO.N,+BATT*%
X14700000Y22100000D03*
%TO.N,Net-(BT1--)*%
X10600000Y11500000D03*
X5600000Y11500000D03*
%TO.N,GND*%
X19700000Y16500000D03*
X17300000Y9100000D03*
X66200000Y5800000D03*
X43200000Y13700000D03*
X17300000Y10100000D03*
X8100000Y19200000D03*
X43900000Y19500000D03*
X17700000Y14700000D03*
X6100000Y6700000D03*
X43200000Y12800000D03*
X11200000Y19300000D03*
X66900000Y27700000D03*
X24200000Y8400000D03*
X79200000Y7200000D03*
X6100000Y7500000D03*
X69000000Y6700000D03*
X11200000Y20200000D03*
X42900000Y19500000D03*
X7300000Y6400000D03*
X8100000Y20200000D03*
X67900000Y27700000D03*
X79200000Y6200000D03*
X19200000Y19700000D03*
X66200000Y6700000D03*
X5500000Y9500000D03*
X5600000Y10200000D03*
X35700000Y14100000D03*
X14700000Y14700000D03*
X33400000Y14000000D03*
X69000000Y5800000D03*
X34500000Y13900000D03*
X25300000Y9800000D03*
%TO.N,VBUS*%
X66800000Y30711750D03*
X26000000Y25699000D03*
X22500000Y15000000D03*
X21700000Y19500000D03*
%TO.N,VREG*%
X14900000Y18400000D03*
X16800000Y13600000D03*
%TO.N,+5V*%
X76375000Y8225000D03*
%TO.N,+3V3*%
X43700000Y17100000D03*
X69719046Y18919046D03*
%TO.N,Heater_En*%
X45000000Y10300000D03*
X30200000Y10300000D03*
%TO.N,Net-(U3-CS)*%
X18000000Y13400000D03*
X12500000Y12800000D03*
%TO.N,Net-(U3-PWR_ON-)*%
X19300000Y24400000D03*
X20100000Y19500000D03*
%TO.N,/Green*%
X24200000Y24200000D03*
X19100000Y13300000D03*
%TO.N,/Red*%
X20200000Y13300000D03*
X29500000Y24300000D03*
%TO.N,Net-(U1-PA10_A2_D2)*%
X46600000Y23800000D03*
X69200000Y24300000D03*
%TD*%
D20*
%TO.N,+BATT*%
X40000000Y28500000D02*
X40000000Y30500000D01*
X17900000Y27300000D02*
X38800000Y27300000D01*
X14700000Y24100000D02*
X17900000Y27300000D01*
X14700000Y22100000D02*
X14700000Y24100000D01*
X38800000Y27300000D02*
X40000000Y28500000D01*
%TO.N,Net-(BT1--)*%
X10600000Y11500000D02*
X71600000Y11500000D01*
X71600000Y11500000D02*
X76075000Y15975000D01*
X76075000Y15975000D02*
X76075000Y16040000D01*
X5600000Y11500000D02*
X10600000Y11500000D01*
D21*
%TO.N,VBUS*%
X22950000Y24450000D02*
X21700000Y23200000D01*
X21700000Y15800000D02*
X22500000Y15000000D01*
X26000000Y25699000D02*
X60699000Y25699000D01*
X65711750Y30711750D02*
X66800000Y30711750D01*
X60699000Y25699000D02*
X65711750Y30711750D01*
X24199000Y25699000D02*
X26000000Y25699000D01*
X21700000Y23200000D02*
X21700000Y19500000D01*
X22950000Y24450000D02*
X24199000Y25699000D01*
X21700000Y19500000D02*
X21700000Y15800000D01*
D22*
%TO.N,VREG*%
X16800000Y16500000D02*
X14900000Y18400000D01*
X16800000Y13600000D02*
X16800000Y16500000D01*
D20*
%TO.N,+5V*%
X48900000Y8000000D02*
X46600000Y8000000D01*
X36190000Y4000000D02*
X36190000Y5890000D01*
X38300000Y8000000D02*
X48900000Y8000000D01*
X76150000Y8000000D02*
X48900000Y8000000D01*
X76375000Y8225000D02*
X76150000Y8000000D01*
X36190000Y5890000D02*
X38300000Y8000000D01*
X46350000Y7750000D02*
X46350000Y4000000D01*
X46600000Y8000000D02*
X46350000Y7750000D01*
D23*
%TO.N,+3V3*%
X44700000Y18900000D02*
X69700000Y18900000D01*
X43700000Y17100000D02*
X43700000Y17900000D01*
X69700000Y18900000D02*
X69719046Y18919046D01*
X43700000Y17900000D02*
X44700000Y18900000D01*
%TO.N,Heater_En*%
X45000000Y10300000D02*
X30200000Y10300000D01*
D22*
%TO.N,Net-(U3-CS)*%
X17069654Y12449000D02*
X12851000Y12449000D01*
X12851000Y12449000D02*
X12500000Y12800000D01*
X18000000Y13400000D02*
X18000000Y13379346D01*
X18000000Y13379346D02*
X17069654Y12449000D01*
%TO.N,Net-(U3-PWR_ON-)*%
X19300000Y23000000D02*
X20100000Y22200000D01*
X20100000Y22200000D02*
X20100000Y19500000D01*
X19300000Y24400000D02*
X19300000Y23000000D01*
%TO.N,/Green*%
X24200000Y15000000D02*
X24200000Y24200000D01*
X23300000Y14100000D02*
X24200000Y15000000D01*
X19600000Y14100000D02*
X23300000Y14100000D01*
X19100000Y13600000D02*
X19600000Y14100000D01*
X19100000Y13300000D02*
X19100000Y13600000D01*
%TO.N,/Red*%
X29500000Y22800000D02*
X29500000Y24200000D01*
X29500000Y24200000D02*
X29500000Y24300000D01*
X28100000Y21400000D02*
X29500000Y22800000D01*
X23400000Y13300000D02*
X24900000Y14800000D01*
X20200000Y13300000D02*
X23400000Y13300000D01*
X24900000Y20100000D02*
X26200000Y21400000D01*
X24900000Y14800000D02*
X24900000Y20100000D01*
X26200000Y21400000D02*
X28100000Y21400000D01*
D23*
%TO.N,Net-(U1-PA10_A2_D2)*%
X47100000Y24300000D02*
X69200000Y24300000D01*
X46600000Y23800000D02*
X47100000Y24300000D01*
%TD*%
%TA.AperFunction,Conductor*%
%TO.N,GND*%
G36*
X35569886Y32680593D02*
G01*
X35605850Y32631093D01*
X35605850Y32569907D01*
X35569886Y32520407D01*
X35542287Y32506345D01*
X35362400Y32447898D01*
X35165980Y32347817D01*
X35151103Y32337008D01*
X34987635Y32218242D01*
X34831758Y32062365D01*
X34793039Y32009072D01*
X34702183Y31884020D01*
X34602102Y31687600D01*
X34533984Y31477949D01*
X34499500Y31260226D01*
X34499500Y29739775D01*
X34533984Y29522052D01*
X34602102Y29312401D01*
X34602104Y29312398D01*
X34602105Y29312394D01*
X34654277Y29210001D01*
X34702182Y29115982D01*
X34702185Y29115978D01*
X34831758Y28937635D01*
X34987635Y28781758D01*
X35165978Y28652185D01*
X35362394Y28552105D01*
X35572049Y28483985D01*
X35659140Y28470191D01*
X35789775Y28449500D01*
X35789778Y28449500D01*
X36010225Y28449500D01*
X36119086Y28466743D01*
X36227951Y28483985D01*
X36437606Y28552105D01*
X36634022Y28652185D01*
X36812365Y28781758D01*
X36968242Y28937635D01*
X37097815Y29115978D01*
X37137410Y29193688D01*
X37180673Y29236951D01*
X37241105Y29246523D01*
X37295622Y29218746D01*
X37330345Y29184023D01*
X37502402Y29069059D01*
X37693580Y28989870D01*
X37896535Y28949500D01*
X37896536Y28949500D01*
X38103464Y28949500D01*
X38103465Y28949500D01*
X38306420Y28989870D01*
X38497598Y29069059D01*
X38669655Y29184023D01*
X38815977Y29330345D01*
X38917684Y29482563D01*
X38965734Y29520442D01*
X39026872Y29522844D01*
X39077746Y29488852D01*
X39082310Y29482570D01*
X39184023Y29330345D01*
X39270505Y29243863D01*
X39298281Y29189348D01*
X39299500Y29173861D01*
X39299500Y28831165D01*
X39280593Y28772974D01*
X39270504Y28761161D01*
X38538839Y28029496D01*
X38484322Y28001719D01*
X38468835Y28000500D01*
X30799500Y28000500D01*
X30741309Y28019407D01*
X30705345Y28068907D01*
X30700500Y28099500D01*
X30700499Y29944861D01*
X30700499Y29944864D01*
X30697585Y29969991D01*
X30652206Y30072765D01*
X30572765Y30152206D01*
X30469991Y30197585D01*
X30469990Y30197586D01*
X30469988Y30197586D01*
X30444868Y30200500D01*
X28555139Y30200500D01*
X28555136Y30200499D01*
X28530009Y30197586D01*
X28427235Y30152206D01*
X28347794Y30072765D01*
X28302414Y29969989D01*
X28299500Y29944870D01*
X28299500Y29387405D01*
X28280593Y29329214D01*
X28231093Y29293250D01*
X28169907Y29293250D01*
X28120407Y29329214D01*
X28106345Y29356812D01*
X28096405Y29387405D01*
X28072547Y29460832D01*
X27986760Y29629199D01*
X27875690Y29782073D01*
X27742073Y29915690D01*
X27589199Y30026760D01*
X27589198Y30026761D01*
X27589196Y30026762D01*
X27420832Y30112547D01*
X27241113Y30170942D01*
X27054484Y30200500D01*
X27054481Y30200500D01*
X26865519Y30200500D01*
X26865516Y30200500D01*
X26678886Y30170942D01*
X26499167Y30112547D01*
X26330803Y30026762D01*
X26177928Y29915691D01*
X26044309Y29782072D01*
X25933238Y29629197D01*
X25847453Y29460833D01*
X25789058Y29281114D01*
X25787781Y29273046D01*
X25760004Y29218529D01*
X25705487Y29190752D01*
X25645055Y29200323D01*
X25601790Y29243588D01*
X25592219Y29273046D01*
X25590941Y29281114D01*
X25586473Y29294865D01*
X25532547Y29460832D01*
X25446760Y29629199D01*
X25335690Y29782073D01*
X25202073Y29915690D01*
X25049199Y30026760D01*
X25049198Y30026761D01*
X25049196Y30026762D01*
X24880832Y30112547D01*
X24701113Y30170942D01*
X24514484Y30200500D01*
X24514481Y30200500D01*
X24325519Y30200500D01*
X24325516Y30200500D01*
X24138886Y30170942D01*
X23959167Y30112547D01*
X23790803Y30026762D01*
X23637928Y29915691D01*
X23504309Y29782072D01*
X23393238Y29629197D01*
X23307453Y29460833D01*
X23249058Y29281114D01*
X23219500Y29094485D01*
X23219500Y28905516D01*
X23249058Y28718887D01*
X23307453Y28539168D01*
X23362563Y28431007D01*
X23393240Y28370801D01*
X23504310Y28217927D01*
X23552735Y28169502D01*
X23580511Y28114987D01*
X23570940Y28054555D01*
X23527675Y28011290D01*
X23482730Y28000500D01*
X17831004Y28000500D01*
X17722591Y27978936D01*
X17722591Y27978935D01*
X17709131Y27976258D01*
X17695670Y27973580D01*
X17652955Y27955886D01*
X17652954Y27955886D01*
X17568191Y27920777D01*
X17568190Y27920777D01*
X17458968Y27847797D01*
X17458969Y27847796D01*
X17453458Y27844114D01*
X17453453Y27844110D01*
X14155883Y24546540D01*
X14079223Y24431809D01*
X14026420Y24304330D01*
X14026420Y24304328D01*
X14008586Y24214670D01*
X13999500Y24168994D01*
X13999500Y22031005D01*
X14026420Y21895673D01*
X14026420Y21895671D01*
X14079222Y21768194D01*
X14079228Y21768183D01*
X14155885Y21653459D01*
X14253458Y21555886D01*
X14368182Y21479229D01*
X14368193Y21479223D01*
X14415283Y21459718D01*
X14495672Y21426420D01*
X14631007Y21399500D01*
X14631008Y21399500D01*
X14768992Y21399500D01*
X14768993Y21399500D01*
X14904328Y21426420D01*
X15031811Y21479225D01*
X15146542Y21555886D01*
X15244114Y21653458D01*
X15320775Y21768189D01*
X15373580Y21895672D01*
X15400500Y22031007D01*
X15400500Y23768836D01*
X15419407Y23827027D01*
X15429496Y23838840D01*
X16054725Y24464069D01*
X18649500Y24464069D01*
X18649500Y24335931D01*
X18673621Y24214669D01*
X18674499Y24210258D01*
X18674500Y24210253D01*
X18723534Y24091875D01*
X18723538Y24091867D01*
X18740211Y24066915D01*
X18794724Y23985331D01*
X18794727Y23985328D01*
X18820504Y23959551D01*
X18848281Y23905034D01*
X18849500Y23889547D01*
X18849500Y22940692D01*
X18870588Y22861986D01*
X18880200Y22826114D01*
X18880202Y22826110D01*
X18939507Y22723391D01*
X18939509Y22723389D01*
X18939511Y22723386D01*
X19620505Y22042392D01*
X19648281Y21987877D01*
X19649500Y21972390D01*
X19649500Y20010453D01*
X19630593Y19952262D01*
X19620504Y19940449D01*
X19594727Y19914673D01*
X19594724Y19914669D01*
X19523538Y19808134D01*
X19523534Y19808126D01*
X19474500Y19689748D01*
X19474499Y19689743D01*
X19449500Y19564070D01*
X19449500Y19435931D01*
X19474499Y19310258D01*
X19474500Y19310253D01*
X19523534Y19191875D01*
X19523538Y19191867D01*
X19566365Y19127774D01*
X19594724Y19085331D01*
X19685331Y18994724D01*
X19748848Y18952283D01*
X19791866Y18923539D01*
X19791870Y18923537D01*
X19791873Y18923535D01*
X19910256Y18874499D01*
X20035931Y18849500D01*
X20035932Y18849500D01*
X20164068Y18849500D01*
X20164069Y18849500D01*
X20289744Y18874499D01*
X20408127Y18923535D01*
X20514669Y18994724D01*
X20605276Y19085331D01*
X20676465Y19191873D01*
X20725501Y19310256D01*
X20750500Y19435931D01*
X20750500Y19564069D01*
X20725501Y19689744D01*
X20676465Y19808127D01*
X20676463Y19808130D01*
X20676461Y19808134D01*
X20647717Y19851152D01*
X20605276Y19914669D01*
X20579496Y19940449D01*
X20551719Y19994966D01*
X20550500Y20010453D01*
X20550500Y22259308D01*
X20519800Y22373882D01*
X20519799Y22373886D01*
X20519799Y22373887D01*
X20460490Y22476614D01*
X19779496Y23157608D01*
X19751719Y23212125D01*
X19750500Y23227612D01*
X19750500Y23889547D01*
X19769407Y23947738D01*
X19779496Y23959551D01*
X19805276Y23985331D01*
X19876465Y24091873D01*
X19925501Y24210256D01*
X19950500Y24335931D01*
X19950500Y24464069D01*
X19925501Y24589744D01*
X19876465Y24708127D01*
X19876463Y24708130D01*
X19876461Y24708134D01*
X19837534Y24766391D01*
X19805276Y24814669D01*
X19714669Y24905276D01*
X19672226Y24933635D01*
X19608133Y24976462D01*
X19608125Y24976466D01*
X19489747Y25025500D01*
X19489745Y25025501D01*
X19489744Y25025501D01*
X19364069Y25050500D01*
X19235931Y25050500D01*
X19235930Y25050500D01*
X19173093Y25038001D01*
X19110256Y25025501D01*
X19110255Y25025501D01*
X19110252Y25025500D01*
X18991874Y24976466D01*
X18991866Y24976462D01*
X18885331Y24905276D01*
X18885327Y24905273D01*
X18794727Y24814673D01*
X18794724Y24814669D01*
X18723538Y24708134D01*
X18723534Y24708126D01*
X18674500Y24589748D01*
X18674499Y24589745D01*
X18674499Y24589744D01*
X18649500Y24464069D01*
X16054725Y24464069D01*
X18161160Y26570504D01*
X18215677Y26598281D01*
X18231164Y26599500D01*
X38868993Y26599500D01*
X38868994Y26599500D01*
X39004328Y26626420D01*
X39131811Y26679225D01*
X39246543Y26755886D01*
X40544114Y28053457D01*
X40620775Y28168189D01*
X40673580Y28295671D01*
X40688524Y28370801D01*
X40700500Y28431007D01*
X40700500Y29173861D01*
X40702968Y29181459D01*
X40701719Y29189347D01*
X40712242Y29210001D01*
X40719407Y29232052D01*
X40729496Y29243864D01*
X40732155Y29246523D01*
X40780498Y29294867D01*
X40835012Y29322643D01*
X40895444Y29313072D01*
X40938709Y29269808D01*
X40949500Y29224866D01*
X40949500Y29205143D01*
X40949501Y29205136D01*
X40952414Y29180010D01*
X40977756Y29122615D01*
X40997794Y29077235D01*
X41077235Y28997794D01*
X41180009Y28952415D01*
X41205135Y28949500D01*
X42794864Y28949501D01*
X42819991Y28952415D01*
X42899087Y28987340D01*
X42959955Y28993548D01*
X43012848Y28962793D01*
X43019167Y28954965D01*
X43023137Y28949500D01*
X43031758Y28937635D01*
X43187635Y28781758D01*
X43365978Y28652185D01*
X43562394Y28552105D01*
X43772049Y28483985D01*
X43859140Y28470191D01*
X43989775Y28449500D01*
X43989778Y28449500D01*
X44210225Y28449500D01*
X44319086Y28466743D01*
X44427951Y28483985D01*
X44637606Y28552105D01*
X44834022Y28652185D01*
X45012365Y28781758D01*
X45168242Y28937635D01*
X45297815Y29115978D01*
X45397895Y29312394D01*
X45466015Y29522049D01*
X45500500Y29739778D01*
X45500500Y31260222D01*
X45500500Y31260226D01*
X45471906Y31440756D01*
X45466015Y31477951D01*
X45400047Y31680984D01*
X45397897Y31687600D01*
X45397896Y31687601D01*
X45397895Y31687606D01*
X45297815Y31884022D01*
X45168242Y32062365D01*
X45012365Y32218242D01*
X44834022Y32347815D01*
X44834021Y32347816D01*
X44834019Y32347817D01*
X44744825Y32393264D01*
X44637606Y32447895D01*
X44637602Y32447896D01*
X44637599Y32447898D01*
X44457713Y32506345D01*
X44408213Y32542309D01*
X44389305Y32600500D01*
X44408212Y32658690D01*
X44457712Y32694654D01*
X44488305Y32699500D01*
X76952405Y32699500D01*
X76997227Y32699500D01*
X77002777Y32699345D01*
X77296701Y32682838D01*
X77307724Y32681596D01*
X77595224Y32632748D01*
X77606018Y32630285D01*
X77886251Y32549551D01*
X77896722Y32545887D01*
X78133286Y32447898D01*
X78166134Y32434292D01*
X78176136Y32429475D01*
X78431354Y32288422D01*
X78440755Y32282515D01*
X78678575Y32113772D01*
X78687254Y32106851D01*
X78753572Y32047586D01*
X78904697Y31912533D01*
X78912532Y31904698D01*
X78988231Y31819991D01*
X79106850Y31687255D01*
X79113771Y31678576D01*
X79282514Y31440756D01*
X79288421Y31431355D01*
X79429474Y31176137D01*
X79434291Y31166135D01*
X79545884Y30896727D01*
X79549551Y30886248D01*
X79630280Y30606034D01*
X79632750Y30595210D01*
X79681594Y30307730D01*
X79682837Y30296698D01*
X79699344Y30002778D01*
X79699500Y29997227D01*
X79699500Y3002774D01*
X79699344Y2997223D01*
X79682837Y2703303D01*
X79681594Y2692271D01*
X79632750Y2404791D01*
X79630280Y2393967D01*
X79549551Y2113753D01*
X79545884Y2103274D01*
X79434291Y1833866D01*
X79429474Y1823864D01*
X79288421Y1568646D01*
X79282514Y1559245D01*
X79113771Y1321425D01*
X79106850Y1312746D01*
X78912540Y1095311D01*
X78904689Y1087460D01*
X78687254Y893150D01*
X78678575Y886229D01*
X78440755Y717486D01*
X78431354Y711579D01*
X78176136Y570526D01*
X78166134Y565709D01*
X77896726Y454116D01*
X77886247Y450449D01*
X77606033Y369720D01*
X77595209Y367250D01*
X77307729Y318406D01*
X77296697Y317163D01*
X77002778Y300656D01*
X76997227Y300500D01*
X3002773Y300500D01*
X2997222Y300656D01*
X2703302Y317163D01*
X2692270Y318406D01*
X2404790Y367250D01*
X2393966Y369720D01*
X2113752Y450449D01*
X2103273Y454116D01*
X1833865Y565709D01*
X1823863Y570526D01*
X1568645Y711579D01*
X1559244Y717486D01*
X1321424Y886229D01*
X1312745Y893150D01*
X1211695Y983453D01*
X1095302Y1087468D01*
X1087467Y1095303D01*
X969745Y1227034D01*
X893149Y1312746D01*
X886228Y1321425D01*
X717485Y1559245D01*
X711578Y1568646D01*
X570525Y1823864D01*
X565708Y1833866D01*
X454115Y2103274D01*
X450448Y2113753D01*
X369715Y2393982D01*
X367252Y2404776D01*
X318404Y2692276D01*
X317162Y2703303D01*
X300656Y2997223D01*
X300500Y3002774D01*
X300500Y3106291D01*
X1649500Y3106291D01*
X1649500Y2893710D01*
X1682752Y2683762D01*
X1748443Y2481588D01*
X1844948Y2292185D01*
X1844950Y2292181D01*
X1969891Y2120214D01*
X1969893Y2120212D01*
X1969896Y2120208D01*
X2120208Y1969896D01*
X2120211Y1969894D01*
X2120213Y1969892D01*
X2292180Y1844951D01*
X2292184Y1844949D01*
X2481588Y1748443D01*
X2683757Y1682754D01*
X2683758Y1682754D01*
X2683761Y1682753D01*
X2893710Y1649500D01*
X2893713Y1649500D01*
X3106290Y1649500D01*
X3316238Y1682753D01*
X3316239Y1682754D01*
X3316243Y1682754D01*
X3518412Y1748443D01*
X3707816Y1844949D01*
X3879792Y1969896D01*
X4030104Y2120208D01*
X4155051Y2292184D01*
X4251557Y2481588D01*
X4317246Y2683757D01*
X4317247Y2683762D01*
X4350500Y2893710D01*
X4350500Y3106291D01*
X4317247Y3316239D01*
X4291003Y3397009D01*
X4251557Y3518412D01*
X4155051Y3707816D01*
X4155049Y3707820D01*
X4030108Y3879787D01*
X4030106Y3879789D01*
X4030104Y3879792D01*
X3879792Y4030104D01*
X3879788Y4030107D01*
X3879786Y4030109D01*
X3707819Y4155050D01*
X3707815Y4155052D01*
X3518412Y4251557D01*
X3316238Y4317248D01*
X3106290Y4350500D01*
X3106287Y4350500D01*
X2893713Y4350500D01*
X2893710Y4350500D01*
X2683761Y4317248D01*
X2481587Y4251557D01*
X2292184Y4155052D01*
X2292180Y4155050D01*
X2120213Y4030109D01*
X1969891Y3879787D01*
X1844950Y3707820D01*
X1844948Y3707816D01*
X1748443Y3518413D01*
X1682752Y3316239D01*
X1649500Y3106291D01*
X300500Y3106291D01*
X300500Y4894870D01*
X32499500Y4894870D01*
X32499500Y3105140D01*
X32499501Y3105137D01*
X32502414Y3080010D01*
X32516727Y3047595D01*
X32547794Y2977235D01*
X32627235Y2897794D01*
X32730009Y2852415D01*
X32755135Y2849500D01*
X34544864Y2849501D01*
X34569991Y2852415D01*
X34672765Y2897794D01*
X34752206Y2977235D01*
X34797585Y3080009D01*
X34800500Y3105135D01*
X34800499Y4090550D01*
X35039500Y4090550D01*
X35039500Y3909451D01*
X35067828Y3730594D01*
X35067829Y3730591D01*
X35123789Y3558361D01*
X35206004Y3397006D01*
X35312447Y3250499D01*
X35440499Y3122447D01*
X35587006Y3016004D01*
X35748361Y2933789D01*
X35920591Y2877829D01*
X35992136Y2866498D01*
X36099451Y2849500D01*
X36099454Y2849500D01*
X36280549Y2849500D01*
X36369977Y2863665D01*
X36459409Y2877829D01*
X36631639Y2933789D01*
X36792994Y3016004D01*
X36939501Y3122447D01*
X37067553Y3250499D01*
X37173996Y3397006D01*
X37256211Y3558361D01*
X37312171Y3730591D01*
X37326335Y3820023D01*
X37340500Y3909451D01*
X37340500Y4090550D01*
X37579500Y4090550D01*
X37579500Y3909451D01*
X37607828Y3730594D01*
X37607829Y3730591D01*
X37663789Y3558361D01*
X37746004Y3397006D01*
X37852447Y3250499D01*
X37980499Y3122447D01*
X38127006Y3016004D01*
X38288361Y2933789D01*
X38460591Y2877829D01*
X38532136Y2866498D01*
X38639451Y2849500D01*
X38639454Y2849500D01*
X38820549Y2849500D01*
X38909977Y2863665D01*
X38999409Y2877829D01*
X39171639Y2933789D01*
X39332994Y3016004D01*
X39479501Y3122447D01*
X39607553Y3250499D01*
X39713996Y3397006D01*
X39796211Y3558361D01*
X39852171Y3730591D01*
X39866335Y3820023D01*
X39880500Y3909451D01*
X39880500Y4090550D01*
X42659500Y4090550D01*
X42659500Y3909451D01*
X42687828Y3730594D01*
X42687829Y3730591D01*
X42743789Y3558361D01*
X42826004Y3397006D01*
X42932447Y3250499D01*
X43060499Y3122447D01*
X43207006Y3016004D01*
X43368361Y2933789D01*
X43540591Y2877829D01*
X43612136Y2866498D01*
X43719451Y2849500D01*
X43719454Y2849500D01*
X43900549Y2849500D01*
X43989977Y2863665D01*
X44079409Y2877829D01*
X44251639Y2933789D01*
X44412994Y3016004D01*
X44559501Y3122447D01*
X44687553Y3250499D01*
X44793996Y3397006D01*
X44876211Y3558361D01*
X44932171Y3730591D01*
X44946335Y3820023D01*
X44960500Y3909451D01*
X44960500Y4090550D01*
X44932171Y4269407D01*
X44932171Y4269409D01*
X44876211Y4441639D01*
X44793996Y4602994D01*
X44687553Y4749501D01*
X44559501Y4877553D01*
X44412994Y4983996D01*
X44412993Y4983997D01*
X44412991Y4983998D01*
X44251637Y5066212D01*
X44079406Y5122172D01*
X43900549Y5150500D01*
X43900546Y5150500D01*
X43719454Y5150500D01*
X43719451Y5150500D01*
X43540593Y5122172D01*
X43368362Y5066212D01*
X43207008Y4983998D01*
X43178930Y4963598D01*
X43060499Y4877553D01*
X42932447Y4749501D01*
X42879225Y4676248D01*
X42826002Y4602992D01*
X42743788Y4441638D01*
X42687828Y4269407D01*
X42659500Y4090550D01*
X39880500Y4090550D01*
X39852171Y4269407D01*
X39852171Y4269409D01*
X39796211Y4441639D01*
X39713996Y4602994D01*
X39607553Y4749501D01*
X39479501Y4877553D01*
X39332994Y4983996D01*
X39332993Y4983997D01*
X39332991Y4983998D01*
X39171637Y5066212D01*
X38999406Y5122172D01*
X38820549Y5150500D01*
X38820546Y5150500D01*
X38639454Y5150500D01*
X38639451Y5150500D01*
X38460593Y5122172D01*
X38288362Y5066212D01*
X38127008Y4983998D01*
X38098930Y4963598D01*
X37980499Y4877553D01*
X37852447Y4749501D01*
X37799225Y4676248D01*
X37746002Y4602992D01*
X37663788Y4441638D01*
X37607828Y4269407D01*
X37579500Y4090550D01*
X37340500Y4090550D01*
X37312171Y4269407D01*
X37312171Y4269409D01*
X37256211Y4441639D01*
X37173996Y4602994D01*
X37067553Y4749501D01*
X36939501Y4877553D01*
X36939497Y4877556D01*
X36939495Y4877558D01*
X36931306Y4883508D01*
X36895344Y4933009D01*
X36890500Y4963598D01*
X36890500Y5558835D01*
X36909407Y5617026D01*
X36919496Y5628839D01*
X38561161Y7270504D01*
X38615678Y7298281D01*
X38631165Y7299500D01*
X45550500Y7299500D01*
X45608691Y7280593D01*
X45644655Y7231093D01*
X45649500Y7200500D01*
X45649500Y4963598D01*
X45630593Y4905407D01*
X45608694Y4883508D01*
X45600504Y4877558D01*
X45600499Y4877553D01*
X45472447Y4749501D01*
X45419225Y4676248D01*
X45366002Y4602992D01*
X45283788Y4441638D01*
X45227828Y4269407D01*
X45199500Y4090550D01*
X45199500Y3909451D01*
X45227828Y3730594D01*
X45227829Y3730591D01*
X45283789Y3558361D01*
X45366004Y3397006D01*
X45472447Y3250499D01*
X45600499Y3122447D01*
X45747006Y3016004D01*
X45908361Y2933789D01*
X46080591Y2877829D01*
X46152136Y2866498D01*
X46259451Y2849500D01*
X46259454Y2849500D01*
X46440549Y2849500D01*
X46529977Y2863665D01*
X46619409Y2877829D01*
X46791639Y2933789D01*
X46952994Y3016004D01*
X47077264Y3106291D01*
X75649500Y3106291D01*
X75649500Y2893710D01*
X75682752Y2683762D01*
X75748443Y2481588D01*
X75844948Y2292185D01*
X75844950Y2292181D01*
X75969891Y2120214D01*
X75969893Y2120212D01*
X75969896Y2120208D01*
X76120208Y1969896D01*
X76120211Y1969894D01*
X76120213Y1969892D01*
X76292180Y1844951D01*
X76292184Y1844949D01*
X76481588Y1748443D01*
X76683757Y1682754D01*
X76683758Y1682754D01*
X76683761Y1682753D01*
X76893710Y1649500D01*
X76893713Y1649500D01*
X77106290Y1649500D01*
X77316238Y1682753D01*
X77316239Y1682754D01*
X77316243Y1682754D01*
X77518412Y1748443D01*
X77707816Y1844949D01*
X77879792Y1969896D01*
X78030104Y2120208D01*
X78155051Y2292184D01*
X78251557Y2481588D01*
X78317246Y2683757D01*
X78317247Y2683762D01*
X78350500Y2893710D01*
X78350500Y3106291D01*
X78317247Y3316239D01*
X78291003Y3397009D01*
X78251557Y3518412D01*
X78155051Y3707816D01*
X78155049Y3707820D01*
X78030108Y3879787D01*
X78030106Y3879789D01*
X78030104Y3879792D01*
X77879792Y4030104D01*
X77879788Y4030107D01*
X77879786Y4030109D01*
X77707819Y4155050D01*
X77707815Y4155052D01*
X77518412Y4251557D01*
X77316238Y4317248D01*
X77106290Y4350500D01*
X77106287Y4350500D01*
X76893713Y4350500D01*
X76893710Y4350500D01*
X76683761Y4317248D01*
X76481587Y4251557D01*
X76292184Y4155052D01*
X76292180Y4155050D01*
X76120213Y4030109D01*
X75969891Y3879787D01*
X75844950Y3707820D01*
X75844948Y3707816D01*
X75748443Y3518413D01*
X75682752Y3316239D01*
X75649500Y3106291D01*
X47077264Y3106291D01*
X47099501Y3122447D01*
X47227553Y3250499D01*
X47333996Y3397006D01*
X47416211Y3558361D01*
X47472171Y3730591D01*
X47486335Y3820023D01*
X47500500Y3909451D01*
X47500500Y4090550D01*
X47472171Y4269407D01*
X47472171Y4269409D01*
X47416211Y4441639D01*
X47333996Y4602994D01*
X47227553Y4749501D01*
X47099501Y4877553D01*
X47099497Y4877556D01*
X47099495Y4877558D01*
X47091306Y4883508D01*
X47055344Y4933009D01*
X47050500Y4963598D01*
X47050500Y7200500D01*
X47069407Y7258691D01*
X47118907Y7294655D01*
X47149500Y7299500D01*
X76218993Y7299500D01*
X76218994Y7299500D01*
X76354328Y7326420D01*
X76481811Y7379225D01*
X76596543Y7455886D01*
X76919114Y7778457D01*
X76995775Y7893189D01*
X77048580Y8020672D01*
X77075500Y8156006D01*
X77075500Y8293994D01*
X77048580Y8429328D01*
X76995775Y8556811D01*
X76919114Y8671543D01*
X76821543Y8769114D01*
X76706811Y8845775D01*
X76706810Y8845776D01*
X76706808Y8845777D01*
X76579328Y8898580D01*
X76443996Y8925500D01*
X76443994Y8925500D01*
X76306006Y8925500D01*
X76306003Y8925500D01*
X76170672Y8898580D01*
X76170670Y8898580D01*
X76043191Y8845777D01*
X75928457Y8769115D01*
X75888838Y8729496D01*
X75834321Y8701719D01*
X75818835Y8700500D01*
X38231003Y8700500D01*
X38095672Y8673580D01*
X38095670Y8673580D01*
X37968191Y8620777D01*
X37853460Y8544117D01*
X35645883Y6336540D01*
X35569223Y6221809D01*
X35516420Y6094330D01*
X35516420Y6094328D01*
X35489500Y5958996D01*
X35489500Y4963598D01*
X35470593Y4905407D01*
X35448694Y4883508D01*
X35440504Y4877558D01*
X35440499Y4877553D01*
X35312447Y4749501D01*
X35259225Y4676248D01*
X35206002Y4602992D01*
X35123788Y4441638D01*
X35067828Y4269407D01*
X35039500Y4090550D01*
X34800499Y4090550D01*
X34800499Y4894864D01*
X34797585Y4919991D01*
X34752206Y5022765D01*
X34672765Y5102206D01*
X34569991Y5147585D01*
X34569990Y5147586D01*
X34569988Y5147586D01*
X34544868Y5150500D01*
X32755139Y5150500D01*
X32755136Y5150499D01*
X32730009Y5147586D01*
X32627235Y5102206D01*
X32547794Y5022765D01*
X32502414Y4919989D01*
X32499500Y4894870D01*
X300500Y4894870D01*
X300500Y11568996D01*
X4899500Y11568996D01*
X4899500Y11431005D01*
X4926420Y11295673D01*
X4926420Y11295671D01*
X4979222Y11168194D01*
X4979228Y11168183D01*
X5055885Y11053459D01*
X5153458Y10955886D01*
X5268182Y10879229D01*
X5268193Y10879223D01*
X5315283Y10859718D01*
X5395672Y10826420D01*
X5531007Y10799500D01*
X10531007Y10799500D01*
X29566190Y10799500D01*
X29624381Y10780593D01*
X29660345Y10731093D01*
X29660345Y10669907D01*
X29648505Y10645498D01*
X29623538Y10608135D01*
X29623534Y10608126D01*
X29574500Y10489748D01*
X29574499Y10489743D01*
X29549500Y10364070D01*
X29549500Y10235931D01*
X29574499Y10110258D01*
X29574500Y10110253D01*
X29623534Y9991875D01*
X29623538Y9991867D01*
X29666365Y9927774D01*
X29694724Y9885331D01*
X29785331Y9794724D01*
X29848848Y9752283D01*
X29891866Y9723539D01*
X29891870Y9723537D01*
X29891873Y9723535D01*
X30010256Y9674499D01*
X30135931Y9649500D01*
X30135932Y9649500D01*
X30264068Y9649500D01*
X30264069Y9649500D01*
X30389744Y9674499D01*
X30508127Y9723535D01*
X30596846Y9782816D01*
X30651847Y9799500D01*
X44548153Y9799500D01*
X44603153Y9782816D01*
X44644873Y9754939D01*
X44691866Y9723539D01*
X44691870Y9723537D01*
X44691873Y9723535D01*
X44810256Y9674499D01*
X44935931Y9649500D01*
X44935932Y9649500D01*
X45064068Y9649500D01*
X45064069Y9649500D01*
X45189744Y9674499D01*
X45308127Y9723535D01*
X45414669Y9794724D01*
X45505276Y9885331D01*
X45576465Y9991873D01*
X45625501Y10110256D01*
X45650500Y10235931D01*
X45650500Y10364069D01*
X45625501Y10489744D01*
X45576465Y10608127D01*
X45576463Y10608129D01*
X45576461Y10608135D01*
X45551495Y10645498D01*
X45534886Y10704386D01*
X45556063Y10761790D01*
X45606937Y10795783D01*
X45633810Y10799500D01*
X71668993Y10799500D01*
X71668994Y10799500D01*
X71804328Y10826420D01*
X71931811Y10879225D01*
X72046543Y10955886D01*
X75205304Y14114649D01*
X75259819Y14142424D01*
X75313188Y14136108D01*
X75414474Y14094153D01*
X75674109Y14024584D01*
X75940603Y13989500D01*
X75940604Y13989500D01*
X76209396Y13989500D01*
X76209397Y13989500D01*
X76475891Y14024584D01*
X76735526Y14094153D01*
X76983859Y14197016D01*
X77216641Y14331413D01*
X77429890Y14495044D01*
X77619956Y14685110D01*
X77783587Y14898359D01*
X77917984Y15131141D01*
X78020847Y15379474D01*
X78090416Y15639109D01*
X78125500Y15905603D01*
X78125500Y16174397D01*
X78090416Y16440891D01*
X78020847Y16700526D01*
X77917984Y16948859D01*
X77783587Y17181641D01*
X77619956Y17394890D01*
X77429890Y17584956D01*
X77289493Y17692686D01*
X77216644Y17748585D01*
X77216641Y17748587D01*
X76983859Y17882984D01*
X76983855Y17882986D01*
X76983851Y17882988D01*
X76735531Y17985845D01*
X76735530Y17985846D01*
X76735526Y17985847D01*
X76475891Y18055416D01*
X76475888Y18055417D01*
X76475886Y18055417D01*
X76209398Y18090500D01*
X76209397Y18090500D01*
X75940603Y18090500D01*
X75940601Y18090500D01*
X75674116Y18055417D01*
X75674111Y18055417D01*
X75414481Y17985849D01*
X75414468Y17985845D01*
X75166148Y17882988D01*
X74933355Y17748585D01*
X74720113Y17584959D01*
X74530041Y17394887D01*
X74366415Y17181645D01*
X74232012Y16948852D01*
X74129155Y16700532D01*
X74129151Y16700519D01*
X74059583Y16440889D01*
X74059583Y16440884D01*
X74024500Y16174399D01*
X74024500Y15905602D01*
X74059583Y15639117D01*
X74059583Y15639112D01*
X74076369Y15576466D01*
X74119721Y15414673D01*
X74129151Y15379482D01*
X74129153Y15379474D01*
X74209181Y15186270D01*
X74213982Y15125273D01*
X74187721Y15078380D01*
X71338839Y12229496D01*
X71284322Y12201719D01*
X71268835Y12200500D01*
X17697265Y12200500D01*
X17639074Y12219407D01*
X17603110Y12268907D01*
X17603110Y12330093D01*
X17627261Y12369504D01*
X17978261Y12720504D01*
X18032778Y12748281D01*
X18048265Y12749500D01*
X18064068Y12749500D01*
X18064069Y12749500D01*
X18189744Y12774499D01*
X18308127Y12823535D01*
X18414669Y12894724D01*
X18433541Y12913596D01*
X18488057Y12941375D01*
X18548489Y12931805D01*
X18585860Y12898597D01*
X18594724Y12885331D01*
X18685331Y12794724D01*
X18748848Y12752283D01*
X18791866Y12723539D01*
X18791870Y12723537D01*
X18791873Y12723535D01*
X18910256Y12674499D01*
X19035931Y12649500D01*
X19035932Y12649500D01*
X19164068Y12649500D01*
X19164069Y12649500D01*
X19289744Y12674499D01*
X19408127Y12723535D01*
X19514669Y12794724D01*
X19579996Y12860051D01*
X19634512Y12887829D01*
X19694944Y12878258D01*
X19720004Y12860051D01*
X19785322Y12794732D01*
X19785326Y12794729D01*
X19785331Y12794724D01*
X19848848Y12752283D01*
X19891866Y12723539D01*
X19891870Y12723537D01*
X19891873Y12723535D01*
X20010256Y12674499D01*
X20135931Y12649500D01*
X20135932Y12649500D01*
X20264068Y12649500D01*
X20264069Y12649500D01*
X20389744Y12674499D01*
X20508127Y12723535D01*
X20614669Y12794724D01*
X20640449Y12820504D01*
X20694966Y12848281D01*
X20710453Y12849500D01*
X23459309Y12849500D01*
X23549669Y12873713D01*
X23549672Y12873713D01*
X23566634Y12878258D01*
X23573887Y12880201D01*
X23676614Y12939511D01*
X25260489Y14523386D01*
X25296253Y14585331D01*
X25319767Y14626058D01*
X25319776Y14626076D01*
X25319798Y14626113D01*
X25319799Y14626114D01*
X25350500Y14740691D01*
X25350500Y16161290D01*
X66479500Y16161290D01*
X66479500Y15918711D01*
X66511161Y15678219D01*
X66511161Y15678214D01*
X66573944Y15443908D01*
X66573948Y15443895D01*
X66666772Y15219796D01*
X66666774Y15219792D01*
X66666776Y15219788D01*
X66756681Y15064068D01*
X66788066Y15009708D01*
X66935729Y14817269D01*
X66935731Y14817267D01*
X66935735Y14817262D01*
X67107262Y14645735D01*
X67107266Y14645732D01*
X67107268Y14645730D01*
X67271384Y14519800D01*
X67299711Y14498064D01*
X67509788Y14376776D01*
X67733900Y14283946D01*
X67968211Y14221162D01*
X68208712Y14189500D01*
X68208713Y14189500D01*
X68451287Y14189500D01*
X68451288Y14189500D01*
X68691789Y14221162D01*
X68926100Y14283946D01*
X69150212Y14376776D01*
X69360289Y14498064D01*
X69552738Y14645735D01*
X69724265Y14817262D01*
X69871936Y15009711D01*
X69993224Y15219788D01*
X70086054Y15443900D01*
X70148838Y15678211D01*
X70180500Y15918712D01*
X70180500Y16161288D01*
X70148838Y16401789D01*
X70086054Y16636100D01*
X69993224Y16860212D01*
X69871936Y17070289D01*
X69799976Y17164069D01*
X69724270Y17262732D01*
X69724268Y17262734D01*
X69724265Y17262738D01*
X69552738Y17434265D01*
X69552733Y17434269D01*
X69552731Y17434271D01*
X69360292Y17581934D01*
X69355053Y17584959D01*
X69150212Y17703224D01*
X69150208Y17703226D01*
X69150204Y17703228D01*
X68926105Y17796052D01*
X68926104Y17796053D01*
X68926100Y17796054D01*
X68691789Y17858838D01*
X68691786Y17858839D01*
X68691784Y17858839D01*
X68451289Y17890500D01*
X68451288Y17890500D01*
X68208712Y17890500D01*
X68208710Y17890500D01*
X67968218Y17858839D01*
X67968213Y17858839D01*
X67733907Y17796056D01*
X67733894Y17796052D01*
X67509795Y17703228D01*
X67299707Y17581934D01*
X67107268Y17434271D01*
X66935729Y17262732D01*
X66788066Y17070293D01*
X66666772Y16860205D01*
X66573948Y16636106D01*
X66573944Y16636093D01*
X66511161Y16401787D01*
X66511161Y16401782D01*
X66479500Y16161290D01*
X25350500Y16161290D01*
X25350500Y17164070D01*
X43049500Y17164070D01*
X43049500Y17035931D01*
X43074499Y16910258D01*
X43074500Y16910253D01*
X43123534Y16791875D01*
X43123538Y16791867D01*
X43166365Y16727774D01*
X43194724Y16685331D01*
X43285331Y16594724D01*
X43338335Y16559308D01*
X43391866Y16523539D01*
X43391870Y16523537D01*
X43391873Y16523535D01*
X43510256Y16474499D01*
X43635931Y16449500D01*
X43635932Y16449500D01*
X43764068Y16449500D01*
X43764069Y16449500D01*
X43889744Y16474499D01*
X44008127Y16523535D01*
X44114669Y16594724D01*
X44205276Y16685331D01*
X44276465Y16791873D01*
X44325501Y16910256D01*
X44350500Y17035931D01*
X44350500Y17164069D01*
X44325501Y17289744D01*
X44276465Y17408127D01*
X44276463Y17408129D01*
X44276461Y17408135D01*
X44217185Y17496846D01*
X44200500Y17551848D01*
X44200500Y17651678D01*
X44219407Y17709869D01*
X44229496Y17721682D01*
X44878318Y18370504D01*
X44932835Y18398281D01*
X44948322Y18399500D01*
X69295703Y18399500D01*
X69350704Y18382816D01*
X69410919Y18342581D01*
X69529302Y18293545D01*
X69654977Y18268546D01*
X69654978Y18268546D01*
X69783114Y18268546D01*
X69783115Y18268546D01*
X69908790Y18293545D01*
X70027173Y18342581D01*
X70133715Y18413770D01*
X70224322Y18504377D01*
X70295511Y18610919D01*
X70344547Y18729302D01*
X70369546Y18854977D01*
X70369546Y18983115D01*
X70344547Y19108790D01*
X70295511Y19227173D01*
X70295509Y19227176D01*
X70295507Y19227180D01*
X70266763Y19270198D01*
X70224322Y19333715D01*
X70133715Y19424322D01*
X70091272Y19452681D01*
X70027179Y19495508D01*
X70027171Y19495512D01*
X69908793Y19544546D01*
X69908791Y19544547D01*
X69908790Y19544547D01*
X69783115Y19569546D01*
X69654977Y19569546D01*
X69654976Y19569546D01*
X69592139Y19557047D01*
X69529302Y19544547D01*
X69529301Y19544547D01*
X69529298Y19544546D01*
X69410920Y19495512D01*
X69410912Y19495508D01*
X69304370Y19424317D01*
X69302725Y19422967D01*
X69301819Y19422613D01*
X69300334Y19421620D01*
X69300116Y19421947D01*
X69245747Y19400671D01*
X69239927Y19400500D01*
X44765893Y19400500D01*
X44634108Y19400500D01*
X44556200Y19379625D01*
X44506809Y19366391D01*
X44392690Y19300504D01*
X43392686Y18300500D01*
X43392685Y18300501D01*
X43299500Y18207315D01*
X43299496Y18207310D01*
X43233609Y18093191D01*
X43219948Y18042206D01*
X43204847Y17985845D01*
X43199500Y17965891D01*
X43199500Y17551848D01*
X43182815Y17496846D01*
X43123538Y17408135D01*
X43123534Y17408126D01*
X43074500Y17289748D01*
X43074499Y17289743D01*
X43049500Y17164070D01*
X25350500Y17164070D01*
X25350500Y19872389D01*
X25369407Y19930580D01*
X25379496Y19942393D01*
X26357608Y20920504D01*
X26412125Y20948281D01*
X26427612Y20949500D01*
X28159309Y20949500D01*
X28249669Y20973713D01*
X28249672Y20973713D01*
X28262903Y20977259D01*
X28273887Y20980201D01*
X28376614Y21039511D01*
X29860489Y22523386D01*
X29919799Y22626113D01*
X29926332Y22650497D01*
X29926334Y22650500D01*
X29926333Y22650500D01*
X29950500Y22740692D01*
X29950500Y23789547D01*
X29951286Y23791969D01*
X29950620Y23794426D01*
X29956103Y23806793D01*
X29969407Y23847738D01*
X29972373Y23851614D01*
X29975727Y23855783D01*
X29984013Y23864069D01*
X45949500Y23864069D01*
X45949500Y23735931D01*
X45974498Y23610259D01*
X45974499Y23610258D01*
X45974500Y23610253D01*
X46023534Y23491875D01*
X46023538Y23491867D01*
X46066365Y23427774D01*
X46094724Y23385331D01*
X46185331Y23294724D01*
X46248848Y23252283D01*
X46291866Y23223539D01*
X46291870Y23223537D01*
X46291873Y23223535D01*
X46410256Y23174499D01*
X46535931Y23149500D01*
X46535932Y23149500D01*
X46664068Y23149500D01*
X46664069Y23149500D01*
X46789744Y23174499D01*
X46908127Y23223535D01*
X47014669Y23294724D01*
X47105276Y23385331D01*
X47176465Y23491873D01*
X47225501Y23610256D01*
X47246318Y23714911D01*
X47273420Y23765606D01*
X47278326Y23770511D01*
X47332845Y23798283D01*
X47348322Y23799500D01*
X68748153Y23799500D01*
X68803153Y23782816D01*
X68837971Y23759551D01*
X68891866Y23723539D01*
X68891870Y23723537D01*
X68891873Y23723535D01*
X69010256Y23674499D01*
X69135931Y23649500D01*
X69135932Y23649500D01*
X69264068Y23649500D01*
X69264069Y23649500D01*
X69389744Y23674499D01*
X69508127Y23723535D01*
X69614669Y23794724D01*
X69705276Y23885331D01*
X69776465Y23991873D01*
X69825501Y24110256D01*
X69850500Y24235931D01*
X69850500Y24364069D01*
X69825501Y24489744D01*
X69776465Y24608127D01*
X69776463Y24608130D01*
X69776461Y24608134D01*
X69714743Y24700500D01*
X69705276Y24714669D01*
X69614669Y24805276D01*
X69549552Y24848786D01*
X69508133Y24876462D01*
X69508125Y24876466D01*
X69389747Y24925500D01*
X69389745Y24925501D01*
X69389744Y24925501D01*
X69264069Y24950500D01*
X69135931Y24950500D01*
X69135930Y24950500D01*
X69073093Y24938001D01*
X69010256Y24925501D01*
X69010255Y24925501D01*
X69010252Y24925500D01*
X68891874Y24876466D01*
X68891866Y24876462D01*
X68826563Y24832827D01*
X68803153Y24817185D01*
X68748153Y24800500D01*
X47165893Y24800500D01*
X47034108Y24800500D01*
X46956200Y24779625D01*
X46906809Y24766391D01*
X46792690Y24700504D01*
X46792685Y24700500D01*
X46565597Y24473413D01*
X46514909Y24446320D01*
X46410266Y24425504D01*
X46410252Y24425500D01*
X46291874Y24376466D01*
X46291866Y24376462D01*
X46185331Y24305276D01*
X46185327Y24305273D01*
X46094727Y24214673D01*
X46094726Y24214671D01*
X46094724Y24214669D01*
X46074544Y24184468D01*
X46023538Y24108134D01*
X46023534Y24108126D01*
X45974500Y23989748D01*
X45974499Y23989745D01*
X45974499Y23989744D01*
X45973621Y23985331D01*
X45953730Y23885332D01*
X45949500Y23864069D01*
X29984013Y23864069D01*
X30005276Y23885331D01*
X30076465Y23991873D01*
X30125501Y24110256D01*
X30150500Y24235931D01*
X30150500Y24364069D01*
X30125501Y24489744D01*
X30076465Y24608127D01*
X30076463Y24608130D01*
X30076461Y24608134D01*
X30014743Y24700500D01*
X30005276Y24714669D01*
X29914669Y24805276D01*
X29849552Y24848786D01*
X29808133Y24876462D01*
X29808125Y24876466D01*
X29689747Y24925500D01*
X29689745Y24925501D01*
X29689744Y24925501D01*
X29564069Y24950500D01*
X29435931Y24950500D01*
X29435930Y24950500D01*
X29373093Y24938001D01*
X29310256Y24925501D01*
X29310255Y24925501D01*
X29310252Y24925500D01*
X29191874Y24876466D01*
X29191866Y24876462D01*
X29085331Y24805276D01*
X29085327Y24805273D01*
X28994727Y24714673D01*
X28994724Y24714669D01*
X28923538Y24608134D01*
X28923534Y24608126D01*
X28874500Y24489748D01*
X28874499Y24489745D01*
X28874499Y24489744D01*
X28849500Y24364069D01*
X28849500Y24235931D01*
X28869415Y24135813D01*
X28874499Y24110258D01*
X28874500Y24110253D01*
X28923534Y23991875D01*
X28923538Y23991867D01*
X28953025Y23947738D01*
X28994724Y23885331D01*
X28994727Y23885328D01*
X29020504Y23859551D01*
X29048281Y23805034D01*
X29049500Y23789547D01*
X29049500Y23027611D01*
X29030593Y22969420D01*
X29020504Y22957607D01*
X27942393Y21879496D01*
X27887876Y21851719D01*
X27872389Y21850500D01*
X26140691Y21850500D01*
X26039505Y21823387D01*
X26039504Y21823388D01*
X26026114Y21819799D01*
X25923386Y21760490D01*
X24819504Y20656608D01*
X24764987Y20628831D01*
X24704555Y20638402D01*
X24661290Y20681667D01*
X24650500Y20726612D01*
X24650500Y23689547D01*
X24669407Y23747738D01*
X24679496Y23759551D01*
X24690456Y23770511D01*
X24705276Y23785331D01*
X24776465Y23891873D01*
X24825501Y24010256D01*
X24850500Y24135931D01*
X24850500Y24264069D01*
X24825501Y24389744D01*
X24776465Y24508127D01*
X24776463Y24508130D01*
X24776461Y24508134D01*
X24747717Y24551152D01*
X24705276Y24614669D01*
X24614669Y24705276D01*
X24572226Y24733635D01*
X24508133Y24776462D01*
X24508125Y24776466D01*
X24389747Y24825500D01*
X24389734Y24825504D01*
X24333084Y24836773D01*
X24279701Y24866670D01*
X24254086Y24922236D01*
X24266024Y24982245D01*
X24282392Y25003868D01*
X24398029Y25119504D01*
X24452546Y25147281D01*
X24468032Y25148500D01*
X25622983Y25148500D01*
X25677984Y25131816D01*
X25691873Y25122535D01*
X25810256Y25073499D01*
X25935931Y25048500D01*
X25935932Y25048500D01*
X26064068Y25048500D01*
X26064069Y25048500D01*
X26189744Y25073499D01*
X26308127Y25122535D01*
X26322015Y25131816D01*
X26377017Y25148500D01*
X60771474Y25148500D01*
X60771475Y25148500D01*
X60911485Y25186016D01*
X60924836Y25193724D01*
X61037015Y25258490D01*
X64873010Y29094485D01*
X71339500Y29094485D01*
X71339500Y28905516D01*
X71369058Y28718887D01*
X71427453Y28539168D01*
X71482563Y28431007D01*
X71513240Y28370801D01*
X71624310Y28217927D01*
X71757927Y28084310D01*
X71910801Y27973240D01*
X72079168Y27887453D01*
X72258882Y27829060D01*
X72258883Y27829060D01*
X72258886Y27829059D01*
X72445516Y27799500D01*
X72445519Y27799500D01*
X72634484Y27799500D01*
X72821113Y27829059D01*
X72821114Y27829060D01*
X72821118Y27829060D01*
X73000832Y27887453D01*
X73169199Y27973240D01*
X73322073Y28084310D01*
X73455690Y28217927D01*
X73566760Y28370801D01*
X73652547Y28539168D01*
X73710940Y28718882D01*
X73710941Y28718887D01*
X73740500Y28905516D01*
X73740500Y29094485D01*
X73710941Y29281114D01*
X73706473Y29294865D01*
X73652547Y29460832D01*
X73566760Y29629199D01*
X73455690Y29782073D01*
X73322073Y29915690D01*
X73226735Y29984957D01*
X73169198Y30026761D01*
X73169195Y30026762D01*
X73013110Y30106291D01*
X75649500Y30106291D01*
X75649500Y29893710D01*
X75682752Y29683762D01*
X75748443Y29481588D01*
X75844948Y29292185D01*
X75844950Y29292181D01*
X75969891Y29120214D01*
X75969893Y29120212D01*
X75969896Y29120208D01*
X76120208Y28969896D01*
X76120211Y28969894D01*
X76120213Y28969892D01*
X76292180Y28844951D01*
X76292184Y28844949D01*
X76481588Y28748443D01*
X76683757Y28682754D01*
X76683758Y28682754D01*
X76683761Y28682753D01*
X76893710Y28649500D01*
X76893713Y28649500D01*
X77106290Y28649500D01*
X77316238Y28682753D01*
X77316239Y28682754D01*
X77316243Y28682754D01*
X77518412Y28748443D01*
X77707816Y28844949D01*
X77879792Y28969896D01*
X78030104Y29120208D01*
X78155051Y29292184D01*
X78251557Y29481588D01*
X78317246Y29683757D01*
X78317247Y29683762D01*
X78350500Y29893710D01*
X78350500Y30106291D01*
X78317247Y30316239D01*
X78288854Y30403623D01*
X78251557Y30518412D01*
X78155051Y30707816D01*
X78155049Y30707820D01*
X78030108Y30879787D01*
X78030106Y30879789D01*
X78030104Y30879792D01*
X77879792Y31030104D01*
X77879788Y31030107D01*
X77879786Y31030109D01*
X77707819Y31155050D01*
X77707815Y31155052D01*
X77518412Y31251557D01*
X77316238Y31317248D01*
X77106290Y31350500D01*
X77106287Y31350500D01*
X76893713Y31350500D01*
X76893710Y31350500D01*
X76683761Y31317248D01*
X76481587Y31251557D01*
X76292184Y31155052D01*
X76292180Y31155050D01*
X76120213Y31030109D01*
X75969891Y30879787D01*
X75844950Y30707820D01*
X75844948Y30707816D01*
X75748443Y30518413D01*
X75682752Y30316239D01*
X75649500Y30106291D01*
X73013110Y30106291D01*
X73000832Y30112547D01*
X72821113Y30170942D01*
X72634484Y30200500D01*
X72634481Y30200500D01*
X72445519Y30200500D01*
X72445516Y30200500D01*
X72258886Y30170942D01*
X72079167Y30112547D01*
X71910803Y30026762D01*
X71757928Y29915691D01*
X71624309Y29782072D01*
X71513238Y29629197D01*
X71427453Y29460833D01*
X71369058Y29281114D01*
X71339500Y29094485D01*
X64873010Y29094485D01*
X65910779Y30132254D01*
X65965296Y30160031D01*
X65980783Y30161250D01*
X66422983Y30161250D01*
X66477984Y30144566D01*
X66491873Y30135285D01*
X66610256Y30086249D01*
X66735931Y30061250D01*
X66735932Y30061250D01*
X66864068Y30061250D01*
X66864069Y30061250D01*
X66989744Y30086249D01*
X67108127Y30135285D01*
X67214669Y30206474D01*
X67305276Y30297081D01*
X67376465Y30403623D01*
X67425501Y30522006D01*
X67450500Y30647681D01*
X67450500Y30775819D01*
X67425501Y30901494D01*
X67376465Y31019877D01*
X67376463Y31019880D01*
X67376461Y31019884D01*
X67347717Y31062902D01*
X67305276Y31126419D01*
X67214669Y31217026D01*
X67150016Y31260226D01*
X67108133Y31288212D01*
X67108125Y31288216D01*
X66989747Y31337250D01*
X66989745Y31337251D01*
X66989744Y31337251D01*
X66864069Y31362250D01*
X66735931Y31362250D01*
X66735930Y31362250D01*
X66676861Y31350500D01*
X66610256Y31337251D01*
X66610255Y31337251D01*
X66610252Y31337250D01*
X66491873Y31288216D01*
X66477985Y31278935D01*
X66422983Y31262250D01*
X65639275Y31262250D01*
X65599369Y31251557D01*
X65499265Y31224734D01*
X65373735Y31152260D01*
X60499971Y26278496D01*
X60445454Y26250719D01*
X60429967Y26249500D01*
X26377017Y26249500D01*
X26322015Y26266185D01*
X26308126Y26275466D01*
X26189747Y26324500D01*
X26189745Y26324501D01*
X26189744Y26324501D01*
X26064069Y26349500D01*
X25935931Y26349500D01*
X25935930Y26349500D01*
X25873093Y26337001D01*
X25810256Y26324501D01*
X25810255Y26324501D01*
X25810252Y26324500D01*
X25691873Y26275466D01*
X25677985Y26266185D01*
X25622983Y26249500D01*
X24126525Y26249500D01*
X23986515Y26211984D01*
X23860985Y26139510D01*
X22611985Y24890510D01*
X21259490Y23538015D01*
X21195061Y23426420D01*
X21191038Y23419453D01*
X21187016Y23412486D01*
X21149500Y23272475D01*
X21149500Y19877019D01*
X21132817Y19822020D01*
X21123535Y19808129D01*
X21074500Y19689748D01*
X21074499Y19689743D01*
X21049500Y19564070D01*
X21049500Y19435931D01*
X21074499Y19310258D01*
X21074500Y19310253D01*
X21123534Y19191874D01*
X21132815Y19177985D01*
X21149500Y19122983D01*
X21149500Y15872474D01*
X21149500Y15727526D01*
X21187016Y15587515D01*
X21259490Y15461985D01*
X21552055Y15169420D01*
X21844146Y14877329D01*
X21866722Y14842396D01*
X21869635Y14834705D01*
X21874499Y14810256D01*
X21923535Y14691873D01*
X21924017Y14691152D01*
X21926510Y14684571D01*
X21927907Y14655453D01*
X21930195Y14626389D01*
X21929367Y14625038D01*
X21929443Y14623456D01*
X21913458Y14599078D01*
X21898226Y14574220D01*
X21896762Y14573614D01*
X21895894Y14572289D01*
X21868636Y14561964D01*
X21841698Y14550805D01*
X21838889Y14550695D01*
X21838676Y14550614D01*
X21838444Y14550678D01*
X21833930Y14550500D01*
X19540691Y14550500D01*
X19495508Y14538394D01*
X19450325Y14526287D01*
X19450324Y14526288D01*
X19426115Y14519800D01*
X19323386Y14460490D01*
X18739511Y13876615D01*
X18718022Y13839397D01*
X18698790Y13815563D01*
X18693368Y13810647D01*
X18685331Y13805276D01*
X18664757Y13784703D01*
X18662955Y13783068D01*
X18637139Y13771465D01*
X18611938Y13758625D01*
X18609449Y13759020D01*
X18607148Y13757985D01*
X18579448Y13763772D01*
X18551506Y13768197D01*
X18549430Y13770042D01*
X18547255Y13770496D01*
X18540347Y13778114D01*
X18514139Y13801404D01*
X18505276Y13814669D01*
X18414669Y13905276D01*
X18372226Y13933635D01*
X18308133Y13976462D01*
X18308125Y13976466D01*
X18189747Y14025500D01*
X18189745Y14025501D01*
X18189744Y14025501D01*
X18064069Y14050500D01*
X17935931Y14050500D01*
X17935930Y14050500D01*
X17873093Y14038001D01*
X17810256Y14025501D01*
X17810255Y14025501D01*
X17810252Y14025500D01*
X17691874Y13976466D01*
X17691866Y13976462D01*
X17585331Y13905276D01*
X17585321Y13905268D01*
X17543242Y13863189D01*
X17488725Y13835412D01*
X17428293Y13844984D01*
X17385029Y13888249D01*
X17381774Y13895309D01*
X17377647Y13905273D01*
X17376465Y13908127D01*
X17376463Y13908130D01*
X17376461Y13908134D01*
X17322093Y13989500D01*
X17305276Y14014669D01*
X17279496Y14040449D01*
X17251719Y14094966D01*
X17250500Y14110453D01*
X17250500Y16559308D01*
X17241010Y16594724D01*
X17219799Y16673886D01*
X17219799Y16673887D01*
X17160490Y16776614D01*
X15579496Y18357608D01*
X15551719Y18412125D01*
X15550500Y18427612D01*
X15550500Y18464068D01*
X15550500Y18464069D01*
X15525501Y18589744D01*
X15476465Y18708127D01*
X15476463Y18708130D01*
X15476461Y18708134D01*
X15447717Y18751152D01*
X15405276Y18814669D01*
X15314669Y18905276D01*
X15272226Y18933635D01*
X15208133Y18976462D01*
X15208125Y18976466D01*
X15089747Y19025500D01*
X15089745Y19025501D01*
X15089744Y19025501D01*
X14964069Y19050500D01*
X14835931Y19050500D01*
X14835930Y19050500D01*
X14773093Y19038001D01*
X14710256Y19025501D01*
X14710255Y19025501D01*
X14710252Y19025500D01*
X14591874Y18976466D01*
X14591866Y18976462D01*
X14485331Y18905276D01*
X14485327Y18905273D01*
X14394727Y18814673D01*
X14394724Y18814669D01*
X14323538Y18708134D01*
X14323534Y18708126D01*
X14274500Y18589748D01*
X14274499Y18589743D01*
X14249500Y18464070D01*
X14249500Y18335931D01*
X14274499Y18210258D01*
X14274500Y18210253D01*
X14323534Y18091875D01*
X14323538Y18091867D01*
X14356721Y18042206D01*
X14394724Y17985331D01*
X14485331Y17894724D01*
X14537313Y17859991D01*
X14591866Y17823539D01*
X14591870Y17823537D01*
X14591873Y17823535D01*
X14710256Y17774499D01*
X14835931Y17749500D01*
X14872389Y17749500D01*
X14930580Y17730593D01*
X14942393Y17720504D01*
X16320504Y16342393D01*
X16348281Y16287876D01*
X16349500Y16272389D01*
X16349500Y14110453D01*
X16330593Y14052262D01*
X16320504Y14040449D01*
X16294727Y14014673D01*
X16294724Y14014669D01*
X16223538Y13908134D01*
X16223534Y13908126D01*
X16174500Y13789748D01*
X16174499Y13789745D01*
X16174499Y13789744D01*
X16149500Y13664069D01*
X16149500Y13535931D01*
X16171466Y13425501D01*
X16174499Y13410258D01*
X16174500Y13410253D01*
X16223534Y13291875D01*
X16223538Y13291867D01*
X16266365Y13227774D01*
X16294724Y13185331D01*
X16385331Y13094724D01*
X16406148Y13080815D01*
X16444027Y13032765D01*
X16446429Y12971627D01*
X16412436Y12920753D01*
X16355033Y12899576D01*
X16351146Y12899500D01*
X13224699Y12899500D01*
X13166508Y12918407D01*
X13130544Y12967907D01*
X13127601Y12979186D01*
X13125501Y12989744D01*
X13082017Y13094724D01*
X13076467Y13108123D01*
X13076461Y13108134D01*
X13047717Y13151152D01*
X13005276Y13214669D01*
X12914669Y13305276D01*
X12872226Y13333635D01*
X12808133Y13376462D01*
X12808125Y13376466D01*
X12689747Y13425500D01*
X12689745Y13425501D01*
X12689744Y13425501D01*
X12564069Y13450500D01*
X12435931Y13450500D01*
X12435930Y13450500D01*
X12373093Y13438001D01*
X12310256Y13425501D01*
X12310255Y13425501D01*
X12310252Y13425500D01*
X12191874Y13376466D01*
X12191866Y13376462D01*
X12085331Y13305276D01*
X12085327Y13305273D01*
X11994727Y13214673D01*
X11994724Y13214669D01*
X11923538Y13108134D01*
X11923534Y13108126D01*
X11874500Y12989748D01*
X11874500Y12989746D01*
X11874499Y12989744D01*
X11870895Y12971627D01*
X11851419Y12873714D01*
X11849500Y12864069D01*
X11849500Y12735931D01*
X11866692Y12649501D01*
X11874499Y12610258D01*
X11874500Y12610253D01*
X11923534Y12491875D01*
X11923538Y12491867D01*
X11966365Y12427774D01*
X11994724Y12385331D01*
X11994727Y12385328D01*
X12010551Y12369504D01*
X12038328Y12314987D01*
X12028757Y12254555D01*
X11985492Y12211290D01*
X11940547Y12200500D01*
X5531004Y12200500D01*
X5395672Y12173580D01*
X5395670Y12173580D01*
X5268193Y12120778D01*
X5268182Y12120772D01*
X5153458Y12044115D01*
X5055885Y11946542D01*
X4979228Y11831818D01*
X4979222Y11831807D01*
X4926420Y11704330D01*
X4926420Y11704328D01*
X4899500Y11568996D01*
X300500Y11568996D01*
X300500Y17834870D01*
X2024500Y17834870D01*
X2024500Y14245140D01*
X2024501Y14245137D01*
X2027414Y14220010D01*
X2040886Y14189500D01*
X2072794Y14117235D01*
X2152235Y14037794D01*
X2255009Y13992415D01*
X2280135Y13989500D01*
X5869864Y13989501D01*
X5894991Y13992415D01*
X5997765Y14037794D01*
X6077206Y14117235D01*
X6122585Y14220009D01*
X6125500Y14245135D01*
X6125499Y16161290D01*
X10869500Y16161290D01*
X10869500Y15918711D01*
X10901161Y15678219D01*
X10901161Y15678214D01*
X10963944Y15443908D01*
X10963948Y15443895D01*
X11056772Y15219796D01*
X11056774Y15219792D01*
X11056776Y15219788D01*
X11146681Y15064068D01*
X11178066Y15009708D01*
X11325729Y14817269D01*
X11325731Y14817267D01*
X11325735Y14817262D01*
X11497262Y14645735D01*
X11497266Y14645732D01*
X11497268Y14645730D01*
X11661384Y14519800D01*
X11689711Y14498064D01*
X11899788Y14376776D01*
X12123900Y14283946D01*
X12358211Y14221162D01*
X12598712Y14189500D01*
X12598713Y14189500D01*
X12841287Y14189500D01*
X12841288Y14189500D01*
X13081789Y14221162D01*
X13316100Y14283946D01*
X13540212Y14376776D01*
X13750289Y14498064D01*
X13942738Y14645735D01*
X14114265Y14817262D01*
X14261936Y15009711D01*
X14383224Y15219788D01*
X14476054Y15443900D01*
X14538838Y15678211D01*
X14570500Y15918712D01*
X14570500Y16161288D01*
X14538838Y16401789D01*
X14476054Y16636100D01*
X14383224Y16860212D01*
X14261936Y17070289D01*
X14189976Y17164069D01*
X14114270Y17262732D01*
X14114268Y17262734D01*
X14114265Y17262738D01*
X13942738Y17434265D01*
X13942733Y17434269D01*
X13942731Y17434271D01*
X13750292Y17581934D01*
X13745053Y17584959D01*
X13540212Y17703224D01*
X13540208Y17703226D01*
X13540204Y17703228D01*
X13316105Y17796052D01*
X13316104Y17796053D01*
X13316100Y17796054D01*
X13081789Y17858838D01*
X13081786Y17858839D01*
X13081784Y17858839D01*
X12841289Y17890500D01*
X12841288Y17890500D01*
X12598712Y17890500D01*
X12598710Y17890500D01*
X12358218Y17858839D01*
X12358213Y17858839D01*
X12123907Y17796056D01*
X12123894Y17796052D01*
X11899795Y17703228D01*
X11689707Y17581934D01*
X11497268Y17434271D01*
X11325729Y17262732D01*
X11178066Y17070293D01*
X11056772Y16860205D01*
X10963948Y16636106D01*
X10963944Y16636093D01*
X10901161Y16401787D01*
X10901161Y16401782D01*
X10869500Y16161290D01*
X6125499Y16161290D01*
X6125499Y17834864D01*
X6122585Y17859991D01*
X6077206Y17962765D01*
X5997765Y18042206D01*
X5894991Y18087585D01*
X5894990Y18087586D01*
X5894988Y18087586D01*
X5869868Y18090500D01*
X2280139Y18090500D01*
X2280136Y18090499D01*
X2255009Y18087586D01*
X2152235Y18042206D01*
X2072794Y17962765D01*
X2027414Y17859989D01*
X2024500Y17834870D01*
X300500Y17834870D01*
X300500Y29997227D01*
X300656Y30002778D01*
X306469Y30106291D01*
X1649500Y30106291D01*
X1649500Y29893710D01*
X1682752Y29683762D01*
X1748443Y29481588D01*
X1844948Y29292185D01*
X1844950Y29292181D01*
X1969891Y29120214D01*
X1969893Y29120212D01*
X1969896Y29120208D01*
X2120208Y28969896D01*
X2120211Y28969894D01*
X2120213Y28969892D01*
X2292180Y28844951D01*
X2292184Y28844949D01*
X2481588Y28748443D01*
X2683757Y28682754D01*
X2683758Y28682754D01*
X2683761Y28682753D01*
X2893710Y28649500D01*
X2893713Y28649500D01*
X3106290Y28649500D01*
X3316238Y28682753D01*
X3316239Y28682754D01*
X3316243Y28682754D01*
X3518412Y28748443D01*
X3707816Y28844949D01*
X3879792Y28969896D01*
X4030104Y29120208D01*
X4155051Y29292184D01*
X4251557Y29481588D01*
X4317246Y29683757D01*
X4317247Y29683762D01*
X4350500Y29893710D01*
X4350500Y30106291D01*
X4317247Y30316239D01*
X4288854Y30403623D01*
X4251557Y30518412D01*
X4155051Y30707816D01*
X4155049Y30707820D01*
X4030108Y30879787D01*
X4030106Y30879789D01*
X4030104Y30879792D01*
X3879792Y31030104D01*
X3879788Y31030107D01*
X3879786Y31030109D01*
X3707819Y31155050D01*
X3707815Y31155052D01*
X3518412Y31251557D01*
X3316238Y31317248D01*
X3106290Y31350500D01*
X3106287Y31350500D01*
X2893713Y31350500D01*
X2893710Y31350500D01*
X2683761Y31317248D01*
X2481587Y31251557D01*
X2292184Y31155052D01*
X2292180Y31155050D01*
X2120213Y31030109D01*
X1969891Y30879787D01*
X1844950Y30707820D01*
X1844948Y30707816D01*
X1748443Y30518413D01*
X1682752Y30316239D01*
X1649500Y30106291D01*
X306469Y30106291D01*
X317162Y30296704D01*
X318405Y30307730D01*
X319851Y30316239D01*
X367253Y30595229D01*
X369714Y30606015D01*
X450451Y30886258D01*
X454111Y30896717D01*
X565711Y31166142D01*
X570525Y31176137D01*
X593122Y31217023D01*
X711583Y31431364D01*
X717479Y31440747D01*
X886230Y31678579D01*
X893149Y31687255D01*
X1087475Y31904707D01*
X1095293Y31912525D01*
X1312748Y32106854D01*
X1321424Y32113772D01*
X1559253Y32282521D01*
X1568636Y32288417D01*
X1823869Y32429478D01*
X1833858Y32434289D01*
X2103283Y32545889D01*
X2113742Y32549549D01*
X2393985Y32630286D01*
X2404771Y32632747D01*
X2692277Y32681596D01*
X2703296Y32682838D01*
X2997222Y32699345D01*
X3002773Y32699500D01*
X3047595Y32699500D01*
X35511695Y32699500D01*
X35569886Y32680593D01*
G37*
%TD.AperFunction*%
%TD*%
M02*
