%TF.GenerationSoftware,KiCad,Pcbnew,9.0.6*%
%TF.CreationDate,2026-02-05T22:18:58+05:30*%
%TF.ProjectId,Vitalung_V0.1,56697461-6c75-46e6-975f-56302e312e6b,0.1*%
%TF.SameCoordinates,PX7057c40PY68e7780*%
%TF.FileFunction,Drillmap*%
%TF.FilePolarity,Positive*%
%FSLAX45Y45*%
G04 Gerber Fmt 4.5, Leading zero omitted, Abs format (unit mm)*
G04 Created by KiCad (PCBNEW 9.0.6) date 2026-02-05 22:18:58*
%MOMM*%
%LPD*%
G01*
G04 APERTURE LIST*
%ADD10C,0.050000*%
%ADD11C,0.200000*%
%ADD12C,0.100000*%
%ADD13C,0.150000*%
G04 APERTURE END LIST*
D10*
X0Y300000D02*
X0Y3000000D01*
X7700000Y3300000D02*
G75*
G02*
X8000000Y3000000I0J-300000D01*
G01*
X0Y3000000D02*
G75*
G02*
X300000Y3300000I300000J0D01*
G01*
X8000000Y300000D02*
G75*
G02*
X7700000Y0I-300000J0D01*
G01*
X7700000Y3300000D02*
X300000Y3300000D01*
X8000000Y3000000D02*
X8000000Y300000D01*
X7700000Y0D02*
X300000Y0D01*
X300000Y0D02*
G75*
G02*
X0Y300000I0J300000D01*
G01*
D11*
D12*
X535000Y965000D02*
X565000Y935000D01*
X565000Y965000D02*
X535000Y935000D01*
X545000Y1165000D02*
X575000Y1135000D01*
X575000Y1165000D02*
X545000Y1135000D01*
X545000Y1035000D02*
X575000Y1005000D01*
X575000Y1035000D02*
X545000Y1005000D01*
X595000Y765000D02*
X625000Y735000D01*
X625000Y765000D02*
X595000Y735000D01*
X595000Y685000D02*
X625000Y655000D01*
X625000Y685000D02*
X595000Y655000D01*
X715000Y655000D02*
X745000Y625000D01*
X745000Y655000D02*
X715000Y625000D01*
X795000Y2035000D02*
X825000Y2005000D01*
X825000Y2035000D02*
X795000Y2005000D01*
X795000Y1935000D02*
X825000Y1905000D01*
X825000Y1935000D02*
X795000Y1905000D01*
X1045000Y1165000D02*
X1075000Y1135000D01*
X1075000Y1165000D02*
X1045000Y1135000D01*
X1105000Y2035000D02*
X1135000Y2005000D01*
X1135000Y2035000D02*
X1105000Y2005000D01*
X1105000Y1945000D02*
X1135000Y1915000D01*
X1135000Y1945000D02*
X1105000Y1915000D01*
X1235000Y1295000D02*
X1265000Y1265000D01*
X1265000Y1295000D02*
X1235000Y1265000D01*
X1455000Y2225000D02*
X1485000Y2195000D01*
X1485000Y2225000D02*
X1455000Y2195000D01*
X1455000Y1485000D02*
X1485000Y1455000D01*
X1485000Y1485000D02*
X1455000Y1455000D01*
X1475000Y1855000D02*
X1505000Y1825000D01*
X1505000Y1855000D02*
X1475000Y1825000D01*
X1665000Y1375000D02*
X1695000Y1345000D01*
X1695000Y1375000D02*
X1665000Y1345000D01*
X1715000Y1025000D02*
X1745000Y995000D01*
X1745000Y1025000D02*
X1715000Y995000D01*
X1715000Y925000D02*
X1745000Y895000D01*
X1745000Y925000D02*
X1715000Y895000D01*
X1755000Y1485000D02*
X1785000Y1455000D01*
X1785000Y1485000D02*
X1755000Y1455000D01*
X1785000Y1355000D02*
X1815000Y1325000D01*
X1815000Y1355000D02*
X1785000Y1325000D01*
X1895000Y1345000D02*
X1925000Y1315000D01*
X1925000Y1345000D02*
X1895000Y1315000D01*
X1905000Y1985000D02*
X1935000Y1955000D01*
X1935000Y1985000D02*
X1905000Y1955000D01*
X1915000Y2455000D02*
X1945000Y2425000D01*
X1945000Y2455000D02*
X1915000Y2425000D01*
X1955000Y1665000D02*
X1985000Y1635000D01*
X1985000Y1665000D02*
X1955000Y1635000D01*
X1995000Y1965000D02*
X2025000Y1935000D01*
X2025000Y1965000D02*
X1995000Y1935000D01*
X2005000Y1345000D02*
X2035000Y1315000D01*
X2035000Y1345000D02*
X2005000Y1315000D01*
X2155000Y1965000D02*
X2185000Y1935000D01*
X2185000Y1965000D02*
X2155000Y1935000D01*
X2235000Y1515000D02*
X2265000Y1485000D01*
X2265000Y1515000D02*
X2235000Y1485000D01*
X2405000Y2435000D02*
X2435000Y2405000D01*
X2435000Y2435000D02*
X2405000Y2405000D01*
X2405000Y855000D02*
X2435000Y825000D01*
X2435000Y855000D02*
X2405000Y825000D01*
X2515000Y995000D02*
X2545000Y965000D01*
X2545000Y995000D02*
X2515000Y965000D01*
X2585000Y2584900D02*
X2615000Y2554900D01*
X2615000Y2584900D02*
X2585000Y2554900D01*
X2935000Y2445000D02*
X2965000Y2415000D01*
X2965000Y2445000D02*
X2935000Y2415000D01*
X3005000Y1045000D02*
X3035000Y1015000D01*
X3035000Y1045000D02*
X3005000Y1015000D01*
X3325000Y1415000D02*
X3355000Y1385000D01*
X3355000Y1415000D02*
X3325000Y1385000D01*
X3435000Y1405000D02*
X3465000Y1375000D01*
X3465000Y1405000D02*
X3435000Y1375000D01*
X3555000Y1425000D02*
X3585000Y1395000D01*
X3585000Y1425000D02*
X3555000Y1395000D01*
X4275000Y1965000D02*
X4305000Y1935000D01*
X4305000Y1965000D02*
X4275000Y1935000D01*
X4305000Y1385000D02*
X4335000Y1355000D01*
X4335000Y1385000D02*
X4305000Y1355000D01*
X4305000Y1295000D02*
X4335000Y1265000D01*
X4335000Y1295000D02*
X4305000Y1265000D01*
X4355000Y1725000D02*
X4385000Y1695000D01*
X4385000Y1725000D02*
X4355000Y1695000D01*
X4375000Y1965000D02*
X4405000Y1935000D01*
X4405000Y1965000D02*
X4375000Y1935000D01*
X4485000Y1045000D02*
X4515000Y1015000D01*
X4515000Y1045000D02*
X4485000Y1015000D01*
X4645000Y2395000D02*
X4675000Y2365000D01*
X4675000Y2395000D02*
X4645000Y2365000D01*
X6605000Y685000D02*
X6635000Y655000D01*
X6635000Y685000D02*
X6605000Y655000D01*
X6605000Y595000D02*
X6635000Y565000D01*
X6635000Y595000D02*
X6605000Y565000D01*
X6665000Y3086175D02*
X6695000Y3056175D01*
X6695000Y3086175D02*
X6665000Y3056175D01*
X6675000Y2785000D02*
X6705000Y2755000D01*
X6705000Y2785000D02*
X6675000Y2755000D01*
X6775000Y2785000D02*
X6805000Y2755000D01*
X6805000Y2785000D02*
X6775000Y2755000D01*
X6885000Y685000D02*
X6915000Y655000D01*
X6915000Y685000D02*
X6885000Y655000D01*
X6885000Y595000D02*
X6915000Y565000D01*
X6915000Y595000D02*
X6885000Y565000D01*
X6905000Y2445000D02*
X6935000Y2415000D01*
X6935000Y2445000D02*
X6905000Y2415000D01*
X6956905Y1906905D02*
X6986905Y1876905D01*
X6986905Y1906905D02*
X6956905Y1876905D01*
X7622500Y837500D02*
X7652500Y807500D01*
X7652500Y837500D02*
X7622500Y807500D01*
X7905000Y735000D02*
X7935000Y705000D01*
X7935000Y735000D02*
X7905000Y705000D01*
X7905000Y635000D02*
X7935000Y605000D01*
X7935000Y635000D02*
X7905000Y605000D01*
X2487000Y2900000D02*
G75*
G02*
X2397000Y2900000I-45000J0D01*
G01*
X2397000Y2900000D02*
G75*
G02*
X2487000Y2900000I45000J0D01*
G01*
X2741000Y2900000D02*
G75*
G02*
X2651000Y2900000I-45000J0D01*
G01*
X2651000Y2900000D02*
G75*
G02*
X2741000Y2900000I45000J0D01*
G01*
X2995000Y2900000D02*
G75*
G02*
X2905000Y2900000I-45000J0D01*
G01*
X2905000Y2900000D02*
G75*
G02*
X2995000Y2900000I45000J0D01*
G01*
X3845000Y3050000D02*
G75*
G02*
X3755000Y3050000I-45000J0D01*
G01*
X3755000Y3050000D02*
G75*
G02*
X3845000Y3050000I45000J0D01*
G01*
X4045000Y3050000D02*
G75*
G02*
X3955000Y3050000I-45000J0D01*
G01*
X3955000Y3050000D02*
G75*
G02*
X4045000Y3050000I45000J0D01*
G01*
X4245000Y3050000D02*
G75*
G02*
X4155000Y3050000I-45000J0D01*
G01*
X4155000Y3050000D02*
G75*
G02*
X4245000Y3050000I45000J0D01*
G01*
X7045000Y2900000D02*
G75*
G02*
X6955000Y2900000I-45000J0D01*
G01*
X6955000Y2900000D02*
G75*
G02*
X7045000Y2900000I45000J0D01*
G01*
X7299000Y2900000D02*
G75*
G02*
X7209000Y2900000I-45000J0D01*
G01*
X7209000Y2900000D02*
G75*
G02*
X7299000Y2900000I45000J0D01*
G01*
X3365000Y450000D02*
X3365000Y350000D01*
X3315000Y400000D02*
X3415000Y400000D01*
X3619000Y450000D02*
X3619000Y350000D01*
X3569000Y400000D02*
X3669000Y400000D01*
X3873000Y450000D02*
X3873000Y350000D01*
X3823000Y400000D02*
X3923000Y400000D01*
X4127000Y450000D02*
X4127000Y350000D01*
X4077000Y400000D02*
X4177000Y400000D01*
X4381000Y450000D02*
X4381000Y350000D01*
X4331000Y400000D02*
X4431000Y400000D01*
X4635000Y450000D02*
X4635000Y350000D01*
X4585000Y400000D02*
X4685000Y400000D01*
D13*
X3643033Y2996966D02*
X3643033Y3103033D01*
X3536966Y3103033D01*
X3536966Y2996966D01*
X3643033Y2996966D01*
X4463034Y2996966D02*
X4463034Y3103033D01*
X4356967Y3103033D01*
X4356967Y2996966D01*
X4463034Y2996966D01*
D11*
X407500Y1504000D02*
X507500Y1604000D01*
X407500Y1704000D01*
X307500Y1604000D01*
X407500Y1504000D01*
X7607500Y1504000D02*
X7707500Y1604000D01*
X7607500Y1704000D01*
X7507500Y1604000D01*
X7607500Y1504000D01*
X258277Y-313984D02*
X258277Y-113984D01*
X258277Y-113984D02*
X305896Y-113984D01*
X305896Y-113984D02*
X334467Y-123508D01*
X334467Y-123508D02*
X353515Y-142555D01*
X353515Y-142555D02*
X363039Y-161603D01*
X363039Y-161603D02*
X372562Y-199698D01*
X372562Y-199698D02*
X372562Y-228269D01*
X372562Y-228269D02*
X363039Y-266365D01*
X363039Y-266365D02*
X353515Y-285412D01*
X353515Y-285412D02*
X334467Y-304460D01*
X334467Y-304460D02*
X305896Y-313984D01*
X305896Y-313984D02*
X258277Y-313984D01*
X458277Y-313984D02*
X458277Y-180650D01*
X458277Y-218746D02*
X467801Y-199698D01*
X467801Y-199698D02*
X477324Y-190174D01*
X477324Y-190174D02*
X496372Y-180650D01*
X496372Y-180650D02*
X515420Y-180650D01*
X582086Y-313984D02*
X582086Y-180650D01*
X582086Y-113984D02*
X572563Y-123508D01*
X572563Y-123508D02*
X582086Y-133031D01*
X582086Y-133031D02*
X591610Y-123508D01*
X591610Y-123508D02*
X582086Y-113984D01*
X582086Y-113984D02*
X582086Y-133031D01*
X705896Y-313984D02*
X686848Y-304460D01*
X686848Y-304460D02*
X677324Y-285412D01*
X677324Y-285412D02*
X677324Y-113984D01*
X810658Y-313984D02*
X791610Y-304460D01*
X791610Y-304460D02*
X782086Y-285412D01*
X782086Y-285412D02*
X782086Y-113984D01*
X1039229Y-313984D02*
X1039229Y-113984D01*
X1039229Y-113984D02*
X1105896Y-256841D01*
X1105896Y-256841D02*
X1172563Y-113984D01*
X1172563Y-113984D02*
X1172563Y-313984D01*
X1353515Y-313984D02*
X1353515Y-209222D01*
X1353515Y-209222D02*
X1343991Y-190174D01*
X1343991Y-190174D02*
X1324944Y-180650D01*
X1324944Y-180650D02*
X1286848Y-180650D01*
X1286848Y-180650D02*
X1267801Y-190174D01*
X1353515Y-304460D02*
X1334467Y-313984D01*
X1334467Y-313984D02*
X1286848Y-313984D01*
X1286848Y-313984D02*
X1267801Y-304460D01*
X1267801Y-304460D02*
X1258277Y-285412D01*
X1258277Y-285412D02*
X1258277Y-266365D01*
X1258277Y-266365D02*
X1267801Y-247317D01*
X1267801Y-247317D02*
X1286848Y-237793D01*
X1286848Y-237793D02*
X1334467Y-237793D01*
X1334467Y-237793D02*
X1353515Y-228269D01*
X1448753Y-180650D02*
X1448753Y-380650D01*
X1448753Y-190174D02*
X1467801Y-180650D01*
X1467801Y-180650D02*
X1505896Y-180650D01*
X1505896Y-180650D02*
X1524943Y-190174D01*
X1524943Y-190174D02*
X1534467Y-199698D01*
X1534467Y-199698D02*
X1543991Y-218746D01*
X1543991Y-218746D02*
X1543991Y-275889D01*
X1543991Y-275889D02*
X1534467Y-294936D01*
X1534467Y-294936D02*
X1524943Y-304460D01*
X1524943Y-304460D02*
X1505896Y-313984D01*
X1505896Y-313984D02*
X1467801Y-313984D01*
X1467801Y-313984D02*
X1448753Y-304460D01*
X1629705Y-294936D02*
X1639229Y-304460D01*
X1639229Y-304460D02*
X1629705Y-313984D01*
X1629705Y-313984D02*
X1620182Y-304460D01*
X1620182Y-304460D02*
X1629705Y-294936D01*
X1629705Y-294936D02*
X1629705Y-313984D01*
X1629705Y-190174D02*
X1639229Y-199698D01*
X1639229Y-199698D02*
X1629705Y-209222D01*
X1629705Y-209222D02*
X1620182Y-199698D01*
X1620182Y-199698D02*
X1629705Y-190174D01*
X1629705Y-190174D02*
X1629705Y-209222D01*
D12*
X-32500Y-627500D02*
X-2500Y-657500D01*
X-2500Y-627500D02*
X-32500Y-657500D01*
D11*
X296372Y-533984D02*
X315420Y-533984D01*
X315420Y-533984D02*
X334467Y-543508D01*
X334467Y-543508D02*
X343991Y-553031D01*
X343991Y-553031D02*
X353515Y-572079D01*
X353515Y-572079D02*
X363039Y-610174D01*
X363039Y-610174D02*
X363039Y-657793D01*
X363039Y-657793D02*
X353515Y-695889D01*
X353515Y-695889D02*
X343991Y-714936D01*
X343991Y-714936D02*
X334467Y-724460D01*
X334467Y-724460D02*
X315420Y-733984D01*
X315420Y-733984D02*
X296372Y-733984D01*
X296372Y-733984D02*
X277324Y-724460D01*
X277324Y-724460D02*
X267801Y-714936D01*
X267801Y-714936D02*
X258277Y-695889D01*
X258277Y-695889D02*
X248753Y-657793D01*
X248753Y-657793D02*
X248753Y-610174D01*
X248753Y-610174D02*
X258277Y-572079D01*
X258277Y-572079D02*
X267801Y-553031D01*
X267801Y-553031D02*
X277324Y-543508D01*
X277324Y-543508D02*
X296372Y-533984D01*
X448753Y-714936D02*
X458277Y-724460D01*
X458277Y-724460D02*
X448753Y-733984D01*
X448753Y-733984D02*
X439229Y-724460D01*
X439229Y-724460D02*
X448753Y-714936D01*
X448753Y-714936D02*
X448753Y-733984D01*
X524944Y-533984D02*
X648753Y-533984D01*
X648753Y-533984D02*
X582086Y-610174D01*
X582086Y-610174D02*
X610658Y-610174D01*
X610658Y-610174D02*
X629705Y-619698D01*
X629705Y-619698D02*
X639229Y-629222D01*
X639229Y-629222D02*
X648753Y-648270D01*
X648753Y-648270D02*
X648753Y-695889D01*
X648753Y-695889D02*
X639229Y-714936D01*
X639229Y-714936D02*
X629705Y-724460D01*
X629705Y-724460D02*
X610658Y-733984D01*
X610658Y-733984D02*
X553515Y-733984D01*
X553515Y-733984D02*
X534467Y-724460D01*
X534467Y-724460D02*
X524944Y-714936D01*
X772562Y-533984D02*
X791610Y-533984D01*
X791610Y-533984D02*
X810658Y-543508D01*
X810658Y-543508D02*
X820182Y-553031D01*
X820182Y-553031D02*
X829705Y-572079D01*
X829705Y-572079D02*
X839229Y-610174D01*
X839229Y-610174D02*
X839229Y-657793D01*
X839229Y-657793D02*
X829705Y-695889D01*
X829705Y-695889D02*
X820182Y-714936D01*
X820182Y-714936D02*
X810658Y-724460D01*
X810658Y-724460D02*
X791610Y-733984D01*
X791610Y-733984D02*
X772562Y-733984D01*
X772562Y-733984D02*
X753515Y-724460D01*
X753515Y-724460D02*
X743991Y-714936D01*
X743991Y-714936D02*
X734467Y-695889D01*
X734467Y-695889D02*
X724943Y-657793D01*
X724943Y-657793D02*
X724943Y-610174D01*
X724943Y-610174D02*
X734467Y-572079D01*
X734467Y-572079D02*
X743991Y-553031D01*
X743991Y-553031D02*
X753515Y-543508D01*
X753515Y-543508D02*
X772562Y-533984D01*
X963039Y-533984D02*
X982086Y-533984D01*
X982086Y-533984D02*
X1001134Y-543508D01*
X1001134Y-543508D02*
X1010658Y-553031D01*
X1010658Y-553031D02*
X1020182Y-572079D01*
X1020182Y-572079D02*
X1029705Y-610174D01*
X1029705Y-610174D02*
X1029705Y-657793D01*
X1029705Y-657793D02*
X1020182Y-695889D01*
X1020182Y-695889D02*
X1010658Y-714936D01*
X1010658Y-714936D02*
X1001134Y-724460D01*
X1001134Y-724460D02*
X982086Y-733984D01*
X982086Y-733984D02*
X963039Y-733984D01*
X963039Y-733984D02*
X943991Y-724460D01*
X943991Y-724460D02*
X934467Y-714936D01*
X934467Y-714936D02*
X924943Y-695889D01*
X924943Y-695889D02*
X915420Y-657793D01*
X915420Y-657793D02*
X915420Y-610174D01*
X915420Y-610174D02*
X924943Y-572079D01*
X924943Y-572079D02*
X934467Y-553031D01*
X934467Y-553031D02*
X943991Y-543508D01*
X943991Y-543508D02*
X963039Y-533984D01*
X1115420Y-733984D02*
X1115420Y-600650D01*
X1115420Y-619698D02*
X1124944Y-610174D01*
X1124944Y-610174D02*
X1143991Y-600650D01*
X1143991Y-600650D02*
X1172563Y-600650D01*
X1172563Y-600650D02*
X1191610Y-610174D01*
X1191610Y-610174D02*
X1201134Y-629222D01*
X1201134Y-629222D02*
X1201134Y-733984D01*
X1201134Y-629222D02*
X1210658Y-610174D01*
X1210658Y-610174D02*
X1229705Y-600650D01*
X1229705Y-600650D02*
X1258277Y-600650D01*
X1258277Y-600650D02*
X1277325Y-610174D01*
X1277325Y-610174D02*
X1286848Y-629222D01*
X1286848Y-629222D02*
X1286848Y-733984D01*
X1382086Y-733984D02*
X1382086Y-600650D01*
X1382086Y-619698D02*
X1391610Y-610174D01*
X1391610Y-610174D02*
X1410658Y-600650D01*
X1410658Y-600650D02*
X1439229Y-600650D01*
X1439229Y-600650D02*
X1458277Y-610174D01*
X1458277Y-610174D02*
X1467801Y-629222D01*
X1467801Y-629222D02*
X1467801Y-733984D01*
X1467801Y-629222D02*
X1477324Y-610174D01*
X1477324Y-610174D02*
X1496372Y-600650D01*
X1496372Y-600650D02*
X1524943Y-600650D01*
X1524943Y-600650D02*
X1543991Y-610174D01*
X1543991Y-610174D02*
X1553515Y-629222D01*
X1553515Y-629222D02*
X1553515Y-733984D01*
X1943991Y-524460D02*
X1772563Y-781603D01*
X2201134Y-533984D02*
X2220182Y-533984D01*
X2220182Y-533984D02*
X2239229Y-543508D01*
X2239229Y-543508D02*
X2248753Y-553031D01*
X2248753Y-553031D02*
X2258277Y-572079D01*
X2258277Y-572079D02*
X2267801Y-610174D01*
X2267801Y-610174D02*
X2267801Y-657793D01*
X2267801Y-657793D02*
X2258277Y-695889D01*
X2258277Y-695889D02*
X2248753Y-714936D01*
X2248753Y-714936D02*
X2239229Y-724460D01*
X2239229Y-724460D02*
X2220182Y-733984D01*
X2220182Y-733984D02*
X2201134Y-733984D01*
X2201134Y-733984D02*
X2182087Y-724460D01*
X2182087Y-724460D02*
X2172563Y-714936D01*
X2172563Y-714936D02*
X2163039Y-695889D01*
X2163039Y-695889D02*
X2153515Y-657793D01*
X2153515Y-657793D02*
X2153515Y-610174D01*
X2153515Y-610174D02*
X2163039Y-572079D01*
X2163039Y-572079D02*
X2172563Y-553031D01*
X2172563Y-553031D02*
X2182087Y-543508D01*
X2182087Y-543508D02*
X2201134Y-533984D01*
X2353515Y-714936D02*
X2363039Y-724460D01*
X2363039Y-724460D02*
X2353515Y-733984D01*
X2353515Y-733984D02*
X2343991Y-724460D01*
X2343991Y-724460D02*
X2353515Y-714936D01*
X2353515Y-714936D02*
X2353515Y-733984D01*
X2486848Y-533984D02*
X2505896Y-533984D01*
X2505896Y-533984D02*
X2524944Y-543508D01*
X2524944Y-543508D02*
X2534468Y-553031D01*
X2534468Y-553031D02*
X2543991Y-572079D01*
X2543991Y-572079D02*
X2553515Y-610174D01*
X2553515Y-610174D02*
X2553515Y-657793D01*
X2553515Y-657793D02*
X2543991Y-695889D01*
X2543991Y-695889D02*
X2534468Y-714936D01*
X2534468Y-714936D02*
X2524944Y-724460D01*
X2524944Y-724460D02*
X2505896Y-733984D01*
X2505896Y-733984D02*
X2486848Y-733984D01*
X2486848Y-733984D02*
X2467801Y-724460D01*
X2467801Y-724460D02*
X2458277Y-714936D01*
X2458277Y-714936D02*
X2448753Y-695889D01*
X2448753Y-695889D02*
X2439229Y-657793D01*
X2439229Y-657793D02*
X2439229Y-610174D01*
X2439229Y-610174D02*
X2448753Y-572079D01*
X2448753Y-572079D02*
X2458277Y-553031D01*
X2458277Y-553031D02*
X2467801Y-543508D01*
X2467801Y-543508D02*
X2486848Y-533984D01*
X2743991Y-733984D02*
X2629706Y-733984D01*
X2686848Y-733984D02*
X2686848Y-533984D01*
X2686848Y-533984D02*
X2667801Y-562555D01*
X2667801Y-562555D02*
X2648753Y-581603D01*
X2648753Y-581603D02*
X2629706Y-591127D01*
X2934467Y-733984D02*
X2820182Y-733984D01*
X2877325Y-733984D02*
X2877325Y-533984D01*
X2877325Y-533984D02*
X2858277Y-562555D01*
X2858277Y-562555D02*
X2839229Y-581603D01*
X2839229Y-581603D02*
X2820182Y-591127D01*
X3048753Y-619698D02*
X3029706Y-610174D01*
X3029706Y-610174D02*
X3020182Y-600650D01*
X3020182Y-600650D02*
X3010658Y-581603D01*
X3010658Y-581603D02*
X3010658Y-572079D01*
X3010658Y-572079D02*
X3020182Y-553031D01*
X3020182Y-553031D02*
X3029706Y-543508D01*
X3029706Y-543508D02*
X3048753Y-533984D01*
X3048753Y-533984D02*
X3086848Y-533984D01*
X3086848Y-533984D02*
X3105896Y-543508D01*
X3105896Y-543508D02*
X3115420Y-553031D01*
X3115420Y-553031D02*
X3124944Y-572079D01*
X3124944Y-572079D02*
X3124944Y-581603D01*
X3124944Y-581603D02*
X3115420Y-600650D01*
X3115420Y-600650D02*
X3105896Y-610174D01*
X3105896Y-610174D02*
X3086848Y-619698D01*
X3086848Y-619698D02*
X3048753Y-619698D01*
X3048753Y-619698D02*
X3029706Y-629222D01*
X3029706Y-629222D02*
X3020182Y-638746D01*
X3020182Y-638746D02*
X3010658Y-657793D01*
X3010658Y-657793D02*
X3010658Y-695889D01*
X3010658Y-695889D02*
X3020182Y-714936D01*
X3020182Y-714936D02*
X3029706Y-724460D01*
X3029706Y-724460D02*
X3048753Y-733984D01*
X3048753Y-733984D02*
X3086848Y-733984D01*
X3086848Y-733984D02*
X3105896Y-724460D01*
X3105896Y-724460D02*
X3115420Y-714936D01*
X3115420Y-714936D02*
X3124944Y-695889D01*
X3124944Y-695889D02*
X3124944Y-657793D01*
X3124944Y-657793D02*
X3115420Y-638746D01*
X3115420Y-638746D02*
X3105896Y-629222D01*
X3105896Y-629222D02*
X3086848Y-619698D01*
X3201134Y-533984D02*
X3201134Y-572079D01*
X3277325Y-533984D02*
X3277325Y-572079D01*
X3572563Y-810174D02*
X3563039Y-800650D01*
X3563039Y-800650D02*
X3543991Y-772079D01*
X3543991Y-772079D02*
X3534468Y-753031D01*
X3534468Y-753031D02*
X3524944Y-724460D01*
X3524944Y-724460D02*
X3515420Y-676841D01*
X3515420Y-676841D02*
X3515420Y-638746D01*
X3515420Y-638746D02*
X3524944Y-591127D01*
X3524944Y-591127D02*
X3534468Y-562555D01*
X3534468Y-562555D02*
X3543991Y-543508D01*
X3543991Y-543508D02*
X3563039Y-514936D01*
X3563039Y-514936D02*
X3572563Y-505412D01*
X3743991Y-533984D02*
X3648753Y-533984D01*
X3648753Y-533984D02*
X3639229Y-629222D01*
X3639229Y-629222D02*
X3648753Y-619698D01*
X3648753Y-619698D02*
X3667801Y-610174D01*
X3667801Y-610174D02*
X3715420Y-610174D01*
X3715420Y-610174D02*
X3734468Y-619698D01*
X3734468Y-619698D02*
X3743991Y-629222D01*
X3743991Y-629222D02*
X3753515Y-648270D01*
X3753515Y-648270D02*
X3753515Y-695889D01*
X3753515Y-695889D02*
X3743991Y-714936D01*
X3743991Y-714936D02*
X3734468Y-724460D01*
X3734468Y-724460D02*
X3715420Y-733984D01*
X3715420Y-733984D02*
X3667801Y-733984D01*
X3667801Y-733984D02*
X3648753Y-724460D01*
X3648753Y-724460D02*
X3639229Y-714936D01*
X3924944Y-533984D02*
X3886848Y-533984D01*
X3886848Y-533984D02*
X3867801Y-543508D01*
X3867801Y-543508D02*
X3858277Y-553031D01*
X3858277Y-553031D02*
X3839229Y-581603D01*
X3839229Y-581603D02*
X3829706Y-619698D01*
X3829706Y-619698D02*
X3829706Y-695889D01*
X3829706Y-695889D02*
X3839229Y-714936D01*
X3839229Y-714936D02*
X3848753Y-724460D01*
X3848753Y-724460D02*
X3867801Y-733984D01*
X3867801Y-733984D02*
X3905896Y-733984D01*
X3905896Y-733984D02*
X3924944Y-724460D01*
X3924944Y-724460D02*
X3934468Y-714936D01*
X3934468Y-714936D02*
X3943991Y-695889D01*
X3943991Y-695889D02*
X3943991Y-648270D01*
X3943991Y-648270D02*
X3934468Y-629222D01*
X3934468Y-629222D02*
X3924944Y-619698D01*
X3924944Y-619698D02*
X3905896Y-610174D01*
X3905896Y-610174D02*
X3867801Y-610174D01*
X3867801Y-610174D02*
X3848753Y-619698D01*
X3848753Y-619698D02*
X3839229Y-629222D01*
X3839229Y-629222D02*
X3829706Y-648270D01*
X4182087Y-733984D02*
X4182087Y-533984D01*
X4267801Y-733984D02*
X4267801Y-629222D01*
X4267801Y-629222D02*
X4258277Y-610174D01*
X4258277Y-610174D02*
X4239230Y-600650D01*
X4239230Y-600650D02*
X4210658Y-600650D01*
X4210658Y-600650D02*
X4191610Y-610174D01*
X4191610Y-610174D02*
X4182087Y-619698D01*
X4391611Y-733984D02*
X4372563Y-724460D01*
X4372563Y-724460D02*
X4363039Y-714936D01*
X4363039Y-714936D02*
X4353515Y-695889D01*
X4353515Y-695889D02*
X4353515Y-638746D01*
X4353515Y-638746D02*
X4363039Y-619698D01*
X4363039Y-619698D02*
X4372563Y-610174D01*
X4372563Y-610174D02*
X4391611Y-600650D01*
X4391611Y-600650D02*
X4420182Y-600650D01*
X4420182Y-600650D02*
X4439230Y-610174D01*
X4439230Y-610174D02*
X4448753Y-619698D01*
X4448753Y-619698D02*
X4458277Y-638746D01*
X4458277Y-638746D02*
X4458277Y-695889D01*
X4458277Y-695889D02*
X4448753Y-714936D01*
X4448753Y-714936D02*
X4439230Y-724460D01*
X4439230Y-724460D02*
X4420182Y-733984D01*
X4420182Y-733984D02*
X4391611Y-733984D01*
X4572563Y-733984D02*
X4553515Y-724460D01*
X4553515Y-724460D02*
X4543992Y-705412D01*
X4543992Y-705412D02*
X4543992Y-533984D01*
X4724944Y-724460D02*
X4705896Y-733984D01*
X4705896Y-733984D02*
X4667801Y-733984D01*
X4667801Y-733984D02*
X4648753Y-724460D01*
X4648753Y-724460D02*
X4639230Y-705412D01*
X4639230Y-705412D02*
X4639230Y-629222D01*
X4639230Y-629222D02*
X4648753Y-610174D01*
X4648753Y-610174D02*
X4667801Y-600650D01*
X4667801Y-600650D02*
X4705896Y-600650D01*
X4705896Y-600650D02*
X4724944Y-610174D01*
X4724944Y-610174D02*
X4734468Y-629222D01*
X4734468Y-629222D02*
X4734468Y-648270D01*
X4734468Y-648270D02*
X4639230Y-667317D01*
X4810658Y-724460D02*
X4829706Y-733984D01*
X4829706Y-733984D02*
X4867801Y-733984D01*
X4867801Y-733984D02*
X4886849Y-724460D01*
X4886849Y-724460D02*
X4896373Y-705412D01*
X4896373Y-705412D02*
X4896373Y-695889D01*
X4896373Y-695889D02*
X4886849Y-676841D01*
X4886849Y-676841D02*
X4867801Y-667317D01*
X4867801Y-667317D02*
X4839230Y-667317D01*
X4839230Y-667317D02*
X4820182Y-657793D01*
X4820182Y-657793D02*
X4810658Y-638746D01*
X4810658Y-638746D02*
X4810658Y-629222D01*
X4810658Y-629222D02*
X4820182Y-610174D01*
X4820182Y-610174D02*
X4839230Y-600650D01*
X4839230Y-600650D02*
X4867801Y-600650D01*
X4867801Y-600650D02*
X4886849Y-610174D01*
X4963039Y-810174D02*
X4972563Y-800650D01*
X4972563Y-800650D02*
X4991611Y-772079D01*
X4991611Y-772079D02*
X5001134Y-753031D01*
X5001134Y-753031D02*
X5010658Y-724460D01*
X5010658Y-724460D02*
X5020182Y-676841D01*
X5020182Y-676841D02*
X5020182Y-638746D01*
X5020182Y-638746D02*
X5010658Y-591127D01*
X5010658Y-591127D02*
X5001134Y-562555D01*
X5001134Y-562555D02*
X4991611Y-543508D01*
X4991611Y-543508D02*
X4972563Y-514936D01*
X4972563Y-514936D02*
X4963039Y-505412D01*
D12*
X-2500Y-906500D02*
G75*
G02*
X-92500Y-906500I-45000J0D01*
G01*
X-92500Y-906500D02*
G75*
G02*
X-2500Y-906500I45000J0D01*
G01*
D11*
X296372Y-797984D02*
X315420Y-797984D01*
X315420Y-797984D02*
X334467Y-807508D01*
X334467Y-807508D02*
X343991Y-817031D01*
X343991Y-817031D02*
X353515Y-836079D01*
X353515Y-836079D02*
X363039Y-874174D01*
X363039Y-874174D02*
X363039Y-921793D01*
X363039Y-921793D02*
X353515Y-959888D01*
X353515Y-959888D02*
X343991Y-978936D01*
X343991Y-978936D02*
X334467Y-988460D01*
X334467Y-988460D02*
X315420Y-997984D01*
X315420Y-997984D02*
X296372Y-997984D01*
X296372Y-997984D02*
X277324Y-988460D01*
X277324Y-988460D02*
X267801Y-978936D01*
X267801Y-978936D02*
X258277Y-959888D01*
X258277Y-959888D02*
X248753Y-921793D01*
X248753Y-921793D02*
X248753Y-874174D01*
X248753Y-874174D02*
X258277Y-836079D01*
X258277Y-836079D02*
X267801Y-817031D01*
X267801Y-817031D02*
X277324Y-807508D01*
X277324Y-807508D02*
X296372Y-797984D01*
X448753Y-978936D02*
X458277Y-988460D01*
X458277Y-988460D02*
X448753Y-997984D01*
X448753Y-997984D02*
X439229Y-988460D01*
X439229Y-988460D02*
X448753Y-978936D01*
X448753Y-978936D02*
X448753Y-997984D01*
X553515Y-997984D02*
X591610Y-997984D01*
X591610Y-997984D02*
X610658Y-988460D01*
X610658Y-988460D02*
X620182Y-978936D01*
X620182Y-978936D02*
X639229Y-950365D01*
X639229Y-950365D02*
X648753Y-912269D01*
X648753Y-912269D02*
X648753Y-836079D01*
X648753Y-836079D02*
X639229Y-817031D01*
X639229Y-817031D02*
X629705Y-807508D01*
X629705Y-807508D02*
X610658Y-797984D01*
X610658Y-797984D02*
X572563Y-797984D01*
X572563Y-797984D02*
X553515Y-807508D01*
X553515Y-807508D02*
X543991Y-817031D01*
X543991Y-817031D02*
X534467Y-836079D01*
X534467Y-836079D02*
X534467Y-883698D01*
X534467Y-883698D02*
X543991Y-902746D01*
X543991Y-902746D02*
X553515Y-912269D01*
X553515Y-912269D02*
X572563Y-921793D01*
X572563Y-921793D02*
X610658Y-921793D01*
X610658Y-921793D02*
X629705Y-912269D01*
X629705Y-912269D02*
X639229Y-902746D01*
X639229Y-902746D02*
X648753Y-883698D01*
X772562Y-797984D02*
X791610Y-797984D01*
X791610Y-797984D02*
X810658Y-807508D01*
X810658Y-807508D02*
X820182Y-817031D01*
X820182Y-817031D02*
X829705Y-836079D01*
X829705Y-836079D02*
X839229Y-874174D01*
X839229Y-874174D02*
X839229Y-921793D01*
X839229Y-921793D02*
X829705Y-959888D01*
X829705Y-959888D02*
X820182Y-978936D01*
X820182Y-978936D02*
X810658Y-988460D01*
X810658Y-988460D02*
X791610Y-997984D01*
X791610Y-997984D02*
X772562Y-997984D01*
X772562Y-997984D02*
X753515Y-988460D01*
X753515Y-988460D02*
X743991Y-978936D01*
X743991Y-978936D02*
X734467Y-959888D01*
X734467Y-959888D02*
X724943Y-921793D01*
X724943Y-921793D02*
X724943Y-874174D01*
X724943Y-874174D02*
X734467Y-836079D01*
X734467Y-836079D02*
X743991Y-817031D01*
X743991Y-817031D02*
X753515Y-807508D01*
X753515Y-807508D02*
X772562Y-797984D01*
X963039Y-797984D02*
X982086Y-797984D01*
X982086Y-797984D02*
X1001134Y-807508D01*
X1001134Y-807508D02*
X1010658Y-817031D01*
X1010658Y-817031D02*
X1020182Y-836079D01*
X1020182Y-836079D02*
X1029705Y-874174D01*
X1029705Y-874174D02*
X1029705Y-921793D01*
X1029705Y-921793D02*
X1020182Y-959888D01*
X1020182Y-959888D02*
X1010658Y-978936D01*
X1010658Y-978936D02*
X1001134Y-988460D01*
X1001134Y-988460D02*
X982086Y-997984D01*
X982086Y-997984D02*
X963039Y-997984D01*
X963039Y-997984D02*
X943991Y-988460D01*
X943991Y-988460D02*
X934467Y-978936D01*
X934467Y-978936D02*
X924943Y-959888D01*
X924943Y-959888D02*
X915420Y-921793D01*
X915420Y-921793D02*
X915420Y-874174D01*
X915420Y-874174D02*
X924943Y-836079D01*
X924943Y-836079D02*
X934467Y-817031D01*
X934467Y-817031D02*
X943991Y-807508D01*
X943991Y-807508D02*
X963039Y-797984D01*
X1115420Y-997984D02*
X1115420Y-864650D01*
X1115420Y-883698D02*
X1124944Y-874174D01*
X1124944Y-874174D02*
X1143991Y-864650D01*
X1143991Y-864650D02*
X1172563Y-864650D01*
X1172563Y-864650D02*
X1191610Y-874174D01*
X1191610Y-874174D02*
X1201134Y-893222D01*
X1201134Y-893222D02*
X1201134Y-997984D01*
X1201134Y-893222D02*
X1210658Y-874174D01*
X1210658Y-874174D02*
X1229705Y-864650D01*
X1229705Y-864650D02*
X1258277Y-864650D01*
X1258277Y-864650D02*
X1277325Y-874174D01*
X1277325Y-874174D02*
X1286848Y-893222D01*
X1286848Y-893222D02*
X1286848Y-997984D01*
X1382086Y-997984D02*
X1382086Y-864650D01*
X1382086Y-883698D02*
X1391610Y-874174D01*
X1391610Y-874174D02*
X1410658Y-864650D01*
X1410658Y-864650D02*
X1439229Y-864650D01*
X1439229Y-864650D02*
X1458277Y-874174D01*
X1458277Y-874174D02*
X1467801Y-893222D01*
X1467801Y-893222D02*
X1467801Y-997984D01*
X1467801Y-893222D02*
X1477324Y-874174D01*
X1477324Y-874174D02*
X1496372Y-864650D01*
X1496372Y-864650D02*
X1524943Y-864650D01*
X1524943Y-864650D02*
X1543991Y-874174D01*
X1543991Y-874174D02*
X1553515Y-893222D01*
X1553515Y-893222D02*
X1553515Y-997984D01*
X1943991Y-788460D02*
X1772563Y-1045603D01*
X2201134Y-797984D02*
X2220182Y-797984D01*
X2220182Y-797984D02*
X2239229Y-807508D01*
X2239229Y-807508D02*
X2248753Y-817031D01*
X2248753Y-817031D02*
X2258277Y-836079D01*
X2258277Y-836079D02*
X2267801Y-874174D01*
X2267801Y-874174D02*
X2267801Y-921793D01*
X2267801Y-921793D02*
X2258277Y-959888D01*
X2258277Y-959888D02*
X2248753Y-978936D01*
X2248753Y-978936D02*
X2239229Y-988460D01*
X2239229Y-988460D02*
X2220182Y-997984D01*
X2220182Y-997984D02*
X2201134Y-997984D01*
X2201134Y-997984D02*
X2182087Y-988460D01*
X2182087Y-988460D02*
X2172563Y-978936D01*
X2172563Y-978936D02*
X2163039Y-959888D01*
X2163039Y-959888D02*
X2153515Y-921793D01*
X2153515Y-921793D02*
X2153515Y-874174D01*
X2153515Y-874174D02*
X2163039Y-836079D01*
X2163039Y-836079D02*
X2172563Y-817031D01*
X2172563Y-817031D02*
X2182087Y-807508D01*
X2182087Y-807508D02*
X2201134Y-797984D01*
X2353515Y-978936D02*
X2363039Y-988460D01*
X2363039Y-988460D02*
X2353515Y-997984D01*
X2353515Y-997984D02*
X2343991Y-988460D01*
X2343991Y-988460D02*
X2353515Y-978936D01*
X2353515Y-978936D02*
X2353515Y-997984D01*
X2486848Y-797984D02*
X2505896Y-797984D01*
X2505896Y-797984D02*
X2524944Y-807508D01*
X2524944Y-807508D02*
X2534468Y-817031D01*
X2534468Y-817031D02*
X2543991Y-836079D01*
X2543991Y-836079D02*
X2553515Y-874174D01*
X2553515Y-874174D02*
X2553515Y-921793D01*
X2553515Y-921793D02*
X2543991Y-959888D01*
X2543991Y-959888D02*
X2534468Y-978936D01*
X2534468Y-978936D02*
X2524944Y-988460D01*
X2524944Y-988460D02*
X2505896Y-997984D01*
X2505896Y-997984D02*
X2486848Y-997984D01*
X2486848Y-997984D02*
X2467801Y-988460D01*
X2467801Y-988460D02*
X2458277Y-978936D01*
X2458277Y-978936D02*
X2448753Y-959888D01*
X2448753Y-959888D02*
X2439229Y-921793D01*
X2439229Y-921793D02*
X2439229Y-874174D01*
X2439229Y-874174D02*
X2448753Y-836079D01*
X2448753Y-836079D02*
X2458277Y-817031D01*
X2458277Y-817031D02*
X2467801Y-807508D01*
X2467801Y-807508D02*
X2486848Y-797984D01*
X2620182Y-797984D02*
X2743991Y-797984D01*
X2743991Y-797984D02*
X2677325Y-874174D01*
X2677325Y-874174D02*
X2705896Y-874174D01*
X2705896Y-874174D02*
X2724944Y-883698D01*
X2724944Y-883698D02*
X2734468Y-893222D01*
X2734468Y-893222D02*
X2743991Y-912269D01*
X2743991Y-912269D02*
X2743991Y-959888D01*
X2743991Y-959888D02*
X2734468Y-978936D01*
X2734468Y-978936D02*
X2724944Y-988460D01*
X2724944Y-988460D02*
X2705896Y-997984D01*
X2705896Y-997984D02*
X2648753Y-997984D01*
X2648753Y-997984D02*
X2629706Y-988460D01*
X2629706Y-988460D02*
X2620182Y-978936D01*
X2924944Y-797984D02*
X2829706Y-797984D01*
X2829706Y-797984D02*
X2820182Y-893222D01*
X2820182Y-893222D02*
X2829706Y-883698D01*
X2829706Y-883698D02*
X2848753Y-874174D01*
X2848753Y-874174D02*
X2896372Y-874174D01*
X2896372Y-874174D02*
X2915420Y-883698D01*
X2915420Y-883698D02*
X2924944Y-893222D01*
X2924944Y-893222D02*
X2934467Y-912269D01*
X2934467Y-912269D02*
X2934467Y-959888D01*
X2934467Y-959888D02*
X2924944Y-978936D01*
X2924944Y-978936D02*
X2915420Y-988460D01*
X2915420Y-988460D02*
X2896372Y-997984D01*
X2896372Y-997984D02*
X2848753Y-997984D01*
X2848753Y-997984D02*
X2829706Y-988460D01*
X2829706Y-988460D02*
X2820182Y-978936D01*
X3105896Y-864650D02*
X3105896Y-997984D01*
X3058277Y-788460D02*
X3010658Y-931317D01*
X3010658Y-931317D02*
X3134467Y-931317D01*
X3201134Y-797984D02*
X3201134Y-836079D01*
X3277325Y-797984D02*
X3277325Y-836079D01*
X3572563Y-1074174D02*
X3563039Y-1064650D01*
X3563039Y-1064650D02*
X3543991Y-1036079D01*
X3543991Y-1036079D02*
X3534468Y-1017031D01*
X3534468Y-1017031D02*
X3524944Y-988460D01*
X3524944Y-988460D02*
X3515420Y-940841D01*
X3515420Y-940841D02*
X3515420Y-902746D01*
X3515420Y-902746D02*
X3524944Y-855127D01*
X3524944Y-855127D02*
X3534468Y-826555D01*
X3534468Y-826555D02*
X3543991Y-807508D01*
X3543991Y-807508D02*
X3563039Y-778936D01*
X3563039Y-778936D02*
X3572563Y-769412D01*
X3677325Y-883698D02*
X3658277Y-874174D01*
X3658277Y-874174D02*
X3648753Y-864650D01*
X3648753Y-864650D02*
X3639229Y-845603D01*
X3639229Y-845603D02*
X3639229Y-836079D01*
X3639229Y-836079D02*
X3648753Y-817031D01*
X3648753Y-817031D02*
X3658277Y-807508D01*
X3658277Y-807508D02*
X3677325Y-797984D01*
X3677325Y-797984D02*
X3715420Y-797984D01*
X3715420Y-797984D02*
X3734468Y-807508D01*
X3734468Y-807508D02*
X3743991Y-817031D01*
X3743991Y-817031D02*
X3753515Y-836079D01*
X3753515Y-836079D02*
X3753515Y-845603D01*
X3753515Y-845603D02*
X3743991Y-864650D01*
X3743991Y-864650D02*
X3734468Y-874174D01*
X3734468Y-874174D02*
X3715420Y-883698D01*
X3715420Y-883698D02*
X3677325Y-883698D01*
X3677325Y-883698D02*
X3658277Y-893222D01*
X3658277Y-893222D02*
X3648753Y-902746D01*
X3648753Y-902746D02*
X3639229Y-921793D01*
X3639229Y-921793D02*
X3639229Y-959888D01*
X3639229Y-959888D02*
X3648753Y-978936D01*
X3648753Y-978936D02*
X3658277Y-988460D01*
X3658277Y-988460D02*
X3677325Y-997984D01*
X3677325Y-997984D02*
X3715420Y-997984D01*
X3715420Y-997984D02*
X3734468Y-988460D01*
X3734468Y-988460D02*
X3743991Y-978936D01*
X3743991Y-978936D02*
X3753515Y-959888D01*
X3753515Y-959888D02*
X3753515Y-921793D01*
X3753515Y-921793D02*
X3743991Y-902746D01*
X3743991Y-902746D02*
X3734468Y-893222D01*
X3734468Y-893222D02*
X3715420Y-883698D01*
X3991610Y-997984D02*
X3991610Y-797984D01*
X4077325Y-997984D02*
X4077325Y-893222D01*
X4077325Y-893222D02*
X4067801Y-874174D01*
X4067801Y-874174D02*
X4048753Y-864650D01*
X4048753Y-864650D02*
X4020182Y-864650D01*
X4020182Y-864650D02*
X4001134Y-874174D01*
X4001134Y-874174D02*
X3991610Y-883698D01*
X4201134Y-997984D02*
X4182087Y-988460D01*
X4182087Y-988460D02*
X4172563Y-978936D01*
X4172563Y-978936D02*
X4163039Y-959888D01*
X4163039Y-959888D02*
X4163039Y-902746D01*
X4163039Y-902746D02*
X4172563Y-883698D01*
X4172563Y-883698D02*
X4182087Y-874174D01*
X4182087Y-874174D02*
X4201134Y-864650D01*
X4201134Y-864650D02*
X4229706Y-864650D01*
X4229706Y-864650D02*
X4248753Y-874174D01*
X4248753Y-874174D02*
X4258277Y-883698D01*
X4258277Y-883698D02*
X4267801Y-902746D01*
X4267801Y-902746D02*
X4267801Y-959888D01*
X4267801Y-959888D02*
X4258277Y-978936D01*
X4258277Y-978936D02*
X4248753Y-988460D01*
X4248753Y-988460D02*
X4229706Y-997984D01*
X4229706Y-997984D02*
X4201134Y-997984D01*
X4382087Y-997984D02*
X4363039Y-988460D01*
X4363039Y-988460D02*
X4353515Y-969412D01*
X4353515Y-969412D02*
X4353515Y-797984D01*
X4534468Y-988460D02*
X4515420Y-997984D01*
X4515420Y-997984D02*
X4477325Y-997984D01*
X4477325Y-997984D02*
X4458277Y-988460D01*
X4458277Y-988460D02*
X4448753Y-969412D01*
X4448753Y-969412D02*
X4448753Y-893222D01*
X4448753Y-893222D02*
X4458277Y-874174D01*
X4458277Y-874174D02*
X4477325Y-864650D01*
X4477325Y-864650D02*
X4515420Y-864650D01*
X4515420Y-864650D02*
X4534468Y-874174D01*
X4534468Y-874174D02*
X4543992Y-893222D01*
X4543992Y-893222D02*
X4543992Y-912269D01*
X4543992Y-912269D02*
X4448753Y-931317D01*
X4620182Y-988460D02*
X4639230Y-997984D01*
X4639230Y-997984D02*
X4677325Y-997984D01*
X4677325Y-997984D02*
X4696373Y-988460D01*
X4696373Y-988460D02*
X4705896Y-969412D01*
X4705896Y-969412D02*
X4705896Y-959888D01*
X4705896Y-959888D02*
X4696373Y-940841D01*
X4696373Y-940841D02*
X4677325Y-931317D01*
X4677325Y-931317D02*
X4648753Y-931317D01*
X4648753Y-931317D02*
X4629706Y-921793D01*
X4629706Y-921793D02*
X4620182Y-902746D01*
X4620182Y-902746D02*
X4620182Y-893222D01*
X4620182Y-893222D02*
X4629706Y-874174D01*
X4629706Y-874174D02*
X4648753Y-864650D01*
X4648753Y-864650D02*
X4677325Y-864650D01*
X4677325Y-864650D02*
X4696373Y-874174D01*
X4772563Y-1074174D02*
X4782087Y-1064650D01*
X4782087Y-1064650D02*
X4801134Y-1036079D01*
X4801134Y-1036079D02*
X4810658Y-1017031D01*
X4810658Y-1017031D02*
X4820182Y-988460D01*
X4820182Y-988460D02*
X4829706Y-940841D01*
X4829706Y-940841D02*
X4829706Y-902746D01*
X4829706Y-902746D02*
X4820182Y-855127D01*
X4820182Y-855127D02*
X4810658Y-826555D01*
X4810658Y-826555D02*
X4801134Y-807508D01*
X4801134Y-807508D02*
X4782087Y-778936D01*
X4782087Y-778936D02*
X4772563Y-769412D01*
D12*
X-52500Y-1120500D02*
X-52500Y-1220500D01*
X-102500Y-1170500D02*
X-2500Y-1170500D01*
D11*
X363039Y-1261984D02*
X248753Y-1261984D01*
X305896Y-1261984D02*
X305896Y-1061984D01*
X305896Y-1061984D02*
X286848Y-1090555D01*
X286848Y-1090555D02*
X267801Y-1109603D01*
X267801Y-1109603D02*
X248753Y-1119127D01*
X448753Y-1242936D02*
X458277Y-1252460D01*
X458277Y-1252460D02*
X448753Y-1261984D01*
X448753Y-1261984D02*
X439229Y-1252460D01*
X439229Y-1252460D02*
X448753Y-1242936D01*
X448753Y-1242936D02*
X448753Y-1261984D01*
X582086Y-1061984D02*
X601134Y-1061984D01*
X601134Y-1061984D02*
X620182Y-1071508D01*
X620182Y-1071508D02*
X629705Y-1081031D01*
X629705Y-1081031D02*
X639229Y-1100079D01*
X639229Y-1100079D02*
X648753Y-1138174D01*
X648753Y-1138174D02*
X648753Y-1185793D01*
X648753Y-1185793D02*
X639229Y-1223889D01*
X639229Y-1223889D02*
X629705Y-1242936D01*
X629705Y-1242936D02*
X620182Y-1252460D01*
X620182Y-1252460D02*
X601134Y-1261984D01*
X601134Y-1261984D02*
X582086Y-1261984D01*
X582086Y-1261984D02*
X563039Y-1252460D01*
X563039Y-1252460D02*
X553515Y-1242936D01*
X553515Y-1242936D02*
X543991Y-1223889D01*
X543991Y-1223889D02*
X534467Y-1185793D01*
X534467Y-1185793D02*
X534467Y-1138174D01*
X534467Y-1138174D02*
X543991Y-1100079D01*
X543991Y-1100079D02*
X553515Y-1081031D01*
X553515Y-1081031D02*
X563039Y-1071508D01*
X563039Y-1071508D02*
X582086Y-1061984D01*
X772562Y-1061984D02*
X791610Y-1061984D01*
X791610Y-1061984D02*
X810658Y-1071508D01*
X810658Y-1071508D02*
X820182Y-1081031D01*
X820182Y-1081031D02*
X829705Y-1100079D01*
X829705Y-1100079D02*
X839229Y-1138174D01*
X839229Y-1138174D02*
X839229Y-1185793D01*
X839229Y-1185793D02*
X829705Y-1223889D01*
X829705Y-1223889D02*
X820182Y-1242936D01*
X820182Y-1242936D02*
X810658Y-1252460D01*
X810658Y-1252460D02*
X791610Y-1261984D01*
X791610Y-1261984D02*
X772562Y-1261984D01*
X772562Y-1261984D02*
X753515Y-1252460D01*
X753515Y-1252460D02*
X743991Y-1242936D01*
X743991Y-1242936D02*
X734467Y-1223889D01*
X734467Y-1223889D02*
X724943Y-1185793D01*
X724943Y-1185793D02*
X724943Y-1138174D01*
X724943Y-1138174D02*
X734467Y-1100079D01*
X734467Y-1100079D02*
X743991Y-1081031D01*
X743991Y-1081031D02*
X753515Y-1071508D01*
X753515Y-1071508D02*
X772562Y-1061984D01*
X963039Y-1061984D02*
X982086Y-1061984D01*
X982086Y-1061984D02*
X1001134Y-1071508D01*
X1001134Y-1071508D02*
X1010658Y-1081031D01*
X1010658Y-1081031D02*
X1020182Y-1100079D01*
X1020182Y-1100079D02*
X1029705Y-1138174D01*
X1029705Y-1138174D02*
X1029705Y-1185793D01*
X1029705Y-1185793D02*
X1020182Y-1223889D01*
X1020182Y-1223889D02*
X1010658Y-1242936D01*
X1010658Y-1242936D02*
X1001134Y-1252460D01*
X1001134Y-1252460D02*
X982086Y-1261984D01*
X982086Y-1261984D02*
X963039Y-1261984D01*
X963039Y-1261984D02*
X943991Y-1252460D01*
X943991Y-1252460D02*
X934467Y-1242936D01*
X934467Y-1242936D02*
X924943Y-1223889D01*
X924943Y-1223889D02*
X915420Y-1185793D01*
X915420Y-1185793D02*
X915420Y-1138174D01*
X915420Y-1138174D02*
X924943Y-1100079D01*
X924943Y-1100079D02*
X934467Y-1081031D01*
X934467Y-1081031D02*
X943991Y-1071508D01*
X943991Y-1071508D02*
X963039Y-1061984D01*
X1115420Y-1261984D02*
X1115420Y-1128650D01*
X1115420Y-1147698D02*
X1124944Y-1138174D01*
X1124944Y-1138174D02*
X1143991Y-1128650D01*
X1143991Y-1128650D02*
X1172563Y-1128650D01*
X1172563Y-1128650D02*
X1191610Y-1138174D01*
X1191610Y-1138174D02*
X1201134Y-1157222D01*
X1201134Y-1157222D02*
X1201134Y-1261984D01*
X1201134Y-1157222D02*
X1210658Y-1138174D01*
X1210658Y-1138174D02*
X1229705Y-1128650D01*
X1229705Y-1128650D02*
X1258277Y-1128650D01*
X1258277Y-1128650D02*
X1277325Y-1138174D01*
X1277325Y-1138174D02*
X1286848Y-1157222D01*
X1286848Y-1157222D02*
X1286848Y-1261984D01*
X1382086Y-1261984D02*
X1382086Y-1128650D01*
X1382086Y-1147698D02*
X1391610Y-1138174D01*
X1391610Y-1138174D02*
X1410658Y-1128650D01*
X1410658Y-1128650D02*
X1439229Y-1128650D01*
X1439229Y-1128650D02*
X1458277Y-1138174D01*
X1458277Y-1138174D02*
X1467801Y-1157222D01*
X1467801Y-1157222D02*
X1467801Y-1261984D01*
X1467801Y-1157222D02*
X1477324Y-1138174D01*
X1477324Y-1138174D02*
X1496372Y-1128650D01*
X1496372Y-1128650D02*
X1524943Y-1128650D01*
X1524943Y-1128650D02*
X1543991Y-1138174D01*
X1543991Y-1138174D02*
X1553515Y-1157222D01*
X1553515Y-1157222D02*
X1553515Y-1261984D01*
X1943991Y-1052460D02*
X1772563Y-1309603D01*
X2201134Y-1061984D02*
X2220182Y-1061984D01*
X2220182Y-1061984D02*
X2239229Y-1071508D01*
X2239229Y-1071508D02*
X2248753Y-1081031D01*
X2248753Y-1081031D02*
X2258277Y-1100079D01*
X2258277Y-1100079D02*
X2267801Y-1138174D01*
X2267801Y-1138174D02*
X2267801Y-1185793D01*
X2267801Y-1185793D02*
X2258277Y-1223889D01*
X2258277Y-1223889D02*
X2248753Y-1242936D01*
X2248753Y-1242936D02*
X2239229Y-1252460D01*
X2239229Y-1252460D02*
X2220182Y-1261984D01*
X2220182Y-1261984D02*
X2201134Y-1261984D01*
X2201134Y-1261984D02*
X2182087Y-1252460D01*
X2182087Y-1252460D02*
X2172563Y-1242936D01*
X2172563Y-1242936D02*
X2163039Y-1223889D01*
X2163039Y-1223889D02*
X2153515Y-1185793D01*
X2153515Y-1185793D02*
X2153515Y-1138174D01*
X2153515Y-1138174D02*
X2163039Y-1100079D01*
X2163039Y-1100079D02*
X2172563Y-1081031D01*
X2172563Y-1081031D02*
X2182087Y-1071508D01*
X2182087Y-1071508D02*
X2201134Y-1061984D01*
X2353515Y-1242936D02*
X2363039Y-1252460D01*
X2363039Y-1252460D02*
X2353515Y-1261984D01*
X2353515Y-1261984D02*
X2343991Y-1252460D01*
X2343991Y-1252460D02*
X2353515Y-1242936D01*
X2353515Y-1242936D02*
X2353515Y-1261984D01*
X2486848Y-1061984D02*
X2505896Y-1061984D01*
X2505896Y-1061984D02*
X2524944Y-1071508D01*
X2524944Y-1071508D02*
X2534468Y-1081031D01*
X2534468Y-1081031D02*
X2543991Y-1100079D01*
X2543991Y-1100079D02*
X2553515Y-1138174D01*
X2553515Y-1138174D02*
X2553515Y-1185793D01*
X2553515Y-1185793D02*
X2543991Y-1223889D01*
X2543991Y-1223889D02*
X2534468Y-1242936D01*
X2534468Y-1242936D02*
X2524944Y-1252460D01*
X2524944Y-1252460D02*
X2505896Y-1261984D01*
X2505896Y-1261984D02*
X2486848Y-1261984D01*
X2486848Y-1261984D02*
X2467801Y-1252460D01*
X2467801Y-1252460D02*
X2458277Y-1242936D01*
X2458277Y-1242936D02*
X2448753Y-1223889D01*
X2448753Y-1223889D02*
X2439229Y-1185793D01*
X2439229Y-1185793D02*
X2439229Y-1138174D01*
X2439229Y-1138174D02*
X2448753Y-1100079D01*
X2448753Y-1100079D02*
X2458277Y-1081031D01*
X2458277Y-1081031D02*
X2467801Y-1071508D01*
X2467801Y-1071508D02*
X2486848Y-1061984D01*
X2620182Y-1061984D02*
X2743991Y-1061984D01*
X2743991Y-1061984D02*
X2677325Y-1138174D01*
X2677325Y-1138174D02*
X2705896Y-1138174D01*
X2705896Y-1138174D02*
X2724944Y-1147698D01*
X2724944Y-1147698D02*
X2734468Y-1157222D01*
X2734468Y-1157222D02*
X2743991Y-1176270D01*
X2743991Y-1176270D02*
X2743991Y-1223889D01*
X2743991Y-1223889D02*
X2734468Y-1242936D01*
X2734468Y-1242936D02*
X2724944Y-1252460D01*
X2724944Y-1252460D02*
X2705896Y-1261984D01*
X2705896Y-1261984D02*
X2648753Y-1261984D01*
X2648753Y-1261984D02*
X2629706Y-1252460D01*
X2629706Y-1252460D02*
X2620182Y-1242936D01*
X2839229Y-1261984D02*
X2877325Y-1261984D01*
X2877325Y-1261984D02*
X2896372Y-1252460D01*
X2896372Y-1252460D02*
X2905896Y-1242936D01*
X2905896Y-1242936D02*
X2924944Y-1214365D01*
X2924944Y-1214365D02*
X2934467Y-1176270D01*
X2934467Y-1176270D02*
X2934467Y-1100079D01*
X2934467Y-1100079D02*
X2924944Y-1081031D01*
X2924944Y-1081031D02*
X2915420Y-1071508D01*
X2915420Y-1071508D02*
X2896372Y-1061984D01*
X2896372Y-1061984D02*
X2858277Y-1061984D01*
X2858277Y-1061984D02*
X2839229Y-1071508D01*
X2839229Y-1071508D02*
X2829706Y-1081031D01*
X2829706Y-1081031D02*
X2820182Y-1100079D01*
X2820182Y-1100079D02*
X2820182Y-1147698D01*
X2820182Y-1147698D02*
X2829706Y-1166746D01*
X2829706Y-1166746D02*
X2839229Y-1176270D01*
X2839229Y-1176270D02*
X2858277Y-1185793D01*
X2858277Y-1185793D02*
X2896372Y-1185793D01*
X2896372Y-1185793D02*
X2915420Y-1176270D01*
X2915420Y-1176270D02*
X2924944Y-1166746D01*
X2924944Y-1166746D02*
X2934467Y-1147698D01*
X3105896Y-1128650D02*
X3105896Y-1261984D01*
X3058277Y-1052460D02*
X3010658Y-1195317D01*
X3010658Y-1195317D02*
X3134467Y-1195317D01*
X3201134Y-1061984D02*
X3201134Y-1100079D01*
X3277325Y-1061984D02*
X3277325Y-1100079D01*
X3572563Y-1338174D02*
X3563039Y-1328650D01*
X3563039Y-1328650D02*
X3543991Y-1300079D01*
X3543991Y-1300079D02*
X3534468Y-1281031D01*
X3534468Y-1281031D02*
X3524944Y-1252460D01*
X3524944Y-1252460D02*
X3515420Y-1204841D01*
X3515420Y-1204841D02*
X3515420Y-1166746D01*
X3515420Y-1166746D02*
X3524944Y-1119127D01*
X3524944Y-1119127D02*
X3534468Y-1090555D01*
X3534468Y-1090555D02*
X3543991Y-1071508D01*
X3543991Y-1071508D02*
X3563039Y-1042936D01*
X3563039Y-1042936D02*
X3572563Y-1033412D01*
X3734468Y-1061984D02*
X3696372Y-1061984D01*
X3696372Y-1061984D02*
X3677325Y-1071508D01*
X3677325Y-1071508D02*
X3667801Y-1081031D01*
X3667801Y-1081031D02*
X3648753Y-1109603D01*
X3648753Y-1109603D02*
X3639229Y-1147698D01*
X3639229Y-1147698D02*
X3639229Y-1223889D01*
X3639229Y-1223889D02*
X3648753Y-1242936D01*
X3648753Y-1242936D02*
X3658277Y-1252460D01*
X3658277Y-1252460D02*
X3677325Y-1261984D01*
X3677325Y-1261984D02*
X3715420Y-1261984D01*
X3715420Y-1261984D02*
X3734468Y-1252460D01*
X3734468Y-1252460D02*
X3743991Y-1242936D01*
X3743991Y-1242936D02*
X3753515Y-1223889D01*
X3753515Y-1223889D02*
X3753515Y-1176270D01*
X3753515Y-1176270D02*
X3743991Y-1157222D01*
X3743991Y-1157222D02*
X3734468Y-1147698D01*
X3734468Y-1147698D02*
X3715420Y-1138174D01*
X3715420Y-1138174D02*
X3677325Y-1138174D01*
X3677325Y-1138174D02*
X3658277Y-1147698D01*
X3658277Y-1147698D02*
X3648753Y-1157222D01*
X3648753Y-1157222D02*
X3639229Y-1176270D01*
X3991610Y-1261984D02*
X3991610Y-1061984D01*
X4077325Y-1261984D02*
X4077325Y-1157222D01*
X4077325Y-1157222D02*
X4067801Y-1138174D01*
X4067801Y-1138174D02*
X4048753Y-1128650D01*
X4048753Y-1128650D02*
X4020182Y-1128650D01*
X4020182Y-1128650D02*
X4001134Y-1138174D01*
X4001134Y-1138174D02*
X3991610Y-1147698D01*
X4201134Y-1261984D02*
X4182087Y-1252460D01*
X4182087Y-1252460D02*
X4172563Y-1242936D01*
X4172563Y-1242936D02*
X4163039Y-1223889D01*
X4163039Y-1223889D02*
X4163039Y-1166746D01*
X4163039Y-1166746D02*
X4172563Y-1147698D01*
X4172563Y-1147698D02*
X4182087Y-1138174D01*
X4182087Y-1138174D02*
X4201134Y-1128650D01*
X4201134Y-1128650D02*
X4229706Y-1128650D01*
X4229706Y-1128650D02*
X4248753Y-1138174D01*
X4248753Y-1138174D02*
X4258277Y-1147698D01*
X4258277Y-1147698D02*
X4267801Y-1166746D01*
X4267801Y-1166746D02*
X4267801Y-1223889D01*
X4267801Y-1223889D02*
X4258277Y-1242936D01*
X4258277Y-1242936D02*
X4248753Y-1252460D01*
X4248753Y-1252460D02*
X4229706Y-1261984D01*
X4229706Y-1261984D02*
X4201134Y-1261984D01*
X4382087Y-1261984D02*
X4363039Y-1252460D01*
X4363039Y-1252460D02*
X4353515Y-1233412D01*
X4353515Y-1233412D02*
X4353515Y-1061984D01*
X4534468Y-1252460D02*
X4515420Y-1261984D01*
X4515420Y-1261984D02*
X4477325Y-1261984D01*
X4477325Y-1261984D02*
X4458277Y-1252460D01*
X4458277Y-1252460D02*
X4448753Y-1233412D01*
X4448753Y-1233412D02*
X4448753Y-1157222D01*
X4448753Y-1157222D02*
X4458277Y-1138174D01*
X4458277Y-1138174D02*
X4477325Y-1128650D01*
X4477325Y-1128650D02*
X4515420Y-1128650D01*
X4515420Y-1128650D02*
X4534468Y-1138174D01*
X4534468Y-1138174D02*
X4543992Y-1157222D01*
X4543992Y-1157222D02*
X4543992Y-1176270D01*
X4543992Y-1176270D02*
X4448753Y-1195317D01*
X4620182Y-1252460D02*
X4639230Y-1261984D01*
X4639230Y-1261984D02*
X4677325Y-1261984D01*
X4677325Y-1261984D02*
X4696373Y-1252460D01*
X4696373Y-1252460D02*
X4705896Y-1233412D01*
X4705896Y-1233412D02*
X4705896Y-1223889D01*
X4705896Y-1223889D02*
X4696373Y-1204841D01*
X4696373Y-1204841D02*
X4677325Y-1195317D01*
X4677325Y-1195317D02*
X4648753Y-1195317D01*
X4648753Y-1195317D02*
X4629706Y-1185793D01*
X4629706Y-1185793D02*
X4620182Y-1166746D01*
X4620182Y-1166746D02*
X4620182Y-1157222D01*
X4620182Y-1157222D02*
X4629706Y-1138174D01*
X4629706Y-1138174D02*
X4648753Y-1128650D01*
X4648753Y-1128650D02*
X4677325Y-1128650D01*
X4677325Y-1128650D02*
X4696373Y-1138174D01*
X4772563Y-1338174D02*
X4782087Y-1328650D01*
X4782087Y-1328650D02*
X4801134Y-1300079D01*
X4801134Y-1300079D02*
X4810658Y-1281031D01*
X4810658Y-1281031D02*
X4820182Y-1252460D01*
X4820182Y-1252460D02*
X4829706Y-1204841D01*
X4829706Y-1204841D02*
X4829706Y-1166746D01*
X4829706Y-1166746D02*
X4820182Y-1119127D01*
X4820182Y-1119127D02*
X4810658Y-1090555D01*
X4810658Y-1090555D02*
X4801134Y-1071508D01*
X4801134Y-1071508D02*
X4782087Y-1042936D01*
X4782087Y-1042936D02*
X4772563Y-1033412D01*
D13*
X-24466Y-1487533D02*
X-24466Y-1381467D01*
X-130533Y-1381467D01*
X-130533Y-1487533D01*
X-24466Y-1487533D01*
D11*
X363039Y-1525984D02*
X248753Y-1525984D01*
X305896Y-1525984D02*
X305896Y-1325984D01*
X305896Y-1325984D02*
X286848Y-1354555D01*
X286848Y-1354555D02*
X267801Y-1373603D01*
X267801Y-1373603D02*
X248753Y-1383127D01*
X448753Y-1506936D02*
X458277Y-1516460D01*
X458277Y-1516460D02*
X448753Y-1525984D01*
X448753Y-1525984D02*
X439229Y-1516460D01*
X439229Y-1516460D02*
X448753Y-1506936D01*
X448753Y-1506936D02*
X448753Y-1525984D01*
X639229Y-1325984D02*
X543991Y-1325984D01*
X543991Y-1325984D02*
X534467Y-1421222D01*
X534467Y-1421222D02*
X543991Y-1411698D01*
X543991Y-1411698D02*
X563039Y-1402174D01*
X563039Y-1402174D02*
X610658Y-1402174D01*
X610658Y-1402174D02*
X629705Y-1411698D01*
X629705Y-1411698D02*
X639229Y-1421222D01*
X639229Y-1421222D02*
X648753Y-1440269D01*
X648753Y-1440269D02*
X648753Y-1487888D01*
X648753Y-1487888D02*
X639229Y-1506936D01*
X639229Y-1506936D02*
X629705Y-1516460D01*
X629705Y-1516460D02*
X610658Y-1525984D01*
X610658Y-1525984D02*
X563039Y-1525984D01*
X563039Y-1525984D02*
X543991Y-1516460D01*
X543991Y-1516460D02*
X534467Y-1506936D01*
X772562Y-1325984D02*
X791610Y-1325984D01*
X791610Y-1325984D02*
X810658Y-1335508D01*
X810658Y-1335508D02*
X820182Y-1345031D01*
X820182Y-1345031D02*
X829705Y-1364079D01*
X829705Y-1364079D02*
X839229Y-1402174D01*
X839229Y-1402174D02*
X839229Y-1449793D01*
X839229Y-1449793D02*
X829705Y-1487888D01*
X829705Y-1487888D02*
X820182Y-1506936D01*
X820182Y-1506936D02*
X810658Y-1516460D01*
X810658Y-1516460D02*
X791610Y-1525984D01*
X791610Y-1525984D02*
X772562Y-1525984D01*
X772562Y-1525984D02*
X753515Y-1516460D01*
X753515Y-1516460D02*
X743991Y-1506936D01*
X743991Y-1506936D02*
X734467Y-1487888D01*
X734467Y-1487888D02*
X724943Y-1449793D01*
X724943Y-1449793D02*
X724943Y-1402174D01*
X724943Y-1402174D02*
X734467Y-1364079D01*
X734467Y-1364079D02*
X743991Y-1345031D01*
X743991Y-1345031D02*
X753515Y-1335508D01*
X753515Y-1335508D02*
X772562Y-1325984D01*
X963039Y-1325984D02*
X982086Y-1325984D01*
X982086Y-1325984D02*
X1001134Y-1335508D01*
X1001134Y-1335508D02*
X1010658Y-1345031D01*
X1010658Y-1345031D02*
X1020182Y-1364079D01*
X1020182Y-1364079D02*
X1029705Y-1402174D01*
X1029705Y-1402174D02*
X1029705Y-1449793D01*
X1029705Y-1449793D02*
X1020182Y-1487888D01*
X1020182Y-1487888D02*
X1010658Y-1506936D01*
X1010658Y-1506936D02*
X1001134Y-1516460D01*
X1001134Y-1516460D02*
X982086Y-1525984D01*
X982086Y-1525984D02*
X963039Y-1525984D01*
X963039Y-1525984D02*
X943991Y-1516460D01*
X943991Y-1516460D02*
X934467Y-1506936D01*
X934467Y-1506936D02*
X924943Y-1487888D01*
X924943Y-1487888D02*
X915420Y-1449793D01*
X915420Y-1449793D02*
X915420Y-1402174D01*
X915420Y-1402174D02*
X924943Y-1364079D01*
X924943Y-1364079D02*
X934467Y-1345031D01*
X934467Y-1345031D02*
X943991Y-1335508D01*
X943991Y-1335508D02*
X963039Y-1325984D01*
X1115420Y-1525984D02*
X1115420Y-1392650D01*
X1115420Y-1411698D02*
X1124944Y-1402174D01*
X1124944Y-1402174D02*
X1143991Y-1392650D01*
X1143991Y-1392650D02*
X1172563Y-1392650D01*
X1172563Y-1392650D02*
X1191610Y-1402174D01*
X1191610Y-1402174D02*
X1201134Y-1421222D01*
X1201134Y-1421222D02*
X1201134Y-1525984D01*
X1201134Y-1421222D02*
X1210658Y-1402174D01*
X1210658Y-1402174D02*
X1229705Y-1392650D01*
X1229705Y-1392650D02*
X1258277Y-1392650D01*
X1258277Y-1392650D02*
X1277325Y-1402174D01*
X1277325Y-1402174D02*
X1286848Y-1421222D01*
X1286848Y-1421222D02*
X1286848Y-1525984D01*
X1382086Y-1525984D02*
X1382086Y-1392650D01*
X1382086Y-1411698D02*
X1391610Y-1402174D01*
X1391610Y-1402174D02*
X1410658Y-1392650D01*
X1410658Y-1392650D02*
X1439229Y-1392650D01*
X1439229Y-1392650D02*
X1458277Y-1402174D01*
X1458277Y-1402174D02*
X1467801Y-1421222D01*
X1467801Y-1421222D02*
X1467801Y-1525984D01*
X1467801Y-1421222D02*
X1477324Y-1402174D01*
X1477324Y-1402174D02*
X1496372Y-1392650D01*
X1496372Y-1392650D02*
X1524943Y-1392650D01*
X1524943Y-1392650D02*
X1543991Y-1402174D01*
X1543991Y-1402174D02*
X1553515Y-1421222D01*
X1553515Y-1421222D02*
X1553515Y-1525984D01*
X1943991Y-1316460D02*
X1772563Y-1573603D01*
X2201134Y-1325984D02*
X2220182Y-1325984D01*
X2220182Y-1325984D02*
X2239229Y-1335508D01*
X2239229Y-1335508D02*
X2248753Y-1345031D01*
X2248753Y-1345031D02*
X2258277Y-1364079D01*
X2258277Y-1364079D02*
X2267801Y-1402174D01*
X2267801Y-1402174D02*
X2267801Y-1449793D01*
X2267801Y-1449793D02*
X2258277Y-1487888D01*
X2258277Y-1487888D02*
X2248753Y-1506936D01*
X2248753Y-1506936D02*
X2239229Y-1516460D01*
X2239229Y-1516460D02*
X2220182Y-1525984D01*
X2220182Y-1525984D02*
X2201134Y-1525984D01*
X2201134Y-1525984D02*
X2182087Y-1516460D01*
X2182087Y-1516460D02*
X2172563Y-1506936D01*
X2172563Y-1506936D02*
X2163039Y-1487888D01*
X2163039Y-1487888D02*
X2153515Y-1449793D01*
X2153515Y-1449793D02*
X2153515Y-1402174D01*
X2153515Y-1402174D02*
X2163039Y-1364079D01*
X2163039Y-1364079D02*
X2172563Y-1345031D01*
X2172563Y-1345031D02*
X2182087Y-1335508D01*
X2182087Y-1335508D02*
X2201134Y-1325984D01*
X2353515Y-1506936D02*
X2363039Y-1516460D01*
X2363039Y-1516460D02*
X2353515Y-1525984D01*
X2353515Y-1525984D02*
X2343991Y-1516460D01*
X2343991Y-1516460D02*
X2353515Y-1506936D01*
X2353515Y-1506936D02*
X2353515Y-1525984D01*
X2486848Y-1325984D02*
X2505896Y-1325984D01*
X2505896Y-1325984D02*
X2524944Y-1335508D01*
X2524944Y-1335508D02*
X2534468Y-1345031D01*
X2534468Y-1345031D02*
X2543991Y-1364079D01*
X2543991Y-1364079D02*
X2553515Y-1402174D01*
X2553515Y-1402174D02*
X2553515Y-1449793D01*
X2553515Y-1449793D02*
X2543991Y-1487888D01*
X2543991Y-1487888D02*
X2534468Y-1506936D01*
X2534468Y-1506936D02*
X2524944Y-1516460D01*
X2524944Y-1516460D02*
X2505896Y-1525984D01*
X2505896Y-1525984D02*
X2486848Y-1525984D01*
X2486848Y-1525984D02*
X2467801Y-1516460D01*
X2467801Y-1516460D02*
X2458277Y-1506936D01*
X2458277Y-1506936D02*
X2448753Y-1487888D01*
X2448753Y-1487888D02*
X2439229Y-1449793D01*
X2439229Y-1449793D02*
X2439229Y-1402174D01*
X2439229Y-1402174D02*
X2448753Y-1364079D01*
X2448753Y-1364079D02*
X2458277Y-1345031D01*
X2458277Y-1345031D02*
X2467801Y-1335508D01*
X2467801Y-1335508D02*
X2486848Y-1325984D01*
X2734468Y-1325984D02*
X2639229Y-1325984D01*
X2639229Y-1325984D02*
X2629706Y-1421222D01*
X2629706Y-1421222D02*
X2639229Y-1411698D01*
X2639229Y-1411698D02*
X2658277Y-1402174D01*
X2658277Y-1402174D02*
X2705896Y-1402174D01*
X2705896Y-1402174D02*
X2724944Y-1411698D01*
X2724944Y-1411698D02*
X2734468Y-1421222D01*
X2734468Y-1421222D02*
X2743991Y-1440269D01*
X2743991Y-1440269D02*
X2743991Y-1487888D01*
X2743991Y-1487888D02*
X2734468Y-1506936D01*
X2734468Y-1506936D02*
X2724944Y-1516460D01*
X2724944Y-1516460D02*
X2705896Y-1525984D01*
X2705896Y-1525984D02*
X2658277Y-1525984D01*
X2658277Y-1525984D02*
X2639229Y-1516460D01*
X2639229Y-1516460D02*
X2629706Y-1506936D01*
X2839229Y-1525984D02*
X2877325Y-1525984D01*
X2877325Y-1525984D02*
X2896372Y-1516460D01*
X2896372Y-1516460D02*
X2905896Y-1506936D01*
X2905896Y-1506936D02*
X2924944Y-1478365D01*
X2924944Y-1478365D02*
X2934467Y-1440269D01*
X2934467Y-1440269D02*
X2934467Y-1364079D01*
X2934467Y-1364079D02*
X2924944Y-1345031D01*
X2924944Y-1345031D02*
X2915420Y-1335508D01*
X2915420Y-1335508D02*
X2896372Y-1325984D01*
X2896372Y-1325984D02*
X2858277Y-1325984D01*
X2858277Y-1325984D02*
X2839229Y-1335508D01*
X2839229Y-1335508D02*
X2829706Y-1345031D01*
X2829706Y-1345031D02*
X2820182Y-1364079D01*
X2820182Y-1364079D02*
X2820182Y-1411698D01*
X2820182Y-1411698D02*
X2829706Y-1430746D01*
X2829706Y-1430746D02*
X2839229Y-1440269D01*
X2839229Y-1440269D02*
X2858277Y-1449793D01*
X2858277Y-1449793D02*
X2896372Y-1449793D01*
X2896372Y-1449793D02*
X2915420Y-1440269D01*
X2915420Y-1440269D02*
X2924944Y-1430746D01*
X2924944Y-1430746D02*
X2934467Y-1411698D01*
X3124944Y-1525984D02*
X3010658Y-1525984D01*
X3067801Y-1525984D02*
X3067801Y-1325984D01*
X3067801Y-1325984D02*
X3048753Y-1354555D01*
X3048753Y-1354555D02*
X3029706Y-1373603D01*
X3029706Y-1373603D02*
X3010658Y-1383127D01*
X3201134Y-1325984D02*
X3201134Y-1364079D01*
X3277325Y-1325984D02*
X3277325Y-1364079D01*
X3572563Y-1602174D02*
X3563039Y-1592650D01*
X3563039Y-1592650D02*
X3543991Y-1564079D01*
X3543991Y-1564079D02*
X3534468Y-1545031D01*
X3534468Y-1545031D02*
X3524944Y-1516460D01*
X3524944Y-1516460D02*
X3515420Y-1468841D01*
X3515420Y-1468841D02*
X3515420Y-1430746D01*
X3515420Y-1430746D02*
X3524944Y-1383127D01*
X3524944Y-1383127D02*
X3534468Y-1354555D01*
X3534468Y-1354555D02*
X3543991Y-1335508D01*
X3543991Y-1335508D02*
X3563039Y-1306936D01*
X3563039Y-1306936D02*
X3572563Y-1297412D01*
X3639229Y-1345031D02*
X3648753Y-1335508D01*
X3648753Y-1335508D02*
X3667801Y-1325984D01*
X3667801Y-1325984D02*
X3715420Y-1325984D01*
X3715420Y-1325984D02*
X3734468Y-1335508D01*
X3734468Y-1335508D02*
X3743991Y-1345031D01*
X3743991Y-1345031D02*
X3753515Y-1364079D01*
X3753515Y-1364079D02*
X3753515Y-1383127D01*
X3753515Y-1383127D02*
X3743991Y-1411698D01*
X3743991Y-1411698D02*
X3629706Y-1525984D01*
X3629706Y-1525984D02*
X3753515Y-1525984D01*
X3991610Y-1525984D02*
X3991610Y-1325984D01*
X4077325Y-1525984D02*
X4077325Y-1421222D01*
X4077325Y-1421222D02*
X4067801Y-1402174D01*
X4067801Y-1402174D02*
X4048753Y-1392650D01*
X4048753Y-1392650D02*
X4020182Y-1392650D01*
X4020182Y-1392650D02*
X4001134Y-1402174D01*
X4001134Y-1402174D02*
X3991610Y-1411698D01*
X4201134Y-1525984D02*
X4182087Y-1516460D01*
X4182087Y-1516460D02*
X4172563Y-1506936D01*
X4172563Y-1506936D02*
X4163039Y-1487888D01*
X4163039Y-1487888D02*
X4163039Y-1430746D01*
X4163039Y-1430746D02*
X4172563Y-1411698D01*
X4172563Y-1411698D02*
X4182087Y-1402174D01*
X4182087Y-1402174D02*
X4201134Y-1392650D01*
X4201134Y-1392650D02*
X4229706Y-1392650D01*
X4229706Y-1392650D02*
X4248753Y-1402174D01*
X4248753Y-1402174D02*
X4258277Y-1411698D01*
X4258277Y-1411698D02*
X4267801Y-1430746D01*
X4267801Y-1430746D02*
X4267801Y-1487888D01*
X4267801Y-1487888D02*
X4258277Y-1506936D01*
X4258277Y-1506936D02*
X4248753Y-1516460D01*
X4248753Y-1516460D02*
X4229706Y-1525984D01*
X4229706Y-1525984D02*
X4201134Y-1525984D01*
X4382087Y-1525984D02*
X4363039Y-1516460D01*
X4363039Y-1516460D02*
X4353515Y-1497412D01*
X4353515Y-1497412D02*
X4353515Y-1325984D01*
X4534468Y-1516460D02*
X4515420Y-1525984D01*
X4515420Y-1525984D02*
X4477325Y-1525984D01*
X4477325Y-1525984D02*
X4458277Y-1516460D01*
X4458277Y-1516460D02*
X4448753Y-1497412D01*
X4448753Y-1497412D02*
X4448753Y-1421222D01*
X4448753Y-1421222D02*
X4458277Y-1402174D01*
X4458277Y-1402174D02*
X4477325Y-1392650D01*
X4477325Y-1392650D02*
X4515420Y-1392650D01*
X4515420Y-1392650D02*
X4534468Y-1402174D01*
X4534468Y-1402174D02*
X4543992Y-1421222D01*
X4543992Y-1421222D02*
X4543992Y-1440269D01*
X4543992Y-1440269D02*
X4448753Y-1459317D01*
X4620182Y-1516460D02*
X4639230Y-1525984D01*
X4639230Y-1525984D02*
X4677325Y-1525984D01*
X4677325Y-1525984D02*
X4696373Y-1516460D01*
X4696373Y-1516460D02*
X4705896Y-1497412D01*
X4705896Y-1497412D02*
X4705896Y-1487888D01*
X4705896Y-1487888D02*
X4696373Y-1468841D01*
X4696373Y-1468841D02*
X4677325Y-1459317D01*
X4677325Y-1459317D02*
X4648753Y-1459317D01*
X4648753Y-1459317D02*
X4629706Y-1449793D01*
X4629706Y-1449793D02*
X4620182Y-1430746D01*
X4620182Y-1430746D02*
X4620182Y-1421222D01*
X4620182Y-1421222D02*
X4629706Y-1402174D01*
X4629706Y-1402174D02*
X4648753Y-1392650D01*
X4648753Y-1392650D02*
X4677325Y-1392650D01*
X4677325Y-1392650D02*
X4696373Y-1402174D01*
X4772563Y-1602174D02*
X4782087Y-1592650D01*
X4782087Y-1592650D02*
X4801134Y-1564079D01*
X4801134Y-1564079D02*
X4810658Y-1545031D01*
X4810658Y-1545031D02*
X4820182Y-1516460D01*
X4820182Y-1516460D02*
X4829706Y-1468841D01*
X4829706Y-1468841D02*
X4829706Y-1430746D01*
X4829706Y-1430746D02*
X4820182Y-1383127D01*
X4820182Y-1383127D02*
X4810658Y-1354555D01*
X4810658Y-1354555D02*
X4801134Y-1335508D01*
X4801134Y-1335508D02*
X4782087Y-1306936D01*
X4782087Y-1306936D02*
X4772563Y-1297412D01*
X-102500Y-1804500D02*
X-2500Y-1704500D01*
X-102500Y-1604500D01*
X-202500Y-1704500D01*
X-102500Y-1804500D01*
X248753Y-1615031D02*
X258277Y-1605508D01*
X258277Y-1605508D02*
X277324Y-1595984D01*
X277324Y-1595984D02*
X324944Y-1595984D01*
X324944Y-1595984D02*
X343991Y-1605508D01*
X343991Y-1605508D02*
X353515Y-1615031D01*
X353515Y-1615031D02*
X363039Y-1634079D01*
X363039Y-1634079D02*
X363039Y-1653127D01*
X363039Y-1653127D02*
X353515Y-1681698D01*
X353515Y-1681698D02*
X239229Y-1795984D01*
X239229Y-1795984D02*
X363039Y-1795984D01*
X448753Y-1776936D02*
X458277Y-1786460D01*
X458277Y-1786460D02*
X448753Y-1795984D01*
X448753Y-1795984D02*
X439229Y-1786460D01*
X439229Y-1786460D02*
X448753Y-1776936D01*
X448753Y-1776936D02*
X448753Y-1795984D01*
X582086Y-1595984D02*
X601134Y-1595984D01*
X601134Y-1595984D02*
X620182Y-1605508D01*
X620182Y-1605508D02*
X629705Y-1615031D01*
X629705Y-1615031D02*
X639229Y-1634079D01*
X639229Y-1634079D02*
X648753Y-1672174D01*
X648753Y-1672174D02*
X648753Y-1719793D01*
X648753Y-1719793D02*
X639229Y-1757888D01*
X639229Y-1757888D02*
X629705Y-1776936D01*
X629705Y-1776936D02*
X620182Y-1786460D01*
X620182Y-1786460D02*
X601134Y-1795984D01*
X601134Y-1795984D02*
X582086Y-1795984D01*
X582086Y-1795984D02*
X563039Y-1786460D01*
X563039Y-1786460D02*
X553515Y-1776936D01*
X553515Y-1776936D02*
X543991Y-1757888D01*
X543991Y-1757888D02*
X534467Y-1719793D01*
X534467Y-1719793D02*
X534467Y-1672174D01*
X534467Y-1672174D02*
X543991Y-1634079D01*
X543991Y-1634079D02*
X553515Y-1615031D01*
X553515Y-1615031D02*
X563039Y-1605508D01*
X563039Y-1605508D02*
X582086Y-1595984D01*
X772562Y-1595984D02*
X791610Y-1595984D01*
X791610Y-1595984D02*
X810658Y-1605508D01*
X810658Y-1605508D02*
X820182Y-1615031D01*
X820182Y-1615031D02*
X829705Y-1634079D01*
X829705Y-1634079D02*
X839229Y-1672174D01*
X839229Y-1672174D02*
X839229Y-1719793D01*
X839229Y-1719793D02*
X829705Y-1757888D01*
X829705Y-1757888D02*
X820182Y-1776936D01*
X820182Y-1776936D02*
X810658Y-1786460D01*
X810658Y-1786460D02*
X791610Y-1795984D01*
X791610Y-1795984D02*
X772562Y-1795984D01*
X772562Y-1795984D02*
X753515Y-1786460D01*
X753515Y-1786460D02*
X743991Y-1776936D01*
X743991Y-1776936D02*
X734467Y-1757888D01*
X734467Y-1757888D02*
X724943Y-1719793D01*
X724943Y-1719793D02*
X724943Y-1672174D01*
X724943Y-1672174D02*
X734467Y-1634079D01*
X734467Y-1634079D02*
X743991Y-1615031D01*
X743991Y-1615031D02*
X753515Y-1605508D01*
X753515Y-1605508D02*
X772562Y-1595984D01*
X963039Y-1595984D02*
X982086Y-1595984D01*
X982086Y-1595984D02*
X1001134Y-1605508D01*
X1001134Y-1605508D02*
X1010658Y-1615031D01*
X1010658Y-1615031D02*
X1020182Y-1634079D01*
X1020182Y-1634079D02*
X1029705Y-1672174D01*
X1029705Y-1672174D02*
X1029705Y-1719793D01*
X1029705Y-1719793D02*
X1020182Y-1757888D01*
X1020182Y-1757888D02*
X1010658Y-1776936D01*
X1010658Y-1776936D02*
X1001134Y-1786460D01*
X1001134Y-1786460D02*
X982086Y-1795984D01*
X982086Y-1795984D02*
X963039Y-1795984D01*
X963039Y-1795984D02*
X943991Y-1786460D01*
X943991Y-1786460D02*
X934467Y-1776936D01*
X934467Y-1776936D02*
X924943Y-1757888D01*
X924943Y-1757888D02*
X915420Y-1719793D01*
X915420Y-1719793D02*
X915420Y-1672174D01*
X915420Y-1672174D02*
X924943Y-1634079D01*
X924943Y-1634079D02*
X934467Y-1615031D01*
X934467Y-1615031D02*
X943991Y-1605508D01*
X943991Y-1605508D02*
X963039Y-1595984D01*
X1115420Y-1795984D02*
X1115420Y-1662650D01*
X1115420Y-1681698D02*
X1124944Y-1672174D01*
X1124944Y-1672174D02*
X1143991Y-1662650D01*
X1143991Y-1662650D02*
X1172563Y-1662650D01*
X1172563Y-1662650D02*
X1191610Y-1672174D01*
X1191610Y-1672174D02*
X1201134Y-1691222D01*
X1201134Y-1691222D02*
X1201134Y-1795984D01*
X1201134Y-1691222D02*
X1210658Y-1672174D01*
X1210658Y-1672174D02*
X1229705Y-1662650D01*
X1229705Y-1662650D02*
X1258277Y-1662650D01*
X1258277Y-1662650D02*
X1277325Y-1672174D01*
X1277325Y-1672174D02*
X1286848Y-1691222D01*
X1286848Y-1691222D02*
X1286848Y-1795984D01*
X1382086Y-1795984D02*
X1382086Y-1662650D01*
X1382086Y-1681698D02*
X1391610Y-1672174D01*
X1391610Y-1672174D02*
X1410658Y-1662650D01*
X1410658Y-1662650D02*
X1439229Y-1662650D01*
X1439229Y-1662650D02*
X1458277Y-1672174D01*
X1458277Y-1672174D02*
X1467801Y-1691222D01*
X1467801Y-1691222D02*
X1467801Y-1795984D01*
X1467801Y-1691222D02*
X1477324Y-1672174D01*
X1477324Y-1672174D02*
X1496372Y-1662650D01*
X1496372Y-1662650D02*
X1524943Y-1662650D01*
X1524943Y-1662650D02*
X1543991Y-1672174D01*
X1543991Y-1672174D02*
X1553515Y-1691222D01*
X1553515Y-1691222D02*
X1553515Y-1795984D01*
X1943991Y-1586460D02*
X1772563Y-1843603D01*
X2201134Y-1595984D02*
X2220182Y-1595984D01*
X2220182Y-1595984D02*
X2239229Y-1605508D01*
X2239229Y-1605508D02*
X2248753Y-1615031D01*
X2248753Y-1615031D02*
X2258277Y-1634079D01*
X2258277Y-1634079D02*
X2267801Y-1672174D01*
X2267801Y-1672174D02*
X2267801Y-1719793D01*
X2267801Y-1719793D02*
X2258277Y-1757888D01*
X2258277Y-1757888D02*
X2248753Y-1776936D01*
X2248753Y-1776936D02*
X2239229Y-1786460D01*
X2239229Y-1786460D02*
X2220182Y-1795984D01*
X2220182Y-1795984D02*
X2201134Y-1795984D01*
X2201134Y-1795984D02*
X2182087Y-1786460D01*
X2182087Y-1786460D02*
X2172563Y-1776936D01*
X2172563Y-1776936D02*
X2163039Y-1757888D01*
X2163039Y-1757888D02*
X2153515Y-1719793D01*
X2153515Y-1719793D02*
X2153515Y-1672174D01*
X2153515Y-1672174D02*
X2163039Y-1634079D01*
X2163039Y-1634079D02*
X2172563Y-1615031D01*
X2172563Y-1615031D02*
X2182087Y-1605508D01*
X2182087Y-1605508D02*
X2201134Y-1595984D01*
X2353515Y-1776936D02*
X2363039Y-1786460D01*
X2363039Y-1786460D02*
X2353515Y-1795984D01*
X2353515Y-1795984D02*
X2343991Y-1786460D01*
X2343991Y-1786460D02*
X2353515Y-1776936D01*
X2353515Y-1776936D02*
X2353515Y-1795984D01*
X2486848Y-1595984D02*
X2505896Y-1595984D01*
X2505896Y-1595984D02*
X2524944Y-1605508D01*
X2524944Y-1605508D02*
X2534468Y-1615031D01*
X2534468Y-1615031D02*
X2543991Y-1634079D01*
X2543991Y-1634079D02*
X2553515Y-1672174D01*
X2553515Y-1672174D02*
X2553515Y-1719793D01*
X2553515Y-1719793D02*
X2543991Y-1757888D01*
X2543991Y-1757888D02*
X2534468Y-1776936D01*
X2534468Y-1776936D02*
X2524944Y-1786460D01*
X2524944Y-1786460D02*
X2505896Y-1795984D01*
X2505896Y-1795984D02*
X2486848Y-1795984D01*
X2486848Y-1795984D02*
X2467801Y-1786460D01*
X2467801Y-1786460D02*
X2458277Y-1776936D01*
X2458277Y-1776936D02*
X2448753Y-1757888D01*
X2448753Y-1757888D02*
X2439229Y-1719793D01*
X2439229Y-1719793D02*
X2439229Y-1672174D01*
X2439229Y-1672174D02*
X2448753Y-1634079D01*
X2448753Y-1634079D02*
X2458277Y-1615031D01*
X2458277Y-1615031D02*
X2467801Y-1605508D01*
X2467801Y-1605508D02*
X2486848Y-1595984D01*
X2620182Y-1595984D02*
X2753515Y-1595984D01*
X2753515Y-1595984D02*
X2667801Y-1795984D01*
X2858277Y-1681698D02*
X2839229Y-1672174D01*
X2839229Y-1672174D02*
X2829706Y-1662650D01*
X2829706Y-1662650D02*
X2820182Y-1643603D01*
X2820182Y-1643603D02*
X2820182Y-1634079D01*
X2820182Y-1634079D02*
X2829706Y-1615031D01*
X2829706Y-1615031D02*
X2839229Y-1605508D01*
X2839229Y-1605508D02*
X2858277Y-1595984D01*
X2858277Y-1595984D02*
X2896372Y-1595984D01*
X2896372Y-1595984D02*
X2915420Y-1605508D01*
X2915420Y-1605508D02*
X2924944Y-1615031D01*
X2924944Y-1615031D02*
X2934467Y-1634079D01*
X2934467Y-1634079D02*
X2934467Y-1643603D01*
X2934467Y-1643603D02*
X2924944Y-1662650D01*
X2924944Y-1662650D02*
X2915420Y-1672174D01*
X2915420Y-1672174D02*
X2896372Y-1681698D01*
X2896372Y-1681698D02*
X2858277Y-1681698D01*
X2858277Y-1681698D02*
X2839229Y-1691222D01*
X2839229Y-1691222D02*
X2829706Y-1700746D01*
X2829706Y-1700746D02*
X2820182Y-1719793D01*
X2820182Y-1719793D02*
X2820182Y-1757888D01*
X2820182Y-1757888D02*
X2829706Y-1776936D01*
X2829706Y-1776936D02*
X2839229Y-1786460D01*
X2839229Y-1786460D02*
X2858277Y-1795984D01*
X2858277Y-1795984D02*
X2896372Y-1795984D01*
X2896372Y-1795984D02*
X2915420Y-1786460D01*
X2915420Y-1786460D02*
X2924944Y-1776936D01*
X2924944Y-1776936D02*
X2934467Y-1757888D01*
X2934467Y-1757888D02*
X2934467Y-1719793D01*
X2934467Y-1719793D02*
X2924944Y-1700746D01*
X2924944Y-1700746D02*
X2915420Y-1691222D01*
X2915420Y-1691222D02*
X2896372Y-1681698D01*
X3001134Y-1595984D02*
X3134467Y-1595984D01*
X3134467Y-1595984D02*
X3048753Y-1795984D01*
X3201134Y-1595984D02*
X3201134Y-1634079D01*
X3277325Y-1595984D02*
X3277325Y-1634079D01*
X3572563Y-1872174D02*
X3563039Y-1862650D01*
X3563039Y-1862650D02*
X3543991Y-1834079D01*
X3543991Y-1834079D02*
X3534468Y-1815031D01*
X3534468Y-1815031D02*
X3524944Y-1786460D01*
X3524944Y-1786460D02*
X3515420Y-1738841D01*
X3515420Y-1738841D02*
X3515420Y-1700746D01*
X3515420Y-1700746D02*
X3524944Y-1653127D01*
X3524944Y-1653127D02*
X3534468Y-1624555D01*
X3534468Y-1624555D02*
X3543991Y-1605508D01*
X3543991Y-1605508D02*
X3563039Y-1576936D01*
X3563039Y-1576936D02*
X3572563Y-1567412D01*
X3639229Y-1615031D02*
X3648753Y-1605508D01*
X3648753Y-1605508D02*
X3667801Y-1595984D01*
X3667801Y-1595984D02*
X3715420Y-1595984D01*
X3715420Y-1595984D02*
X3734468Y-1605508D01*
X3734468Y-1605508D02*
X3743991Y-1615031D01*
X3743991Y-1615031D02*
X3753515Y-1634079D01*
X3753515Y-1634079D02*
X3753515Y-1653127D01*
X3753515Y-1653127D02*
X3743991Y-1681698D01*
X3743991Y-1681698D02*
X3629706Y-1795984D01*
X3629706Y-1795984D02*
X3753515Y-1795984D01*
X3991610Y-1795984D02*
X3991610Y-1595984D01*
X4077325Y-1795984D02*
X4077325Y-1691222D01*
X4077325Y-1691222D02*
X4067801Y-1672174D01*
X4067801Y-1672174D02*
X4048753Y-1662650D01*
X4048753Y-1662650D02*
X4020182Y-1662650D01*
X4020182Y-1662650D02*
X4001134Y-1672174D01*
X4001134Y-1672174D02*
X3991610Y-1681698D01*
X4201134Y-1795984D02*
X4182087Y-1786460D01*
X4182087Y-1786460D02*
X4172563Y-1776936D01*
X4172563Y-1776936D02*
X4163039Y-1757888D01*
X4163039Y-1757888D02*
X4163039Y-1700746D01*
X4163039Y-1700746D02*
X4172563Y-1681698D01*
X4172563Y-1681698D02*
X4182087Y-1672174D01*
X4182087Y-1672174D02*
X4201134Y-1662650D01*
X4201134Y-1662650D02*
X4229706Y-1662650D01*
X4229706Y-1662650D02*
X4248753Y-1672174D01*
X4248753Y-1672174D02*
X4258277Y-1681698D01*
X4258277Y-1681698D02*
X4267801Y-1700746D01*
X4267801Y-1700746D02*
X4267801Y-1757888D01*
X4267801Y-1757888D02*
X4258277Y-1776936D01*
X4258277Y-1776936D02*
X4248753Y-1786460D01*
X4248753Y-1786460D02*
X4229706Y-1795984D01*
X4229706Y-1795984D02*
X4201134Y-1795984D01*
X4382087Y-1795984D02*
X4363039Y-1786460D01*
X4363039Y-1786460D02*
X4353515Y-1767412D01*
X4353515Y-1767412D02*
X4353515Y-1595984D01*
X4534468Y-1786460D02*
X4515420Y-1795984D01*
X4515420Y-1795984D02*
X4477325Y-1795984D01*
X4477325Y-1795984D02*
X4458277Y-1786460D01*
X4458277Y-1786460D02*
X4448753Y-1767412D01*
X4448753Y-1767412D02*
X4448753Y-1691222D01*
X4448753Y-1691222D02*
X4458277Y-1672174D01*
X4458277Y-1672174D02*
X4477325Y-1662650D01*
X4477325Y-1662650D02*
X4515420Y-1662650D01*
X4515420Y-1662650D02*
X4534468Y-1672174D01*
X4534468Y-1672174D02*
X4543992Y-1691222D01*
X4543992Y-1691222D02*
X4543992Y-1710269D01*
X4543992Y-1710269D02*
X4448753Y-1729317D01*
X4620182Y-1786460D02*
X4639230Y-1795984D01*
X4639230Y-1795984D02*
X4677325Y-1795984D01*
X4677325Y-1795984D02*
X4696373Y-1786460D01*
X4696373Y-1786460D02*
X4705896Y-1767412D01*
X4705896Y-1767412D02*
X4705896Y-1757888D01*
X4705896Y-1757888D02*
X4696373Y-1738841D01*
X4696373Y-1738841D02*
X4677325Y-1729317D01*
X4677325Y-1729317D02*
X4648753Y-1729317D01*
X4648753Y-1729317D02*
X4629706Y-1719793D01*
X4629706Y-1719793D02*
X4620182Y-1700746D01*
X4620182Y-1700746D02*
X4620182Y-1691222D01*
X4620182Y-1691222D02*
X4629706Y-1672174D01*
X4629706Y-1672174D02*
X4648753Y-1662650D01*
X4648753Y-1662650D02*
X4677325Y-1662650D01*
X4677325Y-1662650D02*
X4696373Y-1672174D01*
X4772563Y-1872174D02*
X4782087Y-1862650D01*
X4782087Y-1862650D02*
X4801134Y-1834079D01*
X4801134Y-1834079D02*
X4810658Y-1815031D01*
X4810658Y-1815031D02*
X4820182Y-1786460D01*
X4820182Y-1786460D02*
X4829706Y-1738841D01*
X4829706Y-1738841D02*
X4829706Y-1700746D01*
X4829706Y-1700746D02*
X4820182Y-1653127D01*
X4820182Y-1653127D02*
X4810658Y-1624555D01*
X4810658Y-1624555D02*
X4801134Y-1605508D01*
X4801134Y-1605508D02*
X4782087Y-1576936D01*
X4782087Y-1576936D02*
X4772563Y-1567412D01*
M02*
