%TF.GenerationSoftware,KiCad,Pcbnew,9.0.6*%
%TF.CreationDate,2026-02-05T22:18:58+05:30*%
%TF.ProjectId,Vitalung_V0.1,56697461-6c75-46e6-975f-56302e312e6b,0.1*%
%TF.SameCoordinates,PX7057c40PY68e7780*%
%TF.FileFunction,Plated,1,2,PTH,Drill*%
%TF.FilePolarity,Positive*%
%FSLAX46Y46*%
G04 Gerber Fmt 4.6, Leading zero omitted, Abs format (unit mm)*
G04 Created by KiCad (PCBNEW 9.0.6) date 2026-02-05 22:18:58*
%MOMM*%
%LPD*%
G01*
G04 APERTURE LIST*
%TA.AperFunction,ViaDrill*%
%ADD10C,0.300000*%
%TD*%
%TA.AperFunction,ComponentDrill*%
%ADD11C,0.900000*%
%TD*%
%TA.AperFunction,ComponentDrill*%
%ADD12C,1.000000*%
%TD*%
%TA.AperFunction,ComponentDrill*%
%ADD13C,1.500000*%
%TD*%
%TA.AperFunction,ComponentDrill*%
%ADD14C,2.000000*%
%TD*%
G04 APERTURE END LIST*
D10*
X5500000Y9500000D03*
X5600000Y11500000D03*
X5600000Y10200000D03*
X6100000Y7500000D03*
X6100000Y6700000D03*
X7300000Y6400000D03*
X8100000Y20200000D03*
X8100000Y19200000D03*
X10600000Y11500000D03*
X11200000Y20200000D03*
X11200000Y19300000D03*
X12500000Y12800000D03*
X14700000Y22100000D03*
X14700000Y14700000D03*
X14900000Y18400000D03*
X16800000Y13600000D03*
X17300000Y10100000D03*
X17300000Y9100000D03*
X17700000Y14700000D03*
X18000000Y13400000D03*
X19100000Y13300000D03*
X19200000Y19700000D03*
X19300000Y24400000D03*
X19700000Y16500000D03*
X20100000Y19500000D03*
X20200000Y13300000D03*
X21700000Y19500000D03*
X22500000Y15000000D03*
X24200000Y24200000D03*
X24200000Y8400000D03*
X25300000Y9800000D03*
X26000000Y25699000D03*
X29500000Y24300000D03*
X30200000Y10300000D03*
X33400000Y14000000D03*
X34500000Y13900000D03*
X35700000Y14100000D03*
X42900000Y19500000D03*
X43200000Y13700000D03*
X43200000Y12800000D03*
X43700000Y17100000D03*
X43900000Y19500000D03*
X45000000Y10300000D03*
X46600000Y23800000D03*
X66200000Y6700000D03*
X66200000Y5800000D03*
X66800000Y30711750D03*
X66900000Y27700000D03*
X67900000Y27700000D03*
X69000000Y6700000D03*
X69000000Y5800000D03*
X69200000Y24300000D03*
X69719046Y18919046D03*
X76375000Y8225000D03*
X79200000Y7200000D03*
X79200000Y6200000D03*
D11*
%TO.C,D1*%
X24420000Y29000000D03*
X26960000Y29000000D03*
X29500000Y29000000D03*
%TO.C,SW1*%
X38000000Y30500000D03*
X40000000Y30500000D03*
X42000000Y30500000D03*
%TO.C,D2*%
X70000000Y29000000D03*
X72540000Y29000000D03*
D12*
%TO.C,J1*%
X33650000Y4000000D03*
X36190000Y4000000D03*
X38730000Y4000000D03*
X41270000Y4000000D03*
X43810000Y4000000D03*
X46350000Y4000000D03*
D13*
%TO.C,SW1*%
X35900000Y30500000D03*
X44100000Y30500000D03*
D14*
%TO.C,BT1*%
X4075000Y16040000D03*
X76075000Y16040000D03*
M02*
