%TF.GenerationSoftware,KiCad,Pcbnew,9.0.6*%
%TF.CreationDate,2026-02-05T22:19:04+05:30*%
%TF.ProjectId,Vitalung_V0.1,56697461-6c75-46e6-975f-56302e312e6b,0.1*%
%TF.SameCoordinates,PX7057c40PY68e7780*%
%TF.FileFunction,Copper,L1,Top*%
%TF.FilePolarity,Positive*%
%FSLAX46Y46*%
G04 Gerber Fmt 4.6, Leading zero omitted, Abs format (unit mm)*
G04 Created by KiCad (PCBNEW 9.0.6) date 2026-02-05 22:19:04*
%MOMM*%
%LPD*%
G01*
G04 APERTURE LIST*
G04 Aperture macros list*
%AMRoundRect*
0 Rectangle with rounded corners*
0 $1 Rounding radius*
0 $2 $3 $4 $5 $6 $7 $8 $9 X,Y pos of 4 corners*
0 Add a 4 corners polygon primitive as box body*
4,1,4,$2,$3,$4,$5,$6,$7,$8,$9,$2,$3,0*
0 Add four circle primitives for the rounded corners*
1,1,$1+$1,$2,$3*
1,1,$1+$1,$4,$5*
1,1,$1+$1,$6,$7*
1,1,$1+$1,$8,$9*
0 Add four rect primitives between the rounded corners*
20,1,$1+$1,$2,$3,$4,$5,0*
20,1,$1+$1,$4,$5,$6,$7,0*
20,1,$1+$1,$6,$7,$8,$9,0*
20,1,$1+$1,$8,$9,$2,$3,0*%
G04 Aperture macros list end*
%TA.AperFunction,SMDPad,CuDef*%
%ADD10RoundRect,0.250000X-0.475000X0.337500X-0.475000X-0.337500X0.475000X-0.337500X0.475000X0.337500X0*%
%TD*%
%TA.AperFunction,SMDPad,CuDef*%
%ADD11RoundRect,0.237500X0.250000X0.237500X-0.250000X0.237500X-0.250000X-0.237500X0.250000X-0.237500X0*%
%TD*%
%TA.AperFunction,SMDPad,CuDef*%
%ADD12RoundRect,0.237500X-0.250000X-0.237500X0.250000X-0.237500X0.250000X0.237500X-0.250000X0.237500X0*%
%TD*%
%TA.AperFunction,SMDPad,CuDef*%
%ADD13C,1.000000*%
%TD*%
%TA.AperFunction,SMDPad,CuDef*%
%ADD14RoundRect,0.250000X0.650000X-1.000000X0.650000X1.000000X-0.650000X1.000000X-0.650000X-1.000000X0*%
%TD*%
%TA.AperFunction,SMDPad,CuDef*%
%ADD15RoundRect,0.250000X-0.350000X-0.450000X0.350000X-0.450000X0.350000X0.450000X-0.350000X0.450000X0*%
%TD*%
%TA.AperFunction,SMDPad,CuDef*%
%ADD16RoundRect,0.250000X0.337500X0.475000X-0.337500X0.475000X-0.337500X-0.475000X0.337500X-0.475000X0*%
%TD*%
%TA.AperFunction,SMDPad,CuDef*%
%ADD17RoundRect,0.250000X0.475000X-0.337500X0.475000X0.337500X-0.475000X0.337500X-0.475000X-0.337500X0*%
%TD*%
%TA.AperFunction,SMDPad,CuDef*%
%ADD18RoundRect,0.150000X-0.512500X-0.150000X0.512500X-0.150000X0.512500X0.150000X-0.512500X0.150000X0*%
%TD*%
%TA.AperFunction,SMDPad,CuDef*%
%ADD19RoundRect,0.237500X-0.237500X0.300000X-0.237500X-0.300000X0.237500X-0.300000X0.237500X0.300000X0*%
%TD*%
%TA.AperFunction,ComponentPad*%
%ADD20O,2.200000X3.500000*%
%TD*%
%TA.AperFunction,ComponentPad*%
%ADD21R,1.500000X2.500000*%
%TD*%
%TA.AperFunction,ComponentPad*%
%ADD22O,1.500000X2.500000*%
%TD*%
%TA.AperFunction,SMDPad,CuDef*%
%ADD23RoundRect,0.250001X0.499999X1.549999X-0.499999X1.549999X-0.499999X-1.549999X0.499999X-1.549999X0*%
%TD*%
%TA.AperFunction,SMDPad,CuDef*%
%ADD24RoundRect,0.237500X0.237500X-0.250000X0.237500X0.250000X-0.237500X0.250000X-0.237500X-0.250000X0*%
%TD*%
%TA.AperFunction,ComponentPad*%
%ADD25R,1.700000X1.700000*%
%TD*%
%TA.AperFunction,ComponentPad*%
%ADD26C,1.700000*%
%TD*%
%TA.AperFunction,SMDPad,CuDef*%
%ADD27RoundRect,0.150000X-0.150000X0.587500X-0.150000X-0.587500X0.150000X-0.587500X0.150000X0.587500X0*%
%TD*%
%TA.AperFunction,SMDPad,CuDef*%
%ADD28RoundRect,0.235000X1.465000X-0.940000X1.465000X0.940000X-1.465000X0.940000X-1.465000X-0.940000X0*%
%TD*%
%TA.AperFunction,SMDPad,CuDef*%
%ADD29RoundRect,0.237500X0.237500X-0.300000X0.237500X0.300000X-0.237500X0.300000X-0.237500X-0.300000X0*%
%TD*%
%TA.AperFunction,SMDPad,CuDef*%
%ADD30RoundRect,0.250000X-0.650000X1.000000X-0.650000X-1.000000X0.650000X-1.000000X0.650000X1.000000X0*%
%TD*%
%TA.AperFunction,ComponentPad*%
%ADD31R,1.800000X1.800000*%
%TD*%
%TA.AperFunction,ComponentPad*%
%ADD32C,1.800000*%
%TD*%
%TA.AperFunction,SMDPad,CuDef*%
%ADD33RoundRect,0.237500X0.300000X0.237500X-0.300000X0.237500X-0.300000X-0.237500X0.300000X-0.237500X0*%
%TD*%
%TA.AperFunction,SMDPad,CuDef*%
%ADD34RoundRect,0.150000X0.512500X0.150000X-0.512500X0.150000X-0.512500X-0.150000X0.512500X-0.150000X0*%
%TD*%
%TA.AperFunction,SMDPad,CuDef*%
%ADD35RoundRect,0.400000X-0.975000X-0.600000X0.975000X-0.600000X0.975000X0.600000X-0.975000X0.600000X0*%
%TD*%
%TA.AperFunction,SMDPad,CuDef*%
%ADD36RoundRect,0.075000X0.350000X0.075000X-0.350000X0.075000X-0.350000X-0.075000X0.350000X-0.075000X0*%
%TD*%
%TA.AperFunction,SMDPad,CuDef*%
%ADD37RoundRect,0.075000X0.075000X0.350000X-0.075000X0.350000X-0.075000X-0.350000X0.075000X-0.350000X0*%
%TD*%
%TA.AperFunction,HeatsinkPad*%
%ADD38R,2.100000X2.100000*%
%TD*%
%TA.AperFunction,SMDPad,CuDef*%
%ADD39RoundRect,0.375000X0.375000X-0.625000X0.375000X0.625000X-0.375000X0.625000X-0.375000X-0.625000X0*%
%TD*%
%TA.AperFunction,SMDPad,CuDef*%
%ADD40RoundRect,0.500000X1.400000X-0.500000X1.400000X0.500000X-1.400000X0.500000X-1.400000X-0.500000X0*%
%TD*%
%TA.AperFunction,ComponentPad*%
%ADD41R,3.500000X3.500000*%
%TD*%
%TA.AperFunction,ComponentPad*%
%ADD42C,3.500000*%
%TD*%
%TA.AperFunction,ViaPad*%
%ADD43C,0.700000*%
%TD*%
%TA.AperFunction,Conductor*%
%ADD44C,0.800000*%
%TD*%
%TA.AperFunction,Conductor*%
%ADD45C,0.400000*%
%TD*%
%TA.AperFunction,Conductor*%
%ADD46C,0.300000*%
%TD*%
%TA.AperFunction,Conductor*%
%ADD47C,0.500000*%
%TD*%
%TA.AperFunction,Conductor*%
%ADD48C,1.000000*%
%TD*%
G04 APERTURE END LIST*
D10*
%TO.P,C17,1*%
%TO.N,Net-(SW1-A)*%
X41700000Y15137500D03*
%TO.P,C17,2*%
%TO.N,GND*%
X41700000Y13062500D03*
%TD*%
D11*
%TO.P,R18,1*%
%TO.N,Net-(U10-FB)*%
X38550000Y11000000D03*
%TO.P,R18,2*%
%TO.N,+5V*%
X36725000Y11000000D03*
%TD*%
D12*
%TO.P,R1,1*%
%TO.N,+BATT*%
X7287500Y13500000D03*
%TO.P,R1,2*%
%TO.N,Net-(U2-VCC)*%
X9112500Y13500000D03*
%TD*%
D13*
%TO.P,TP5,1,1*%
%TO.N,+3V3*%
X67700000Y11000000D03*
%TD*%
D12*
%TO.P,R11,1*%
%TO.N,GND*%
X25237500Y11000000D03*
%TO.P,R11,2*%
%TO.N,Net-(Q2-G)*%
X27062500Y11000000D03*
%TD*%
D14*
%TO.P,D4,1,K*%
%TO.N,+5V*%
X34000000Y16000000D03*
%TO.P,D4,2,A*%
%TO.N,Net-(D4-A)*%
X34000000Y20000000D03*
%TD*%
D10*
%TO.P,C11,1*%
%TO.N,+5V*%
X77700000Y8537500D03*
%TO.P,C11,2*%
%TO.N,GND*%
X77700000Y6462500D03*
%TD*%
D15*
%TO.P,R9,1*%
%TO.N,+BATT*%
X15700000Y21000000D03*
%TO.P,R9,2*%
%TO.N,Net-(U3-VS)*%
X17700000Y21000000D03*
%TD*%
D16*
%TO.P,C3,1*%
%TO.N,VBUS*%
X20737500Y9500000D03*
%TO.P,C3,2*%
%TO.N,GND*%
X18662500Y9500000D03*
%TD*%
D17*
%TO.P,C18,1*%
%TO.N,+5V*%
X32700000Y10962500D03*
%TO.P,C18,2*%
%TO.N,GND*%
X32700000Y13037500D03*
%TD*%
D12*
%TO.P,R2,1*%
%TO.N,GND*%
X7287500Y7500000D03*
%TO.P,R2,2*%
%TO.N,Net-(U2-CS)*%
X9112500Y7500000D03*
%TD*%
D18*
%TO.P,U2,1,OD*%
%TO.N,Net-(Q1-G2)*%
X7062500Y11450000D03*
%TO.P,U2,2,CS*%
%TO.N,Net-(U2-CS)*%
X7062500Y10500000D03*
%TO.P,U2,3,OC*%
%TO.N,Net-(Q1-G1)*%
X7062500Y9550000D03*
%TO.P,U2,4,TD*%
%TO.N,unconnected-(U2-TD-Pad4)*%
X9337500Y9550000D03*
%TO.P,U2,5,VCC*%
%TO.N,Net-(U2-VCC)*%
X9337500Y10500000D03*
%TO.P,U2,6,GND*%
%TO.N,Net-(BT1--)*%
X9337500Y11450000D03*
%TD*%
D19*
%TO.P,C5,1*%
%TO.N,VREG*%
X15700000Y17362500D03*
%TO.P,C5,2*%
%TO.N,GND*%
X15700000Y15637500D03*
%TD*%
D20*
%TO.P,SW1,*%
%TO.N,*%
X44100000Y30500000D03*
X35900000Y30500000D03*
D21*
%TO.P,SW1,1,A*%
%TO.N,Net-(SW1-A)*%
X42000000Y30500000D03*
D22*
%TO.P,SW1,2,B*%
%TO.N,+BATT*%
X40000000Y30500000D03*
%TO.P,SW1,3,C*%
%TO.N,unconnected-(SW1-C-Pad3)*%
X38000000Y30500000D03*
%TD*%
D23*
%TO.P,L1,1*%
%TO.N,Net-(SW1-A)*%
X40825000Y18700000D03*
%TO.P,L1,2*%
%TO.N,Net-(D4-A)*%
X37775000Y18700000D03*
%TD*%
D24*
%TO.P,R6,1*%
%TO.N,BTSENS*%
X45700000Y24787500D03*
%TO.P,R6,2*%
%TO.N,Net-(SW1-A)*%
X45700000Y26612500D03*
%TD*%
D25*
%TO.P,J1,1,Pin_1*%
%TO.N,Net-(J1-Pin_1)*%
X33650000Y4000000D03*
D26*
%TO.P,J1,2,Pin_2*%
%TO.N,+5V*%
X36190000Y4000000D03*
%TO.P,J1,3,Pin_3*%
%TO.N,SCL*%
X38730000Y4000000D03*
%TO.P,J1,4,Pin_4*%
%TO.N,GND*%
X41270000Y4000000D03*
%TO.P,J1,5,Pin_5*%
%TO.N,SDA*%
X43810000Y4000000D03*
%TO.P,J1,6,Pin_6*%
%TO.N,+5V*%
X46350000Y4000000D03*
%TD*%
D27*
%TO.P,Q2,1,G*%
%TO.N,Net-(Q2-G)*%
X27100000Y8437500D03*
%TO.P,Q2,2,S*%
%TO.N,GND*%
X25200000Y8437500D03*
%TO.P,Q2,3,D*%
%TO.N,Net-(J1-Pin_1)*%
X26150000Y6562500D03*
%TD*%
D28*
%TO.P,L2,1*%
%TO.N,Net-(U3-LX_1)*%
X27300000Y14275000D03*
%TO.P,L2,2*%
%TO.N,Net-(U3-VS)*%
X27300000Y20325000D03*
%TD*%
D10*
%TO.P,C12,1*%
%TO.N,+3V3*%
X67700000Y8537500D03*
%TO.P,C12,2*%
%TO.N,GND*%
X67700000Y6462500D03*
%TD*%
D24*
%TO.P,R7,1*%
%TO.N,GND*%
X45700000Y20687500D03*
%TO.P,R7,2*%
%TO.N,BTSENS*%
X45700000Y22512500D03*
%TD*%
D18*
%TO.P,U10,1,SW*%
%TO.N,Net-(D4-A)*%
X37062500Y15050000D03*
%TO.P,U10,2,GND*%
%TO.N,GND*%
X37062500Y14100000D03*
%TO.P,U10,3,FB*%
%TO.N,Net-(U10-FB)*%
X37062500Y13150000D03*
%TO.P,U10,4,EN*%
%TO.N,Net-(SW1-A)*%
X39337500Y13150000D03*
%TO.P,U10,5,IN*%
X39337500Y14100000D03*
%TO.P,U10,6,NC*%
%TO.N,unconnected-(U10-NC-Pad6)*%
X39337500Y15050000D03*
%TD*%
D11*
%TO.P,R4,1*%
%TO.N,SCL*%
X45612500Y16100000D03*
%TO.P,R4,2*%
%TO.N,+3V3*%
X43787500Y16100000D03*
%TD*%
%TO.P,R5,1*%
%TO.N,Net-(D1-A)*%
X27912500Y23600000D03*
%TO.P,R5,2*%
%TO.N,VBUS*%
X26087500Y23600000D03*
%TD*%
D13*
%TO.P,TP2,1,1*%
%TO.N,Net-(U3-PWR_ON-)*%
X20100000Y25200000D03*
%TD*%
D29*
%TO.P,C14,1*%
%TO.N,+3V3*%
X67900000Y24837500D03*
%TO.P,C14,2*%
%TO.N,GND*%
X67900000Y26562500D03*
%TD*%
D12*
%TO.P,R8,1*%
%TO.N,Net-(U3-TS)*%
X14287500Y12000000D03*
%TO.P,R8,2*%
%TO.N,VREG*%
X16112500Y12000000D03*
%TD*%
D10*
%TO.P,C9,1*%
%TO.N,+BATT*%
X13200000Y21537500D03*
%TO.P,C9,2*%
%TO.N,GND*%
X13200000Y19462500D03*
%TD*%
D30*
%TO.P,D3,1,A1*%
%TO.N,+BATT*%
X9600000Y24000000D03*
%TO.P,D3,2,A2*%
%TO.N,GND*%
X9600000Y20000000D03*
%TD*%
D29*
%TO.P,C10,1*%
%TO.N,+5V*%
X34900000Y11037500D03*
%TO.P,C10,2*%
%TO.N,GND*%
X34900000Y12762500D03*
%TD*%
D31*
%TO.P,D2,1,K*%
%TO.N,GND*%
X70000000Y29000000D03*
D32*
%TO.P,D2,2,A*%
%TO.N,Net-(D2-A)*%
X72540000Y29000000D03*
%TD*%
D11*
%TO.P,R12,1*%
%TO.N,GND*%
X16112500Y10000000D03*
%TO.P,R12,2*%
%TO.N,Net-(U3-TS)*%
X14287500Y10000000D03*
%TD*%
D13*
%TO.P,TP1,1,1*%
%TO.N,Net-(U3-CS)*%
X11200000Y13400000D03*
%TD*%
%TO.P,TP4,1,1*%
%TO.N,+5V*%
X77700000Y11000000D03*
%TD*%
D31*
%TO.P,D1,1,K1*%
%TO.N,/Red*%
X29500000Y29000000D03*
D32*
%TO.P,D1,2,A*%
%TO.N,Net-(D1-A)*%
X26960000Y29000000D03*
%TO.P,D1,3,K2*%
%TO.N,/Green*%
X24420000Y29000000D03*
%TD*%
D33*
%TO.P,C4,1*%
%TO.N,VBUS*%
X20562500Y12000000D03*
%TO.P,C4,2*%
%TO.N,GND*%
X18837500Y12000000D03*
%TD*%
D10*
%TO.P,C6,1*%
%TO.N,Net-(U3-VS)*%
X20000000Y22937500D03*
%TO.P,C6,2*%
%TO.N,GND*%
X20000000Y20862500D03*
%TD*%
D34*
%TO.P,Q1,1,D1*%
%TO.N,GND*%
X4337500Y9550000D03*
%TO.P,Q1,2,S1/D2*%
%TO.N,unconnected-(Q1-S1{slash}D2-Pad2)*%
X4337500Y10500000D03*
%TO.P,Q1,3,S2*%
%TO.N,Net-(BT1--)*%
X4337500Y11450000D03*
%TO.P,Q1,4,G2*%
%TO.N,Net-(Q1-G2)*%
X2062500Y11450000D03*
%TO.P,Q1,5,S1/D2*%
%TO.N,unconnected-(Q1-S1{slash}D2-Pad2)_1*%
X2062500Y10500000D03*
%TO.P,Q1,6,G1*%
%TO.N,Net-(Q1-G1)*%
X2062500Y9550000D03*
%TD*%
D13*
%TO.P,TP3,1,1*%
%TO.N,+BATT*%
X6200000Y20600000D03*
%TD*%
D11*
%TO.P,R3,1*%
%TO.N,SDA*%
X45612500Y18200000D03*
%TO.P,R3,2*%
%TO.N,+3V3*%
X43787500Y18200000D03*
%TD*%
D35*
%TO.P,U1,1,PA02_A0_D0*%
%TO.N,unconnected-(U1-PA02_A0_D0-Pad1)*%
X48617500Y29900750D03*
%TO.P,U1,2,PA4_A1_D1*%
%TO.N,BTSENS*%
X48617500Y27360750D03*
%TO.P,U1,3,PA10_A2_D2*%
%TO.N,Net-(U1-PA10_A2_D2)*%
X48617500Y24820750D03*
%TO.P,U1,4,PA11_A3_D3*%
%TO.N,unconnected-(U1-PA11_A3_D3-Pad4)*%
X48617500Y22280750D03*
%TO.P,U1,5,PA8_A4_D4_SDA*%
%TO.N,SDA*%
X48617500Y19740750D03*
%TO.P,U1,6,PA9_A5_D5_SCL*%
%TO.N,SCL*%
X48617500Y17200750D03*
%TO.P,U1,7,PB08_A6_D6_TX*%
%TO.N,Heater_En*%
X48617500Y14660750D03*
%TO.P,U1,8,PB09_A7_D7_RX*%
%TO.N,unconnected-(U1-PB09_A7_D7_RX-Pad8)*%
X64782500Y14660750D03*
%TO.P,U1,9,PA7_A8_D8_SCK*%
%TO.N,unconnected-(U1-PA7_A8_D8_SCK-Pad9)*%
X64782500Y17200750D03*
%TO.P,U1,10,PA5_A9_D9_MISO*%
%TO.N,unconnected-(U1-PA5_A9_D9_MISO-Pad10)*%
X64782500Y19740750D03*
%TO.P,U1,11,PA6_A10_D10_MOSI*%
%TO.N,unconnected-(U1-PA6_A10_D10_MOSI-Pad11)*%
X64782500Y22280750D03*
%TO.P,U1,12,3V3*%
%TO.N,+3V3*%
X64782500Y24820750D03*
%TO.P,U1,13,GND*%
%TO.N,GND*%
X64782500Y27360750D03*
%TO.P,U1,14,5V*%
%TO.N,VBUS*%
X64782500Y29900750D03*
%TD*%
D11*
%TO.P,R19,1*%
%TO.N,GND*%
X42050000Y11000000D03*
%TO.P,R19,2*%
%TO.N,Net-(U10-FB)*%
X40225000Y11000000D03*
%TD*%
D36*
%TO.P,U3,1,VIN_1*%
%TO.N,VBUS*%
X21650000Y15525000D03*
%TO.P,U3,2,LX_1*%
%TO.N,Net-(U3-LX_1)*%
X21650000Y16175000D03*
%TO.P,U3,3,LX_2*%
X21650000Y16825000D03*
%TO.P,U3,4,VIN_2*%
%TO.N,VBUS*%
X21650000Y17475000D03*
D37*
%TO.P,U3,5,VIN_3*%
X20675000Y18450000D03*
%TO.P,U3,6,PWR_ON-*%
%TO.N,Net-(U3-PWR_ON-)*%
X20025000Y18450000D03*
%TO.P,U3,7,GND*%
%TO.N,GND*%
X19375000Y18450000D03*
%TO.P,U3,8,VS*%
%TO.N,Net-(U3-VS)*%
X18725000Y18450000D03*
D36*
%TO.P,U3,9,BAT*%
%TO.N,+BATT*%
X17750000Y17475000D03*
%TO.P,U3,10,VREG*%
%TO.N,VREG*%
X17750000Y16825000D03*
%TO.P,U3,11,TS*%
%TO.N,Net-(U3-TS)*%
X17750000Y16175000D03*
%TO.P,U3,12,RTRICK*%
%TO.N,GND*%
X17750000Y15525000D03*
D37*
%TO.P,U3,13,CS*%
%TO.N,Net-(U3-CS)*%
X18725000Y14550000D03*
%TO.P,U3,14,~{STDBY}*%
%TO.N,/Green*%
X19375000Y14550000D03*
%TO.P,U3,15,~{CHRG}*%
%TO.N,/Red*%
X20025000Y14550000D03*
%TO.P,U3,16,VIN_4*%
%TO.N,VBUS*%
X20675000Y14550000D03*
D38*
%TO.P,U3,17,EP*%
%TO.N,GND*%
X19700000Y16500000D03*
%TD*%
D24*
%TO.P,R10,1*%
%TO.N,Net-(Q2-G)*%
X29200000Y9087500D03*
%TO.P,R10,2*%
%TO.N,Heater_En*%
X29200000Y10912500D03*
%TD*%
D19*
%TO.P,C15,1*%
%TO.N,VBUS*%
X67950000Y30662500D03*
%TO.P,C15,2*%
%TO.N,GND*%
X67950000Y28937500D03*
%TD*%
D12*
%TO.P,R13,1*%
%TO.N,Net-(U1-PA10_A2_D2)*%
X70387500Y24300000D03*
%TO.P,R13,2*%
%TO.N,Net-(D2-A)*%
X72212500Y24300000D03*
%TD*%
D29*
%TO.P,C1,1*%
%TO.N,Net-(U2-VCC)*%
X11700000Y9637500D03*
%TO.P,C1,2*%
%TO.N,Net-(BT1--)*%
X11700000Y11362500D03*
%TD*%
D19*
%TO.P,C13,1*%
%TO.N,BTSENS*%
X43700000Y22462500D03*
%TO.P,C13,2*%
%TO.N,GND*%
X43700000Y20737500D03*
%TD*%
D39*
%TO.P,U4,1,GND*%
%TO.N,GND*%
X70400000Y6850000D03*
%TO.P,U4,2,VO*%
%TO.N,+3V3*%
X72700000Y6850000D03*
D40*
X72700000Y13150000D03*
D39*
%TO.P,U4,3,VI*%
%TO.N,+5V*%
X75000000Y6850000D03*
%TD*%
D41*
%TO.P,BT1,1,+*%
%TO.N,+BATT*%
X4075000Y16040000D03*
D42*
%TO.P,BT1,2,-*%
%TO.N,Net-(BT1--)*%
X76075000Y16040000D03*
%TD*%
D43*
%TO.N,+BATT*%
X14700000Y22100000D03*
%TO.N,Net-(BT1--)*%
X10600000Y11500000D03*
X5600000Y11500000D03*
%TO.N,GND*%
X19700000Y16500000D03*
X17300000Y9100000D03*
X66200000Y5800000D03*
X43200000Y13700000D03*
X17300000Y10100000D03*
X8100000Y19200000D03*
X43900000Y19500000D03*
X17700000Y14700000D03*
X6100000Y6700000D03*
X43200000Y12800000D03*
X11200000Y19300000D03*
X66900000Y27700000D03*
X24200000Y8400000D03*
X79200000Y7200000D03*
X6100000Y7500000D03*
X69000000Y6700000D03*
X11200000Y20200000D03*
X42900000Y19500000D03*
X7300000Y6400000D03*
X8100000Y20200000D03*
X67900000Y27700000D03*
X79200000Y6200000D03*
X19200000Y19700000D03*
X66200000Y6700000D03*
X5500000Y9500000D03*
X5600000Y10200000D03*
X35700000Y14100000D03*
X14700000Y14700000D03*
X33400000Y14000000D03*
X69000000Y5800000D03*
X34500000Y13900000D03*
X25300000Y9800000D03*
%TO.N,VBUS*%
X66800000Y30711750D03*
X26000000Y25699000D03*
X22500000Y15000000D03*
X21700000Y19500000D03*
%TO.N,VREG*%
X14900000Y18400000D03*
X16800000Y13600000D03*
%TO.N,+5V*%
X76375000Y8225000D03*
%TO.N,+3V3*%
X43700000Y17100000D03*
X69719046Y18919046D03*
%TO.N,Heater_En*%
X45000000Y10300000D03*
X30200000Y10300000D03*
%TO.N,Net-(U3-CS)*%
X18000000Y13400000D03*
X12500000Y12800000D03*
%TO.N,Net-(U3-PWR_ON-)*%
X19300000Y24400000D03*
X20100000Y19500000D03*
%TO.N,/Green*%
X24200000Y24200000D03*
X19100000Y13300000D03*
%TO.N,/Red*%
X20200000Y13300000D03*
X29500000Y24300000D03*
%TO.N,Net-(U1-PA10_A2_D2)*%
X46600000Y23800000D03*
X69200000Y24300000D03*
%TD*%
D44*
%TO.N,+BATT*%
X13200000Y22600000D02*
X11800000Y24000000D01*
D45*
X7287500Y13500000D02*
X6615000Y13500000D01*
D44*
X9600000Y24000000D02*
X4075000Y18475000D01*
X14700000Y22100000D02*
X13762500Y22100000D01*
X14700000Y22100000D02*
X15700000Y21100000D01*
X11800000Y24000000D02*
X9600000Y24000000D01*
D46*
X17750000Y17475000D02*
X17225000Y17475000D01*
D44*
X4075000Y18475000D02*
X4075000Y16040000D01*
D46*
X17225000Y17475000D02*
X15700000Y19000000D01*
D44*
X13762500Y22100000D02*
X13200000Y21537500D01*
D45*
X6615000Y13500000D02*
X4075000Y16040000D01*
D44*
X13200000Y21537500D02*
X13200000Y22600000D01*
D46*
X15700000Y19000000D02*
X15700000Y21000000D01*
D44*
X15700000Y21100000D02*
X15700000Y21000000D01*
%TO.N,Net-(BT1--)*%
X11562500Y11500000D02*
X11700000Y11362500D01*
X5600000Y11500000D02*
X4387500Y11500000D01*
X10600000Y11500000D02*
X11562500Y11500000D01*
X4387500Y11500000D02*
X4337500Y11450000D01*
X10550000Y11450000D02*
X10600000Y11500000D01*
X9337500Y11450000D02*
X10550000Y11450000D01*
D45*
%TO.N,Net-(U2-VCC)*%
X8200000Y12587500D02*
X9112500Y13500000D01*
X8700000Y10500000D02*
X8200000Y11000000D01*
X8200000Y11000000D02*
X8200000Y12587500D01*
X9337500Y10500000D02*
X10837500Y10500000D01*
X10837500Y10500000D02*
X11700000Y9637500D01*
X9337500Y10500000D02*
X8700000Y10500000D01*
D44*
%TO.N,VBUS*%
X20737500Y11825000D02*
X20562500Y12000000D01*
D46*
X20675000Y14550000D02*
X21650000Y15525000D01*
D44*
X20737500Y9500000D02*
X20737500Y11825000D01*
D46*
X20900000Y14325000D02*
X20900000Y12337500D01*
X21400000Y18500000D02*
X20725000Y18500000D01*
X21650000Y15525000D02*
X21975000Y15525000D01*
D47*
X65561750Y30711750D02*
X64782500Y29932500D01*
X21700000Y18300000D02*
X21700000Y19500000D01*
X67900750Y30711750D02*
X65561750Y30711750D01*
X67950000Y30662500D02*
X67900750Y30711750D01*
D46*
X21650000Y18250000D02*
X21400000Y18500000D01*
D47*
X21650000Y18250000D02*
X21700000Y18300000D01*
X26000000Y25699000D02*
X26000000Y23687500D01*
D46*
X20675000Y14550000D02*
X20900000Y14325000D01*
X20900000Y12337500D02*
X20562500Y12000000D01*
X20725000Y18500000D02*
X20675000Y18450000D01*
X21650000Y17475000D02*
X21650000Y18250000D01*
D47*
X64782500Y29932500D02*
X64782500Y29900750D01*
D46*
X21975000Y15525000D02*
X22500000Y15000000D01*
D47*
X26000000Y23687500D02*
X26087500Y23600000D01*
D46*
%TO.N,VREG*%
X16800000Y12687500D02*
X16112500Y12000000D01*
X15700000Y17362500D02*
X15700000Y17600000D01*
X16800000Y13600000D02*
X16800000Y12687500D01*
X17750000Y16825000D02*
X16237500Y16825000D01*
X16237500Y16825000D02*
X15700000Y17362500D01*
X15700000Y17600000D02*
X14900000Y18400000D01*
D44*
%TO.N,+5V*%
X32700000Y10962500D02*
X34825000Y10962500D01*
X34825000Y10962500D02*
X34900000Y11037500D01*
X34900000Y11037500D02*
X34900000Y8500000D01*
X30800000Y13700000D02*
X33100000Y16000000D01*
X76687500Y8537500D02*
X75000000Y6850000D01*
X31637500Y10962500D02*
X30800000Y11800000D01*
X77700000Y8537500D02*
X76687500Y8537500D01*
X36725000Y11000000D02*
X34937500Y11000000D01*
X36190000Y7210000D02*
X36190000Y4000000D01*
X34900000Y8500000D02*
X36190000Y7210000D01*
X77700000Y8537500D02*
X77700000Y11000000D01*
X34937500Y11000000D02*
X34900000Y11037500D01*
X33100000Y16000000D02*
X34000000Y16000000D01*
X30800000Y11800000D02*
X30800000Y13700000D01*
X32700000Y10962500D02*
X31637500Y10962500D01*
D45*
%TO.N,+3V3*%
X67900000Y24837500D02*
X64799250Y24837500D01*
X43700000Y17100000D02*
X43700000Y16187500D01*
D44*
X69462500Y10300000D02*
X68762500Y11000000D01*
D45*
X43700000Y18112500D02*
X43787500Y18200000D01*
D44*
X72700000Y13150000D02*
X72700000Y15938093D01*
D45*
X43700000Y16187500D02*
X43787500Y16100000D01*
D44*
X68762500Y11000000D02*
X67700000Y11000000D01*
X72700000Y13150000D02*
X72700000Y10300000D01*
X72700000Y15938093D02*
X67900000Y20738093D01*
X67900000Y20738093D02*
X67900000Y24837500D01*
X67700000Y8537500D02*
X69462500Y10300000D01*
D45*
X64799250Y24837500D02*
X64782500Y24820750D01*
D44*
X69462500Y10300000D02*
X72700000Y10300000D01*
D45*
X43700000Y17100000D02*
X43700000Y18112500D01*
D44*
X72700000Y10300000D02*
X72700000Y6850000D01*
D45*
%TO.N,BTSENS*%
X45700000Y24787500D02*
X48273250Y27360750D01*
X45700000Y22512500D02*
X45650000Y22462500D01*
X45650000Y22462500D02*
X43700000Y22462500D01*
X45700000Y22512500D02*
X45700000Y24787500D01*
X48273250Y27360750D02*
X48617500Y27360750D01*
%TO.N,Net-(D1-A)*%
X27912500Y23600000D02*
X27912500Y28047500D01*
X27912500Y28047500D02*
X26960000Y29000000D01*
D44*
%TO.N,Net-(D4-A)*%
X37062500Y15050000D02*
X37062500Y18187500D01*
X37575000Y18700000D02*
X37775000Y18700000D01*
D48*
X35100000Y18900000D02*
X34000000Y20000000D01*
X37575000Y18900000D02*
X35100000Y18900000D01*
X37775000Y18700000D02*
X37575000Y18900000D01*
D44*
X37062500Y18187500D02*
X37575000Y18700000D01*
D45*
%TO.N,Net-(J1-Pin_1)*%
X26150000Y6562500D02*
X30762500Y6562500D01*
X33325000Y4000000D02*
X33650000Y4000000D01*
X30762500Y6562500D02*
X33325000Y4000000D01*
%TO.N,SDA*%
X45612500Y18200000D02*
X47153250Y19740750D01*
X52400000Y12800000D02*
X52400000Y17900000D01*
X47153250Y19740750D02*
X48617500Y19740750D01*
X43810000Y4000000D02*
X43810000Y4210000D01*
X52400000Y17900000D02*
X50559250Y19740750D01*
X50559250Y19740750D02*
X48617500Y19740750D01*
X43810000Y4210000D02*
X52400000Y12800000D01*
%TO.N,SCL*%
X38730000Y4000000D02*
X40630000Y5900000D01*
X51400000Y16500000D02*
X50699250Y17200750D01*
X51400000Y13300000D02*
X51400000Y16500000D01*
X46713250Y17200750D02*
X48617500Y17200750D01*
X44000000Y5900000D02*
X51400000Y13300000D01*
X45612500Y16100000D02*
X46713250Y17200750D01*
X40630000Y5900000D02*
X44000000Y5900000D01*
X50699250Y17200750D02*
X48617500Y17200750D01*
%TO.N,Net-(Q1-G1)*%
X3112500Y8500000D02*
X6012500Y8500000D01*
X6012500Y8500000D02*
X7062500Y9550000D01*
X2062500Y9550000D02*
X3112500Y8500000D01*
%TO.N,Net-(Q1-G2)*%
X2062500Y11450000D02*
X3212500Y12600000D01*
X5912500Y12600000D02*
X7062500Y11450000D01*
X3212500Y12600000D02*
X5912500Y12600000D01*
%TO.N,Net-(Q2-G)*%
X29200000Y9087500D02*
X27750000Y9087500D01*
X27062500Y11000000D02*
X27062500Y8475000D01*
X27062500Y8475000D02*
X27100000Y8437500D01*
X27750000Y9087500D02*
X27100000Y8437500D01*
%TO.N,Net-(U2-CS)*%
X7062500Y10500000D02*
X7706388Y10500000D01*
X7706388Y10500000D02*
X8200000Y10006388D01*
X8200000Y10006388D02*
X8200000Y8412500D01*
X8200000Y8412500D02*
X9112500Y7500000D01*
D46*
%TO.N,Net-(U3-TS)*%
X14287500Y12387500D02*
X14287500Y12000000D01*
X17075000Y16175000D02*
X16700000Y15800000D01*
X17750000Y16175000D02*
X17075000Y16175000D01*
X16700000Y15800000D02*
X16700000Y14800000D01*
D45*
X14287500Y10000000D02*
X14287500Y12000000D01*
D46*
X16700000Y14800000D02*
X14287500Y12387500D01*
D45*
%TO.N,Heater_En*%
X29200000Y10912500D02*
X29587500Y10912500D01*
X45900000Y10300000D02*
X48600000Y13000000D01*
X48600000Y13000000D02*
X48600000Y14643250D01*
X29587500Y10912500D02*
X30200000Y10300000D01*
X48600000Y14643250D02*
X48617500Y14660750D01*
X45000000Y10300000D02*
X45900000Y10300000D01*
%TO.N,Net-(U10-FB)*%
X37062500Y12487500D02*
X38550000Y11000000D01*
X38550000Y11000000D02*
X40225000Y11000000D01*
X37062500Y13150000D02*
X37062500Y12487500D01*
D46*
%TO.N,Net-(U3-CS)*%
X18725000Y14125000D02*
X18000000Y13400000D01*
X11800000Y12800000D02*
X11200000Y13400000D01*
X12500000Y12800000D02*
X11800000Y12800000D01*
X18725000Y14550000D02*
X18725000Y14125000D01*
%TO.N,Net-(U3-PWR_ON-)*%
X20100000Y19500000D02*
X20100000Y19350000D01*
X20100000Y19350000D02*
X20025000Y19275000D01*
X19300000Y24400000D02*
X20100000Y25200000D01*
X20025000Y19275000D02*
X20025000Y18450000D01*
%TO.N,/Green*%
X19375000Y13575000D02*
X19100000Y13300000D01*
X24200000Y24200000D02*
X24420000Y24420000D01*
X24420000Y24420000D02*
X24420000Y29000000D01*
X19375000Y14550000D02*
X19375000Y13575000D01*
%TO.N,/Red*%
X20030760Y13300000D02*
X20025000Y13305760D01*
X20025000Y13305760D02*
X20025000Y14550000D01*
X20200000Y13300000D02*
X20030760Y13300000D01*
X29500000Y24300000D02*
X29500000Y29000000D01*
D45*
%TO.N,Net-(D2-A)*%
X72500000Y24587500D02*
X72500000Y27960000D01*
X72500000Y27960000D02*
X72540000Y28000000D01*
X72212500Y24300000D02*
X72500000Y24587500D01*
D44*
%TO.N,Net-(SW1-A)*%
X42000000Y23800000D02*
X42000000Y26500000D01*
D47*
X40662500Y14100000D02*
X39337500Y14100000D01*
D44*
X41812500Y23612500D02*
X42000000Y23800000D01*
D45*
X42112500Y26612500D02*
X42000000Y26500000D01*
D44*
X40825000Y16012500D02*
X41700000Y15137500D01*
D45*
X45700000Y26612500D02*
X42112500Y26612500D01*
D44*
X40825000Y18700000D02*
X40825000Y22625000D01*
X42000000Y26500000D02*
X42000000Y30500000D01*
D47*
X41700000Y15137500D02*
X40662500Y14100000D01*
D45*
X39337500Y13150000D02*
X39337500Y14100000D01*
D44*
X40825000Y22625000D02*
X41812500Y23612500D01*
X40825000Y18700000D02*
X40825000Y16012500D01*
D45*
%TO.N,Net-(U1-PA10_A2_D2)*%
X47596750Y23800000D02*
X48617500Y24820750D01*
X46600000Y23800000D02*
X47596750Y23800000D01*
X69200000Y24300000D02*
X70387500Y24300000D01*
%TD*%
%TA.AperFunction,Conductor*%
%TO.N,Net-(U3-LX_1)*%
G36*
X28917183Y16981093D02*
G01*
X28928996Y16971004D01*
X29171004Y16728996D01*
X29198781Y16674479D01*
X29200000Y16658992D01*
X29200000Y13341008D01*
X29181093Y13282817D01*
X29171004Y13271004D01*
X28928996Y13028996D01*
X28874479Y13001219D01*
X28858992Y13000000D01*
X24741008Y13000000D01*
X24682817Y13018907D01*
X24671004Y13028996D01*
X24428996Y13271004D01*
X24401219Y13325521D01*
X24400000Y13341008D01*
X24400000Y15699999D01*
X24400000Y15700000D01*
X24100000Y16000000D01*
X24099999Y16000000D01*
X21541008Y16000000D01*
X21482817Y16018907D01*
X21471004Y16028996D01*
X21228996Y16271004D01*
X21201219Y16325521D01*
X21200000Y16341008D01*
X21200000Y16658992D01*
X21218907Y16717183D01*
X21228996Y16728996D01*
X21471004Y16971004D01*
X21525521Y16998781D01*
X21541008Y17000000D01*
X28858992Y17000000D01*
X28917183Y16981093D01*
G37*
%TD.AperFunction*%
%TD*%
%TA.AperFunction,Conductor*%
%TO.N,Net-(U3-VS)*%
G36*
X23517183Y23681093D02*
G01*
X23528996Y23671004D01*
X23771004Y23428996D01*
X23798781Y23374479D01*
X23800000Y23358992D01*
X23800000Y22900000D01*
X24100000Y22600000D01*
X28858992Y22600000D01*
X28917183Y22581093D01*
X28928996Y22571004D01*
X29171004Y22328996D01*
X29198781Y22274479D01*
X29200000Y22258992D01*
X29200000Y19141008D01*
X29181093Y19082817D01*
X29171004Y19071004D01*
X28928996Y18828996D01*
X28874479Y18801219D01*
X28858992Y18800000D01*
X22841008Y18800000D01*
X22782817Y18818907D01*
X22771004Y18828996D01*
X22528996Y19071004D01*
X22501219Y19125521D01*
X22500000Y19141008D01*
X22500000Y21399999D01*
X22500000Y21400000D01*
X22200000Y21700000D01*
X22199999Y21700000D01*
X20726499Y21700000D01*
X20690180Y21706903D01*
X20606565Y21739877D01*
X20518106Y21750500D01*
X20518102Y21750500D01*
X19481898Y21750500D01*
X19481893Y21750500D01*
X19393434Y21739877D01*
X19309820Y21706903D01*
X19273501Y21700000D01*
X19200001Y21700000D01*
X19200000Y21700000D01*
X18900000Y21400000D01*
X18900000Y21399999D01*
X18900000Y20334812D01*
X18881093Y20276621D01*
X18856002Y20252497D01*
X18785331Y20205276D01*
X18785327Y20205273D01*
X18694727Y20114673D01*
X18694724Y20114669D01*
X18623538Y20008134D01*
X18623534Y20008126D01*
X18574500Y19889748D01*
X18574499Y19889743D01*
X18549500Y19764070D01*
X18549500Y19635931D01*
X18574499Y19510258D01*
X18574500Y19510253D01*
X18623534Y19391875D01*
X18623538Y19391867D01*
X18644505Y19360489D01*
X18694724Y19285331D01*
X18785331Y19194724D01*
X18856002Y19147503D01*
X18893881Y19099455D01*
X18900000Y19065189D01*
X18900000Y18641008D01*
X18881093Y18582817D01*
X18871004Y18571004D01*
X18628996Y18328996D01*
X18574479Y18301219D01*
X18558992Y18300000D01*
X17078112Y18300000D01*
X17019921Y18318907D01*
X17008108Y18328996D01*
X16728996Y18608108D01*
X16701219Y18662625D01*
X16700000Y18678112D01*
X16700000Y23358992D01*
X16718907Y23417183D01*
X16728996Y23428996D01*
X16971004Y23671004D01*
X17025521Y23698781D01*
X17041008Y23700000D01*
X23458992Y23700000D01*
X23517183Y23681093D01*
G37*
%TD.AperFunction*%
%TD*%
%TA.AperFunction,Conductor*%
%TO.N,GND*%
G36*
X3417248Y12000193D02*
G01*
X3460513Y11956928D01*
X3470084Y11896496D01*
X3451959Y11853196D01*
X3422207Y11812884D01*
X3377355Y11684704D01*
X3377353Y11684695D01*
X3374500Y11654275D01*
X3374500Y11245726D01*
X3377353Y11215306D01*
X3377355Y11215297D01*
X3422206Y11087119D01*
X3461566Y11033788D01*
X3480907Y10975740D01*
X3462435Y10917409D01*
X3461566Y10916212D01*
X3422206Y10862882D01*
X3377355Y10734704D01*
X3377353Y10734695D01*
X3374500Y10704275D01*
X3374500Y10295726D01*
X3377353Y10265306D01*
X3377355Y10265297D01*
X3422207Y10137117D01*
X3502845Y10027856D01*
X3502847Y10027854D01*
X3502850Y10027850D01*
X3502853Y10027848D01*
X3502855Y10027846D01*
X3612116Y9947208D01*
X3612117Y9947208D01*
X3612118Y9947207D01*
X3740301Y9902354D01*
X3770725Y9899501D01*
X3770727Y9899500D01*
X3770734Y9899500D01*
X4904273Y9899500D01*
X4904273Y9899501D01*
X4934699Y9902354D01*
X5062882Y9947207D01*
X5172150Y10027850D01*
X5252793Y10137118D01*
X5297646Y10265301D01*
X5300499Y10295727D01*
X5300500Y10295727D01*
X5300500Y10700500D01*
X5319407Y10758691D01*
X5368907Y10794655D01*
X5399500Y10799500D01*
X5668992Y10799500D01*
X5668993Y10799500D01*
X5804328Y10826420D01*
X5931811Y10879225D01*
X5931816Y10879229D01*
X5931819Y10879230D01*
X5973566Y10907125D01*
X5974127Y10907501D01*
X6033014Y10924110D01*
X6090418Y10902934D01*
X6124412Y10852061D01*
X6122575Y10792490D01*
X6102354Y10734702D01*
X6102353Y10734695D01*
X6099500Y10704275D01*
X6099500Y10295726D01*
X6102353Y10265306D01*
X6102355Y10265297D01*
X6147206Y10137119D01*
X6186566Y10083788D01*
X6205907Y10025740D01*
X6187435Y9967409D01*
X6186566Y9966212D01*
X6147206Y9912882D01*
X6102355Y9784704D01*
X6102353Y9784695D01*
X6099500Y9754275D01*
X6099500Y9345731D01*
X6099521Y9345506D01*
X6099512Y9345467D01*
X6099608Y9343415D01*
X6099045Y9343389D01*
X6086122Y9285806D01*
X6070956Y9266272D01*
X5834183Y9029497D01*
X5779666Y9001719D01*
X5764179Y9000500D01*
X3360820Y9000500D01*
X3302629Y9019407D01*
X3290816Y9029497D01*
X3054043Y9266271D01*
X3026266Y9320787D01*
X3025549Y9343408D01*
X3025392Y9343415D01*
X3025485Y9345422D01*
X3025482Y9345540D01*
X3025500Y9345732D01*
X3025500Y9754273D01*
X3025499Y9754275D01*
X3022646Y9784699D01*
X2977793Y9912882D01*
X2952921Y9946582D01*
X2938434Y9966212D01*
X2919092Y10024259D01*
X2937563Y10082590D01*
X2938434Y10083788D01*
X2957968Y10110256D01*
X2977793Y10137118D01*
X3022646Y10265301D01*
X3025499Y10295727D01*
X3025500Y10295727D01*
X3025500Y10704273D01*
X3025499Y10704275D01*
X3024881Y10710862D01*
X3022646Y10734699D01*
X2977793Y10862882D01*
X2967768Y10876465D01*
X2938434Y10916212D01*
X2919092Y10974259D01*
X2937563Y11032590D01*
X2938434Y11033788D01*
X2964772Y11069475D01*
X2977793Y11087118D01*
X3022646Y11215301D01*
X3025499Y11245727D01*
X3025500Y11245727D01*
X3025500Y11654267D01*
X3025481Y11654469D01*
X3025489Y11654506D01*
X3025392Y11656585D01*
X3025961Y11656612D01*
X3038863Y11714173D01*
X3054040Y11733728D01*
X3302301Y11981988D01*
X3356816Y12009764D01*
X3417248Y12000193D01*
G37*
%TD.AperFunction*%
%TA.AperFunction,Conductor*%
G36*
X20505700Y21444294D02*
G01*
X20518427Y21442766D01*
X20542943Y21436570D01*
X20578104Y21422704D01*
X20578108Y21422703D01*
X20578112Y21422701D01*
X20605110Y21414888D01*
X20633136Y21406776D01*
X20669455Y21399873D01*
X20726499Y21394500D01*
X22032450Y21394500D01*
X22040047Y21392032D01*
X22047937Y21393281D01*
X22068592Y21382757D01*
X22090641Y21375593D01*
X22102454Y21365504D01*
X22165504Y21302454D01*
X22193281Y21247937D01*
X22194500Y21232450D01*
X22194500Y20137151D01*
X22175593Y20078960D01*
X22126093Y20042996D01*
X22064907Y20042996D01*
X22040498Y20054836D01*
X22008134Y20076462D01*
X22008125Y20076466D01*
X21889747Y20125500D01*
X21889745Y20125501D01*
X21889744Y20125501D01*
X21764069Y20150500D01*
X21635931Y20150500D01*
X21635930Y20150500D01*
X21589449Y20141254D01*
X21510256Y20125501D01*
X21510255Y20125501D01*
X21510252Y20125500D01*
X21391874Y20076466D01*
X21391866Y20076462D01*
X21285331Y20005276D01*
X21285327Y20005273D01*
X21194727Y19914673D01*
X21194724Y19914669D01*
X21123538Y19808134D01*
X21123534Y19808126D01*
X21074500Y19689748D01*
X21074499Y19689743D01*
X21049500Y19564070D01*
X21049500Y19435931D01*
X21074499Y19310258D01*
X21074501Y19310249D01*
X21104689Y19237369D01*
X21109490Y19176372D01*
X21077520Y19124204D01*
X21020992Y19100789D01*
X20969744Y19110543D01*
X20858626Y19164866D01*
X20840730Y19167474D01*
X20802147Y19173095D01*
X20747292Y19200194D01*
X20718840Y19254362D01*
X20724568Y19305458D01*
X20724089Y19305603D01*
X20724875Y19308196D01*
X20724960Y19308950D01*
X20725499Y19310252D01*
X20725501Y19310256D01*
X20750500Y19435931D01*
X20750500Y19564069D01*
X20725501Y19689744D01*
X20676465Y19808127D01*
X20676463Y19808130D01*
X20676461Y19808134D01*
X20634099Y19871532D01*
X20605276Y19914669D01*
X20514669Y20005276D01*
X20469060Y20035751D01*
X20408133Y20076462D01*
X20408125Y20076466D01*
X20289747Y20125500D01*
X20289745Y20125501D01*
X20289744Y20125501D01*
X20164069Y20150500D01*
X20035931Y20150500D01*
X20035930Y20150500D01*
X19989449Y20141254D01*
X19910256Y20125501D01*
X19910255Y20125501D01*
X19910252Y20125500D01*
X19791874Y20076466D01*
X19791866Y20076462D01*
X19685331Y20005276D01*
X19685327Y20005273D01*
X19594727Y19914673D01*
X19594724Y19914669D01*
X19523538Y19808134D01*
X19523534Y19808126D01*
X19474500Y19689748D01*
X19474499Y19689743D01*
X19449500Y19564070D01*
X19449500Y19435931D01*
X19474499Y19310258D01*
X19474500Y19310253D01*
X19523534Y19191874D01*
X19557815Y19140570D01*
X19574500Y19085568D01*
X19574500Y18835636D01*
X19574500Y18064364D01*
X19583007Y18005973D01*
X19585134Y17991374D01*
X19616143Y17927945D01*
X19640174Y17878789D01*
X19728789Y17790174D01*
X19841375Y17735134D01*
X19914364Y17724500D01*
X19914367Y17724500D01*
X20135632Y17724500D01*
X20135636Y17724500D01*
X20208625Y17735134D01*
X20306520Y17782993D01*
X20367101Y17791563D01*
X20393478Y17782993D01*
X20491375Y17735134D01*
X20564364Y17724500D01*
X20564367Y17724500D01*
X20785633Y17724500D01*
X20785636Y17724500D01*
X20816801Y17729041D01*
X20877109Y17718722D01*
X20919834Y17674926D01*
X20929040Y17616805D01*
X20924500Y17585636D01*
X20924500Y17364364D01*
X20931368Y17317222D01*
X20935134Y17291374D01*
X20935135Y17291372D01*
X20982991Y17193480D01*
X20991562Y17132898D01*
X20982991Y17106520D01*
X20935135Y17008629D01*
X20935134Y17008627D01*
X20935134Y17008625D01*
X20926203Y16947321D01*
X20924500Y16935633D01*
X20924500Y16815390D01*
X20919655Y16784798D01*
X20909451Y16753393D01*
X20894500Y16658996D01*
X20894500Y16341019D01*
X20895442Y16317031D01*
X20896664Y16301506D01*
X20897294Y16294532D01*
X20897294Y16294530D01*
X20897295Y16294527D01*
X20911910Y16244907D01*
X20920467Y16215853D01*
X20924500Y16187883D01*
X20924500Y16064364D01*
X20925938Y16054496D01*
X20935134Y15991374D01*
X20935135Y15991372D01*
X20982991Y15893480D01*
X20991562Y15832898D01*
X20982991Y15806520D01*
X20935135Y15708629D01*
X20935134Y15708627D01*
X20932467Y15690317D01*
X20925007Y15639112D01*
X20924500Y15635633D01*
X20924500Y15477611D01*
X20922031Y15470014D01*
X20923281Y15462124D01*
X20912756Y15441469D01*
X20905593Y15419420D01*
X20895504Y15407607D01*
X20792393Y15304496D01*
X20737876Y15276719D01*
X20722389Y15275500D01*
X20564364Y15275500D01*
X20520570Y15269120D01*
X20491373Y15264866D01*
X20491371Y15264865D01*
X20393480Y15217009D01*
X20332898Y15208438D01*
X20306520Y15217009D01*
X20208628Y15264865D01*
X20208626Y15264866D01*
X20190377Y15267525D01*
X20135636Y15275500D01*
X19914364Y15275500D01*
X19870570Y15269120D01*
X19841373Y15264866D01*
X19841371Y15264865D01*
X19743480Y15217009D01*
X19682898Y15208438D01*
X19656520Y15217009D01*
X19558628Y15264865D01*
X19558626Y15264866D01*
X19540377Y15267525D01*
X19485636Y15275500D01*
X19264364Y15275500D01*
X19220570Y15269120D01*
X19191373Y15264866D01*
X19191371Y15264865D01*
X19093480Y15217009D01*
X19032898Y15208438D01*
X19006520Y15217009D01*
X18908628Y15264865D01*
X18908626Y15264866D01*
X18890377Y15267525D01*
X18835636Y15275500D01*
X18614364Y15275500D01*
X18570570Y15269120D01*
X18541373Y15264866D01*
X18428790Y15209827D01*
X18340173Y15121210D01*
X18285134Y15008627D01*
X18280880Y14979430D01*
X18274544Y14935933D01*
X18274500Y14935633D01*
X18274500Y14352611D01*
X18255593Y14294420D01*
X18245504Y14282608D01*
X18042394Y14079497D01*
X17987877Y14051719D01*
X17972390Y14050500D01*
X17935930Y14050500D01*
X17873093Y14038001D01*
X17810256Y14025501D01*
X17810255Y14025501D01*
X17810252Y14025500D01*
X17691874Y13976466D01*
X17691866Y13976462D01*
X17585331Y13905276D01*
X17585321Y13905268D01*
X17543242Y13863189D01*
X17488725Y13835412D01*
X17428293Y13844984D01*
X17385029Y13888249D01*
X17381774Y13895309D01*
X17376465Y13908127D01*
X17376463Y13908130D01*
X17376461Y13908134D01*
X17322093Y13989500D01*
X17305276Y14014669D01*
X17214669Y14105276D01*
X17152913Y14146540D01*
X17108133Y14176462D01*
X17108125Y14176466D01*
X16989747Y14225500D01*
X16989741Y14225502D01*
X16984173Y14226610D01*
X16981945Y14227053D01*
X16928562Y14256949D01*
X16902946Y14312514D01*
X16914883Y14372524D01*
X16931252Y14394150D01*
X17060489Y14523386D01*
X17062955Y14527657D01*
X17119797Y14626109D01*
X17119797Y14626111D01*
X17119799Y14626113D01*
X17135607Y14685110D01*
X17150500Y14740691D01*
X17150500Y15572389D01*
X17152968Y15579987D01*
X17151719Y15587876D01*
X17162243Y15608532D01*
X17169407Y15630580D01*
X17179496Y15642393D01*
X17232607Y15695504D01*
X17287124Y15723281D01*
X17302611Y15724500D01*
X18135632Y15724500D01*
X18135636Y15724500D01*
X18208625Y15735134D01*
X18321211Y15790174D01*
X18409826Y15878789D01*
X18464866Y15991375D01*
X18475500Y16064364D01*
X18475500Y16285636D01*
X18464866Y16358625D01*
X18417007Y16456521D01*
X18408437Y16517101D01*
X18417008Y16543481D01*
X18464866Y16641375D01*
X18475500Y16714364D01*
X18475500Y16935636D01*
X18464866Y17008625D01*
X18417007Y17106521D01*
X18408437Y17167101D01*
X18417008Y17193481D01*
X18426746Y17213400D01*
X18464866Y17291375D01*
X18475500Y17364364D01*
X18475500Y17585636D01*
X18470959Y17616803D01*
X18481278Y17677110D01*
X18525075Y17719835D01*
X18583197Y17729041D01*
X18614364Y17724500D01*
X18614367Y17724500D01*
X18835632Y17724500D01*
X18835636Y17724500D01*
X18908625Y17735134D01*
X19021211Y17790174D01*
X19109826Y17878789D01*
X19164866Y17991375D01*
X19175500Y18064364D01*
X19175500Y18484611D01*
X19180345Y18515204D01*
X19180486Y18515638D01*
X19190548Y18546605D01*
X19190551Y18546621D01*
X19205500Y18641005D01*
X19205500Y19065181D01*
X19205499Y19065198D01*
X19200743Y19118894D01*
X19194624Y19153160D01*
X19185916Y19189153D01*
X19133793Y19288591D01*
X19095914Y19336639D01*
X19025729Y19401517D01*
X18988183Y19426605D01*
X18973181Y19438916D01*
X18938912Y19473185D01*
X18926601Y19488187D01*
X18899685Y19528469D01*
X18890536Y19545584D01*
X18882879Y19564068D01*
X18871987Y19590363D01*
X18866355Y19608933D01*
X18856902Y19656459D01*
X18855000Y19675772D01*
X18855000Y19724231D01*
X18856902Y19743544D01*
X18866355Y19791070D01*
X18871990Y19809644D01*
X18890537Y19854418D01*
X18899681Y19871528D01*
X18926604Y19911820D01*
X18938907Y19926813D01*
X18973183Y19961089D01*
X18988174Y19973391D01*
X19025730Y19998484D01*
X19067738Y20032274D01*
X19092829Y20056398D01*
X19117919Y20083635D01*
X19171641Y20182218D01*
X19190548Y20240409D01*
X19198893Y20293098D01*
X19205500Y20334809D01*
X19205500Y21232452D01*
X19207968Y21240050D01*
X19206719Y21247938D01*
X19217242Y21268592D01*
X19224407Y21290643D01*
X19234491Y21302450D01*
X19310675Y21378635D01*
X19362202Y21405891D01*
X19366864Y21406776D01*
X19421897Y21422704D01*
X19457059Y21436572D01*
X19481574Y21442767D01*
X19494303Y21444296D01*
X19506095Y21445000D01*
X20493899Y21445000D01*
X20505700Y21444294D01*
G37*
%TD.AperFunction*%
%TA.AperFunction,Conductor*%
G36*
X35526608Y32694655D02*
G01*
X35542288Y32694654D01*
X35554971Y32685439D01*
X35569886Y32680593D01*
X35579104Y32667906D01*
X35591788Y32658690D01*
X35596632Y32643780D01*
X35605850Y32631093D01*
X35605850Y32615412D01*
X35610695Y32600500D01*
X35605850Y32585590D01*
X35605850Y32569907D01*
X35596631Y32557220D01*
X35591787Y32542309D01*
X35579103Y32533094D01*
X35569886Y32520407D01*
X35542287Y32506345D01*
X35362400Y32447898D01*
X35165980Y32347817D01*
X35151103Y32337008D01*
X34987635Y32218242D01*
X34831758Y32062365D01*
X34793039Y32009072D01*
X34702183Y31884020D01*
X34602102Y31687600D01*
X34533984Y31477949D01*
X34499500Y31260226D01*
X34499500Y29739775D01*
X34533984Y29522052D01*
X34602102Y29312401D01*
X34602104Y29312398D01*
X34602105Y29312394D01*
X34636883Y29244139D01*
X34702182Y29115982D01*
X34702185Y29115978D01*
X34831758Y28937635D01*
X34987635Y28781758D01*
X35165978Y28652185D01*
X35362394Y28552105D01*
X35572049Y28483985D01*
X35659140Y28470191D01*
X35789775Y28449500D01*
X35789778Y28449500D01*
X36010225Y28449500D01*
X36119086Y28466743D01*
X36227951Y28483985D01*
X36437606Y28552105D01*
X36634022Y28652185D01*
X36812365Y28781758D01*
X36968242Y28937635D01*
X37097815Y29115978D01*
X37137410Y29193688D01*
X37180673Y29236951D01*
X37241105Y29246523D01*
X37295622Y29218746D01*
X37330345Y29184023D01*
X37502402Y29069059D01*
X37693580Y28989870D01*
X37896535Y28949500D01*
X37896536Y28949500D01*
X38103464Y28949500D01*
X38103465Y28949500D01*
X38306420Y28989870D01*
X38497598Y29069059D01*
X38669655Y29184023D01*
X38815977Y29330345D01*
X38917684Y29482563D01*
X38965734Y29520442D01*
X39026872Y29522844D01*
X39077746Y29488852D01*
X39082310Y29482570D01*
X39184023Y29330345D01*
X39330345Y29184023D01*
X39502402Y29069059D01*
X39693580Y28989870D01*
X39896535Y28949500D01*
X39896536Y28949500D01*
X40103464Y28949500D01*
X40103465Y28949500D01*
X40306420Y28989870D01*
X40497598Y29069059D01*
X40669655Y29184023D01*
X40780498Y29294867D01*
X40835013Y29322643D01*
X40895445Y29313072D01*
X40938709Y29269807D01*
X40949500Y29224866D01*
X40949500Y29205143D01*
X40949501Y29205136D01*
X40952414Y29180010D01*
X40955264Y29173556D01*
X40997794Y29077235D01*
X41077235Y28997794D01*
X41180009Y28952415D01*
X41205135Y28949500D01*
X41205152Y28949501D01*
X41206204Y28949439D01*
X41206435Y28949349D01*
X41207977Y28949170D01*
X41207930Y28948766D01*
X41263209Y28927210D01*
X41296261Y28875720D01*
X41299500Y28850603D01*
X41299500Y24131165D01*
X41280593Y24072974D01*
X41270504Y24061161D01*
X40280883Y23071540D01*
X40204223Y22956809D01*
X40151422Y22829335D01*
X40151419Y22829325D01*
X40145686Y22800500D01*
X40124500Y22693996D01*
X40124500Y20830071D01*
X40105593Y20771880D01*
X40061820Y20737974D01*
X40052659Y20734362D01*
X40052656Y20734360D01*
X39932081Y20642925D01*
X39932075Y20642919D01*
X39840640Y20522344D01*
X39785124Y20381565D01*
X39774500Y20293102D01*
X39774500Y17106904D01*
X39774501Y17106898D01*
X39782162Y17043102D01*
X39785124Y17018436D01*
X39840639Y16877658D01*
X39932078Y16757078D01*
X39932081Y16757076D01*
X39932082Y16757075D01*
X40052656Y16665640D01*
X40052657Y16665640D01*
X40052658Y16665639D01*
X40060039Y16662729D01*
X40061815Y16662028D01*
X40109014Y16623093D01*
X40124500Y16569929D01*
X40124500Y15943504D01*
X40151420Y15808173D01*
X40151420Y15808171D01*
X40181252Y15736149D01*
X40186052Y15675152D01*
X40154083Y15622983D01*
X40097554Y15599569D01*
X40057090Y15604820D01*
X39934703Y15647645D01*
X39934694Y15647647D01*
X39904274Y15650500D01*
X39904266Y15650500D01*
X38770734Y15650500D01*
X38770725Y15650500D01*
X38740305Y15647647D01*
X38740296Y15647645D01*
X38612116Y15602793D01*
X38502855Y15522155D01*
X38502845Y15522145D01*
X38422207Y15412884D01*
X38377355Y15284704D01*
X38377353Y15284695D01*
X38374500Y15254275D01*
X38374500Y14845726D01*
X38377353Y14815306D01*
X38377355Y14815297D01*
X38422206Y14687119D01*
X38461566Y14633788D01*
X38480907Y14575740D01*
X38462435Y14517409D01*
X38461566Y14516212D01*
X38422206Y14462882D01*
X38377355Y14334704D01*
X38377353Y14334695D01*
X38374500Y14304275D01*
X38374500Y13895726D01*
X38377353Y13865306D01*
X38377355Y13865297D01*
X38422206Y13737119D01*
X38461566Y13683788D01*
X38480907Y13625740D01*
X38462435Y13567409D01*
X38461566Y13566212D01*
X38422206Y13512882D01*
X38377355Y13384704D01*
X38377353Y13384695D01*
X38374500Y13354275D01*
X38374500Y12945726D01*
X38377353Y12915306D01*
X38377355Y12915297D01*
X38422207Y12787117D01*
X38502845Y12677856D01*
X38502847Y12677854D01*
X38502850Y12677850D01*
X38502853Y12677848D01*
X38502855Y12677846D01*
X38612116Y12597208D01*
X38612117Y12597208D01*
X38612118Y12597207D01*
X38740301Y12552354D01*
X38770725Y12549501D01*
X38770727Y12549500D01*
X38770734Y12549500D01*
X39904273Y12549500D01*
X39904273Y12549501D01*
X39934699Y12552354D01*
X40062882Y12597207D01*
X40172150Y12677850D01*
X40252793Y12787118D01*
X40297646Y12915301D01*
X40300499Y12945727D01*
X40300500Y12945727D01*
X40300500Y13354273D01*
X40300499Y13354275D01*
X40299337Y13366664D01*
X40297646Y13384699D01*
X40286063Y13417802D01*
X40284690Y13478972D01*
X40319534Y13529267D01*
X40377285Y13549475D01*
X40379507Y13549500D01*
X40734974Y13549500D01*
X40734975Y13549500D01*
X40874985Y13587016D01*
X40879702Y13589740D01*
X40879710Y13589742D01*
X40879710Y13589743D01*
X40955497Y13633499D01*
X41000515Y13659490D01*
X41561528Y14220505D01*
X41616045Y14248281D01*
X41631532Y14249500D01*
X42218100Y14249500D01*
X42218102Y14249500D01*
X42306564Y14260123D01*
X42447342Y14315639D01*
X42567922Y14407078D01*
X42659361Y14527658D01*
X42714877Y14668436D01*
X42725500Y14756898D01*
X42725500Y15518102D01*
X42714877Y15606564D01*
X42674628Y15708629D01*
X42659362Y15747340D01*
X42659361Y15747341D01*
X42659361Y15747342D01*
X42567922Y15867922D01*
X42447342Y15959361D01*
X42447341Y15959362D01*
X42447339Y15959363D01*
X42306565Y16014877D01*
X42218106Y16025500D01*
X42218102Y16025500D01*
X41843665Y16025500D01*
X41785474Y16044407D01*
X41773661Y16054496D01*
X41554496Y16273661D01*
X41526719Y16328178D01*
X41525500Y16343665D01*
X41525500Y16569929D01*
X41544407Y16628120D01*
X41588185Y16662028D01*
X41588894Y16662308D01*
X41597342Y16665639D01*
X41597343Y16665640D01*
X41597344Y16665640D01*
X41661595Y16714364D01*
X41717922Y16757078D01*
X41809361Y16877658D01*
X41864876Y17018436D01*
X41875500Y17106901D01*
X41875499Y18479621D01*
X42999500Y18479621D01*
X42999500Y17920380D01*
X43009883Y17833921D01*
X43064138Y17696342D01*
X43155478Y17575891D01*
X43175573Y17518100D01*
X43158910Y17461071D01*
X43123537Y17408133D01*
X43123534Y17408126D01*
X43074500Y17289748D01*
X43074499Y17289745D01*
X43074499Y17289744D01*
X43069127Y17262738D01*
X43055351Y17193481D01*
X43049500Y17164069D01*
X43049500Y17035931D01*
X43069791Y16933923D01*
X43074499Y16910258D01*
X43074500Y16910253D01*
X43123536Y16791870D01*
X43125827Y16787584D01*
X43124814Y16787043D01*
X43139998Y16733200D01*
X43119959Y16677271D01*
X43064137Y16603658D01*
X43009883Y16466080D01*
X42999500Y16379621D01*
X42999500Y15820380D01*
X43009883Y15733921D01*
X43050636Y15630580D01*
X43064138Y15596342D01*
X43153500Y15478500D01*
X43271342Y15389138D01*
X43376989Y15347476D01*
X43387515Y15343325D01*
X43408923Y15334883D01*
X43495382Y15324500D01*
X43495384Y15324500D01*
X44079616Y15324500D01*
X44079618Y15324500D01*
X44166077Y15334883D01*
X44303658Y15389138D01*
X44421500Y15478500D01*
X44510862Y15596342D01*
X44565117Y15733923D01*
X44575500Y15820382D01*
X44575500Y16379618D01*
X44565117Y16466077D01*
X44563092Y16471211D01*
X44542078Y16524500D01*
X44510862Y16603658D01*
X44421500Y16721500D01*
X44349836Y16775845D01*
X44314895Y16826069D01*
X44316148Y16887242D01*
X44318179Y16892582D01*
X44325501Y16910256D01*
X44350500Y17035931D01*
X44350500Y17164069D01*
X44325501Y17289744D01*
X44286671Y17383486D01*
X44281871Y17444482D01*
X44313841Y17496651D01*
X44318300Y17500242D01*
X44421500Y17578500D01*
X44510862Y17696342D01*
X44565117Y17833923D01*
X44575500Y17920382D01*
X44575500Y18479618D01*
X44565117Y18566077D01*
X44510862Y18703658D01*
X44421500Y18821500D01*
X44303658Y18910862D01*
X44166079Y18965117D01*
X44079620Y18975500D01*
X44079618Y18975500D01*
X43495382Y18975500D01*
X43495379Y18975500D01*
X43408920Y18965117D01*
X43271341Y18910862D01*
X43153503Y18821503D01*
X43153497Y18821497D01*
X43064138Y18703659D01*
X43009883Y18566080D01*
X42999500Y18479621D01*
X41875499Y18479621D01*
X41875499Y18703658D01*
X41875499Y20293097D01*
X41875499Y20293099D01*
X41864876Y20381564D01*
X41809361Y20522342D01*
X41717922Y20642922D01*
X41597342Y20734361D01*
X41597340Y20734362D01*
X41588180Y20737974D01*
X41540983Y20776912D01*
X41525500Y20830071D01*
X41525500Y22293835D01*
X41544407Y22352026D01*
X41554496Y22363839D01*
X42356614Y23165957D01*
X42449348Y23258691D01*
X42544114Y23353457D01*
X42620775Y23468189D01*
X42673580Y23595672D01*
X42700500Y23731006D01*
X42700500Y23868994D01*
X42700500Y26013000D01*
X42719407Y26071191D01*
X42768907Y26107155D01*
X42799500Y26112000D01*
X44928092Y26112000D01*
X44986283Y26093093D01*
X45006975Y26072820D01*
X45078500Y25978500D01*
X45196342Y25889138D01*
X45333923Y25834883D01*
X45420382Y25824500D01*
X45420384Y25824500D01*
X45790179Y25824500D01*
X45812226Y25817337D01*
X45835124Y25813710D01*
X45840772Y25808062D01*
X45848370Y25805593D01*
X45861997Y25786837D01*
X45878389Y25770445D01*
X45879638Y25762556D01*
X45884334Y25756093D01*
X45884334Y25732908D01*
X45887960Y25710013D01*
X45884334Y25702897D01*
X45884334Y25694907D01*
X45860185Y25655500D01*
X45809180Y25604495D01*
X45754666Y25576719D01*
X45739179Y25575500D01*
X45420379Y25575500D01*
X45333920Y25565117D01*
X45196341Y25510862D01*
X45078503Y25421503D01*
X45078497Y25421497D01*
X44989138Y25303659D01*
X44934883Y25166080D01*
X44924500Y25079621D01*
X44924500Y24495380D01*
X44934883Y24408921D01*
X44973553Y24310862D01*
X44989138Y24271342D01*
X45078500Y24153500D01*
X45135526Y24110256D01*
X45160319Y24091455D01*
X45195262Y24041228D01*
X45199500Y24012571D01*
X45199500Y23287430D01*
X45180593Y23229239D01*
X45160320Y23208547D01*
X45078504Y23146504D01*
X45078497Y23146497D01*
X44989138Y23028659D01*
X44987964Y23025681D01*
X44986393Y23023778D01*
X44985821Y23022759D01*
X44985638Y23022862D01*
X44949028Y22978484D01*
X44895867Y22963000D01*
X44504133Y22963000D01*
X44445942Y22981907D01*
X44414262Y23022807D01*
X44414179Y23022759D01*
X44413860Y23023326D01*
X44412036Y23025681D01*
X44411696Y23026542D01*
X44410862Y23028658D01*
X44321500Y23146500D01*
X44203658Y23235862D01*
X44200498Y23237108D01*
X44066079Y23290117D01*
X43979620Y23300500D01*
X43979618Y23300500D01*
X43420382Y23300500D01*
X43420379Y23300500D01*
X43333920Y23290117D01*
X43196341Y23235862D01*
X43078503Y23146503D01*
X43078497Y23146497D01*
X42989138Y23028659D01*
X42934883Y22891080D01*
X42924500Y22804621D01*
X42924500Y22120380D01*
X42934883Y22033921D01*
X42974145Y21934361D01*
X42989138Y21896342D01*
X43078500Y21778500D01*
X43196342Y21689138D01*
X43333923Y21634883D01*
X43420382Y21624500D01*
X43420384Y21624500D01*
X43979616Y21624500D01*
X43979618Y21624500D01*
X44066077Y21634883D01*
X44203658Y21689138D01*
X44321500Y21778500D01*
X44410862Y21896342D01*
X44412036Y21899319D01*
X44413606Y21901223D01*
X44414179Y21902241D01*
X44414361Y21902139D01*
X44450972Y21946516D01*
X44504133Y21962000D01*
X44966008Y21962000D01*
X45024199Y21943093D01*
X45044891Y21922820D01*
X45078500Y21878500D01*
X45196342Y21789138D01*
X45333923Y21734883D01*
X45420382Y21724500D01*
X45420384Y21724500D01*
X45979616Y21724500D01*
X45979618Y21724500D01*
X46066077Y21734883D01*
X46203658Y21789138D01*
X46321500Y21878500D01*
X46410862Y21996342D01*
X46465117Y22133923D01*
X46475500Y22220382D01*
X46475500Y22804618D01*
X46465117Y22891077D01*
X46415079Y23017963D01*
X46411321Y23079031D01*
X46444176Y23130647D01*
X46501095Y23153093D01*
X46526494Y23151377D01*
X46535925Y23149501D01*
X46535928Y23149501D01*
X46535931Y23149500D01*
X46535932Y23149500D01*
X46664068Y23149500D01*
X46664069Y23149500D01*
X46789744Y23174499D01*
X46836232Y23193756D01*
X46897227Y23198556D01*
X46949397Y23166587D01*
X46972812Y23110059D01*
X46968635Y23072839D01*
X46948413Y23007945D01*
X46942000Y22937371D01*
X46942000Y21624130D01*
X46948413Y21553556D01*
X46999021Y21391145D01*
X46999022Y21391143D01*
X47027655Y21343779D01*
X47087028Y21245565D01*
X47207315Y21125278D01*
X47232110Y21110289D01*
X47256620Y21095472D01*
X47296637Y21049187D01*
X47301805Y20988220D01*
X47270151Y20935859D01*
X47256620Y20926028D01*
X47207316Y20896223D01*
X47087027Y20775934D01*
X46999022Y20630358D01*
X46999021Y20630356D01*
X46948413Y20467945D01*
X46942000Y20397371D01*
X46942000Y20253871D01*
X46923093Y20195680D01*
X46892501Y20168135D01*
X46845938Y20141252D01*
X45709182Y19004496D01*
X45654665Y18976719D01*
X45639178Y18975500D01*
X45320379Y18975500D01*
X45233920Y18965117D01*
X45096341Y18910862D01*
X44978503Y18821503D01*
X44978497Y18821497D01*
X44889138Y18703659D01*
X44834883Y18566080D01*
X44824500Y18479621D01*
X44824500Y17920380D01*
X44834883Y17833921D01*
X44886424Y17703224D01*
X44889138Y17696342D01*
X44978500Y17578500D01*
X45096342Y17489138D01*
X45233923Y17434883D01*
X45320382Y17424500D01*
X45320384Y17424500D01*
X45904616Y17424500D01*
X45904618Y17424500D01*
X45989243Y17434663D01*
X46049272Y17422829D01*
X46090882Y17377970D01*
X46098178Y17317222D01*
X46071051Y17266365D01*
X45709182Y16904496D01*
X45654665Y16876719D01*
X45639178Y16875500D01*
X45320379Y16875500D01*
X45233920Y16865117D01*
X45096341Y16810862D01*
X44978503Y16721503D01*
X44978497Y16721497D01*
X44889138Y16603659D01*
X44834883Y16466080D01*
X44824500Y16379621D01*
X44824500Y15820380D01*
X44834883Y15733921D01*
X44875636Y15630580D01*
X44889138Y15596342D01*
X44978500Y15478500D01*
X45096342Y15389138D01*
X45201989Y15347476D01*
X45212515Y15343325D01*
X45233923Y15334883D01*
X45320382Y15324500D01*
X45320384Y15324500D01*
X45904616Y15324500D01*
X45904618Y15324500D01*
X45991077Y15334883D01*
X46128658Y15389138D01*
X46246500Y15478500D01*
X46335862Y15596342D01*
X46390117Y15733923D01*
X46400500Y15820382D01*
X46400500Y16139178D01*
X46419407Y16197369D01*
X46429496Y16209181D01*
X46777741Y16557427D01*
X46832258Y16585205D01*
X46892690Y16575634D01*
X46935955Y16532369D01*
X46946339Y16496385D01*
X46948413Y16473556D01*
X46999021Y16311145D01*
X46999022Y16311143D01*
X47039064Y16244907D01*
X47087028Y16165565D01*
X47207315Y16045278D01*
X47240032Y16025500D01*
X47256620Y16015472D01*
X47296637Y15969187D01*
X47301805Y15908220D01*
X47270151Y15855859D01*
X47256620Y15846028D01*
X47207316Y15816223D01*
X47087027Y15695934D01*
X46999022Y15550358D01*
X46999021Y15550356D01*
X46948413Y15387945D01*
X46942000Y15317371D01*
X46942000Y14004130D01*
X46948413Y13933556D01*
X46999021Y13771145D01*
X46999022Y13771143D01*
X47040342Y13702793D01*
X47087028Y13625565D01*
X47207315Y13505278D01*
X47306472Y13445335D01*
X47340639Y13424680D01*
X47352894Y13417272D01*
X47515304Y13366664D01*
X47585884Y13360250D01*
X48000500Y13360250D01*
X48015412Y13355405D01*
X48031093Y13355405D01*
X48043778Y13346189D01*
X48058691Y13341343D01*
X48067907Y13328658D01*
X48080593Y13319441D01*
X48085438Y13304529D01*
X48094655Y13291843D01*
X48099500Y13261250D01*
X48099500Y13248322D01*
X48080593Y13190131D01*
X48070504Y13178318D01*
X45721682Y10829496D01*
X45667165Y10801719D01*
X45651678Y10800500D01*
X45451847Y10800500D01*
X45396846Y10817185D01*
X45363722Y10839318D01*
X45308133Y10876462D01*
X45308125Y10876466D01*
X45189747Y10925500D01*
X45189745Y10925501D01*
X45189744Y10925501D01*
X45064069Y10950500D01*
X44935931Y10950500D01*
X44935930Y10950500D01*
X44911971Y10945734D01*
X44810256Y10925501D01*
X44810255Y10925501D01*
X44810252Y10925500D01*
X44691874Y10876466D01*
X44691866Y10876462D01*
X44585331Y10805276D01*
X44585327Y10805273D01*
X44494727Y10714673D01*
X44494724Y10714669D01*
X44423538Y10608134D01*
X44423534Y10608126D01*
X44374500Y10489748D01*
X44374499Y10489745D01*
X44374499Y10489744D01*
X44372679Y10480593D01*
X44350480Y10368994D01*
X44349500Y10364069D01*
X44349500Y10235931D01*
X44374084Y10112340D01*
X44374499Y10110258D01*
X44374500Y10110253D01*
X44423534Y9991875D01*
X44423538Y9991867D01*
X44437813Y9970504D01*
X44494724Y9885331D01*
X44585331Y9794724D01*
X44645867Y9754275D01*
X44691866Y9723539D01*
X44691870Y9723537D01*
X44691873Y9723535D01*
X44810256Y9674499D01*
X44935931Y9649500D01*
X44935932Y9649500D01*
X45064068Y9649500D01*
X45064069Y9649500D01*
X45189744Y9674499D01*
X45308127Y9723535D01*
X45396846Y9782816D01*
X45451847Y9799500D01*
X45965890Y9799500D01*
X45965892Y9799500D01*
X46093186Y9833608D01*
X46093188Y9833610D01*
X46093190Y9833610D01*
X46207309Y9899497D01*
X46207309Y9899498D01*
X46207314Y9899500D01*
X49000500Y12692686D01*
X49018868Y12724500D01*
X49066390Y12806810D01*
X49066390Y12806812D01*
X49066392Y12806814D01*
X49100500Y12934108D01*
X49100500Y13065893D01*
X49100500Y13261250D01*
X49119407Y13319441D01*
X49168907Y13355405D01*
X49199500Y13360250D01*
X49649111Y13360250D01*
X49649116Y13360250D01*
X49719696Y13366664D01*
X49882106Y13417272D01*
X50027685Y13505278D01*
X50147972Y13625565D01*
X50235978Y13771144D01*
X50286586Y13933554D01*
X50293000Y14004134D01*
X50293000Y15317366D01*
X50286586Y15387946D01*
X50235978Y15550356D01*
X50220194Y15576465D01*
X50208178Y15596342D01*
X50147972Y15695935D01*
X50027685Y15816222D01*
X50027682Y15816224D01*
X50027681Y15816225D01*
X49978380Y15846028D01*
X49938363Y15892312D01*
X49933193Y15953279D01*
X49964847Y16005640D01*
X49978380Y16015472D01*
X49994968Y16025500D01*
X50027685Y16045278D01*
X50147972Y16165565D01*
X50235978Y16311144D01*
X50286586Y16473554D01*
X50293000Y16544134D01*
X50293000Y16601250D01*
X50297845Y16616162D01*
X50297845Y16631843D01*
X50307061Y16644529D01*
X50311907Y16659441D01*
X50324592Y16668658D01*
X50333809Y16681343D01*
X50348721Y16686189D01*
X50361407Y16695405D01*
X50392000Y16700250D01*
X50450928Y16700250D01*
X50509119Y16681343D01*
X50520932Y16671254D01*
X50870504Y16321682D01*
X50898281Y16267165D01*
X50899500Y16251678D01*
X50899500Y13548322D01*
X50880593Y13490131D01*
X50870504Y13478318D01*
X43821682Y6429496D01*
X43767165Y6401719D01*
X43751678Y6400500D01*
X40695893Y6400500D01*
X40564108Y6400500D01*
X40486200Y6379625D01*
X40436809Y6366391D01*
X40322690Y6300504D01*
X40322689Y6300503D01*
X39151708Y5129523D01*
X39097191Y5101746D01*
X39051112Y5105372D01*
X38999406Y5122172D01*
X38820549Y5150500D01*
X38820546Y5150500D01*
X38639454Y5150500D01*
X38639451Y5150500D01*
X38460593Y5122172D01*
X38288362Y5066212D01*
X38127008Y4983998D01*
X38098930Y4963598D01*
X37980499Y4877553D01*
X37852447Y4749501D01*
X37799225Y4676248D01*
X37746002Y4602992D01*
X37663788Y4441638D01*
X37607828Y4269407D01*
X37579500Y4090550D01*
X37579500Y3909451D01*
X37607828Y3730594D01*
X37607829Y3730591D01*
X37663789Y3558361D01*
X37746004Y3397006D01*
X37852447Y3250499D01*
X37980499Y3122447D01*
X38127006Y3016004D01*
X38288361Y2933789D01*
X38460591Y2877829D01*
X38532136Y2866498D01*
X38639451Y2849500D01*
X38639454Y2849500D01*
X38820549Y2849500D01*
X38909977Y2863665D01*
X38999409Y2877829D01*
X39171639Y2933789D01*
X39332994Y3016004D01*
X39479501Y3122447D01*
X39607553Y3250499D01*
X39713996Y3397006D01*
X39796211Y3558361D01*
X39852171Y3730591D01*
X39866335Y3820023D01*
X39880500Y3909451D01*
X39880500Y4090550D01*
X39852172Y4269405D01*
X39836627Y4317246D01*
X39835371Y4321114D01*
X39835371Y4382298D01*
X39859523Y4421710D01*
X40808319Y5370504D01*
X40862835Y5398281D01*
X40878322Y5399500D01*
X44052677Y5399500D01*
X44110868Y5380593D01*
X44146832Y5331093D01*
X44146832Y5269907D01*
X44122680Y5230496D01*
X44058918Y5166735D01*
X44004401Y5138958D01*
X43973429Y5138958D01*
X43900550Y5150500D01*
X43900546Y5150500D01*
X43719454Y5150500D01*
X43719451Y5150500D01*
X43540593Y5122172D01*
X43368362Y5066212D01*
X43207008Y4983998D01*
X43178930Y4963598D01*
X43060499Y4877553D01*
X42932447Y4749501D01*
X42879225Y4676248D01*
X42826002Y4602992D01*
X42743788Y4441638D01*
X42687828Y4269407D01*
X42659500Y4090550D01*
X42659500Y3909451D01*
X42687828Y3730594D01*
X42687829Y3730591D01*
X42743789Y3558361D01*
X42826004Y3397006D01*
X42932447Y3250499D01*
X43060499Y3122447D01*
X43207006Y3016004D01*
X43368361Y2933789D01*
X43540591Y2877829D01*
X43612136Y2866498D01*
X43719451Y2849500D01*
X43719454Y2849500D01*
X43900549Y2849500D01*
X43989977Y2863665D01*
X44079409Y2877829D01*
X44251639Y2933789D01*
X44412994Y3016004D01*
X44559501Y3122447D01*
X44687553Y3250499D01*
X44793996Y3397006D01*
X44876211Y3558361D01*
X44932171Y3730591D01*
X44946335Y3820023D01*
X44960500Y3909451D01*
X44960500Y4090550D01*
X45199500Y4090550D01*
X45199500Y3909451D01*
X45227828Y3730594D01*
X45227829Y3730591D01*
X45283789Y3558361D01*
X45366004Y3397006D01*
X45472447Y3250499D01*
X45600499Y3122447D01*
X45747006Y3016004D01*
X45908361Y2933789D01*
X46080591Y2877829D01*
X46152136Y2866498D01*
X46259451Y2849500D01*
X46259454Y2849500D01*
X46440549Y2849500D01*
X46529977Y2863665D01*
X46619409Y2877829D01*
X46791639Y2933789D01*
X46952994Y3016004D01*
X47077264Y3106291D01*
X75649500Y3106291D01*
X75649500Y2893710D01*
X75682752Y2683762D01*
X75748443Y2481588D01*
X75844948Y2292185D01*
X75844950Y2292181D01*
X75969891Y2120214D01*
X75969893Y2120212D01*
X75969896Y2120208D01*
X76120208Y1969896D01*
X76120211Y1969894D01*
X76120213Y1969892D01*
X76292180Y1844951D01*
X76292184Y1844949D01*
X76481588Y1748443D01*
X76683757Y1682754D01*
X76683758Y1682754D01*
X76683761Y1682753D01*
X76893710Y1649500D01*
X76893713Y1649500D01*
X77106290Y1649500D01*
X77316238Y1682753D01*
X77316239Y1682754D01*
X77316243Y1682754D01*
X77518412Y1748443D01*
X77707816Y1844949D01*
X77879792Y1969896D01*
X78030104Y2120208D01*
X78155051Y2292184D01*
X78251557Y2481588D01*
X78317246Y2683757D01*
X78317247Y2683762D01*
X78350500Y2893710D01*
X78350500Y3106291D01*
X78317247Y3316239D01*
X78291003Y3397009D01*
X78251557Y3518412D01*
X78155051Y3707816D01*
X78155049Y3707820D01*
X78030108Y3879787D01*
X78030106Y3879789D01*
X78030104Y3879792D01*
X77879792Y4030104D01*
X77879788Y4030107D01*
X77879786Y4030109D01*
X77707819Y4155050D01*
X77707815Y4155052D01*
X77518412Y4251557D01*
X77316238Y4317248D01*
X77106290Y4350500D01*
X77106287Y4350500D01*
X76893713Y4350500D01*
X76893710Y4350500D01*
X76683761Y4317248D01*
X76481587Y4251557D01*
X76292184Y4155052D01*
X76292180Y4155050D01*
X76120213Y4030109D01*
X75969891Y3879787D01*
X75844950Y3707820D01*
X75844948Y3707816D01*
X75748443Y3518413D01*
X75682752Y3316239D01*
X75649500Y3106291D01*
X47077264Y3106291D01*
X47099501Y3122447D01*
X47227553Y3250499D01*
X47333996Y3397006D01*
X47416211Y3558361D01*
X47472171Y3730591D01*
X47486335Y3820023D01*
X47500500Y3909451D01*
X47500500Y4090550D01*
X47474998Y4251557D01*
X47472171Y4269409D01*
X47416211Y4441639D01*
X47333996Y4602994D01*
X47227553Y4749501D01*
X47099501Y4877553D01*
X46952994Y4983996D01*
X46952993Y4983997D01*
X46952991Y4983998D01*
X46791637Y5066212D01*
X46619406Y5122172D01*
X46440549Y5150500D01*
X46440546Y5150500D01*
X46259454Y5150500D01*
X46259451Y5150500D01*
X46080593Y5122172D01*
X45908362Y5066212D01*
X45747008Y4983998D01*
X45718930Y4963598D01*
X45600499Y4877553D01*
X45472447Y4749501D01*
X45419225Y4676248D01*
X45366002Y4602992D01*
X45283788Y4441638D01*
X45227828Y4269407D01*
X45199500Y4090550D01*
X44960500Y4090550D01*
X44934998Y4251557D01*
X44932171Y4269409D01*
X44876211Y4441639D01*
X44866079Y4461523D01*
X44856506Y4521951D01*
X44884282Y4576469D01*
X44884281Y4576469D01*
X52723564Y12415750D01*
X54132500Y12415750D01*
X54132501Y12415750D01*
X59847499Y12415750D01*
X59847500Y12415750D01*
X59847500Y14955750D01*
X54132500Y14955750D01*
X54132500Y12415750D01*
X52723564Y12415750D01*
X52800500Y12492686D01*
X52830192Y12544114D01*
X52866392Y12606814D01*
X52900500Y12734108D01*
X52900500Y17965892D01*
X52866392Y18093186D01*
X52866390Y18093189D01*
X52866390Y18093191D01*
X52800503Y18207310D01*
X52800499Y18207315D01*
X52707314Y18300501D01*
X52707314Y18300500D01*
X50972064Y20035750D01*
X57561500Y20035750D01*
X57561501Y20035750D01*
X60609499Y20035750D01*
X60609500Y20035750D01*
X60609500Y23083750D01*
X57561500Y23083750D01*
X57561500Y20035750D01*
X50972064Y20035750D01*
X50866564Y20141250D01*
X50866561Y20141252D01*
X50866560Y20141253D01*
X50866559Y20141254D01*
X50752439Y20207141D01*
X50752441Y20207141D01*
X50701366Y20220826D01*
X50625142Y20241250D01*
X50625140Y20241250D01*
X50392000Y20241250D01*
X50333809Y20260157D01*
X50297845Y20309657D01*
X50293000Y20340250D01*
X50293000Y20397362D01*
X50293000Y20397366D01*
X50286586Y20467946D01*
X50235978Y20630356D01*
X50228383Y20642919D01*
X50170920Y20737974D01*
X50147972Y20775935D01*
X50027685Y20896222D01*
X50027682Y20896224D01*
X50027681Y20896225D01*
X49978380Y20926028D01*
X49938363Y20972312D01*
X49933193Y21033279D01*
X49964847Y21085640D01*
X49978380Y21095472D01*
X50002897Y21110293D01*
X50027685Y21125278D01*
X50147972Y21245565D01*
X50235978Y21391144D01*
X50286586Y21553554D01*
X50293000Y21624134D01*
X50293000Y22512250D01*
X50767000Y22512250D01*
X50767001Y22512250D01*
X53687999Y22512250D01*
X53688000Y22512250D01*
X53688000Y24544250D01*
X50767000Y24544250D01*
X50767000Y22512250D01*
X50293000Y22512250D01*
X50293000Y22937366D01*
X50286586Y23007946D01*
X50235978Y23170356D01*
X50233473Y23174499D01*
X50165204Y23287430D01*
X50147972Y23315935D01*
X50027685Y23436222D01*
X50027682Y23436224D01*
X50027681Y23436225D01*
X49978380Y23466028D01*
X49938363Y23512312D01*
X49933193Y23573279D01*
X49964847Y23625640D01*
X49978380Y23635472D01*
X50001585Y23649500D01*
X50027685Y23665278D01*
X50147972Y23785565D01*
X50235978Y23931144D01*
X50286586Y24093554D01*
X50293000Y24164134D01*
X50293000Y25115750D01*
X54132500Y25115750D01*
X54132501Y25115750D01*
X59339499Y25115750D01*
X59339500Y25115750D01*
X59339500Y25477371D01*
X63107000Y25477371D01*
X63107000Y24164130D01*
X63113413Y24093556D01*
X63164021Y23931145D01*
X63164022Y23931143D01*
X63224461Y23831166D01*
X63252028Y23785565D01*
X63372315Y23665278D01*
X63421620Y23635472D01*
X63461637Y23589187D01*
X63466805Y23528220D01*
X63435151Y23475859D01*
X63421620Y23466028D01*
X63372316Y23436223D01*
X63252027Y23315934D01*
X63164022Y23170358D01*
X63164021Y23170356D01*
X63113413Y23007945D01*
X63107000Y22937371D01*
X63107000Y21624130D01*
X63113413Y21553556D01*
X63164021Y21391145D01*
X63164022Y21391143D01*
X63192655Y21343779D01*
X63252028Y21245565D01*
X63372315Y21125278D01*
X63397110Y21110289D01*
X63421620Y21095472D01*
X63461637Y21049187D01*
X63466805Y20988220D01*
X63435151Y20935859D01*
X63421620Y20926028D01*
X63372316Y20896223D01*
X63252027Y20775934D01*
X63164022Y20630358D01*
X63164021Y20630356D01*
X63113413Y20467945D01*
X63107000Y20397371D01*
X63107000Y19084130D01*
X63113413Y19013556D01*
X63164021Y18851145D01*
X63164022Y18851143D01*
X63190860Y18806748D01*
X63252028Y18705565D01*
X63372315Y18585278D01*
X63419441Y18556789D01*
X63421620Y18555472D01*
X63461637Y18509187D01*
X63466805Y18448220D01*
X63435151Y18395859D01*
X63421620Y18386028D01*
X63372316Y18356223D01*
X63252027Y18235934D01*
X63164022Y18090358D01*
X63164021Y18090356D01*
X63113413Y17927945D01*
X63107000Y17857371D01*
X63107000Y16544130D01*
X63113413Y16473556D01*
X63164021Y16311145D01*
X63164022Y16311143D01*
X63204064Y16244907D01*
X63252028Y16165565D01*
X63372315Y16045278D01*
X63405032Y16025500D01*
X63421620Y16015472D01*
X63461637Y15969187D01*
X63466805Y15908220D01*
X63435151Y15855859D01*
X63421620Y15846028D01*
X63372316Y15816223D01*
X63252027Y15695934D01*
X63164022Y15550358D01*
X63164021Y15550356D01*
X63113413Y15387945D01*
X63107000Y15317371D01*
X63107000Y14004130D01*
X63113413Y13933556D01*
X63164021Y13771145D01*
X63164022Y13771143D01*
X63205342Y13702793D01*
X63252028Y13625565D01*
X63372315Y13505278D01*
X63471472Y13445335D01*
X63505639Y13424680D01*
X63517894Y13417272D01*
X63680304Y13366664D01*
X63750884Y13360250D01*
X63750889Y13360250D01*
X65814111Y13360250D01*
X65814116Y13360250D01*
X65884696Y13366664D01*
X66047106Y13417272D01*
X66192685Y13505278D01*
X66312972Y13625565D01*
X66400978Y13771144D01*
X66451586Y13933554D01*
X66458000Y14004134D01*
X66458000Y15226112D01*
X66476907Y15284303D01*
X66526407Y15320267D01*
X66587593Y15320267D01*
X66637093Y15284303D01*
X66648464Y15263997D01*
X66666772Y15219796D01*
X66666774Y15219792D01*
X66666776Y15219788D01*
X66785936Y15013397D01*
X66788066Y15009708D01*
X66935729Y14817269D01*
X66935731Y14817267D01*
X66935735Y14817262D01*
X67107262Y14645735D01*
X67107266Y14645732D01*
X67107268Y14645730D01*
X67272548Y14518907D01*
X67299711Y14498064D01*
X67509788Y14376776D01*
X67733900Y14283946D01*
X67968211Y14221162D01*
X68208712Y14189500D01*
X68208713Y14189500D01*
X68451287Y14189500D01*
X68451288Y14189500D01*
X68691789Y14221162D01*
X68926100Y14283946D01*
X69150212Y14376776D01*
X69360289Y14498064D01*
X69552738Y14645735D01*
X69724265Y14817262D01*
X69871936Y15009711D01*
X69993224Y15219788D01*
X70086054Y15443900D01*
X70148838Y15678211D01*
X70180500Y15918712D01*
X70180500Y16161288D01*
X70148838Y16401789D01*
X70086054Y16636100D01*
X69993224Y16860212D01*
X69871936Y17070289D01*
X69843841Y17106903D01*
X69724270Y17262732D01*
X69724268Y17262734D01*
X69724265Y17262738D01*
X69552738Y17434265D01*
X69552733Y17434269D01*
X69552731Y17434271D01*
X69360292Y17581934D01*
X69355053Y17584959D01*
X69150212Y17703224D01*
X69150208Y17703226D01*
X69150204Y17703228D01*
X68926105Y17796052D01*
X68926104Y17796053D01*
X68926100Y17796054D01*
X68691789Y17858838D01*
X68691786Y17858839D01*
X68691784Y17858839D01*
X68451289Y17890500D01*
X68451288Y17890500D01*
X68208712Y17890500D01*
X68208710Y17890500D01*
X67968218Y17858839D01*
X67968213Y17858839D01*
X67733907Y17796056D01*
X67733894Y17796052D01*
X67509795Y17703228D01*
X67299707Y17581934D01*
X67107268Y17434271D01*
X66935729Y17262732D01*
X66788066Y17070293D01*
X66666772Y16860205D01*
X66648464Y16816004D01*
X66608728Y16769478D01*
X66549233Y16755194D01*
X66492705Y16778609D01*
X66460735Y16830778D01*
X66458000Y16853889D01*
X66458000Y17857362D01*
X66458000Y17857366D01*
X66451586Y17927946D01*
X66400978Y18090356D01*
X66312972Y18235935D01*
X66192685Y18356222D01*
X66192682Y18356224D01*
X66192681Y18356225D01*
X66143380Y18386028D01*
X66103363Y18432312D01*
X66098193Y18493279D01*
X66129847Y18545640D01*
X66143380Y18555472D01*
X66145564Y18556792D01*
X66192685Y18585278D01*
X66312972Y18705565D01*
X66400978Y18851144D01*
X66451586Y19013554D01*
X66458000Y19084134D01*
X66458000Y20397366D01*
X66451586Y20467946D01*
X66400978Y20630356D01*
X66393383Y20642919D01*
X66335920Y20737974D01*
X66312972Y20775935D01*
X66192685Y20896222D01*
X66192682Y20896224D01*
X66192681Y20896225D01*
X66143380Y20926028D01*
X66103363Y20972312D01*
X66098193Y21033279D01*
X66129847Y21085640D01*
X66143380Y21095472D01*
X66167897Y21110293D01*
X66192685Y21125278D01*
X66312972Y21245565D01*
X66400978Y21391144D01*
X66451586Y21553554D01*
X66458000Y21624134D01*
X66458000Y22937366D01*
X66451586Y23007946D01*
X66400978Y23170356D01*
X66398473Y23174499D01*
X66330204Y23287430D01*
X66312972Y23315935D01*
X66192685Y23436222D01*
X66192682Y23436224D01*
X66192681Y23436225D01*
X66143380Y23466028D01*
X66103363Y23512312D01*
X66098193Y23573279D01*
X66129847Y23625640D01*
X66143380Y23635472D01*
X66166585Y23649500D01*
X66192685Y23665278D01*
X66312972Y23785565D01*
X66400978Y23931144D01*
X66451586Y24093554D01*
X66458000Y24164134D01*
X66458000Y24238000D01*
X66476907Y24296191D01*
X66526407Y24332155D01*
X66557000Y24337000D01*
X67095867Y24337000D01*
X67121194Y24328771D01*
X67147120Y24322700D01*
X67149856Y24319458D01*
X67154058Y24318093D01*
X67187117Y24276398D01*
X67187549Y24275371D01*
X67189138Y24271342D01*
X67189377Y24271027D01*
X67191750Y24265388D01*
X67192845Y24252403D01*
X67199500Y24226990D01*
X67199500Y20669097D01*
X67226420Y20533766D01*
X67226420Y20533764D01*
X67279223Y20406285D01*
X67354851Y20293098D01*
X67355886Y20291550D01*
X71970505Y15676931D01*
X71998281Y15622416D01*
X71999500Y15606929D01*
X71999500Y14549500D01*
X71980593Y14491309D01*
X71931093Y14455345D01*
X71900500Y14450500D01*
X71255029Y14450500D01*
X71120750Y14435370D01*
X71120738Y14435367D01*
X70950477Y14375789D01*
X70950476Y14375789D01*
X70797741Y14279819D01*
X70670181Y14152259D01*
X70574211Y13999524D01*
X70574211Y13999523D01*
X70514633Y13829262D01*
X70514630Y13829250D01*
X70499500Y13694971D01*
X70499500Y12605030D01*
X70514630Y12470751D01*
X70514633Y12470739D01*
X70574211Y12300478D01*
X70574211Y12300477D01*
X70670181Y12147742D01*
X70670184Y12147738D01*
X70797738Y12020184D01*
X70797740Y12020183D01*
X70797741Y12020182D01*
X70943400Y11928658D01*
X70950478Y11924211D01*
X71018657Y11900354D01*
X71120738Y11864634D01*
X71120742Y11864633D01*
X71120745Y11864632D01*
X71120746Y11864632D01*
X71120750Y11864631D01*
X71255029Y11849501D01*
X71255045Y11849501D01*
X71255046Y11849500D01*
X71900500Y11849500D01*
X71958691Y11830593D01*
X71994655Y11781093D01*
X71999500Y11750500D01*
X71999500Y11099500D01*
X71980593Y11041309D01*
X71931093Y11005345D01*
X71900500Y11000500D01*
X69793664Y11000500D01*
X69735473Y11019407D01*
X69723660Y11029496D01*
X69480051Y11273105D01*
X69209043Y11544114D01*
X69205472Y11546500D01*
X69094308Y11620777D01*
X68966828Y11673580D01*
X68831496Y11700500D01*
X68831494Y11700500D01*
X68831493Y11700500D01*
X68120344Y11700500D01*
X68082459Y11708036D01*
X67933497Y11769737D01*
X67778844Y11800500D01*
X67778842Y11800500D01*
X67621158Y11800500D01*
X67621155Y11800500D01*
X67466503Y11769737D01*
X67466501Y11769737D01*
X67320825Y11709397D01*
X67320814Y11709391D01*
X67189711Y11621789D01*
X67189707Y11621786D01*
X67078214Y11510293D01*
X67078211Y11510289D01*
X66990609Y11379186D01*
X66990603Y11379175D01*
X66930263Y11233499D01*
X66930263Y11233497D01*
X66899500Y11078845D01*
X66899500Y10921156D01*
X66911091Y10862884D01*
X66923699Y10799500D01*
X66930263Y10766504D01*
X66930263Y10766502D01*
X66990603Y10620826D01*
X66990609Y10620815D01*
X67022687Y10572808D01*
X67078211Y10489711D01*
X67189711Y10378211D01*
X67244318Y10341724D01*
X67320814Y10290610D01*
X67320825Y10290604D01*
X67374638Y10268315D01*
X67466503Y10230263D01*
X67621158Y10199500D01*
X67621159Y10199500D01*
X67778841Y10199500D01*
X67778842Y10199500D01*
X67933497Y10230263D01*
X68007179Y10260783D01*
X68082459Y10291964D01*
X68120344Y10299500D01*
X68232336Y10299500D01*
X68290527Y10280593D01*
X68326491Y10231093D01*
X68326491Y10169907D01*
X68302340Y10130497D01*
X67956547Y9784704D01*
X67626339Y9454496D01*
X67571822Y9426719D01*
X67556335Y9425500D01*
X67181893Y9425500D01*
X67093434Y9414877D01*
X66952660Y9359363D01*
X66952656Y9359360D01*
X66832081Y9267925D01*
X66832075Y9267919D01*
X66740640Y9147344D01*
X66740637Y9147340D01*
X66685123Y9006566D01*
X66674500Y8918107D01*
X66674500Y8156894D01*
X66685123Y8068435D01*
X66740637Y7927661D01*
X66740638Y7927659D01*
X66740639Y7927658D01*
X66832078Y7807078D01*
X66952658Y7715639D01*
X66952659Y7715639D01*
X66952660Y7715638D01*
X67023047Y7687881D01*
X67093436Y7660123D01*
X67181898Y7649500D01*
X67181900Y7649500D01*
X68218100Y7649500D01*
X68218102Y7649500D01*
X68306564Y7660123D01*
X68447342Y7715639D01*
X68567922Y7807078D01*
X68659361Y7927658D01*
X68714877Y8068436D01*
X68725500Y8156898D01*
X68725500Y8531336D01*
X68744407Y8589527D01*
X68754496Y8601340D01*
X69723660Y9570504D01*
X69778177Y9598281D01*
X69793664Y9599500D01*
X71900500Y9599500D01*
X71958691Y9580593D01*
X71994655Y9531093D01*
X71999500Y9500500D01*
X71999500Y8123402D01*
X71980593Y8065211D01*
X71951717Y8038680D01*
X71905348Y8010649D01*
X71789349Y7894650D01*
X71704490Y7754276D01*
X71704485Y7754264D01*
X71655686Y7597663D01*
X71655684Y7597657D01*
X71649500Y7529600D01*
X71649500Y6170401D01*
X71655684Y6102344D01*
X71655686Y6102338D01*
X71704485Y5945737D01*
X71704490Y5945725D01*
X71789349Y5805351D01*
X71789350Y5805350D01*
X71789352Y5805347D01*
X71905347Y5689352D01*
X71905349Y5689351D01*
X71905350Y5689350D01*
X72045724Y5604491D01*
X72045727Y5604490D01*
X72045730Y5604488D01*
X72202343Y5555685D01*
X72270406Y5549500D01*
X72270412Y5549500D01*
X73129588Y5549500D01*
X73129594Y5549500D01*
X73197657Y5555685D01*
X73354270Y5604488D01*
X73494653Y5689352D01*
X73610648Y5805347D01*
X73695512Y5945730D01*
X73744315Y6102343D01*
X73750500Y6170406D01*
X73750500Y7529594D01*
X73750499Y7529600D01*
X73949500Y7529600D01*
X73949500Y6170401D01*
X73955684Y6102344D01*
X73955686Y6102338D01*
X74004485Y5945737D01*
X74004490Y5945725D01*
X74089349Y5805351D01*
X74089350Y5805350D01*
X74089352Y5805347D01*
X74205347Y5689352D01*
X74205349Y5689351D01*
X74205350Y5689350D01*
X74345724Y5604491D01*
X74345727Y5604490D01*
X74345730Y5604488D01*
X74502343Y5555685D01*
X74570406Y5549500D01*
X74570412Y5549500D01*
X75429588Y5549500D01*
X75429594Y5549500D01*
X75497657Y5555685D01*
X75654270Y5604488D01*
X75794653Y5689352D01*
X75910648Y5805347D01*
X75995512Y5945730D01*
X76044315Y6102343D01*
X76050500Y6170406D01*
X76050500Y6868837D01*
X76069407Y6927028D01*
X76079490Y6938835D01*
X76837892Y7697238D01*
X76892407Y7725013D01*
X76945743Y7716566D01*
X76946358Y7718123D01*
X77093433Y7660124D01*
X77093436Y7660123D01*
X77181898Y7649500D01*
X77181900Y7649500D01*
X78218100Y7649500D01*
X78218102Y7649500D01*
X78306564Y7660123D01*
X78447342Y7715639D01*
X78567922Y7807078D01*
X78659361Y7927658D01*
X78714877Y8068436D01*
X78725500Y8156898D01*
X78725500Y8918102D01*
X78714877Y9006564D01*
X78659361Y9147342D01*
X78567922Y9267922D01*
X78447342Y9359361D01*
X78447341Y9359362D01*
X78441947Y9363452D01*
X78443469Y9365460D01*
X78409511Y9402344D01*
X78400500Y9443611D01*
X78400500Y10579657D01*
X78408036Y10617542D01*
X78443958Y10704266D01*
X78469737Y10766503D01*
X78500500Y10921158D01*
X78500500Y11078842D01*
X78469737Y11233497D01*
X78449247Y11282964D01*
X78409396Y11379175D01*
X78409390Y11379186D01*
X78349917Y11468192D01*
X78321789Y11510289D01*
X78210289Y11621789D01*
X78158059Y11656688D01*
X78079185Y11709391D01*
X78079174Y11709397D01*
X77933497Y11769737D01*
X77778844Y11800500D01*
X77778842Y11800500D01*
X77621158Y11800500D01*
X77621155Y11800500D01*
X77466503Y11769737D01*
X77466501Y11769737D01*
X77320825Y11709397D01*
X77320814Y11709391D01*
X77189711Y11621789D01*
X77189707Y11621786D01*
X77078214Y11510293D01*
X77078211Y11510289D01*
X76990609Y11379186D01*
X76990603Y11379175D01*
X76930263Y11233499D01*
X76930263Y11233497D01*
X76899500Y11078845D01*
X76899500Y10921156D01*
X76911091Y10862884D01*
X76923699Y10799500D01*
X76930263Y10766504D01*
X76930263Y10766502D01*
X76991964Y10617542D01*
X76999500Y10579657D01*
X76999500Y9443611D01*
X76995024Y9429837D01*
X76995383Y9415357D01*
X76986846Y9404667D01*
X76980593Y9385420D01*
X76960655Y9364983D01*
X76953996Y9359889D01*
X76952658Y9359361D01*
X76832078Y9267922D01*
X76829717Y9264810D01*
X76821303Y9258372D01*
X76798332Y9250275D01*
X76776626Y9239217D01*
X76764190Y9238240D01*
X76763597Y9238030D01*
X76763165Y9238159D01*
X76761148Y9238000D01*
X76618504Y9238000D01*
X76510091Y9216436D01*
X76510091Y9216435D01*
X76504737Y9215370D01*
X76483172Y9211081D01*
X76442328Y9194163D01*
X76430366Y9189208D01*
X76425318Y9187117D01*
X76355691Y9158277D01*
X76282992Y9109700D01*
X76282991Y9109699D01*
X76240957Y9081614D01*
X75338838Y8179496D01*
X75284322Y8151719D01*
X75268835Y8150500D01*
X74570400Y8150500D01*
X74502343Y8144316D01*
X74502337Y8144314D01*
X74345736Y8095515D01*
X74345724Y8095510D01*
X74205350Y8010651D01*
X74089349Y7894650D01*
X74004490Y7754276D01*
X74004485Y7754264D01*
X73955686Y7597663D01*
X73955684Y7597657D01*
X73949500Y7529600D01*
X73750499Y7529600D01*
X73744315Y7597657D01*
X73695512Y7754270D01*
X73695510Y7754273D01*
X73695509Y7754276D01*
X73610650Y7894650D01*
X73610649Y7894651D01*
X73610648Y7894653D01*
X73494653Y8010648D01*
X73448283Y8038680D01*
X73408266Y8084965D01*
X73400500Y8123402D01*
X73400500Y11750500D01*
X73419407Y11808691D01*
X73468907Y11844655D01*
X73499500Y11849500D01*
X74144953Y11849500D01*
X74144954Y11849500D01*
X74144955Y11849501D01*
X74144970Y11849501D01*
X74279249Y11864631D01*
X74279251Y11864632D01*
X74279255Y11864632D01*
X74449522Y11924211D01*
X74602262Y12020184D01*
X74729816Y12147738D01*
X74825789Y12300478D01*
X74885368Y12470745D01*
X74885826Y12474808D01*
X74900499Y12605030D01*
X74900500Y12605047D01*
X74900500Y13694954D01*
X74900499Y13694971D01*
X74885369Y13829250D01*
X74885366Y13829262D01*
X74848872Y13933554D01*
X74825789Y13999522D01*
X74816271Y14014669D01*
X74729818Y14152259D01*
X74729817Y14152260D01*
X74729816Y14152262D01*
X74602262Y14279816D01*
X74602259Y14279818D01*
X74602258Y14279819D01*
X74449523Y14375789D01*
X74279261Y14435367D01*
X74279249Y14435370D01*
X74144970Y14450500D01*
X74144954Y14450500D01*
X73499500Y14450500D01*
X73441309Y14469407D01*
X73405345Y14518907D01*
X73400500Y14549500D01*
X73400500Y16007082D01*
X73400499Y16007090D01*
X73395341Y16033018D01*
X73395224Y16033608D01*
X73373580Y16142421D01*
X73360334Y16174399D01*
X74024500Y16174399D01*
X74024500Y15905602D01*
X74059583Y15639117D01*
X74059583Y15639112D01*
X74079185Y15565957D01*
X74119721Y15414673D01*
X74129151Y15379482D01*
X74129155Y15379469D01*
X74232012Y15131149D01*
X74232014Y15131145D01*
X74232016Y15131141D01*
X74366413Y14898359D01*
X74366415Y14898356D01*
X74434019Y14810253D01*
X74530044Y14685110D01*
X74720110Y14495044D01*
X74933359Y14331413D01*
X75166141Y14197016D01*
X75166147Y14197014D01*
X75166148Y14197013D01*
X75178490Y14191901D01*
X75414474Y14094153D01*
X75674109Y14024584D01*
X75940603Y13989500D01*
X75940604Y13989500D01*
X76209396Y13989500D01*
X76209397Y13989500D01*
X76475891Y14024584D01*
X76735526Y14094153D01*
X76983859Y14197016D01*
X77216641Y14331413D01*
X77429890Y14495044D01*
X77619956Y14685110D01*
X77783587Y14898359D01*
X77917984Y15131141D01*
X78020847Y15379474D01*
X78090416Y15639109D01*
X78125500Y15905603D01*
X78125500Y16174397D01*
X78090416Y16440891D01*
X78020847Y16700526D01*
X77923461Y16935636D01*
X77917987Y16948852D01*
X77917986Y16948853D01*
X77917984Y16948859D01*
X77783587Y17181641D01*
X77619956Y17394890D01*
X77429890Y17584956D01*
X77289493Y17692686D01*
X77216644Y17748585D01*
X77216641Y17748587D01*
X76983859Y17882984D01*
X76983855Y17882986D01*
X76983851Y17882988D01*
X76735531Y17985845D01*
X76735530Y17985846D01*
X76735526Y17985847D01*
X76475891Y18055416D01*
X76475888Y18055417D01*
X76475886Y18055417D01*
X76209398Y18090500D01*
X76209397Y18090500D01*
X75940603Y18090500D01*
X75940601Y18090500D01*
X75674116Y18055417D01*
X75674111Y18055417D01*
X75414481Y17985849D01*
X75414468Y17985845D01*
X75166148Y17882988D01*
X74933355Y17748585D01*
X74720113Y17584959D01*
X74530041Y17394887D01*
X74366415Y17181645D01*
X74232012Y16948852D01*
X74129155Y16700532D01*
X74129151Y16700519D01*
X74059583Y16440889D01*
X74059583Y16440884D01*
X74024500Y16174399D01*
X73360334Y16174399D01*
X73320775Y16269904D01*
X73244114Y16384636D01*
X68629496Y20999254D01*
X68601719Y21053771D01*
X68600500Y21069258D01*
X68600500Y23740547D01*
X68619407Y23798738D01*
X68668907Y23834702D01*
X68730093Y23834702D01*
X68769504Y23810551D01*
X68785331Y23794724D01*
X68817881Y23772975D01*
X68891866Y23723539D01*
X68891870Y23723537D01*
X68891873Y23723535D01*
X69010256Y23674499D01*
X69135931Y23649500D01*
X69135932Y23649500D01*
X69264068Y23649500D01*
X69264069Y23649500D01*
X69389744Y23674499D01*
X69508127Y23723535D01*
X69570779Y23765398D01*
X69629664Y23782006D01*
X69687068Y23760829D01*
X69704661Y23742904D01*
X69753500Y23678500D01*
X69871342Y23589138D01*
X70008923Y23534883D01*
X70095382Y23524500D01*
X70095384Y23524500D01*
X70679616Y23524500D01*
X70679618Y23524500D01*
X70766077Y23534883D01*
X70903658Y23589138D01*
X71021500Y23678500D01*
X71110862Y23796342D01*
X71165117Y23933923D01*
X71175500Y24020382D01*
X71175500Y24579618D01*
X71165117Y24666077D01*
X71110862Y24803658D01*
X71021500Y24921500D01*
X70903658Y25010862D01*
X70866539Y25025500D01*
X70766079Y25065117D01*
X70679620Y25075500D01*
X70679618Y25075500D01*
X70095382Y25075500D01*
X70095379Y25075500D01*
X70008920Y25065117D01*
X69871341Y25010862D01*
X69753503Y24921503D01*
X69753495Y24921495D01*
X69704662Y24857099D01*
X69654435Y24822157D01*
X69593263Y24823411D01*
X69570777Y24834604D01*
X69508134Y24876462D01*
X69508125Y24876466D01*
X69389747Y24925500D01*
X69389745Y24925501D01*
X69389744Y24925501D01*
X69264069Y24950500D01*
X69135931Y24950500D01*
X69135930Y24950500D01*
X69073093Y24938001D01*
X69010256Y24925501D01*
X69010255Y24925501D01*
X69010252Y24925500D01*
X68891874Y24876466D01*
X68891868Y24876463D01*
X68829501Y24834790D01*
X68770613Y24818182D01*
X68713210Y24839360D01*
X68679217Y24890233D01*
X68675500Y24917106D01*
X68675500Y25179617D01*
X68675500Y25179618D01*
X68665117Y25266077D01*
X68662646Y25272342D01*
X68650297Y25303659D01*
X68610862Y25403658D01*
X68521500Y25521500D01*
X68403658Y25610862D01*
X68266079Y25665117D01*
X68179620Y25675500D01*
X68179618Y25675500D01*
X67620382Y25675500D01*
X67620379Y25675500D01*
X67533920Y25665117D01*
X67396341Y25610862D01*
X67278503Y25521503D01*
X67278497Y25521497D01*
X67189138Y25403659D01*
X67187964Y25400681D01*
X67186393Y25398778D01*
X67185821Y25397759D01*
X67185638Y25397862D01*
X67149028Y25353484D01*
X67095867Y25338000D01*
X66557000Y25338000D01*
X66498809Y25356907D01*
X66462845Y25406407D01*
X66458000Y25437000D01*
X66458000Y25477362D01*
X66458000Y25477366D01*
X66451586Y25547946D01*
X66400978Y25710356D01*
X66312972Y25855935D01*
X66192685Y25976222D01*
X66155277Y25998836D01*
X66047107Y26064228D01*
X66047105Y26064229D01*
X65884694Y26114837D01*
X65814120Y26121250D01*
X65814116Y26121250D01*
X63750884Y26121250D01*
X63750879Y26121250D01*
X63680305Y26114837D01*
X63517894Y26064229D01*
X63517892Y26064228D01*
X63372316Y25976223D01*
X63252027Y25855934D01*
X63164022Y25710358D01*
X63164021Y25710356D01*
X63113413Y25547945D01*
X63107000Y25477371D01*
X59339500Y25477371D01*
X59339500Y26131750D01*
X60101500Y26131750D01*
X60101501Y26131750D01*
X61879499Y26131750D01*
X61879500Y26131750D01*
X61879500Y28798750D01*
X60101500Y28798750D01*
X60101500Y26131750D01*
X59339500Y26131750D01*
X59339500Y32100750D01*
X54132500Y32100750D01*
X54132500Y25115750D01*
X50293000Y25115750D01*
X50293000Y25477366D01*
X50286586Y25547946D01*
X50235978Y25710356D01*
X50147972Y25855935D01*
X50027685Y25976222D01*
X50027682Y25976224D01*
X50027681Y25976225D01*
X49978380Y26006028D01*
X49938363Y26052312D01*
X49933193Y26113279D01*
X49944359Y26131750D01*
X51465500Y26131750D01*
X51465501Y26131750D01*
X53243499Y26131750D01*
X53243500Y26131750D01*
X53243500Y28798750D01*
X51465500Y28798750D01*
X51465500Y26131750D01*
X49944359Y26131750D01*
X49964847Y26165640D01*
X49978380Y26175472D01*
X50027685Y26205278D01*
X50147972Y26325565D01*
X50235978Y26471144D01*
X50286586Y26633554D01*
X50293000Y26704134D01*
X50293000Y28017366D01*
X50286586Y28087946D01*
X50235978Y28250356D01*
X50147972Y28395935D01*
X50027685Y28516222D01*
X50027682Y28516224D01*
X50027681Y28516225D01*
X49978380Y28546028D01*
X49938363Y28592312D01*
X49933193Y28653279D01*
X49964847Y28705640D01*
X49978380Y28715472D01*
X49984029Y28718887D01*
X50027685Y28745278D01*
X50147972Y28865565D01*
X50235978Y29011144D01*
X50286586Y29173554D01*
X50293000Y29244134D01*
X50293000Y30557366D01*
X50286586Y30627946D01*
X50235978Y30790356D01*
X50147972Y30935935D01*
X50027685Y31056222D01*
X49970023Y31091080D01*
X49882107Y31144228D01*
X49882105Y31144229D01*
X49719694Y31194837D01*
X49649120Y31201250D01*
X49649116Y31201250D01*
X47585884Y31201250D01*
X47585879Y31201250D01*
X47515305Y31194837D01*
X47352894Y31144229D01*
X47352892Y31144228D01*
X47207316Y31056223D01*
X47087027Y30935934D01*
X46999022Y30790358D01*
X46999021Y30790356D01*
X46948413Y30627945D01*
X46942000Y30557371D01*
X46942000Y29244130D01*
X46948413Y29173556D01*
X46999021Y29011145D01*
X46999022Y29011143D01*
X47049762Y28927210D01*
X47087028Y28865565D01*
X47207315Y28745278D01*
X47250971Y28718887D01*
X47256620Y28715472D01*
X47296637Y28669187D01*
X47301805Y28608220D01*
X47270151Y28555859D01*
X47256620Y28546028D01*
X47207316Y28516223D01*
X47087027Y28395934D01*
X46999022Y28250358D01*
X46999021Y28250356D01*
X46948413Y28087945D01*
X46942000Y28017371D01*
X46942000Y26778322D01*
X46923093Y26720131D01*
X46913004Y26708319D01*
X46644502Y26439818D01*
X46589987Y26412041D01*
X46529555Y26421612D01*
X46486290Y26464877D01*
X46475500Y26509822D01*
X46475500Y26904617D01*
X46475500Y26904618D01*
X46465117Y26991077D01*
X46410862Y27128658D01*
X46321500Y27246500D01*
X46203658Y27335862D01*
X46066079Y27390117D01*
X45979620Y27400500D01*
X45979618Y27400500D01*
X45420382Y27400500D01*
X45420379Y27400500D01*
X45333920Y27390117D01*
X45196341Y27335862D01*
X45078503Y27246503D01*
X45078497Y27246497D01*
X45006976Y27152181D01*
X44956749Y27117238D01*
X44928092Y27113000D01*
X42799500Y27113000D01*
X42741309Y27131907D01*
X42705345Y27181407D01*
X42700500Y27212000D01*
X42700500Y28850604D01*
X42719407Y28908795D01*
X42768408Y28944595D01*
X42783239Y28949501D01*
X42794864Y28949501D01*
X42819991Y28952415D01*
X42903460Y28989271D01*
X42907982Y28990766D01*
X42934038Y28990905D01*
X42959955Y28993548D01*
X42964225Y28991065D01*
X42969166Y28991091D01*
X42990324Y28975890D01*
X43012848Y28962793D01*
X43018778Y28955447D01*
X43018857Y28955390D01*
X43018879Y28955321D01*
X43019167Y28954965D01*
X43023137Y28949500D01*
X43031758Y28937635D01*
X43187635Y28781758D01*
X43365978Y28652185D01*
X43562394Y28552105D01*
X43772049Y28483985D01*
X43859140Y28470191D01*
X43989775Y28449500D01*
X43989778Y28449500D01*
X44210225Y28449500D01*
X44319086Y28466743D01*
X44427951Y28483985D01*
X44637606Y28552105D01*
X44834022Y28652185D01*
X45012365Y28781758D01*
X45168242Y28937635D01*
X45297815Y29115978D01*
X45397895Y29312394D01*
X45466015Y29522049D01*
X45500500Y29739778D01*
X45500500Y31260222D01*
X45500500Y31260226D01*
X45471906Y31440756D01*
X45466015Y31477951D01*
X45400047Y31680984D01*
X45397897Y31687600D01*
X45397896Y31687601D01*
X45397895Y31687606D01*
X45297815Y31884022D01*
X45168242Y32062365D01*
X45012365Y32218242D01*
X44834022Y32347815D01*
X44834021Y32347816D01*
X44834019Y32347817D01*
X44744825Y32393264D01*
X44637606Y32447895D01*
X44637602Y32447896D01*
X44637599Y32447898D01*
X44457713Y32506345D01*
X44408213Y32542309D01*
X44389305Y32600500D01*
X44408212Y32658690D01*
X44457712Y32694654D01*
X44488305Y32699500D01*
X51366500Y32699500D01*
X51424691Y32680593D01*
X51460655Y32631093D01*
X51465500Y32600500D01*
X51465500Y30195750D01*
X51465501Y30195750D01*
X53243499Y30195750D01*
X53243500Y30195750D01*
X53243500Y32600500D01*
X53262407Y32658691D01*
X53311907Y32694655D01*
X53342500Y32699500D01*
X60002500Y32699500D01*
X60060691Y32680593D01*
X60096655Y32631093D01*
X60101500Y32600500D01*
X60101500Y30195750D01*
X60101501Y30195750D01*
X61879499Y30195750D01*
X61879500Y30195750D01*
X61879500Y30557371D01*
X63107000Y30557371D01*
X63107000Y29244130D01*
X63113413Y29173556D01*
X63164021Y29011145D01*
X63164022Y29011143D01*
X63214762Y28927210D01*
X63252028Y28865565D01*
X63372315Y28745278D01*
X63517894Y28657272D01*
X63680304Y28606664D01*
X63750884Y28600250D01*
X63750889Y28600250D01*
X65814111Y28600250D01*
X65814116Y28600250D01*
X65884696Y28606664D01*
X66047106Y28657272D01*
X66192685Y28745278D01*
X66312972Y28865565D01*
X66400978Y29011144D01*
X66419025Y29069059D01*
X66426948Y29094485D01*
X71339500Y29094485D01*
X71339500Y28905516D01*
X71369058Y28718887D01*
X71427453Y28539168D01*
X71500433Y28395935D01*
X71513240Y28370801D01*
X71624310Y28217927D01*
X71757927Y28084310D01*
X71910801Y27973240D01*
X71945444Y27955589D01*
X71988709Y27912326D01*
X71999500Y27867379D01*
X71999500Y25172825D01*
X71980593Y25114634D01*
X71931093Y25078670D01*
X71912306Y25074531D01*
X71833920Y25065117D01*
X71696341Y25010862D01*
X71578503Y24921503D01*
X71578497Y24921497D01*
X71489138Y24803659D01*
X71434883Y24666080D01*
X71424500Y24579621D01*
X71424500Y24020380D01*
X71434883Y23933921D01*
X71474011Y23834702D01*
X71489138Y23796342D01*
X71578500Y23678500D01*
X71696342Y23589138D01*
X71833923Y23534883D01*
X71920382Y23524500D01*
X71920384Y23524500D01*
X72504616Y23524500D01*
X72504618Y23524500D01*
X72591077Y23534883D01*
X72728658Y23589138D01*
X72846500Y23678500D01*
X72935862Y23796342D01*
X72990117Y23933923D01*
X73000500Y24020382D01*
X73000500Y24579618D01*
X73000500Y24653392D01*
X73000500Y27772899D01*
X73003987Y27798944D01*
X73005901Y27805967D01*
X73006392Y27806815D01*
X73020999Y27861331D01*
X73037697Y27886796D01*
X73054208Y27912222D01*
X73054489Y27912405D01*
X73054550Y27912497D01*
X73054745Y27912572D01*
X73071568Y27923495D01*
X73169193Y27973237D01*
X73169195Y27973238D01*
X73169194Y27973238D01*
X73169199Y27973240D01*
X73322073Y28084310D01*
X73455690Y28217927D01*
X73566760Y28370801D01*
X73652547Y28539168D01*
X73710940Y28718882D01*
X73710941Y28718887D01*
X73740500Y28905516D01*
X73740500Y29094485D01*
X73710941Y29281114D01*
X73707344Y29292185D01*
X73652547Y29460832D01*
X73566760Y29629199D01*
X73455690Y29782073D01*
X73322073Y29915690D01*
X73226735Y29984957D01*
X73169198Y30026761D01*
X73169195Y30026762D01*
X73034667Y30095307D01*
X73013110Y30106291D01*
X75649500Y30106291D01*
X75649500Y29893710D01*
X75682752Y29683762D01*
X75748443Y29481588D01*
X75844948Y29292185D01*
X75844950Y29292181D01*
X75969891Y29120214D01*
X75969893Y29120212D01*
X75969896Y29120208D01*
X76120208Y28969896D01*
X76120211Y28969894D01*
X76120213Y28969892D01*
X76292180Y28844951D01*
X76292184Y28844949D01*
X76481588Y28748443D01*
X76683757Y28682754D01*
X76683758Y28682754D01*
X76683761Y28682753D01*
X76893710Y28649500D01*
X76893713Y28649500D01*
X77106290Y28649500D01*
X77316238Y28682753D01*
X77316239Y28682754D01*
X77316243Y28682754D01*
X77518412Y28748443D01*
X77707816Y28844949D01*
X77715600Y28850604D01*
X77844968Y28944595D01*
X77879792Y28969896D01*
X78030104Y29120208D01*
X78155051Y29292184D01*
X78251557Y29481588D01*
X78317246Y29683757D01*
X78317247Y29683762D01*
X78350500Y29893710D01*
X78350500Y30106291D01*
X78317247Y30316239D01*
X78317246Y30316243D01*
X78251557Y30518412D01*
X78155051Y30707816D01*
X78155049Y30707820D01*
X78030108Y30879787D01*
X78030106Y30879789D01*
X78030104Y30879792D01*
X77879792Y31030104D01*
X77879788Y31030107D01*
X77879786Y31030109D01*
X77707819Y31155050D01*
X77707815Y31155052D01*
X77518412Y31251557D01*
X77316238Y31317248D01*
X77106290Y31350500D01*
X77106287Y31350500D01*
X76893713Y31350500D01*
X76893710Y31350500D01*
X76683761Y31317248D01*
X76481587Y31251557D01*
X76292184Y31155052D01*
X76292180Y31155050D01*
X76120213Y31030109D01*
X75969891Y30879787D01*
X75844950Y30707820D01*
X75844948Y30707816D01*
X75748443Y30518413D01*
X75682752Y30316239D01*
X75649500Y30106291D01*
X73013110Y30106291D01*
X73000832Y30112547D01*
X72982406Y30118534D01*
X72821113Y30170942D01*
X72634484Y30200500D01*
X72634481Y30200500D01*
X72445519Y30200500D01*
X72445516Y30200500D01*
X72258886Y30170942D01*
X72079167Y30112547D01*
X71910803Y30026762D01*
X71757928Y29915691D01*
X71624309Y29782072D01*
X71513238Y29629197D01*
X71427453Y29460833D01*
X71369058Y29281114D01*
X71339500Y29094485D01*
X66426948Y29094485D01*
X66437336Y29127820D01*
X66437336Y29127823D01*
X66438840Y29132652D01*
X66451586Y29173554D01*
X66458000Y29244134D01*
X66458000Y30001152D01*
X66476907Y30059343D01*
X66526407Y30095307D01*
X66587593Y30095307D01*
X66594880Y30092618D01*
X66610256Y30086249D01*
X66735931Y30061250D01*
X66735932Y30061250D01*
X66864068Y30061250D01*
X66864069Y30061250D01*
X66989744Y30086249D01*
X67108127Y30135285D01*
X67108126Y30135285D01*
X67112620Y30137146D01*
X67113247Y30135632D01*
X67166747Y30145211D01*
X67221810Y30118534D01*
X67234900Y30101628D01*
X67235046Y30101738D01*
X67239138Y30096342D01*
X67328500Y29978500D01*
X67446342Y29889138D01*
X67583923Y29834883D01*
X67670382Y29824500D01*
X67670384Y29824500D01*
X68229616Y29824500D01*
X68229618Y29824500D01*
X68316077Y29834883D01*
X68453658Y29889138D01*
X68571500Y29978500D01*
X68660862Y30096342D01*
X68715117Y30233923D01*
X68725500Y30320382D01*
X68725500Y31004618D01*
X68715117Y31091077D01*
X68660862Y31228658D01*
X68571500Y31346500D01*
X68453658Y31435862D01*
X68441248Y31440756D01*
X68316079Y31490117D01*
X68229620Y31500500D01*
X68229618Y31500500D01*
X67670382Y31500500D01*
X67670379Y31500500D01*
X67583920Y31490117D01*
X67446341Y31435862D01*
X67328503Y31346503D01*
X67328497Y31346497D01*
X67294324Y31301431D01*
X67282266Y31293043D01*
X67273631Y31281157D01*
X67257778Y31276007D01*
X67244098Y31266489D01*
X67215440Y31262250D01*
X67177017Y31262250D01*
X67122015Y31278935D01*
X67108126Y31288216D01*
X66989747Y31337250D01*
X66989745Y31337251D01*
X66989744Y31337251D01*
X66864069Y31362250D01*
X66735931Y31362250D01*
X66735930Y31362250D01*
X66676861Y31350500D01*
X66610256Y31337251D01*
X66610255Y31337251D01*
X66610252Y31337250D01*
X66491873Y31288216D01*
X66477985Y31278935D01*
X66422983Y31262250D01*
X65489275Y31262250D01*
X65449369Y31251557D01*
X65349263Y31224734D01*
X65331561Y31214513D01*
X65282062Y31201250D01*
X63750879Y31201250D01*
X63680305Y31194837D01*
X63517894Y31144229D01*
X63517892Y31144228D01*
X63372316Y31056223D01*
X63252027Y30935934D01*
X63164022Y30790358D01*
X63164021Y30790356D01*
X63113413Y30627945D01*
X63107000Y30557371D01*
X61879500Y30557371D01*
X61879500Y32600500D01*
X61898407Y32658691D01*
X61947907Y32694655D01*
X61978500Y32699500D01*
X76952405Y32699500D01*
X76997227Y32699500D01*
X77002777Y32699345D01*
X77296701Y32682838D01*
X77307724Y32681596D01*
X77595224Y32632748D01*
X77606018Y32630285D01*
X77886251Y32549551D01*
X77896722Y32545887D01*
X78133286Y32447898D01*
X78166134Y32434292D01*
X78176136Y32429475D01*
X78431354Y32288422D01*
X78440755Y32282515D01*
X78678575Y32113772D01*
X78687254Y32106851D01*
X78753572Y32047586D01*
X78904697Y31912533D01*
X78912532Y31904698D01*
X78988231Y31819991D01*
X79106850Y31687255D01*
X79113771Y31678576D01*
X79282514Y31440756D01*
X79288421Y31431355D01*
X79429474Y31176137D01*
X79434291Y31166135D01*
X79545884Y30896727D01*
X79549551Y30886248D01*
X79630280Y30606034D01*
X79632750Y30595210D01*
X79681594Y30307730D01*
X79682837Y30296698D01*
X79699344Y30002778D01*
X79699500Y29997227D01*
X79699500Y3002774D01*
X79699344Y2997223D01*
X79682837Y2703303D01*
X79681594Y2692271D01*
X79632750Y2404791D01*
X79630280Y2393967D01*
X79549551Y2113753D01*
X79545884Y2103274D01*
X79434291Y1833866D01*
X79429474Y1823864D01*
X79288421Y1568646D01*
X79282514Y1559245D01*
X79113771Y1321425D01*
X79106850Y1312746D01*
X78912540Y1095311D01*
X78904689Y1087460D01*
X78687254Y893150D01*
X78678575Y886229D01*
X78440755Y717486D01*
X78431354Y711579D01*
X78176136Y570526D01*
X78166134Y565709D01*
X77896726Y454116D01*
X77886247Y450449D01*
X77606033Y369720D01*
X77595209Y367250D01*
X77307729Y318406D01*
X77296697Y317163D01*
X77002778Y300656D01*
X76997227Y300500D01*
X3002773Y300500D01*
X2997222Y300656D01*
X2703302Y317163D01*
X2692270Y318406D01*
X2404790Y367250D01*
X2393966Y369720D01*
X2113752Y450449D01*
X2103273Y454116D01*
X1833865Y565709D01*
X1823863Y570526D01*
X1568645Y711579D01*
X1559244Y717486D01*
X1321424Y886229D01*
X1312745Y893150D01*
X1211695Y983453D01*
X1095302Y1087468D01*
X1087467Y1095303D01*
X969745Y1227034D01*
X893149Y1312746D01*
X886228Y1321425D01*
X717485Y1559245D01*
X711578Y1568646D01*
X570525Y1823864D01*
X565708Y1833866D01*
X454115Y2103274D01*
X450448Y2113753D01*
X369715Y2393982D01*
X367252Y2404776D01*
X318404Y2692276D01*
X317162Y2703303D01*
X300656Y2997223D01*
X300500Y3002774D01*
X300500Y3106291D01*
X1649500Y3106291D01*
X1649500Y2893710D01*
X1682752Y2683762D01*
X1748443Y2481588D01*
X1844948Y2292185D01*
X1844950Y2292181D01*
X1969891Y2120214D01*
X1969893Y2120212D01*
X1969896Y2120208D01*
X2120208Y1969896D01*
X2120211Y1969894D01*
X2120213Y1969892D01*
X2292180Y1844951D01*
X2292184Y1844949D01*
X2481588Y1748443D01*
X2683757Y1682754D01*
X2683758Y1682754D01*
X2683761Y1682753D01*
X2893710Y1649500D01*
X2893713Y1649500D01*
X3106290Y1649500D01*
X3316238Y1682753D01*
X3316239Y1682754D01*
X3316243Y1682754D01*
X3518412Y1748443D01*
X3707816Y1844949D01*
X3879792Y1969896D01*
X4030104Y2120208D01*
X4155051Y2292184D01*
X4251557Y2481588D01*
X4317246Y2683757D01*
X4317247Y2683762D01*
X4350500Y2893710D01*
X4350500Y3106291D01*
X4317247Y3316239D01*
X4291003Y3397009D01*
X4251557Y3518412D01*
X4155051Y3707816D01*
X4155049Y3707820D01*
X4030108Y3879787D01*
X4030106Y3879789D01*
X4030104Y3879792D01*
X3879792Y4030104D01*
X3879788Y4030107D01*
X3879786Y4030109D01*
X3707819Y4155050D01*
X3707815Y4155052D01*
X3518412Y4251557D01*
X3316238Y4317248D01*
X3106290Y4350500D01*
X3106287Y4350500D01*
X2893713Y4350500D01*
X2893710Y4350500D01*
X2683761Y4317248D01*
X2481587Y4251557D01*
X2292184Y4155052D01*
X2292180Y4155050D01*
X2120213Y4030109D01*
X1969891Y3879787D01*
X1844950Y3707820D01*
X1844948Y3707816D01*
X1748443Y3518413D01*
X1682752Y3316239D01*
X1649500Y3106291D01*
X300500Y3106291D01*
X300500Y11654275D01*
X1099500Y11654275D01*
X1099500Y11245726D01*
X1102353Y11215306D01*
X1102355Y11215297D01*
X1147206Y11087119D01*
X1186566Y11033788D01*
X1205907Y10975740D01*
X1187435Y10917409D01*
X1186566Y10916212D01*
X1147206Y10862882D01*
X1102355Y10734704D01*
X1102353Y10734695D01*
X1099500Y10704275D01*
X1099500Y10295726D01*
X1102353Y10265306D01*
X1102355Y10265297D01*
X1147206Y10137119D01*
X1186566Y10083788D01*
X1205907Y10025740D01*
X1187435Y9967409D01*
X1186566Y9966212D01*
X1147206Y9912882D01*
X1102355Y9784704D01*
X1102353Y9784695D01*
X1099500Y9754275D01*
X1099500Y9345726D01*
X1102353Y9315306D01*
X1102355Y9315297D01*
X1147207Y9187117D01*
X1227845Y9077856D01*
X1227847Y9077854D01*
X1227850Y9077850D01*
X1227853Y9077848D01*
X1227855Y9077846D01*
X1337116Y8997208D01*
X1337117Y8997208D01*
X1337118Y8997207D01*
X1465301Y8952354D01*
X1495725Y8949501D01*
X1495727Y8949500D01*
X1495734Y8949500D01*
X1914178Y8949500D01*
X1972369Y8930593D01*
X1984182Y8920504D01*
X2356868Y8547819D01*
X2711998Y8192689D01*
X2712000Y8192686D01*
X2805186Y8099500D01*
X2884933Y8053458D01*
X2919314Y8033608D01*
X3046607Y7999500D01*
X3046608Y7999500D01*
X3046609Y7999500D01*
X6078390Y7999500D01*
X6078392Y7999500D01*
X6205686Y8033608D01*
X6205688Y8033610D01*
X6205690Y8033610D01*
X6319809Y8099497D01*
X6319809Y8099498D01*
X6319814Y8099500D01*
X7140817Y8920505D01*
X7195334Y8948281D01*
X7210821Y8949500D01*
X7600500Y8949500D01*
X7658691Y8930593D01*
X7694655Y8881093D01*
X7699500Y8850500D01*
X7699500Y8478392D01*
X7699500Y8346608D01*
X7713487Y8294407D01*
X7733609Y8219310D01*
X7799496Y8105191D01*
X7799498Y8105189D01*
X7799500Y8105186D01*
X8295505Y7609181D01*
X8323281Y7554666D01*
X8324500Y7539179D01*
X8324500Y7220380D01*
X8334883Y7133921D01*
X8355395Y7081907D01*
X8389138Y6996342D01*
X8478500Y6878500D01*
X8596342Y6789138D01*
X8733923Y6734883D01*
X8820382Y6724500D01*
X8820384Y6724500D01*
X9404616Y6724500D01*
X9404618Y6724500D01*
X9491077Y6734883D01*
X9628658Y6789138D01*
X9746500Y6878500D01*
X9835862Y6996342D01*
X9890117Y7133923D01*
X9898566Y7204275D01*
X25549500Y7204275D01*
X25549500Y5920726D01*
X25552353Y5890306D01*
X25552355Y5890297D01*
X25597207Y5762117D01*
X25677845Y5652856D01*
X25677847Y5652854D01*
X25677850Y5652850D01*
X25677853Y5652848D01*
X25677855Y5652846D01*
X25787116Y5572208D01*
X25787117Y5572208D01*
X25787118Y5572207D01*
X25915301Y5527354D01*
X25945725Y5524501D01*
X25945727Y5524500D01*
X25945734Y5524500D01*
X26354273Y5524500D01*
X26354273Y5524501D01*
X26384699Y5527354D01*
X26512882Y5572207D01*
X26622150Y5652850D01*
X26702793Y5762118D01*
X26747646Y5890301D01*
X26750499Y5920727D01*
X26750500Y5920727D01*
X26750500Y5963000D01*
X26769407Y6021191D01*
X26818907Y6057155D01*
X26849500Y6062000D01*
X30514178Y6062000D01*
X30572369Y6043093D01*
X30584182Y6033004D01*
X32470504Y4146683D01*
X32498281Y4092166D01*
X32499500Y4076679D01*
X32499500Y3105140D01*
X32499501Y3105137D01*
X32502414Y3080010D01*
X32516727Y3047595D01*
X32547794Y2977235D01*
X32627235Y2897794D01*
X32730009Y2852415D01*
X32755135Y2849500D01*
X34544864Y2849501D01*
X34569991Y2852415D01*
X34672765Y2897794D01*
X34752206Y2977235D01*
X34797585Y3080009D01*
X34800500Y3105135D01*
X34800499Y4894864D01*
X34797585Y4919991D01*
X34752206Y5022765D01*
X34672765Y5102206D01*
X34569991Y5147585D01*
X34569990Y5147586D01*
X34569988Y5147586D01*
X34544869Y5150500D01*
X34544865Y5150500D01*
X32923322Y5150500D01*
X32865131Y5169407D01*
X32853318Y5179496D01*
X31970814Y6062000D01*
X31069814Y6963000D01*
X31069811Y6963002D01*
X31069810Y6963003D01*
X31069809Y6963004D01*
X30955689Y7028891D01*
X30955691Y7028891D01*
X30906299Y7042125D01*
X30828392Y7063000D01*
X30828390Y7063000D01*
X26849500Y7063000D01*
X26791309Y7081907D01*
X26755345Y7131407D01*
X26751732Y7146430D01*
X26750500Y7154167D01*
X26750500Y7204266D01*
X26747646Y7234699D01*
X26729346Y7286995D01*
X26727953Y7295748D01*
X26731400Y7317637D01*
X26730903Y7339789D01*
X26736062Y7347238D01*
X26737473Y7356189D01*
X26753130Y7371873D01*
X26765747Y7390084D01*
X26774298Y7393077D01*
X26780701Y7399490D01*
X26802584Y7402975D01*
X26823498Y7410293D01*
X26836053Y7408305D01*
X26841125Y7409112D01*
X26845726Y7406773D01*
X26858418Y7404763D01*
X26865301Y7402354D01*
X26895725Y7399501D01*
X26895727Y7399500D01*
X26895734Y7399500D01*
X27304273Y7399500D01*
X27304273Y7399501D01*
X27334699Y7402354D01*
X27462882Y7447207D01*
X27572150Y7527850D01*
X27652793Y7637118D01*
X27697646Y7765301D01*
X27700499Y7795727D01*
X27700500Y7795727D01*
X27700500Y8289178D01*
X27719407Y8347369D01*
X27729496Y8359182D01*
X27928318Y8558004D01*
X27982835Y8585781D01*
X27998322Y8587000D01*
X28428092Y8587000D01*
X28486283Y8568093D01*
X28506975Y8547820D01*
X28578500Y8453500D01*
X28696342Y8364138D01*
X28833923Y8309883D01*
X28920382Y8299500D01*
X28920384Y8299500D01*
X29479616Y8299500D01*
X29479618Y8299500D01*
X29566077Y8309883D01*
X29703658Y8364138D01*
X29821500Y8453500D01*
X29910862Y8571342D01*
X29965117Y8708923D01*
X29975500Y8795382D01*
X29975500Y9379618D01*
X29965117Y9466077D01*
X29938661Y9533163D01*
X29934903Y9594232D01*
X29967758Y9645848D01*
X30024677Y9668294D01*
X30050070Y9666580D01*
X30135931Y9649500D01*
X30135932Y9649500D01*
X30264068Y9649500D01*
X30264069Y9649500D01*
X30389744Y9674499D01*
X30508127Y9723535D01*
X30614669Y9794724D01*
X30705276Y9885331D01*
X30776465Y9991873D01*
X30825501Y10110256D01*
X30850500Y10235931D01*
X30850500Y10364069D01*
X30825501Y10489744D01*
X30808005Y10531981D01*
X30803205Y10592977D01*
X30835174Y10645146D01*
X30891702Y10668561D01*
X30951197Y10654278D01*
X30969469Y10639874D01*
X31190957Y10418386D01*
X31305689Y10341725D01*
X31433172Y10288920D01*
X31568506Y10262000D01*
X31568507Y10262000D01*
X31761148Y10262000D01*
X31819339Y10243093D01*
X31831145Y10233010D01*
X31832074Y10232081D01*
X31832078Y10232078D01*
X31952658Y10140639D01*
X31952659Y10140639D01*
X31952660Y10140638D01*
X31990469Y10125728D01*
X32093436Y10085123D01*
X32181898Y10074500D01*
X32181900Y10074500D01*
X33218100Y10074500D01*
X33218102Y10074500D01*
X33306564Y10085123D01*
X33447342Y10140639D01*
X33567922Y10232078D01*
X33567923Y10232080D01*
X33567925Y10232081D01*
X33568855Y10233010D01*
X33569756Y10233470D01*
X33573318Y10236170D01*
X33573802Y10235531D01*
X33623374Y10260783D01*
X33638852Y10262000D01*
X34100500Y10262000D01*
X34158691Y10243093D01*
X34194655Y10193593D01*
X34199500Y10163000D01*
X34199500Y8568994D01*
X34199500Y8431006D01*
X34225658Y8299501D01*
X34226420Y8295673D01*
X34226420Y8295671D01*
X34279223Y8168192D01*
X34346458Y8067566D01*
X34355886Y8053457D01*
X34934151Y7475193D01*
X35460504Y6948840D01*
X35488281Y6894323D01*
X35489500Y6878836D01*
X35489500Y4963598D01*
X35470593Y4905407D01*
X35448694Y4883508D01*
X35440504Y4877558D01*
X35440499Y4877553D01*
X35312447Y4749501D01*
X35259225Y4676248D01*
X35206002Y4602992D01*
X35123788Y4441638D01*
X35067828Y4269407D01*
X35039500Y4090550D01*
X35039500Y3909451D01*
X35067828Y3730594D01*
X35067829Y3730591D01*
X35123789Y3558361D01*
X35206004Y3397006D01*
X35312447Y3250499D01*
X35440499Y3122447D01*
X35587006Y3016004D01*
X35748361Y2933789D01*
X35920591Y2877829D01*
X35992136Y2866498D01*
X36099451Y2849500D01*
X36099454Y2849500D01*
X36280549Y2849500D01*
X36369977Y2863665D01*
X36459409Y2877829D01*
X36631639Y2933789D01*
X36792994Y3016004D01*
X36939501Y3122447D01*
X37067553Y3250499D01*
X37173996Y3397006D01*
X37256211Y3558361D01*
X37312171Y3730591D01*
X37326335Y3820023D01*
X37340500Y3909451D01*
X37340500Y4090550D01*
X37314998Y4251557D01*
X37312171Y4269409D01*
X37256211Y4441639D01*
X37173996Y4602994D01*
X37067553Y4749501D01*
X36939501Y4877553D01*
X36939497Y4877556D01*
X36939495Y4877558D01*
X36931306Y4883508D01*
X36895344Y4933009D01*
X36890500Y4963598D01*
X36890500Y7278992D01*
X36890500Y7278993D01*
X36868934Y7387409D01*
X36863580Y7414329D01*
X36839629Y7472150D01*
X36810775Y7541811D01*
X36734114Y7656542D01*
X36636542Y7754114D01*
X36171342Y8219314D01*
X35629496Y8761161D01*
X35601719Y8815678D01*
X35600500Y8831165D01*
X35600500Y10200500D01*
X35619407Y10258691D01*
X35668907Y10294655D01*
X35699500Y10299500D01*
X36164489Y10299500D01*
X36201795Y10289731D01*
X36202542Y10291623D01*
X36208840Y10289140D01*
X36208842Y10289138D01*
X36346423Y10234883D01*
X36432882Y10224500D01*
X36432884Y10224500D01*
X37017116Y10224500D01*
X37017118Y10224500D01*
X37103577Y10234883D01*
X37241158Y10289138D01*
X37359000Y10378500D01*
X37448362Y10496342D01*
X37502617Y10633923D01*
X37513000Y10720382D01*
X37513000Y11090178D01*
X37520163Y11112226D01*
X37523790Y11135123D01*
X37529438Y11140772D01*
X37531907Y11148369D01*
X37550663Y11161997D01*
X37567055Y11178388D01*
X37574944Y11179638D01*
X37581407Y11184333D01*
X37604592Y11184333D01*
X37627487Y11187959D01*
X37634604Y11184333D01*
X37642593Y11184333D01*
X37682004Y11160182D01*
X37733004Y11109182D01*
X37760781Y11054665D01*
X37762000Y11039178D01*
X37762000Y10720380D01*
X37772383Y10633921D01*
X37811439Y10534883D01*
X37826638Y10496342D01*
X37916000Y10378500D01*
X38033842Y10289138D01*
X38115975Y10256749D01*
X38169779Y10235531D01*
X38171423Y10234883D01*
X38257882Y10224500D01*
X38257884Y10224500D01*
X38842116Y10224500D01*
X38842118Y10224500D01*
X38928577Y10234883D01*
X39066158Y10289138D01*
X39184000Y10378500D01*
X39246045Y10460320D01*
X39258102Y10468708D01*
X39266738Y10480593D01*
X39282590Y10485744D01*
X39296272Y10495262D01*
X39324929Y10499500D01*
X39450071Y10499500D01*
X39508262Y10480593D01*
X39528954Y10460320D01*
X39591000Y10378500D01*
X39708842Y10289138D01*
X39790975Y10256749D01*
X39844779Y10235531D01*
X39846423Y10234883D01*
X39932882Y10224500D01*
X39932884Y10224500D01*
X40517116Y10224500D01*
X40517118Y10224500D01*
X40603577Y10234883D01*
X40741158Y10289138D01*
X40859000Y10378500D01*
X40948362Y10496342D01*
X41002617Y10633923D01*
X41013000Y10720382D01*
X41013000Y11279618D01*
X41002617Y11366077D01*
X40997716Y11378504D01*
X40962348Y11468192D01*
X40948362Y11503658D01*
X40859000Y11621500D01*
X40741158Y11710862D01*
X40732762Y11714173D01*
X40603579Y11765117D01*
X40517120Y11775500D01*
X40517118Y11775500D01*
X39932882Y11775500D01*
X39932879Y11775500D01*
X39846420Y11765117D01*
X39708841Y11710862D01*
X39591003Y11621503D01*
X39590997Y11621497D01*
X39528955Y11539681D01*
X39516897Y11531293D01*
X39508262Y11519407D01*
X39492409Y11514257D01*
X39478728Y11504738D01*
X39450071Y11500500D01*
X39324929Y11500500D01*
X39266738Y11519407D01*
X39246045Y11539681D01*
X39240872Y11546503D01*
X39184000Y11621500D01*
X39066158Y11710862D01*
X39057762Y11714173D01*
X38928579Y11765117D01*
X38842120Y11775500D01*
X38842118Y11775500D01*
X38523322Y11775500D01*
X38465131Y11794407D01*
X38453318Y11804496D01*
X37795998Y12461816D01*
X37768221Y12516333D01*
X37777792Y12576765D01*
X37807210Y12611473D01*
X37897150Y12677850D01*
X37977793Y12787118D01*
X38022646Y12915301D01*
X38025499Y12945727D01*
X38025500Y12945727D01*
X38025500Y13354273D01*
X38025499Y13354275D01*
X38024337Y13366664D01*
X38022646Y13384699D01*
X37977793Y13512882D01*
X37965700Y13529267D01*
X37897154Y13622145D01*
X37897152Y13622147D01*
X37897150Y13622150D01*
X37897146Y13622153D01*
X37897144Y13622155D01*
X37787883Y13702793D01*
X37659703Y13747645D01*
X37659694Y13747647D01*
X37629274Y13750500D01*
X37629266Y13750500D01*
X36495734Y13750500D01*
X36495725Y13750500D01*
X36465305Y13747647D01*
X36465296Y13747645D01*
X36337116Y13702793D01*
X36227855Y13622155D01*
X36227845Y13622145D01*
X36147207Y13512884D01*
X36102355Y13384704D01*
X36102353Y13384695D01*
X36099500Y13354275D01*
X36099500Y12945726D01*
X36102353Y12915306D01*
X36102355Y12915297D01*
X36147207Y12787117D01*
X36227845Y12677856D01*
X36227847Y12677854D01*
X36227850Y12677850D01*
X36227853Y12677848D01*
X36227855Y12677846D01*
X36337116Y12597208D01*
X36337117Y12597208D01*
X36337118Y12597207D01*
X36465301Y12552354D01*
X36472242Y12551704D01*
X36528412Y12527448D01*
X36559599Y12474808D01*
X36562000Y12453136D01*
X36562000Y12421608D01*
X36581321Y12349500D01*
X36596109Y12294310D01*
X36661996Y12180191D01*
X36662000Y12180186D01*
X36897682Y11944503D01*
X36925459Y11889987D01*
X36915888Y11829555D01*
X36872623Y11786290D01*
X36827678Y11775500D01*
X36432879Y11775500D01*
X36376550Y11768735D01*
X36346423Y11765117D01*
X36208842Y11710862D01*
X36208840Y11710861D01*
X36202542Y11708377D01*
X36201795Y11710270D01*
X36164489Y11700500D01*
X35582485Y11700500D01*
X35524294Y11719407D01*
X35522666Y11720616D01*
X35403658Y11810862D01*
X35266079Y11865117D01*
X35179620Y11875500D01*
X35179618Y11875500D01*
X34620382Y11875500D01*
X34620379Y11875500D01*
X34533920Y11865117D01*
X34396341Y11810862D01*
X34278503Y11721503D01*
X34278497Y11721497D01*
X34263850Y11702181D01*
X34213623Y11667238D01*
X34184966Y11663000D01*
X33638852Y11663000D01*
X33580661Y11681907D01*
X33568855Y11691990D01*
X33567925Y11692920D01*
X33467948Y11768735D01*
X33447342Y11784361D01*
X33447341Y11784362D01*
X33447339Y11784363D01*
X33306565Y11839877D01*
X33218106Y11850500D01*
X33218102Y11850500D01*
X32181898Y11850500D01*
X32181893Y11850500D01*
X32093434Y11839877D01*
X31952658Y11784362D01*
X31938199Y11773397D01*
X31880407Y11753304D01*
X31821842Y11771017D01*
X31808378Y11782279D01*
X31529496Y12061161D01*
X31501719Y12115678D01*
X31500500Y12131165D01*
X31500500Y13368836D01*
X31519407Y13427027D01*
X31529490Y13438834D01*
X32764947Y14674292D01*
X32819462Y14702067D01*
X32879894Y14692496D01*
X32913830Y14664108D01*
X32957078Y14607078D01*
X33077658Y14515639D01*
X33077659Y14515639D01*
X33077660Y14515638D01*
X33124398Y14497207D01*
X33218436Y14460123D01*
X33306898Y14449500D01*
X33306900Y14449500D01*
X34693100Y14449500D01*
X34693102Y14449500D01*
X34781564Y14460123D01*
X34922342Y14515639D01*
X35042922Y14607078D01*
X35134361Y14727658D01*
X35189877Y14868436D01*
X35200500Y14956898D01*
X35200500Y17043102D01*
X35189877Y17131564D01*
X35138151Y17262732D01*
X35134362Y17272340D01*
X35134361Y17272341D01*
X35134361Y17272342D01*
X35042922Y17392922D01*
X34922342Y17484361D01*
X34922341Y17484362D01*
X34922339Y17484363D01*
X34781565Y17539877D01*
X34693106Y17550500D01*
X34693102Y17550500D01*
X33306898Y17550500D01*
X33306893Y17550500D01*
X33218434Y17539877D01*
X33077660Y17484363D01*
X33077656Y17484360D01*
X32957081Y17392925D01*
X32957075Y17392919D01*
X32865640Y17272344D01*
X32865637Y17272340D01*
X32810123Y17131566D01*
X32799500Y17043107D01*
X32799500Y16694613D01*
X32780593Y16636422D01*
X32755501Y16612298D01*
X32738968Y16601250D01*
X32653460Y16544117D01*
X30255883Y14146540D01*
X30179223Y14031809D01*
X30126420Y13904330D01*
X30126420Y13904328D01*
X30103628Y13789744D01*
X30099500Y13768994D01*
X30099500Y11731004D01*
X30114765Y11654266D01*
X30121282Y11621500D01*
X30126420Y11595673D01*
X30126420Y11595671D01*
X30179223Y11468192D01*
X30247453Y11366077D01*
X30255886Y11353457D01*
X30539870Y11069473D01*
X30542254Y11064794D01*
X30546666Y11061942D01*
X30555951Y11037912D01*
X30567646Y11014958D01*
X30566824Y11009770D01*
X30568718Y11004869D01*
X30562105Y10979973D01*
X30558075Y10954526D01*
X30554359Y10950811D01*
X30553011Y10945734D01*
X30533030Y10929482D01*
X30514810Y10911261D01*
X30509620Y10910440D01*
X30505546Y10907125D01*
X30489880Y10907313D01*
X30454378Y10901690D01*
X30444452Y10903788D01*
X30438074Y10905482D01*
X30389744Y10925501D01*
X30282028Y10946928D01*
X30278992Y10947734D01*
X30262491Y10958399D01*
X30234401Y10973413D01*
X29995927Y11211887D01*
X29968150Y11266404D01*
X29967637Y11270088D01*
X29966492Y11279621D01*
X29965117Y11291077D01*
X29910862Y11428658D01*
X29821500Y11546500D01*
X29703658Y11635862D01*
X29656989Y11654266D01*
X29566079Y11690117D01*
X29479620Y11700500D01*
X29479618Y11700500D01*
X28920382Y11700500D01*
X28920379Y11700500D01*
X28833920Y11690117D01*
X28696341Y11635862D01*
X28578503Y11546503D01*
X28578497Y11546497D01*
X28489138Y11428659D01*
X28434883Y11291080D01*
X28424500Y11204621D01*
X28424500Y10620380D01*
X28434883Y10533921D01*
X28464547Y10458700D01*
X28489138Y10396342D01*
X28578500Y10278500D01*
X28696342Y10189138D01*
X28801989Y10147476D01*
X28819321Y10140641D01*
X28833923Y10134883D01*
X28920382Y10124500D01*
X28920384Y10124500D01*
X29479616Y10124500D01*
X29479618Y10124500D01*
X29489843Y10125728D01*
X29491923Y10125318D01*
X29493882Y10126129D01*
X29521752Y10119438D01*
X29549873Y10113894D01*
X29551314Y10112340D01*
X29553376Y10111845D01*
X29571986Y10090055D01*
X29591483Y10069036D01*
X29593112Y10065319D01*
X29617028Y10007579D01*
X29621828Y9946582D01*
X29589859Y9894413D01*
X29533330Y9870999D01*
X29513760Y9871400D01*
X29479622Y9875500D01*
X29479618Y9875500D01*
X28920382Y9875500D01*
X28920379Y9875500D01*
X28833920Y9865117D01*
X28696341Y9810862D01*
X28578503Y9721503D01*
X28578497Y9721497D01*
X28506976Y9627181D01*
X28456749Y9592238D01*
X28428092Y9588000D01*
X27815893Y9588000D01*
X27684108Y9588000D01*
X27684107Y9588000D01*
X27677676Y9587153D01*
X27677370Y9589476D01*
X27626501Y9592153D01*
X27578959Y9630668D01*
X27563000Y9684569D01*
X27563000Y10228092D01*
X27581907Y10286283D01*
X27602181Y10306976D01*
X27648003Y10341724D01*
X27696500Y10378500D01*
X27785862Y10496342D01*
X27840117Y10633923D01*
X27850500Y10720382D01*
X27850500Y11279618D01*
X27840117Y11366077D01*
X27835216Y11378504D01*
X27799848Y11468192D01*
X27785862Y11503658D01*
X27696500Y11621500D01*
X27578658Y11710862D01*
X27570262Y11714173D01*
X27441079Y11765117D01*
X27354620Y11775500D01*
X27354618Y11775500D01*
X26770382Y11775500D01*
X26770379Y11775500D01*
X26683920Y11765117D01*
X26546341Y11710862D01*
X26428503Y11621503D01*
X26428497Y11621497D01*
X26339138Y11503659D01*
X26284883Y11366080D01*
X26274500Y11279621D01*
X26274500Y10720380D01*
X26284883Y10633921D01*
X26323939Y10534883D01*
X26339138Y10496342D01*
X26428500Y10378500D01*
X26476997Y10341724D01*
X26522819Y10306976D01*
X26557762Y10256749D01*
X26562000Y10228092D01*
X26562000Y9290425D01*
X26550529Y9244169D01*
X26547207Y9237884D01*
X26502355Y9109704D01*
X26502354Y9109700D01*
X26499500Y9079275D01*
X26499500Y7795726D01*
X26502353Y7765306D01*
X26502355Y7765297D01*
X26517722Y7721381D01*
X26519095Y7660211D01*
X26484251Y7609916D01*
X26426500Y7589708D01*
X26391583Y7595238D01*
X26384704Y7597645D01*
X26384694Y7597647D01*
X26354274Y7600500D01*
X26354266Y7600500D01*
X25945734Y7600500D01*
X25945725Y7600500D01*
X25915305Y7597647D01*
X25915296Y7597645D01*
X25787116Y7552793D01*
X25677855Y7472155D01*
X25677845Y7472145D01*
X25597207Y7362884D01*
X25552355Y7234704D01*
X25552353Y7234695D01*
X25549500Y7204275D01*
X9898566Y7204275D01*
X9900500Y7220382D01*
X9900500Y7779618D01*
X9890117Y7866077D01*
X9835862Y8003658D01*
X9746500Y8121500D01*
X9628658Y8210862D01*
X9491079Y8265117D01*
X9404620Y8275500D01*
X9404618Y8275500D01*
X9085822Y8275500D01*
X9027631Y8294407D01*
X9015818Y8304496D01*
X8729496Y8590818D01*
X8725869Y8597936D01*
X8719407Y8602631D01*
X8712243Y8624680D01*
X8701719Y8645335D01*
X8700500Y8660822D01*
X8700500Y8850500D01*
X8719407Y8908691D01*
X8768907Y8944655D01*
X8799500Y8949500D01*
X9904273Y8949500D01*
X9904273Y8949501D01*
X9934699Y8952354D01*
X10062882Y8997207D01*
X10172150Y9077850D01*
X10252793Y9187118D01*
X10297646Y9315301D01*
X10300499Y9345727D01*
X10300500Y9345727D01*
X10300500Y9754273D01*
X10300499Y9754275D01*
X10297646Y9784699D01*
X10268566Y9867803D01*
X10267194Y9928972D01*
X10302037Y9979267D01*
X10359789Y9999475D01*
X10362011Y9999500D01*
X10589179Y9999500D01*
X10647370Y9980593D01*
X10659182Y9970504D01*
X10895503Y9734184D01*
X10923281Y9679667D01*
X10924500Y9664180D01*
X10924500Y9295380D01*
X10934883Y9208921D01*
X10974012Y9109699D01*
X10989138Y9071342D01*
X11078500Y8953500D01*
X11196342Y8864138D01*
X11333923Y8809883D01*
X11420382Y8799500D01*
X11420384Y8799500D01*
X11979616Y8799500D01*
X11979618Y8799500D01*
X12066077Y8809883D01*
X12203658Y8864138D01*
X12321500Y8953500D01*
X12410862Y9071342D01*
X12465117Y9208923D01*
X12475500Y9295382D01*
X12475500Y9979618D01*
X12465117Y10066077D01*
X12461795Y10074500D01*
X12442078Y10124500D01*
X12410862Y10203658D01*
X12321500Y10321500D01*
X12294829Y10341725D01*
X12203661Y10410860D01*
X12203659Y10410861D01*
X12203658Y10410862D01*
X12203656Y10410863D01*
X12198605Y10413702D01*
X12157146Y10458700D01*
X12150054Y10519473D01*
X12180038Y10572808D01*
X12198605Y10586298D01*
X12203650Y10589135D01*
X12203658Y10589138D01*
X12321500Y10678500D01*
X12410862Y10796342D01*
X12465117Y10933923D01*
X12475500Y11020382D01*
X12475500Y11704618D01*
X12465117Y11791077D01*
X12410862Y11928658D01*
X12363829Y11990681D01*
X12343734Y12048472D01*
X12361445Y12107038D01*
X12410198Y12144008D01*
X12442713Y12149500D01*
X12564068Y12149500D01*
X12564069Y12149500D01*
X12689744Y12174499D01*
X12808127Y12223535D01*
X12914669Y12294724D01*
X13005276Y12385331D01*
X13076465Y12491873D01*
X13125501Y12610256D01*
X13150500Y12735931D01*
X13150500Y12864069D01*
X13125501Y12989744D01*
X13076465Y13108127D01*
X13076463Y13108130D01*
X13076461Y13108134D01*
X13046860Y13152434D01*
X13005276Y13214669D01*
X12914669Y13305276D01*
X12860691Y13341343D01*
X12808133Y13376462D01*
X12808125Y13376466D01*
X12689747Y13425500D01*
X12689745Y13425501D01*
X12689744Y13425501D01*
X12564069Y13450500D01*
X12435931Y13450500D01*
X12435930Y13450500D01*
X12377314Y13438840D01*
X12310256Y13425501D01*
X12310255Y13425501D01*
X12310252Y13425500D01*
X12191874Y13376466D01*
X12191865Y13376462D01*
X12154502Y13351495D01*
X12095614Y13334886D01*
X12038210Y13356063D01*
X12004217Y13406937D01*
X12000500Y13433810D01*
X12000500Y13478841D01*
X12000499Y13478845D01*
X11996983Y13496521D01*
X11969737Y13633497D01*
X11922456Y13747645D01*
X11909396Y13779175D01*
X11909390Y13779186D01*
X11853260Y13863189D01*
X11821789Y13910289D01*
X11710289Y14021789D01*
X11658059Y14056688D01*
X11579185Y14109391D01*
X11579174Y14109397D01*
X11433497Y14169737D01*
X11278844Y14200500D01*
X11278842Y14200500D01*
X11121158Y14200500D01*
X11121155Y14200500D01*
X10966503Y14169737D01*
X10966501Y14169737D01*
X10820825Y14109397D01*
X10820814Y14109391D01*
X10689711Y14021789D01*
X10689707Y14021786D01*
X10578214Y13910293D01*
X10578211Y13910289D01*
X10490609Y13779186D01*
X10490603Y13779175D01*
X10430263Y13633499D01*
X10430263Y13633497D01*
X10399500Y13478845D01*
X10399500Y13321156D01*
X10413555Y13250500D01*
X10426518Y13185328D01*
X10430263Y13166504D01*
X10430263Y13166502D01*
X10490603Y13020826D01*
X10490609Y13020815D01*
X10522321Y12973356D01*
X10578211Y12889711D01*
X10689711Y12778211D01*
X10763338Y12729015D01*
X10820814Y12690610D01*
X10820825Y12690604D01*
X10859707Y12674499D01*
X10966503Y12630263D01*
X11121158Y12599500D01*
X11121159Y12599500D01*
X11278841Y12599500D01*
X11278842Y12599500D01*
X11297467Y12603205D01*
X11358228Y12596014D01*
X11386785Y12576111D01*
X11459238Y12503659D01*
X11523386Y12439511D01*
X11617393Y12385236D01*
X11658333Y12339767D01*
X11664729Y12278917D01*
X11634136Y12225929D01*
X11578240Y12201042D01*
X11567892Y12200500D01*
X10531003Y12200500D01*
X10395672Y12173580D01*
X10395670Y12173580D01*
X10358145Y12158036D01*
X10320260Y12150500D01*
X9268504Y12150500D01*
X9133172Y12123580D01*
X9133170Y12123580D01*
X9005690Y12070776D01*
X9000316Y12067185D01*
X8945314Y12050500D01*
X8799500Y12050500D01*
X8741309Y12069407D01*
X8705345Y12118907D01*
X8700500Y12149500D01*
X8700500Y12339178D01*
X8719407Y12397369D01*
X8729496Y12409182D01*
X9015818Y12695504D01*
X9070335Y12723281D01*
X9085822Y12724500D01*
X9404616Y12724500D01*
X9404618Y12724500D01*
X9491077Y12734883D01*
X9628658Y12789138D01*
X9746500Y12878500D01*
X9835862Y12996342D01*
X9890117Y13133923D01*
X9900500Y13220382D01*
X9900500Y13779618D01*
X9890117Y13866077D01*
X9881373Y13888249D01*
X9863507Y13933554D01*
X9835862Y14003658D01*
X9746500Y14121500D01*
X9628658Y14210862D01*
X9605463Y14220009D01*
X9491079Y14265117D01*
X9404620Y14275500D01*
X9404618Y14275500D01*
X8820382Y14275500D01*
X8820379Y14275500D01*
X8733920Y14265117D01*
X8596341Y14210862D01*
X8478503Y14121503D01*
X8478497Y14121497D01*
X8389138Y14003659D01*
X8334883Y13866080D01*
X8324500Y13779621D01*
X8324500Y13460822D01*
X8322031Y13453225D01*
X8323281Y13445335D01*
X8312756Y13424680D01*
X8305593Y13402631D01*
X8295504Y13390818D01*
X8244504Y13339818D01*
X8189987Y13312041D01*
X8129555Y13321612D01*
X8086290Y13364877D01*
X8075500Y13409822D01*
X8075500Y13779617D01*
X8075500Y13779618D01*
X8065117Y13866077D01*
X8056373Y13888249D01*
X8038507Y13933554D01*
X8010862Y14003658D01*
X7921500Y14121500D01*
X7803658Y14210862D01*
X7780463Y14220009D01*
X7666079Y14265117D01*
X7579620Y14275500D01*
X7579618Y14275500D01*
X6995382Y14275500D01*
X6995379Y14275500D01*
X6908920Y14265117D01*
X6771340Y14210862D01*
X6749471Y14194279D01*
X6691679Y14174187D01*
X6633114Y14191901D01*
X6619652Y14203162D01*
X6154495Y14668319D01*
X6126718Y14722836D01*
X6125499Y14738323D01*
X6125499Y16161290D01*
X10869500Y16161290D01*
X10869500Y15918711D01*
X10876187Y15867919D01*
X10899342Y15692032D01*
X10901161Y15678219D01*
X10901161Y15678214D01*
X10918529Y15613397D01*
X10954675Y15478498D01*
X10963944Y15443908D01*
X10963948Y15443895D01*
X11056772Y15219796D01*
X11056774Y15219792D01*
X11056776Y15219788D01*
X11175936Y15013397D01*
X11178066Y15009708D01*
X11325729Y14817269D01*
X11325731Y14817267D01*
X11325735Y14817262D01*
X11497262Y14645735D01*
X11497266Y14645732D01*
X11497268Y14645730D01*
X11662548Y14518907D01*
X11689711Y14498064D01*
X11899788Y14376776D01*
X12123900Y14283946D01*
X12358211Y14221162D01*
X12598712Y14189500D01*
X12598713Y14189500D01*
X12841287Y14189500D01*
X12841288Y14189500D01*
X13081789Y14221162D01*
X13316100Y14283946D01*
X13540212Y14376776D01*
X13750289Y14498064D01*
X13942738Y14645735D01*
X14114265Y14817262D01*
X14261936Y15009711D01*
X14383224Y15219788D01*
X14476054Y15443900D01*
X14538838Y15678211D01*
X14570500Y15918712D01*
X14570500Y16161288D01*
X14538838Y16401789D01*
X14476054Y16636100D01*
X14383224Y16860212D01*
X14261936Y17070289D01*
X14233841Y17106903D01*
X14114270Y17262732D01*
X14114268Y17262734D01*
X14114265Y17262738D01*
X13942738Y17434265D01*
X13942733Y17434269D01*
X13942731Y17434271D01*
X13750292Y17581934D01*
X13745053Y17584959D01*
X13540212Y17703224D01*
X13540208Y17703226D01*
X13540204Y17703228D01*
X13316105Y17796052D01*
X13316104Y17796053D01*
X13316100Y17796054D01*
X13081789Y17858838D01*
X13081786Y17858839D01*
X13081784Y17858839D01*
X12841289Y17890500D01*
X12841288Y17890500D01*
X12598712Y17890500D01*
X12598710Y17890500D01*
X12358218Y17858839D01*
X12358213Y17858839D01*
X12123907Y17796056D01*
X12123894Y17796052D01*
X11899795Y17703228D01*
X11689707Y17581934D01*
X11497268Y17434271D01*
X11325729Y17262732D01*
X11178066Y17070293D01*
X11056772Y16860205D01*
X10963948Y16636106D01*
X10963944Y16636093D01*
X10901161Y16401787D01*
X10901161Y16401782D01*
X10869500Y16161290D01*
X6125499Y16161290D01*
X6125499Y17834861D01*
X6125499Y17834864D01*
X6122585Y17859991D01*
X6077206Y17962765D01*
X5997765Y18042206D01*
X5894991Y18087585D01*
X5894990Y18087586D01*
X5894988Y18087586D01*
X5869869Y18090500D01*
X5869865Y18090500D01*
X4920165Y18090500D01*
X4861974Y18109407D01*
X4826010Y18158907D01*
X4826010Y18220093D01*
X4850161Y18259504D01*
X5231665Y18641008D01*
X6398104Y19807449D01*
X6430220Y19828906D01*
X6433495Y19830263D01*
X6433497Y19830263D01*
X6579179Y19890606D01*
X6710289Y19978211D01*
X6821789Y20089711D01*
X6909394Y20220821D01*
X6969737Y20366503D01*
X6969737Y20366505D01*
X6971094Y20369780D01*
X6992551Y20401896D01*
X9011161Y22420504D01*
X9065678Y22448281D01*
X9081165Y22449500D01*
X10293100Y22449500D01*
X10293102Y22449500D01*
X10381564Y22460123D01*
X10522342Y22515639D01*
X10642922Y22607078D01*
X10734361Y22727658D01*
X10789877Y22868436D01*
X10800500Y22956898D01*
X10800500Y23200500D01*
X10819407Y23258691D01*
X10868907Y23294655D01*
X10899500Y23299500D01*
X11468835Y23299500D01*
X11527026Y23280593D01*
X11538839Y23270504D01*
X12370852Y22438491D01*
X12398629Y22383974D01*
X12389058Y22323542D01*
X12360669Y22289605D01*
X12332084Y22267928D01*
X12332075Y22267919D01*
X12240640Y22147344D01*
X12240637Y22147340D01*
X12185123Y22006566D01*
X12174500Y21918107D01*
X12174500Y21156894D01*
X12185123Y21068435D01*
X12240637Y20927661D01*
X12240638Y20927659D01*
X12240639Y20927658D01*
X12332078Y20807078D01*
X12452658Y20715639D01*
X12452659Y20715639D01*
X12452660Y20715638D01*
X12523047Y20687881D01*
X12593436Y20660123D01*
X12681898Y20649500D01*
X12681900Y20649500D01*
X13718100Y20649500D01*
X13718102Y20649500D01*
X13806564Y20660123D01*
X13947342Y20715639D01*
X14067922Y20807078D01*
X14159361Y20927658D01*
X14214877Y21068436D01*
X14225500Y21156898D01*
X14225500Y21300500D01*
X14230345Y21315412D01*
X14230345Y21331093D01*
X14239561Y21343779D01*
X14244407Y21358691D01*
X14257092Y21367908D01*
X14266309Y21380593D01*
X14281221Y21385439D01*
X14293907Y21394655D01*
X14324500Y21399500D01*
X14368835Y21399500D01*
X14427026Y21380593D01*
X14438839Y21370504D01*
X14770504Y21038839D01*
X14798281Y20984322D01*
X14799500Y20968835D01*
X14799500Y20506894D01*
X14810123Y20418435D01*
X14865637Y20277661D01*
X14865638Y20277659D01*
X14865639Y20277658D01*
X14957078Y20157078D01*
X15077658Y20065639D01*
X15077659Y20065639D01*
X15077660Y20065638D01*
X15186819Y20022591D01*
X15234016Y19983655D01*
X15249500Y19930494D01*
X15249500Y19107492D01*
X15230593Y19049301D01*
X15181093Y19013337D01*
X15119907Y19013337D01*
X15112615Y19016028D01*
X15089751Y19025499D01*
X15089746Y19025501D01*
X15089744Y19025501D01*
X14964069Y19050500D01*
X14835931Y19050500D01*
X14835930Y19050500D01*
X14773093Y19038001D01*
X14710256Y19025501D01*
X14710255Y19025501D01*
X14710252Y19025500D01*
X14591874Y18976466D01*
X14591866Y18976462D01*
X14485331Y18905276D01*
X14485327Y18905273D01*
X14394727Y18814673D01*
X14394724Y18814669D01*
X14323538Y18708134D01*
X14323534Y18708126D01*
X14274500Y18589748D01*
X14274499Y18589743D01*
X14252594Y18479621D01*
X14249500Y18464069D01*
X14249500Y18335931D01*
X14272542Y18220093D01*
X14274499Y18210258D01*
X14274500Y18210253D01*
X14323534Y18091875D01*
X14323538Y18091867D01*
X14356721Y18042206D01*
X14394724Y17985331D01*
X14485331Y17894724D01*
X14527573Y17866499D01*
X14591866Y17823539D01*
X14591870Y17823537D01*
X14591873Y17823535D01*
X14710256Y17774499D01*
X14835931Y17749500D01*
X14840702Y17748551D01*
X14840447Y17747272D01*
X14891241Y17725070D01*
X14922194Y17672291D01*
X14924500Y17651049D01*
X14924500Y17020380D01*
X14934883Y16933921D01*
X14966444Y16853889D01*
X14989138Y16796342D01*
X15078500Y16678500D01*
X15196342Y16589138D01*
X15333923Y16534883D01*
X15420382Y16524500D01*
X15859888Y16524500D01*
X15918079Y16505593D01*
X15929891Y16495505D01*
X15960886Y16464510D01*
X16063613Y16405201D01*
X16087820Y16398716D01*
X16087825Y16398713D01*
X16087826Y16398714D01*
X16178188Y16374501D01*
X16178190Y16374500D01*
X16178191Y16374500D01*
X16398390Y16374500D01*
X16456581Y16355593D01*
X16492545Y16306093D01*
X16492545Y16244907D01*
X16468395Y16205499D01*
X16402075Y16139178D01*
X16339508Y16076611D01*
X16339507Y16076610D01*
X16280202Y15973891D01*
X16280201Y15973888D01*
X16273712Y15949676D01*
X16273713Y15949675D01*
X16249500Y15859309D01*
X16249500Y15027611D01*
X16230593Y14969420D01*
X16220504Y14957607D01*
X14067393Y12804496D01*
X14012876Y12776719D01*
X13997389Y12775500D01*
X13995379Y12775500D01*
X13908920Y12765117D01*
X13771341Y12710862D01*
X13653503Y12621503D01*
X13653497Y12621497D01*
X13564138Y12503659D01*
X13509883Y12366080D01*
X13499500Y12279621D01*
X13499500Y11720380D01*
X13509883Y11633921D01*
X13545299Y11544114D01*
X13564138Y11496342D01*
X13653500Y11378500D01*
X13709608Y11335952D01*
X13747819Y11306976D01*
X13782762Y11256749D01*
X13787000Y11228092D01*
X13787000Y10771908D01*
X13768093Y10713717D01*
X13747819Y10693024D01*
X13653503Y10621503D01*
X13653497Y10621497D01*
X13564138Y10503659D01*
X13509883Y10366080D01*
X13499500Y10279621D01*
X13499500Y9720380D01*
X13509883Y9633921D01*
X13534892Y9570504D01*
X13564138Y9496342D01*
X13653500Y9378500D01*
X13771342Y9289138D01*
X13829329Y9266271D01*
X13901018Y9238000D01*
X13908923Y9234883D01*
X13995382Y9224500D01*
X13995384Y9224500D01*
X14579616Y9224500D01*
X14579618Y9224500D01*
X14666077Y9234883D01*
X14803658Y9289138D01*
X14921500Y9378500D01*
X15010862Y9496342D01*
X15065117Y9633923D01*
X15075500Y9720382D01*
X15075500Y10279618D01*
X15065117Y10366077D01*
X15064389Y10367922D01*
X15028591Y10458700D01*
X15010862Y10503658D01*
X14921500Y10621500D01*
X14827180Y10693025D01*
X14792238Y10743251D01*
X14788000Y10771908D01*
X14788000Y11228092D01*
X14806907Y11286283D01*
X14827181Y11306976D01*
X14921500Y11378500D01*
X15010862Y11496342D01*
X15065117Y11633923D01*
X15075500Y11720382D01*
X15075500Y12279618D01*
X15065117Y12366077D01*
X15043139Y12421810D01*
X15039381Y12482880D01*
X15065231Y12528130D01*
X16005847Y13468745D01*
X16060363Y13496521D01*
X16120795Y13486950D01*
X16164060Y13443685D01*
X16172948Y13418054D01*
X16174498Y13410259D01*
X16174500Y13410253D01*
X16223534Y13291875D01*
X16223538Y13291867D01*
X16257130Y13241594D01*
X16294724Y13185331D01*
X16294727Y13185328D01*
X16320504Y13159551D01*
X16324130Y13152434D01*
X16330593Y13147738D01*
X16337756Y13125690D01*
X16348281Y13105034D01*
X16349500Y13089547D01*
X16349500Y12915112D01*
X16330593Y12856921D01*
X16320504Y12845108D01*
X16279892Y12804496D01*
X16225375Y12776719D01*
X16209888Y12775500D01*
X15820379Y12775500D01*
X15733920Y12765117D01*
X15596341Y12710862D01*
X15478503Y12621503D01*
X15478497Y12621497D01*
X15389138Y12503659D01*
X15334883Y12366080D01*
X15324500Y12279621D01*
X15324500Y11720380D01*
X15334883Y11633921D01*
X15370299Y11544114D01*
X15389138Y11496342D01*
X15478500Y11378500D01*
X15596342Y11289138D01*
X15678475Y11256749D01*
X15730849Y11236095D01*
X15733923Y11234883D01*
X15820382Y11224500D01*
X15820384Y11224500D01*
X16404616Y11224500D01*
X16404618Y11224500D01*
X16491077Y11234883D01*
X16628658Y11289138D01*
X16746500Y11378500D01*
X16835862Y11496342D01*
X16890117Y11633923D01*
X16900500Y11720382D01*
X16900500Y12109890D01*
X16919407Y12168081D01*
X16929497Y12179894D01*
X17029224Y12279621D01*
X17160490Y12410886D01*
X17219799Y12513613D01*
X17227972Y12544114D01*
X17230179Y12552353D01*
X17230179Y12552355D01*
X17250500Y12628191D01*
X17250500Y13024479D01*
X17269407Y13082670D01*
X17318907Y13118634D01*
X17380093Y13118634D01*
X17429593Y13082670D01*
X17431815Y13079481D01*
X17494724Y12985331D01*
X17585331Y12894724D01*
X17641907Y12856921D01*
X17691866Y12823539D01*
X17691870Y12823537D01*
X17691873Y12823535D01*
X17810256Y12774499D01*
X17935931Y12749500D01*
X17935932Y12749500D01*
X18064068Y12749500D01*
X18064069Y12749500D01*
X18189744Y12774499D01*
X18308127Y12823535D01*
X18414669Y12894724D01*
X18433541Y12913596D01*
X18488057Y12941375D01*
X18548489Y12931805D01*
X18585860Y12898597D01*
X18594724Y12885331D01*
X18685331Y12794724D01*
X18738423Y12759249D01*
X18791866Y12723539D01*
X18791870Y12723537D01*
X18791873Y12723535D01*
X18910256Y12674499D01*
X19035931Y12649500D01*
X19035932Y12649500D01*
X19164068Y12649500D01*
X19164069Y12649500D01*
X19289744Y12674499D01*
X19408127Y12723535D01*
X19514669Y12794724D01*
X19579996Y12860051D01*
X19590131Y12865216D01*
X19597434Y12873940D01*
X19616760Y12878784D01*
X19634512Y12887829D01*
X19645749Y12886050D01*
X19656784Y12888815D01*
X19672000Y12881892D01*
X19694944Y12878258D01*
X19713542Y12865965D01*
X19716903Y12863152D01*
X19785331Y12794724D01*
X19851405Y12750575D01*
X19855504Y12747144D01*
X19869050Y12725526D01*
X19884843Y12705492D01*
X19885059Y12699976D01*
X19887992Y12695296D01*
X19886243Y12669843D01*
X19887245Y12644354D01*
X19884052Y12637940D01*
X19883799Y12634255D01*
X19879898Y12629595D01*
X19870846Y12611408D01*
X19789138Y12503659D01*
X19734883Y12366080D01*
X19724500Y12279621D01*
X19724500Y11720380D01*
X19734883Y11633921D01*
X19770299Y11544114D01*
X19789138Y11496342D01*
X19878500Y11378500D01*
X19934608Y11335952D01*
X19997819Y11288018D01*
X20032762Y11237791D01*
X20037000Y11209134D01*
X20037000Y10438852D01*
X20018093Y10380661D01*
X20008010Y10368855D01*
X20007080Y10367926D01*
X19915640Y10247344D01*
X19915637Y10247340D01*
X19860123Y10106566D01*
X19849500Y10018107D01*
X19849500Y8981894D01*
X19860123Y8893435D01*
X19915637Y8752661D01*
X19915638Y8752659D01*
X19915639Y8752658D01*
X20007078Y8632078D01*
X20127658Y8540639D01*
X20127659Y8540639D01*
X20127660Y8540638D01*
X20198047Y8512881D01*
X20268436Y8485123D01*
X20356898Y8474500D01*
X20356900Y8474500D01*
X21118100Y8474500D01*
X21118102Y8474500D01*
X21206564Y8485123D01*
X21347342Y8540639D01*
X21467922Y8632078D01*
X21559361Y8752658D01*
X21614877Y8893436D01*
X21625500Y8981898D01*
X21625500Y10018102D01*
X21614877Y10106564D01*
X21576588Y10203658D01*
X21559362Y10247340D01*
X21559361Y10247341D01*
X21559361Y10247342D01*
X21467922Y10367922D01*
X21467919Y10367926D01*
X21466990Y10368855D01*
X21466530Y10369757D01*
X21463830Y10373318D01*
X21464469Y10373803D01*
X21439217Y10423374D01*
X21438000Y10438852D01*
X21438000Y11893992D01*
X21437999Y11893996D01*
X21431104Y11928658D01*
X21411080Y12029328D01*
X21408037Y12036675D01*
X21400500Y12074563D01*
X21400500Y12279617D01*
X21400500Y12279618D01*
X21390117Y12366077D01*
X21370528Y12415751D01*
X21357402Y12449038D01*
X21350500Y12485356D01*
X21350500Y14384310D01*
X21350499Y14384312D01*
X21326286Y14474674D01*
X21322164Y14490060D01*
X21325365Y14551159D01*
X21347787Y14585685D01*
X21693403Y14931300D01*
X21747919Y14959077D01*
X21808351Y14949506D01*
X21851616Y14906241D01*
X21860504Y14880611D01*
X21873496Y14815297D01*
X21874499Y14810258D01*
X21874500Y14810253D01*
X21923534Y14691875D01*
X21923538Y14691867D01*
X21962346Y14633788D01*
X21994724Y14585331D01*
X22085331Y14494724D01*
X22123221Y14469407D01*
X22191866Y14423539D01*
X22191870Y14423537D01*
X22191873Y14423535D01*
X22310256Y14374499D01*
X22435931Y14349500D01*
X22435932Y14349500D01*
X22564068Y14349500D01*
X22564069Y14349500D01*
X22689744Y14374499D01*
X22808127Y14423535D01*
X22914669Y14494724D01*
X23005276Y14585331D01*
X23076465Y14691873D01*
X23125501Y14810256D01*
X23150500Y14935931D01*
X23150500Y15064069D01*
X23125501Y15189744D01*
X23076465Y15308127D01*
X23076463Y15308130D01*
X23076461Y15308134D01*
X23047717Y15351152D01*
X23005276Y15414669D01*
X22914669Y15505276D01*
X22902829Y15513187D01*
X22864953Y15561236D01*
X22862551Y15622374D01*
X22896545Y15673247D01*
X22953949Y15694424D01*
X22957834Y15694500D01*
X23932450Y15694500D01*
X23940047Y15692032D01*
X23947937Y15693281D01*
X23968592Y15682757D01*
X23990641Y15675593D01*
X24002454Y15665504D01*
X24065504Y15602454D01*
X24093281Y15547937D01*
X24094500Y15532450D01*
X24094500Y13341008D01*
X24094547Y13339818D01*
X24095442Y13317031D01*
X24096664Y13301506D01*
X24097294Y13294528D01*
X24129015Y13186830D01*
X24155972Y13133921D01*
X24156792Y13132313D01*
X24174359Y13108134D01*
X24212970Y13054989D01*
X24212972Y13054987D01*
X24212975Y13054983D01*
X24454983Y12812975D01*
X24472601Y12796689D01*
X24484414Y12786600D01*
X24489831Y12782081D01*
X24489837Y12782078D01*
X24489842Y12782074D01*
X24588409Y12728361D01*
X24588411Y12728360D01*
X24646604Y12709452D01*
X24646601Y12709452D01*
X24741005Y12694500D01*
X24741008Y12694500D01*
X28858982Y12694500D01*
X28858992Y12694500D01*
X28882964Y12695442D01*
X28898451Y12696661D01*
X28905473Y12697295D01*
X29013170Y12729015D01*
X29067687Y12756792D01*
X29145017Y12812975D01*
X29387025Y13054983D01*
X29403311Y13072601D01*
X29413400Y13084414D01*
X29417919Y13089831D01*
X29427890Y13108127D01*
X29471639Y13188410D01*
X29471640Y13188412D01*
X29490548Y13246604D01*
X29505500Y13341005D01*
X29505500Y16658982D01*
X29505500Y16658992D01*
X29504558Y16682964D01*
X29503339Y16698451D01*
X29502705Y16705473D01*
X29470985Y16813170D01*
X29443208Y16867687D01*
X29387025Y16945017D01*
X29145017Y17187025D01*
X29127399Y17203311D01*
X29115586Y17213400D01*
X29110169Y17217919D01*
X29110163Y17217923D01*
X29110157Y17217927D01*
X29011590Y17271640D01*
X29011588Y17271641D01*
X28953395Y17290549D01*
X28953398Y17290549D01*
X28858995Y17305500D01*
X28858992Y17305500D01*
X22474500Y17305500D01*
X22416309Y17324407D01*
X22380345Y17373907D01*
X22375500Y17404500D01*
X22375500Y17585633D01*
X22373225Y17601250D01*
X22364866Y17658625D01*
X22309826Y17771211D01*
X22221211Y17859826D01*
X22221209Y17859827D01*
X22221208Y17859828D01*
X22207562Y17866499D01*
X22163589Y17909043D01*
X22153020Y17969309D01*
X22165305Y18004934D01*
X22212984Y18087515D01*
X22235993Y18173386D01*
X22250500Y18227525D01*
X22250500Y18678451D01*
X22269407Y18736642D01*
X22318907Y18772606D01*
X22380093Y18772606D01*
X22419501Y18748457D01*
X22554983Y18612975D01*
X22572601Y18596689D01*
X22584414Y18586600D01*
X22589831Y18582081D01*
X22589837Y18582078D01*
X22589842Y18582074D01*
X22688409Y18528361D01*
X22688411Y18528360D01*
X22746604Y18509452D01*
X22746601Y18509452D01*
X22841005Y18494500D01*
X22841008Y18494500D01*
X28858982Y18494500D01*
X28858992Y18494500D01*
X28882964Y18495442D01*
X28898451Y18496661D01*
X28905473Y18497295D01*
X29013170Y18529015D01*
X29067687Y18556792D01*
X29145017Y18612975D01*
X29387025Y18854983D01*
X29403311Y18872601D01*
X29413400Y18884414D01*
X29417919Y18889831D01*
X29435201Y18921543D01*
X29471639Y18988410D01*
X29471640Y18988412D01*
X29490548Y19046604D01*
X29505500Y19141005D01*
X29505500Y21043107D01*
X32799500Y21043107D01*
X32799500Y18956894D01*
X32810123Y18868435D01*
X32865637Y18727661D01*
X32865638Y18727659D01*
X32865639Y18727658D01*
X32957078Y18607078D01*
X33077658Y18515639D01*
X33077659Y18515639D01*
X33077660Y18515638D01*
X33128871Y18495443D01*
X33218436Y18460123D01*
X33306898Y18449500D01*
X34377414Y18449500D01*
X34435605Y18430593D01*
X34447418Y18420504D01*
X34478211Y18389711D01*
X34589711Y18278211D01*
X34652983Y18235934D01*
X34720814Y18190610D01*
X34720825Y18190604D01*
X34762394Y18173386D01*
X34866503Y18130263D01*
X35021158Y18099500D01*
X36263000Y18099500D01*
X36321191Y18080593D01*
X36357155Y18031093D01*
X36362000Y18000500D01*
X36362000Y15671135D01*
X36343093Y15612944D01*
X36321788Y15591480D01*
X36227855Y15522155D01*
X36227845Y15522145D01*
X36147207Y15412884D01*
X36102355Y15284704D01*
X36102353Y15284695D01*
X36099500Y15254275D01*
X36099500Y14845726D01*
X36102353Y14815306D01*
X36102355Y14815297D01*
X36147207Y14687117D01*
X36227845Y14577856D01*
X36227847Y14577854D01*
X36227850Y14577850D01*
X36227853Y14577848D01*
X36227855Y14577846D01*
X36337116Y14497208D01*
X36337117Y14497208D01*
X36337118Y14497207D01*
X36465301Y14452354D01*
X36495725Y14449501D01*
X36495727Y14449500D01*
X36495734Y14449500D01*
X36670314Y14449500D01*
X36725316Y14432815D01*
X36730689Y14429225D01*
X36858172Y14376420D01*
X36993507Y14349500D01*
X36993508Y14349500D01*
X37131492Y14349500D01*
X37131493Y14349500D01*
X37266828Y14376420D01*
X37394311Y14429225D01*
X37399684Y14432815D01*
X37454686Y14449500D01*
X37629273Y14449500D01*
X37629273Y14449501D01*
X37659699Y14452354D01*
X37787882Y14497207D01*
X37897150Y14577850D01*
X37977793Y14687118D01*
X38022646Y14815301D01*
X38025499Y14845727D01*
X38025500Y14845727D01*
X38025500Y15254273D01*
X38025499Y15254275D01*
X38024506Y15264866D01*
X38022646Y15284699D01*
X37977793Y15412882D01*
X37976474Y15414669D01*
X37897154Y15522145D01*
X37897152Y15522147D01*
X37897150Y15522150D01*
X37897146Y15522153D01*
X37897144Y15522155D01*
X37803212Y15591480D01*
X37767619Y15641248D01*
X37763000Y15671135D01*
X37763000Y16500501D01*
X37781907Y16558692D01*
X37831407Y16594656D01*
X37862000Y16599501D01*
X38318096Y16599501D01*
X38318098Y16599501D01*
X38406564Y16610124D01*
X38547342Y16665639D01*
X38667922Y16757078D01*
X38759361Y16877658D01*
X38814876Y17018436D01*
X38825500Y17106901D01*
X38825499Y20293098D01*
X38814876Y20381564D01*
X38759361Y20522342D01*
X38667922Y20642922D01*
X38547342Y20734361D01*
X38406564Y20789876D01*
X38318099Y20800500D01*
X37231903Y20800500D01*
X37231897Y20800499D01*
X37143436Y20789876D01*
X37002658Y20734361D01*
X37002657Y20734361D01*
X37002656Y20734360D01*
X36882081Y20642925D01*
X36882075Y20642919D01*
X36790640Y20522344D01*
X36735124Y20381565D01*
X36724500Y20293102D01*
X36724500Y19799500D01*
X36705593Y19741309D01*
X36656093Y19705345D01*
X36625500Y19700500D01*
X35472586Y19700500D01*
X35414395Y19719407D01*
X35402582Y19729496D01*
X35229496Y19902582D01*
X35201719Y19957099D01*
X35200500Y19972586D01*
X35200500Y21043101D01*
X35200499Y21043107D01*
X35199769Y21049187D01*
X35189877Y21131564D01*
X35154297Y21221789D01*
X35134362Y21272340D01*
X35134361Y21272341D01*
X35134361Y21272342D01*
X35042922Y21392922D01*
X34922342Y21484361D01*
X34922341Y21484362D01*
X34922339Y21484363D01*
X34781565Y21539877D01*
X34693106Y21550500D01*
X34693102Y21550500D01*
X33306898Y21550500D01*
X33306893Y21550500D01*
X33218434Y21539877D01*
X33077660Y21484363D01*
X33077656Y21484360D01*
X32957081Y21392925D01*
X32957075Y21392919D01*
X32865640Y21272344D01*
X32865637Y21272340D01*
X32810123Y21131566D01*
X32799500Y21043107D01*
X29505500Y21043107D01*
X29505500Y22258982D01*
X29505149Y22267922D01*
X29504558Y22282964D01*
X29503339Y22298451D01*
X29502705Y22305473D01*
X29470985Y22413170D01*
X29443208Y22467687D01*
X29387025Y22545017D01*
X29145017Y22787025D01*
X29127399Y22803311D01*
X29115586Y22813400D01*
X29110169Y22817919D01*
X29110163Y22817923D01*
X29110157Y22817927D01*
X29011590Y22871640D01*
X29011588Y22871641D01*
X28953395Y22890549D01*
X28953398Y22890549D01*
X28858995Y22905500D01*
X28858992Y22905500D01*
X28690462Y22905500D01*
X28632271Y22924407D01*
X28596307Y22973907D01*
X28596307Y23035093D01*
X28611579Y23064320D01*
X28618039Y23072839D01*
X28635862Y23096342D01*
X28690117Y23233923D01*
X28700500Y23320382D01*
X28700500Y23879618D01*
X28690117Y23966077D01*
X28635862Y24103658D01*
X28546500Y24221500D01*
X28452180Y24293025D01*
X28417238Y24343251D01*
X28413000Y24371908D01*
X28413000Y27704841D01*
X28431907Y27763032D01*
X28481407Y27798996D01*
X28523411Y27803181D01*
X28530007Y27802416D01*
X28530009Y27802415D01*
X28555135Y27799500D01*
X28950500Y27799501D01*
X29008691Y27780594D01*
X29044655Y27731094D01*
X29049500Y27700501D01*
X29049500Y24810453D01*
X29030593Y24752262D01*
X29020504Y24740449D01*
X28994727Y24714673D01*
X28994724Y24714669D01*
X28923538Y24608134D01*
X28923534Y24608126D01*
X28874500Y24489748D01*
X28874499Y24489745D01*
X28874499Y24489744D01*
X28849500Y24364069D01*
X28849500Y24235931D01*
X28869558Y24135093D01*
X28874499Y24110258D01*
X28874500Y24110253D01*
X28923534Y23991875D01*
X28923538Y23991867D01*
X28940769Y23966080D01*
X28994724Y23885331D01*
X29085331Y23794724D01*
X29117881Y23772975D01*
X29191866Y23723539D01*
X29191870Y23723537D01*
X29191873Y23723535D01*
X29310256Y23674499D01*
X29435931Y23649500D01*
X29435932Y23649500D01*
X29564068Y23649500D01*
X29564069Y23649500D01*
X29689744Y23674499D01*
X29808127Y23723535D01*
X29914669Y23794724D01*
X30005276Y23885331D01*
X30076465Y23991873D01*
X30125501Y24110256D01*
X30150500Y24235931D01*
X30150500Y24364069D01*
X30125501Y24489744D01*
X30076465Y24608127D01*
X30076463Y24608130D01*
X30076461Y24608134D01*
X30037742Y24666080D01*
X30005276Y24714669D01*
X29979496Y24740449D01*
X29951719Y24794966D01*
X29950500Y24810453D01*
X29950500Y27700501D01*
X29969407Y27758692D01*
X30018907Y27794656D01*
X30049500Y27799501D01*
X30444861Y27799501D01*
X30444864Y27799501D01*
X30469991Y27802415D01*
X30572765Y27847794D01*
X30652206Y27927235D01*
X30697585Y28030009D01*
X30700500Y28055135D01*
X30700499Y29944864D01*
X30697585Y29969991D01*
X30652206Y30072765D01*
X30572765Y30152206D01*
X30469991Y30197585D01*
X30469990Y30197586D01*
X30469988Y30197586D01*
X30444868Y30200500D01*
X28555139Y30200500D01*
X28555136Y30200499D01*
X28530009Y30197586D01*
X28427235Y30152206D01*
X28347794Y30072765D01*
X28302414Y29969989D01*
X28299500Y29944870D01*
X28299500Y29387406D01*
X28280593Y29329215D01*
X28231093Y29293251D01*
X28169907Y29293251D01*
X28120407Y29329215D01*
X28106345Y29356813D01*
X28072547Y29460832D01*
X27986760Y29629199D01*
X27875690Y29782073D01*
X27742073Y29915690D01*
X27589199Y30026760D01*
X27589198Y30026761D01*
X27589196Y30026762D01*
X27420832Y30112547D01*
X27241113Y30170942D01*
X27054484Y30200500D01*
X27054481Y30200500D01*
X26865519Y30200500D01*
X26865516Y30200500D01*
X26678886Y30170942D01*
X26499167Y30112547D01*
X26330803Y30026762D01*
X26177928Y29915691D01*
X26044309Y29782072D01*
X25933238Y29629197D01*
X25847453Y29460833D01*
X25789058Y29281114D01*
X25787781Y29273046D01*
X25760004Y29218529D01*
X25705487Y29190752D01*
X25645055Y29200323D01*
X25601790Y29243588D01*
X25592219Y29273046D01*
X25590941Y29281114D01*
X25587344Y29292185D01*
X25532547Y29460832D01*
X25446760Y29629199D01*
X25335690Y29782073D01*
X25202073Y29915690D01*
X25049199Y30026760D01*
X25049198Y30026761D01*
X25049196Y30026762D01*
X24880832Y30112547D01*
X24701113Y30170942D01*
X24514484Y30200500D01*
X24514481Y30200500D01*
X24325519Y30200500D01*
X24325516Y30200500D01*
X24138886Y30170942D01*
X23959167Y30112547D01*
X23790803Y30026762D01*
X23637928Y29915691D01*
X23504309Y29782072D01*
X23393238Y29629197D01*
X23307453Y29460833D01*
X23249058Y29281114D01*
X23219500Y29094485D01*
X23219500Y28905516D01*
X23249058Y28718887D01*
X23307453Y28539168D01*
X23380433Y28395935D01*
X23393240Y28370801D01*
X23504310Y28217927D01*
X23637927Y28084310D01*
X23790801Y27973240D01*
X23888431Y27923495D01*
X23915445Y27909731D01*
X23958710Y27866466D01*
X23969500Y27821521D01*
X23969500Y24874770D01*
X23950593Y24816579D01*
X23908388Y24783307D01*
X23891877Y24776468D01*
X23891875Y24776467D01*
X23785331Y24705276D01*
X23785327Y24705273D01*
X23694727Y24614673D01*
X23694724Y24614669D01*
X23623538Y24508134D01*
X23623534Y24508126D01*
X23574500Y24389748D01*
X23574499Y24389745D01*
X23574499Y24389744D01*
X23565251Y24343251D01*
X23549500Y24264070D01*
X23549500Y24135928D01*
X23551910Y24123814D01*
X23544718Y24063053D01*
X23503185Y24018123D01*
X23454812Y24005500D01*
X19988852Y24005500D01*
X19930661Y24024407D01*
X19894697Y24073907D01*
X19894697Y24135093D01*
X19897388Y24142386D01*
X19901991Y24153498D01*
X19925501Y24210256D01*
X19947294Y24319816D01*
X19977191Y24373198D01*
X20032756Y24398814D01*
X20044392Y24399500D01*
X20178841Y24399500D01*
X20178842Y24399500D01*
X20333497Y24430263D01*
X20479179Y24490606D01*
X20610289Y24578211D01*
X20721789Y24689711D01*
X20809394Y24820821D01*
X20869737Y24966503D01*
X20900500Y25121158D01*
X20900500Y25278842D01*
X20869737Y25433497D01*
X20837692Y25510862D01*
X20809396Y25579175D01*
X20809390Y25579186D01*
X20772140Y25634933D01*
X20721789Y25710289D01*
X20610289Y25821789D01*
X20558059Y25856688D01*
X20479185Y25909391D01*
X20479174Y25909397D01*
X20333497Y25969737D01*
X20178844Y26000500D01*
X20178842Y26000500D01*
X20021158Y26000500D01*
X20021155Y26000500D01*
X19866503Y25969737D01*
X19866501Y25969737D01*
X19720825Y25909397D01*
X19720814Y25909391D01*
X19589711Y25821789D01*
X19589707Y25821786D01*
X19478214Y25710293D01*
X19478211Y25710289D01*
X19390609Y25579186D01*
X19390603Y25579175D01*
X19330263Y25433499D01*
X19330263Y25433497D01*
X19299500Y25278845D01*
X19299500Y25144393D01*
X19280593Y25086202D01*
X19231093Y25050238D01*
X19219815Y25047296D01*
X19110266Y25025504D01*
X19110252Y25025500D01*
X18991874Y24976466D01*
X18991866Y24976462D01*
X18885331Y24905276D01*
X18885327Y24905273D01*
X18794727Y24814673D01*
X18794724Y24814669D01*
X18723538Y24708134D01*
X18723534Y24708126D01*
X18674500Y24589748D01*
X18674499Y24589745D01*
X18674499Y24589744D01*
X18649500Y24464069D01*
X18649500Y24335931D01*
X18674499Y24210256D01*
X18693603Y24164134D01*
X18702612Y24142386D01*
X18707413Y24081389D01*
X18675444Y24029220D01*
X18618916Y24005805D01*
X18611148Y24005500D01*
X17041008Y24005500D01*
X17026025Y24004912D01*
X17017030Y24004558D01*
X17001505Y24003336D01*
X16994527Y24002706D01*
X16886829Y23970985D01*
X16832319Y23943212D01*
X16832310Y23943206D01*
X16754988Y23887030D01*
X16512962Y23645004D01*
X16496689Y23627400D01*
X16486619Y23615609D01*
X16486600Y23615586D01*
X16482081Y23610169D01*
X16482080Y23610167D01*
X16482073Y23610158D01*
X16428360Y23511591D01*
X16428359Y23511589D01*
X16409451Y23453397D01*
X16394500Y23358996D01*
X16394500Y22051366D01*
X16375593Y21993175D01*
X16326093Y21957211D01*
X16264907Y21957211D01*
X16259181Y21959269D01*
X16181566Y21989877D01*
X16093106Y22000500D01*
X16093102Y22000500D01*
X15831165Y22000500D01*
X15772974Y22019407D01*
X15761161Y22029496D01*
X15455814Y22334843D01*
X15146543Y22644114D01*
X15071893Y22693993D01*
X15031808Y22720777D01*
X14904328Y22773580D01*
X14768996Y22800500D01*
X14768994Y22800500D01*
X14768993Y22800500D01*
X13941315Y22800500D01*
X13883124Y22819407D01*
X13849851Y22861615D01*
X13820775Y22931812D01*
X13816025Y22938921D01*
X13816025Y22938920D01*
X13744114Y23046543D01*
X12246543Y24544114D01*
X12246339Y24544250D01*
X12131808Y24620777D01*
X12004328Y24673580D01*
X11868996Y24700500D01*
X11868994Y24700500D01*
X11868993Y24700500D01*
X10899500Y24700500D01*
X10841309Y24719407D01*
X10805345Y24768907D01*
X10800500Y24799500D01*
X10800500Y25043101D01*
X10800499Y25043107D01*
X10799643Y25050238D01*
X10789877Y25131564D01*
X10736832Y25266077D01*
X10734362Y25272340D01*
X10734361Y25272341D01*
X10734361Y25272342D01*
X10642922Y25392922D01*
X10522342Y25484361D01*
X10522341Y25484362D01*
X10522339Y25484363D01*
X10381565Y25539877D01*
X10293106Y25550500D01*
X10293102Y25550500D01*
X8906898Y25550500D01*
X8906893Y25550500D01*
X8818434Y25539877D01*
X8677660Y25484363D01*
X8677656Y25484360D01*
X8557081Y25392925D01*
X8557075Y25392919D01*
X8465640Y25272344D01*
X8465637Y25272340D01*
X8410123Y25131566D01*
X8399500Y25043107D01*
X8399500Y23831166D01*
X8380593Y23772975D01*
X8370504Y23761162D01*
X6001895Y21392554D01*
X5969777Y21371094D01*
X5820822Y21309395D01*
X5820814Y21309391D01*
X5689711Y21221789D01*
X5689707Y21221786D01*
X5578214Y21110293D01*
X5578211Y21110289D01*
X5490609Y20979186D01*
X5490605Y20979178D01*
X5428906Y20830223D01*
X5407446Y20798105D01*
X3530883Y18921540D01*
X3454223Y18806809D01*
X3401420Y18679330D01*
X3401420Y18679328D01*
X3375023Y18546621D01*
X3375021Y18546611D01*
X3374500Y18543994D01*
X3374500Y18189500D01*
X3355593Y18131309D01*
X3306093Y18095345D01*
X3275500Y18090500D01*
X2280139Y18090500D01*
X2280136Y18090499D01*
X2255009Y18087586D01*
X2152235Y18042206D01*
X2072794Y17962765D01*
X2027414Y17859989D01*
X2024500Y17834870D01*
X2024500Y14245140D01*
X2024501Y14245137D01*
X2027414Y14220010D01*
X2040886Y14189500D01*
X2072794Y14117235D01*
X2152235Y14037794D01*
X2255009Y13992415D01*
X2280135Y13989500D01*
X5376677Y13989501D01*
X5434868Y13970594D01*
X5446681Y13960505D01*
X6165592Y13241594D01*
X6193369Y13187077D01*
X6183798Y13126645D01*
X6140533Y13083380D01*
X6080101Y13073809D01*
X6069970Y13075962D01*
X5978392Y13100500D01*
X3278393Y13100500D01*
X3146608Y13100500D01*
X3086574Y13084414D01*
X3019309Y13066391D01*
X2905190Y13000504D01*
X1984182Y12079496D01*
X1929665Y12051719D01*
X1914178Y12050500D01*
X1495725Y12050500D01*
X1465305Y12047647D01*
X1465296Y12047645D01*
X1337116Y12002793D01*
X1227855Y11922155D01*
X1227845Y11922145D01*
X1147207Y11812884D01*
X1102355Y11684704D01*
X1102353Y11684695D01*
X1099500Y11654275D01*
X300500Y11654275D01*
X300500Y29997227D01*
X300656Y30002778D01*
X306207Y30101628D01*
X306469Y30106291D01*
X1649500Y30106291D01*
X1649500Y29893710D01*
X1682752Y29683762D01*
X1748443Y29481588D01*
X1844948Y29292185D01*
X1844950Y29292181D01*
X1969891Y29120214D01*
X1969893Y29120212D01*
X1969896Y29120208D01*
X2120208Y28969896D01*
X2120211Y28969894D01*
X2120213Y28969892D01*
X2292180Y28844951D01*
X2292184Y28844949D01*
X2481588Y28748443D01*
X2683757Y28682754D01*
X2683758Y28682754D01*
X2683761Y28682753D01*
X2893710Y28649500D01*
X2893713Y28649500D01*
X3106290Y28649500D01*
X3316238Y28682753D01*
X3316239Y28682754D01*
X3316243Y28682754D01*
X3518412Y28748443D01*
X3707816Y28844949D01*
X3715600Y28850604D01*
X3844968Y28944595D01*
X3879792Y28969896D01*
X4030104Y29120208D01*
X4155051Y29292184D01*
X4251557Y29481588D01*
X4317246Y29683757D01*
X4317247Y29683762D01*
X4350500Y29893710D01*
X4350500Y30106291D01*
X4317247Y30316239D01*
X4317246Y30316243D01*
X4251557Y30518412D01*
X4155051Y30707816D01*
X4155049Y30707820D01*
X4030108Y30879787D01*
X4030106Y30879789D01*
X4030104Y30879792D01*
X3879792Y31030104D01*
X3879788Y31030107D01*
X3879786Y31030109D01*
X3707819Y31155050D01*
X3707815Y31155052D01*
X3518412Y31251557D01*
X3316238Y31317248D01*
X3106290Y31350500D01*
X3106287Y31350500D01*
X2893713Y31350500D01*
X2893710Y31350500D01*
X2683761Y31317248D01*
X2481587Y31251557D01*
X2292184Y31155052D01*
X2292180Y31155050D01*
X2120213Y31030109D01*
X1969891Y30879787D01*
X1844950Y30707820D01*
X1844948Y30707816D01*
X1748443Y30518413D01*
X1682752Y30316239D01*
X1649500Y30106291D01*
X306469Y30106291D01*
X317162Y30296704D01*
X318405Y30307730D01*
X319851Y30316239D01*
X367253Y30595229D01*
X369714Y30606015D01*
X450451Y30886258D01*
X454111Y30896717D01*
X565711Y31166142D01*
X570525Y31176137D01*
X575101Y31184416D01*
X711583Y31431364D01*
X717479Y31440747D01*
X886230Y31678579D01*
X893149Y31687255D01*
X1087475Y31904707D01*
X1095293Y31912525D01*
X1312748Y32106854D01*
X1321424Y32113772D01*
X1559253Y32282521D01*
X1568636Y32288417D01*
X1823869Y32429478D01*
X1833858Y32434289D01*
X2103283Y32545889D01*
X2113742Y32549549D01*
X2393985Y32630286D01*
X2404771Y32632747D01*
X2692277Y32681596D01*
X2703296Y32682838D01*
X2997222Y32699345D01*
X3002773Y32699500D01*
X3047595Y32699500D01*
X35511695Y32699500D01*
X35526608Y32694655D01*
G37*
%TD.AperFunction*%
%TD*%
M02*
