%TF.GenerationSoftware,KiCad,Pcbnew,9.0.6*%
%TF.CreationDate,2026-02-05T22:19:04+05:30*%
%TF.ProjectId,Vitalung_V0.1,56697461-6c75-46e6-975f-56302e312e6b,0.1*%
%TF.SameCoordinates,PX7057c40PY68e7780*%
%TF.FileFunction,Paste,Top*%
%TF.FilePolarity,Positive*%
%FSLAX46Y46*%
G04 Gerber Fmt 4.6, Leading zero omitted, Abs format (unit mm)*
G04 Created by KiCad (PCBNEW 9.0.6) date 2026-02-05 22:19:04*
%MOMM*%
%LPD*%
G01*
G04 APERTURE LIST*
G04 Aperture macros list*
%AMRoundRect*
0 Rectangle with rounded corners*
0 $1 Rounding radius*
0 $2 $3 $4 $5 $6 $7 $8 $9 X,Y pos of 4 corners*
0 Add a 4 corners polygon primitive as box body*
4,1,4,$2,$3,$4,$5,$6,$7,$8,$9,$2,$3,0*
0 Add four circle primitives for the rounded corners*
1,1,$1+$1,$2,$3*
1,1,$1+$1,$4,$5*
1,1,$1+$1,$6,$7*
1,1,$1+$1,$8,$9*
0 Add four rect primitives between the rounded corners*
20,1,$1+$1,$2,$3,$4,$5,0*
20,1,$1+$1,$4,$5,$6,$7,0*
20,1,$1+$1,$6,$7,$8,$9,0*
20,1,$1+$1,$8,$9,$2,$3,0*%
G04 Aperture macros list end*
%ADD10RoundRect,0.250000X-0.475000X0.337500X-0.475000X-0.337500X0.475000X-0.337500X0.475000X0.337500X0*%
%ADD11RoundRect,0.237500X0.250000X0.237500X-0.250000X0.237500X-0.250000X-0.237500X0.250000X-0.237500X0*%
%ADD12RoundRect,0.237500X-0.250000X-0.237500X0.250000X-0.237500X0.250000X0.237500X-0.250000X0.237500X0*%
%ADD13RoundRect,0.250000X0.650000X-1.000000X0.650000X1.000000X-0.650000X1.000000X-0.650000X-1.000000X0*%
%ADD14RoundRect,0.250000X-0.350000X-0.450000X0.350000X-0.450000X0.350000X0.450000X-0.350000X0.450000X0*%
%ADD15RoundRect,0.250000X0.337500X0.475000X-0.337500X0.475000X-0.337500X-0.475000X0.337500X-0.475000X0*%
%ADD16RoundRect,0.250000X0.475000X-0.337500X0.475000X0.337500X-0.475000X0.337500X-0.475000X-0.337500X0*%
%ADD17RoundRect,0.150000X-0.512500X-0.150000X0.512500X-0.150000X0.512500X0.150000X-0.512500X0.150000X0*%
%ADD18RoundRect,0.237500X-0.237500X0.300000X-0.237500X-0.300000X0.237500X-0.300000X0.237500X0.300000X0*%
%ADD19RoundRect,0.250001X0.499999X1.549999X-0.499999X1.549999X-0.499999X-1.549999X0.499999X-1.549999X0*%
%ADD20RoundRect,0.237500X0.237500X-0.250000X0.237500X0.250000X-0.237500X0.250000X-0.237500X-0.250000X0*%
%ADD21RoundRect,0.150000X-0.150000X0.587500X-0.150000X-0.587500X0.150000X-0.587500X0.150000X0.587500X0*%
%ADD22RoundRect,0.235000X1.465000X-0.940000X1.465000X0.940000X-1.465000X0.940000X-1.465000X-0.940000X0*%
%ADD23RoundRect,0.237500X0.237500X-0.300000X0.237500X0.300000X-0.237500X0.300000X-0.237500X-0.300000X0*%
%ADD24RoundRect,0.250000X-0.650000X1.000000X-0.650000X-1.000000X0.650000X-1.000000X0.650000X1.000000X0*%
%ADD25RoundRect,0.237500X0.300000X0.237500X-0.300000X0.237500X-0.300000X-0.237500X0.300000X-0.237500X0*%
%ADD26RoundRect,0.150000X0.512500X0.150000X-0.512500X0.150000X-0.512500X-0.150000X0.512500X-0.150000X0*%
%ADD27RoundRect,0.400000X-0.975000X-0.600000X0.975000X-0.600000X0.975000X0.600000X-0.975000X0.600000X0*%
%ADD28RoundRect,0.212500X0.212500X0.212500X-0.212500X0.212500X-0.212500X-0.212500X0.212500X-0.212500X0*%
%ADD29RoundRect,0.075000X0.350000X0.075000X-0.350000X0.075000X-0.350000X-0.075000X0.350000X-0.075000X0*%
%ADD30RoundRect,0.075000X0.075000X0.350000X-0.075000X0.350000X-0.075000X-0.350000X0.075000X-0.350000X0*%
%ADD31RoundRect,0.375000X0.375000X-0.625000X0.375000X0.625000X-0.375000X0.625000X-0.375000X-0.625000X0*%
%ADD32RoundRect,0.500000X1.400000X-0.500000X1.400000X0.500000X-1.400000X0.500000X-1.400000X-0.500000X0*%
G04 APERTURE END LIST*
D10*
%TO.C,C17*%
X41700000Y15137500D03*
X41700000Y13062500D03*
%TD*%
D11*
%TO.C,R18*%
X38550000Y11000000D03*
X36725000Y11000000D03*
%TD*%
D12*
%TO.C,R1*%
X7287500Y13500000D03*
X9112500Y13500000D03*
%TD*%
%TO.C,R11*%
X25237500Y11000000D03*
X27062500Y11000000D03*
%TD*%
D13*
%TO.C,D4*%
X34000000Y16000000D03*
X34000000Y20000000D03*
%TD*%
D10*
%TO.C,C11*%
X77700000Y8537500D03*
X77700000Y6462500D03*
%TD*%
D14*
%TO.C,R9*%
X15700000Y21000000D03*
X17700000Y21000000D03*
%TD*%
D15*
%TO.C,C3*%
X20737500Y9500000D03*
X18662500Y9500000D03*
%TD*%
D16*
%TO.C,C18*%
X32700000Y10962500D03*
X32700000Y13037500D03*
%TD*%
D12*
%TO.C,R2*%
X7287500Y7500000D03*
X9112500Y7500000D03*
%TD*%
D17*
%TO.C,U2*%
X7062500Y11450000D03*
X7062500Y10500000D03*
X7062500Y9550000D03*
X9337500Y9550000D03*
X9337500Y10500000D03*
X9337500Y11450000D03*
%TD*%
D18*
%TO.C,C5*%
X15700000Y17362500D03*
X15700000Y15637500D03*
%TD*%
D19*
%TO.C,L1*%
X40825000Y18700000D03*
X37775000Y18700000D03*
%TD*%
D20*
%TO.C,R6*%
X45700000Y24787500D03*
X45700000Y26612500D03*
%TD*%
D21*
%TO.C,Q2*%
X27100000Y8437500D03*
X25200000Y8437500D03*
X26150000Y6562500D03*
%TD*%
D22*
%TO.C,L2*%
X27300000Y14275000D03*
X27300000Y20325000D03*
%TD*%
D10*
%TO.C,C12*%
X67700000Y8537500D03*
X67700000Y6462500D03*
%TD*%
D20*
%TO.C,R7*%
X45700000Y20687500D03*
X45700000Y22512500D03*
%TD*%
D17*
%TO.C,U10*%
X37062500Y15050000D03*
X37062500Y14100000D03*
X37062500Y13150000D03*
X39337500Y13150000D03*
X39337500Y14100000D03*
X39337500Y15050000D03*
%TD*%
D11*
%TO.C,R4*%
X45612500Y16100000D03*
X43787500Y16100000D03*
%TD*%
%TO.C,R5*%
X27912500Y23600000D03*
X26087500Y23600000D03*
%TD*%
D23*
%TO.C,C14*%
X67900000Y24837500D03*
X67900000Y26562500D03*
%TD*%
D12*
%TO.C,R8*%
X14287500Y12000000D03*
X16112500Y12000000D03*
%TD*%
D10*
%TO.C,C9*%
X13200000Y21537500D03*
X13200000Y19462500D03*
%TD*%
D24*
%TO.C,D3*%
X9600000Y24000000D03*
X9600000Y20000000D03*
%TD*%
D23*
%TO.C,C10*%
X34900000Y11037500D03*
X34900000Y12762500D03*
%TD*%
D11*
%TO.C,R12*%
X16112500Y10000000D03*
X14287500Y10000000D03*
%TD*%
D25*
%TO.C,C4*%
X20562500Y12000000D03*
X18837500Y12000000D03*
%TD*%
D10*
%TO.C,C6*%
X20000000Y22937500D03*
X20000000Y20862500D03*
%TD*%
D26*
%TO.C,Q1*%
X4337500Y9550000D03*
X4337500Y10500000D03*
X4337500Y11450000D03*
X2062500Y11450000D03*
X2062500Y10500000D03*
X2062500Y9550000D03*
%TD*%
D11*
%TO.C,R3*%
X45612500Y18200000D03*
X43787500Y18200000D03*
%TD*%
D27*
%TO.C,U1*%
X48617500Y29900750D03*
X48617500Y27360750D03*
X48617500Y24820750D03*
X48617500Y22280750D03*
X48617500Y19740750D03*
X48617500Y17200750D03*
X48617500Y14660750D03*
X64782500Y14660750D03*
X64782500Y17200750D03*
X64782500Y19740750D03*
X64782500Y22280750D03*
X64782500Y24820750D03*
X64782500Y27360750D03*
X64782500Y29900750D03*
%TD*%
D11*
%TO.C,R19*%
X42050000Y11000000D03*
X40225000Y11000000D03*
%TD*%
D28*
%TO.C,U3*%
X20225000Y15975000D03*
X20225000Y17025000D03*
X19175000Y15975000D03*
X19175000Y17025000D03*
D29*
X21650000Y15525000D03*
X21650000Y16175000D03*
X21650000Y16825000D03*
X21650000Y17475000D03*
D30*
X20675000Y18450000D03*
X20025000Y18450000D03*
X19375000Y18450000D03*
X18725000Y18450000D03*
D29*
X17750000Y17475000D03*
X17750000Y16825000D03*
X17750000Y16175000D03*
X17750000Y15525000D03*
D30*
X18725000Y14550000D03*
X19375000Y14550000D03*
X20025000Y14550000D03*
X20675000Y14550000D03*
%TD*%
D20*
%TO.C,R10*%
X29200000Y9087500D03*
X29200000Y10912500D03*
%TD*%
D18*
%TO.C,C15*%
X67950000Y30662500D03*
X67950000Y28937500D03*
%TD*%
D12*
%TO.C,R13*%
X70387500Y24300000D03*
X72212500Y24300000D03*
%TD*%
D23*
%TO.C,C1*%
X11700000Y9637500D03*
X11700000Y11362500D03*
%TD*%
D18*
%TO.C,C13*%
X43700000Y22462500D03*
X43700000Y20737500D03*
%TD*%
D31*
%TO.C,U4*%
X70400000Y6850000D03*
X72700000Y6850000D03*
D32*
X72700000Y13150000D03*
D31*
X75000000Y6850000D03*
%TD*%
M02*
